<svg xmlns="http://www.w3.org/2000/svg" xmlns:xlink="http://www.w3.org/1999/xlink" viewBox="0 0 29.2 39">
  <use transform="matrix(-.2372 0 0 .2372 36.49 .1258)" xlink:href="#a"/>
  <g id="c" transform="translate(-20.93 .1258) scale(.2372)">
    <g id="a">
      <path fill="#fd0" d="M136.6 37.66h-16.2l.5-36.74 1.42-.21627 1.28 1.2653.6 1.312 1.7.407.8 1.218v2.032l-1.7-.219-1.1.781-.2 1.313 1.5 1.437 1.6-.77.8-1.667h1.1l.9.781.4 1.706 1.7.33.9 2-.7 1.78-1.2.56-1 .06-.9 1.66-2.1.53v-1.72l-.7-1.16-1.4-.06-1.2 1.22.1 2.81.5 1.72 1.9 2.03 3.1.63h3l1.8-.25c.7-.67 1.7-2.36 1.7-2.36"/>
      <path d="M121.03.899c2.19 0 2.57 2.281 2.77 2.572.2.29.9.285 1.2.358.5.155.8.496 1.1.856.2.309.3.766.2 1.798-.1-.039-.6-.259-.9-.224-.4.046-.7.077-1.1.338-.6.373-.7.574-.9 1.009-.2.472-.3 1.207.1 1.658.3.538.3.458.8.806.4.3 1 .47 1.6.35.5-.1.8-.33 1.2-.708.4-.572.7-1.355.7-1.49.6-.157 1.1.254 1.3.557.5.737.5 1.205.5 1.931 1.2-.31 2.5.4 2.5 1.82 0 1.41-1.2 2.2-2.6 1.73 0 1.21-.6 1.81-1.1 2.2-.4.3-.9.26-1.4.26.1-.46.1-.52.1-1.01-.1-.57-.3-1.17-.6-1.45s-.9-.62-1.5-.45c-.5.14-1.3.43-1.6.95-.5.61-.5 1.03-.5 1.79 0 .95.2 1.96.5 2.91s.8 1.61 1.2 2.11c.4.53 1.2.9 2 1.14.7.21 1.5.33 2.7.39s2 .03 2.8 0c.4-.02.6-.028 1.2-.19.4-.108.94-.39 1.4-.82.35-.326.65-.994.7-1.23.05-.235.12-.848.12-.848s-.62.778-.92 1.068c-.3.27-.6.62-.9.79-.7.39-1.3.37-1.9.39-.9.02-2.2 0-3.4-.11-1.3-.11-2.2-.35-2.9-.95-.7-.63-1.1-1.24-1.3-2.02-.5-1.66-.5-2.24-.4-3.13.1-1.05 1.1-1.48 1.5-1.46s.6.22.8.53c.4.76.1 1.45.1 2.21 1.4.35 2 .1 2.6-.28.6-.36 1.2-1.2 1.2-1.73.6.17 1.3-.06 2-.5.4-.32.9-1.26.9-2.14 0-.69-.2-1.36-.4-1.77-.6-.84-1.5-1.013-2.2-1.013 0-1.735-1.9-2.894-3.1-2.545.1.876-.2 1.332-.4 1.612-.2.358-.5.591-.9.71-.6.154-1-.092-1.3-.334-.5-.344-.7-1.196-.2-1.734.3-.371.9-.563 1.2-.503.4.079.8.32 1 .234.3-.085.4-.72.4-.938.3-2.485-1-3.228-2.6-3.546-.5-1.93-2.11-2.828-3.37-2.828"/>
      <circle cx="-2.475" cy="63.16" r="2.121" transform="translate(129.9 -10.62) scale(.6211)"/>
      <path fill="#0098d4" d="M126.9 11.29v2.19h2.2v-2.19z"/>
    </g>
    <use transform="matrix(-1 0 0 1 271 0)" xlink:href="#a"/>
    <g id="d">
      <use xlink:href="#a"/>
      <path fill="#0098d4" stroke="#000" stroke-linejoin="round" stroke-width=".81" d="M135.5 13.5c-2.1 0-2.8 2.33-1.4 3.92-2.1-.63-3.9 1.02-3 2.54 1.1 1.99 3.3 1.02 4.4-.36 1.2 1.56 3.4 2.13 4.4.45 1.1-1.77-.9-3.51-2.9-2.65 1.2-1.56.6-3.9-1.5-3.9z"/>
      <path fill="#ed1c24" stroke="#000" stroke-width=".8094" d="M132 30.79V26.4h7.2v4.39z"/>
    </g>
    <path stroke="#000" stroke-width=".7167" d="M121.1 23.52v-11.9"/>
    <path fill="#ed1c24" d="M120 3.363v2.193h2.2V3.363z"/>
    <path fill="#0098d4" stroke="#000" stroke-width=".8094" d="M121.1 26.28l-3.6 2.32 3.6 2.32 3.5-2.32z"/>
  </g>
  <path fill="#fd0" stroke="#000" stroke-width=".347" d="M.9017 9.086v18.53s.0311 2.14.1203 2.96c.09.81.171 1.96.498 2.86.35.96.669 1.6.992 2.07s.743.96 1.272 1.36c.63.48.881.63 1.332.86.521.28.817.35 1.315.5s1.081.27 1.548.32c.467.06 1.05.09 1.517.12s1.614.06 1.964.06h6.25c.35 0 1.49-.03 1.96-.06s1.05-.06 1.52-.12c.47-.05 1.05-.17 1.55-.32.49-.15.79-.23 1.31-.5.46-.23.7-.38 1.33-.86.53-.4.95-.89 1.28-1.36.32-.47.64-1.11.99-2.07.32-.9.41-2.05.49-2.86.1-.83.13-2.96.13-2.96V9.086"/>
  <use fill="#fff" xlink:href="#b"/>
  <use x="6.83139992" xlink:href="#c"/>
  <use transform="translate(-27.8 .1258) scale(.2372)" xlink:href="#d"/>
  <use transform="matrix(-1 0 0 1 29.17 0)" xlink:href="#e"/>
  <path fill="#0090cf" stroke="#000" stroke-width=".2" d="M14.19 37.98L2.5 9.85l7.299.025 11.58 27.92 1.73-.47 1.75-1 1.34-1.54.65-1.46-25.17-8.29-.067.11 5.135 12.39-1.75-.75-1.206-.97-.821-1.07-.79-1.71-.241-.82 17.36 5.72zm12.66-4.65L17.03 9.92l2.9-.088 7.65 2.518-.03-2.498-3.27.035 3.26 7.853v1.7L1.62 10.88l-.03 7.05 25.96 8.58-.19 4.47-.24 1.51z"/>
  <path d="M28.28 8.272H.84"/>
  <use x="13.663" xlink:href="#c"/>
  <g id="e">
    <ellipse cx="28.25" cy="1.034" fill="#fd0" stroke-width=".4" rx=".617" ry=".706"/>
    <path stroke="#000" stroke-width=".03" d="M28.23.149v.175c.205-.009.336.084.421.163.198.182.264.408.21.678-.083.396-.388.558-.713.558v1.852l.222-.053v-1.6c.216-.062.368-.175.466-.275.308-.315.312-.747.144-1.084-.18-.289-.44-.438-.75-.414z"/>
    <circle cx="26.77" cy="6.909" r=".512" stroke="#fd0" stroke-width=".4"/>
    <path fill="#ED1C24" d="M27.9.918v.52h.52v-.52h-.52z"/>
  </g>
  <g fill="#fd0" stroke="#000">
    <path stroke-width=".3484" d="M.9017 1.723v7.548m27.37 0V1.723"/>
    <path stroke-width=".28" d="M28.27 8.29H.9M28.27 9.073H.9"/>
  </g>
  <g fill="none" stroke="#000" stroke-width=".3019">
    <path id="b" d="M1.614 9.855v17.58s.031 2.02.113 2.8c.085.77.171 1.92.467 2.77.151.45.42 1.17.89 1.92.284.46.673.94 1.175 1.32.597.46.9.64 1.336.84.63.29.864.36 1.338.49.514.13.98.21 1.424.25.482.05.98.07 1.377.09.446.02 1.556.05 1.886.05h5.94c.33 0 1.43-.03 1.88-.05.39-.02.89-.04 1.37-.09.45-.04.91-.12 1.43-.25.47-.13.71-.19 1.34-.49.43-.2.74-.38 1.33-.84.5-.38.89-.86 1.18-1.32.47-.75.73-1.47.89-1.92.3-.85.38-2 .46-2.77.09-.78.12-2.8.12-2.8V9.855z"/>
  </g>
</svg>
