<?xml version="1.0" encoding="UTF-8" standalone="no"?>
<svg
   height="548px"
   width="507px"
   viewBox="-1 -1 507 548"
   version="1.1"
   id="svg1734"
   sodipodi:docname="Coat_of_arms_of_Mecklenburg-Western_Pomerania_(great).svg"
   inkscape:version="1.2 (dc2aedaf03, 2022-05-15)"
   xmlns:inkscape="http://www.inkscape.org/namespaces/inkscape"
   xmlns:sodipodi="http://sodipodi.sourceforge.net/DTD/sodipodi-0.dtd"
   xmlns:xlink="http://www.w3.org/1999/xlink"
   xmlns="http://www.w3.org/2000/svg"
   xmlns:svg="http://www.w3.org/2000/svg">
  <defs
     id="defs1738" />
  <sodipodi:namedview
     id="namedview1736"
     pagecolor="#ffffff"
     bordercolor="#666666"
     borderopacity="1.0"
     inkscape:showpageshadow="2"
     inkscape:pageopacity="0.0"
     inkscape:pagecheckerboard="0"
     inkscape:deskcolor="#d1d1d1"
     showgrid="false"
     inkscape:zoom="64"
     inkscape:cx="295.75"
     inkscape:cy="172.89844"
     inkscape:window-width="1920"
     inkscape:window-height="1058"
     inkscape:window-x="1672"
     inkscape:window-y="-8"
     inkscape:window-maximized="1"
     inkscape:current-layer="svg1734" />
  <path
     d="m252.57 2.892h-249.29v251.95h498.58v91.92c-2.73 79.2-38.54 121.98-101.31 162.36-49.92 32.1-106.11 34.46-147.98 33.96"
     fill="#ffe013"
     id="path1555" />
  <use
     xlink:href="#a"
     transform="translate(235.9 248.6)"
     id="use1557" />
  <g
     id="a">
    <path
       d="m132.79 23.29s-1.17 9.378 7.16 15.691c14.09 8.782 40.98 15.61 46.86 21.72 21.41 15.461 13.37 42.4 13.37 42.4-5.74 13.48-17.69 16.02-17.69 16.02-5.37-1.16-13.42-1.52-13.42-1.52.859-.5 1.14-1.71 1.14-1.71s.12-3.71-3.14-5.03c3.81-6.67 5.36-19.297 5.36-19.297 4.99-.027 6.27-6.429 6.27-6.429s1.1-4.516-2.68-6.428c7.36-5.737 7.34-9.894 7.34-9.894s1.03-4.578-2.47-5.411c-2.02-.346-4.84-1.309-3.96 6.191-1.16.25-.21-5.208-3.27-5.127-7.96 1.485-2.04 7.696-3.14 8.239 0 0-.18-4.571-4.27-3.852-3.69.671-3.2 3.417-3.2 3.417s-21.49-9.874-30.65-17.902c-16.57-15.609.39-31.08.39-31.08zm-24.75 0s-1.12 11.724-7.23 15.65c-10.88 6.782-40.921 15.652-46.78 21.762-21.877 17.305-11.813 43.738-11.813 43.738 5.384 16.06 17.455 15.59 17.455 15.59 5.818-.45 12.748-.45 12.748-.45-1.288-1.73-1.831-3.33-1.831-3.33s-1.289-2.83 3.174-5.4c-3.812-6.66-5.371-19.288-5.371-19.288-5.927-1.905-6.605-6.232-6.605-6.232s-1.505-4.394 2.903-6.408c-7.392-5.689-7.297-10.111-7.297-10.111s-.99-7.358 5.792-6.259c6.05 1.648-.394 6.829 1.289 7.398 2.658-6.944 5.275-4.692 5.696-4.57 4.99 2.38-1.804 7.629-.271 8.558 4.91-10.931 7.948-1.845 7.948-1.845s21.415-9.697 30.593-17.726c16.55-15.609-.4-31.08-.4-31.08z"
       stroke="#111"
       stroke-width="1.183"
       fill="#fff"
       id="path1559" />
    <path
       fill="#111"
       d="m120.09 112.8c-29.944 1-41.4 4.71-46.34 6.61-5.696-1.28-17.659 1.69-17.659 1.69s-10.01 1.22-13.847 6.08c-12.152-2.65-11.908 1.02-11.908 1.02 1.872 23.7 18.12 24.03 18.12 24.03 13.603 2.9 25.741-1.83 25.741-1.83l3.554 19.59-4.896 12.29.895 11.39-20.397 23.23c23.734 4.82 29.28 22.76 29.28 22.76 12.586-12.07 25.297 1.38 25.297 1.38 14.01-10.26 27.95.9 27.95.9 8.96-15.32 29.29-7.73 29.29-7.73 1.62-20.57 19.97-20.5 19.97-20.5-3.57-19.91 12.87-28.69 12.87-28.69s-21.92-9.32-25.29-33.69c26.98 6.98 35.04-9.12 35.04-9.12 3.15-3.73 4-18.22 4-18.22-8.24 4.21-14.65.9-14.65.9-12.43-8.19-29.83-7.01-29.83-7.01s-32.55-5.42-47.19-5.08"
       id="path1561" />
    <g
       fill="none"
       stroke="#111"
       id="g1567">
      <path
         stroke-width=".445"
         d="m120.09 112.8c-29.944 1-41.4 4.71-46.34 6.61-5.696-1.28-17.659 1.69-17.659 1.69s-10.01 1.22-13.847 6.08c-12.152-2.65-11.908 1.02-11.908 1.02 1.872 23.7 18.12 24.03 18.12 24.03 13.603 2.9 25.741-1.83 25.741-1.83l3.554 19.59-4.896 12.29.895 11.39-20.397 23.23c23.734 4.82 29.28 22.76 29.28 22.76 12.586-12.07 25.297 1.38 25.297 1.38 14.01-10.26 27.95.9 27.95.9 8.96-15.32 29.29-7.73 29.29-7.73 1.62-20.57 19.97-20.5 19.97-20.5-3.57-19.91 12.87-28.69 12.87-28.69s-21.92-9.32-25.29-33.69c26.98 6.98 35.04-9.12 35.04-9.12 3.15-3.73 4-18.22 4-18.22-8.24 4.21-14.65.9-14.65.9-12.43-8.19-29.83-7.01-29.83-7.01s-32.55-5.42-47.19-5.08z"
         id="path1563" />
      <path
         stroke-width="1.113"
         d="m70.63 115.89c43.91-14.05 99.41-1.01 99.41-1.01m-100.14-16.495c51.762-13.833 100.94.787 100.94.787m-100.06 3.518c51.751-13.832 98.91.77 98.91.77m-95.93 7.4c46.597-11.16 93.31 0 93.31 0"
         id="path1565" />
    </g>
    <g
       fill="#fff"
       id="g1573">
      <path
         d="m78.6 122.44c2.089-.54 2.862-1.62 2.604 1.59-5.208 12.06-5.737 19.02-5.737 19.02s-1.817 9.09 5.222 13.65c8.341 5.62 8.08 7.67 6.524 7.5.976 3.71-1.831 1.61-1.831 1.61-3.92-4.56-4.693-5.63-6.782-6.17-.258 3.48 0 5.63 1.56 8.85 1.044 1.59 0 3.74 0 3.74s-6.51 4.29-5.737 12.05c.773 13.39 11.732 19.28 11.732 19.28 6.266 7.76 22.441 9.9 22.441 9.9s-9.91 4.55-21.11-3.48c-3.146-2.15-9.887-6.32-14.702-15.3-3.974-11.69-1.261-18.69 2.685-23.79 1.044-.27-.271-9.64-.271-9.64s-9.9-19.82 3.404-38.81"
         id="path1569" />
      <path
         d="m154.65 195.39c-.27-1.33-3-5.63-3-5.63-8.61 6.56-23.08 8.03-23.08 8.03l1.95 7.24c2.35.8 6.08-1.22 6.08-1.22l-1.64-5.21 1.64 5.21c3.05.27 5.92-2.27 5.92-2.27l-2.08-5.34 1.94 5.22s5.14-.94 6.86-2.96c0-.06-2.29-4.68-2.29-4.68l2.34 4.55s3.15-.54 5.36-2.94zm-69.66-.66c.271-1.35 2.998-6.56 2.998-6.56 8.612 6.56 23.08 8.96 23.08 8.96l-1.95 7.23c-2.09.94-6.14-1.1-6.14-1.1l1.7-5.33-1.73 5.39c-2.971.02-5.819-2.44-5.819-2.44l2.088-5.37-2.102 5.41s-4.489-.73-6.659-2.99c-.488-.27 2.238-4.82 2.238-4.82l-2.346 4.56s-3.133-.54-5.357-2.94z"
         stroke="#111"
         stroke-width=".557"
         id="path1571" />
    </g>
    <g
       stroke="#111"
       fill="none"
       stroke-width="1.113"
       id="g1581">
      <path
         d="m66.846 80.37c3.214 2.197 6.89-.163 6.89-.163s-3.445 4.971-3.02 8.599c1.804 6.761 13.901 6.218 13.901 6.218 9.263-1.099 10.321-9.69 10.321-9.69 1.804 8.04 13.616 7.317 13.616 7.317 9.79-.916 12.82-15.502 12.82-15.502s-6.28-4.998-12.34-5.913c6.78-.726 9.1-5.669 9.1-5.669l3.02-8.592 3.11 8.592s2.3 4.943 9.08 5.669c-6.06.916-12.34 5.913-12.34 5.913s2.01 14.403 11.8 15.305c0 0 12.84.916 14.62-7.12 0 0 1.07 9.521 10.34 10.619 0 0 9.56.17 12.39-6.971-.7-5.845-1.52-8.774-1.52-8.774s4.18.691 7.39-1.499m-98.23-6.435l-2.278 3.777s2.699-6.72 7.866-3.486c3.173 6.096-2.509 7.643-2.509 7.643 4.299 1.803 3.743 7.764.203 8.829-3.404 1.044-7.337-1.153-7.337-1.153s2.658 4.03 10.158 3.668c5.357-.196 6.429-5.126 6.429-5.126-9.276-3.845-2.686-10.789 1.058-8.06-3.744-5.303 2.495-7.134 2.495-7.134 6.06.19 4.639 5.859 4.639 5.859 4.405-1.539 8.365 6.585.881 8.239 2.324 4.204 7.854 3.303 7.854 3.303 8.91-.686 8.37-10.986 8.37-10.986s-3.2 9.317-9.62 5.29c-2.32-5.486 1.59-8.219 1.59-8.219-5.69 2.733-8.371-1.139-8.02-5.167 2.128-6.761 7.848-1.973 7.848-1.973s-3.14-5.303.34-7.473c3.79-1.926 6.24.712 6.24.712s-4.07-3.546-1.03-6.652c3.87-2.36 5.79 1.024 5.79 1.024s-5.14-5.221 1.98-10.341c7.14 5.12 1.82 10.247 1.82 10.247s1.8-3.099 5.9-.726c2.82 3.269-1.3 6.449-1.3 6.449s3.5-2.529 6.64-.597c3.6 2.707-.04 7.358-.04 7.358s5.69-5.127 7.83 1.654c.73 4.245-2.31 8.219-8.02 5.486 0 0 3.92 2.733 1.6 8.219-5.9 3.723-9.63-5.29-9.63-5.29s-.27 10.287 8.71 10.856c0 0 5.2 1.031 7.51-3.173-7.47-1.654-3.2-10.07.9-8.239 0 0-1.42-5.669 4.64-5.859 0 0 6.24 1.831 2.5 7.134 3.74-2.733 10.33 4.211 1.07 8.06 0 0 1.8 5.086 6.9 5.377 7.27.305 9.67-3.919 9.67-3.919s-4.34 3.255-7.98.922c-1.98-1.417-3.6-6.768.85-8.599 0 0-7.14-2.184-2.5-8.762 5.17-1.295 7.53 4.957 7.53 4.957"
         id="path1575" />
      <path
         d="m78.6 122.44c2.089-.54 2.862-1.62 2.604 1.59-5.208 12.06-5.737 19.02-5.737 19.02s-1.817 9.09 5.222 13.65c8.341 5.62 8.08 7.67 6.524 7.5.976 3.71-1.831 1.61-1.831 1.61-3.92-4.56-4.693-5.63-6.782-6.17-.258 3.48 0 5.63 1.56 8.85 1.044 1.59 0 3.74 0 3.74s-6.51 4.29-5.737 12.05c.773 13.39 11.732 19.28 11.732 19.28 6.266 7.76 22.441 9.9 22.441 9.9s-9.91 4.55-21.11-3.48c-3.146-2.15-9.887-6.32-14.702-15.3-3.974-11.69-1.261-18.69 2.685-23.79 1.044-.27-.271-9.64-.271-9.64s-9.9-19.82 3.404-38.81z"
         id="path1577" />
      <ellipse
         cy="69.9105"
         rx="4.0999999"
         ry="6.3779998"
         cx="121.11"
         id="ellipse1579" />
    </g>
    <path
       d="m114.19 192.16c-7.47 23.41-1.54 28-1.54 28 3.21 3.1 7.28 2.82 7.28 2.82 7.55.7 8.83-5.31 8.83-5.31 2.32-6.95-1.9-24.6-1.9-24.6h-4.28l-1.43 19.03c-.89 1.46-.54 1.63-1.97.36 1.08-17.02.17-19.39.17-19.39s-1.96-.18-5.16-.91zm41.92 1.72c2.32-6.23-2.34-3.92-3.06-9.22-7.31 8.77-24.41 8.59-24.41 8.59s1.77 5.67 22.09-4.02c4.94-2.03 5.38 4.65 5.38 4.65zm-73.64.11c-1.953-1.29 5.71-8.98 6.415-14.28.814 2.65 4.15 11.04 23.16 12.26-.95.89-3.2 5.13-22.799-4.94-3.566-1.28-5.181 5.86-5.181 5.86l-1.6 1.1z"
       stroke="#ed1c24"
       stroke-width=".891"
       fill="#ed1c24"
       id="path1583" />
    <g
       stroke="#111"
       stroke-width=".84"
       fill="none"
       id="g1601">
      <ellipse
         cy="102.43"
         rx="2.793"
         ry="2.793"
         cx="139.13"
         id="ellipse1585" />
      <ellipse
         cy="106.02"
         rx="2.793"
         ry="2.793"
         cx="163.25"
         id="ellipse1587" />
      <ellipse
         cy="101.57"
         rx="2.793"
         ry="2.793"
         cx="114.8"
         id="ellipse1589" />
      <ellipse
         cy="103.15"
         rx="2.793"
         ry="2.793"
         cx="91.48"
         id="ellipse1591" />
      <rect
         ry="2.93"
         rx="3.084"
         transform="matrix(.99887 .047477 -.047477 .99887 0 0)"
         width="13.66"
         height="5.86"
         y="92.46"
         x="124.81"
         id="rect1593" />
      <rect
         transform="rotate(8.2)"
         rx="3.396"
         ry="2.93"
         width="13.66"
         height="5.86"
         y="78.2"
         x="157.45"
         id="rect1595" />
      <rect
         transform="rotate(-4)"
         rx="3.369"
         ry="2.93"
         width="13.66"
         height="5.86"
         y="105.89"
         x="88.59"
         id="rect1597" />
      <rect
         ry="2.93"
         rx="3.177"
         transform="rotate(-10.8)"
         width="13.66"
         height="5.86"
         y="115.13"
         x="52.23"
         id="rect1599" />
    </g>
    <g
       fill="#ffe013"
       stroke="#111"
       stroke-width="1.113"
       id="g1607">
      <path
         d="m178.32 87.37c1.56-3.14.99-7.568-1.91-8.226-1.5-.333-3.82 1.268-5.38 4.408-1.56 3.133-1.2 6.537.82 7.595 2.01 1.052 4.91-.637 6.47-3.777z"
         id="path1603" />
      <path
         d="m62.48 87.13c-1.586-3.181-1.329-6.578.597-7.582 1.912-.997 4.747.78 6.333 3.96 1.573 3.18 1.315 6.564-.597 7.567-1.925.999-4.76-.765-6.333-3.945z"
         id="path1605" />
    </g>
    <path
       fill="#fff"
       d="m175.4 171.7c8.6 9.35 14.85 12.32 14.85 12.32-4.14 9.61-8.61 15.24-8.61 15.24s-3.72-.3 0-7.48c1.31.26 5.19-6.75 5.19-6.75s-9.22-3.74-11.43-13.33m-90.27 58.9c7.825-6.7 14.335-1.07 14.335-1.07l1.577 1.87c-7.313-2.94-15.912-.8-15.912-.8m66.782-17.14c4.69 7.23 9.91 10.44 9.91 10.44s3.4-8.02 8.09-7.76c.27 1.61-5.74 10.71-5.74 10.71l-2.6 1.06s-8.62-5.08-10.7-10.71c-1.31-2.41 1.04-3.74 1.04-3.74m15.91-24.36s3.66 13.38 12.27 20.61c-2.48 1.41-8.84-.7-12.75-13.54-1.04-5.89.48-7.07.48-7.07m-35.48 33.47c-.23 5.58-.77 8.83-.77 8.83 1.04 7.22 2.86 4.82 2.86 4.82s.83-7.96.3-12.3c-.49-2.85-2.39-1.35-2.39-1.35m-25.04 14.18s.78-4.82 16.96-4.54c4.69.26 2.08 1.87 2.08 1.87s-13.3-.54-17.99 4.02c-1.05-.54-1.05-1.35-1.05-1.35m30.52-3.47c1.83-5.63 12.79-6.43 12.79-6.43 2.6.8 0 2.68 0 2.68s-7.04.26-10.7 4.01c-2.88 2.4-2.09-.26-2.09-.26m-33.39-.28s-.26-4.82 1.04-8.84c.53-3.75 2.88-4 2.88-4l-.53 9.37c-.52 7.22-3.39 3.47-3.39 3.47m-16.942-19s-5.222 7.76-5.222 14.98c.244 2.42 3.12-.52 3.12-.52 5.479-10.71 2.102-14.46 2.102-14.46m-18.798-10.18c-11.731 10.71-8.612 12.06-8.612 12.06 8.883 0 13.576 4.53 13.576 4.53v-2.13s-3.146-5.89-10.429-4.83c6.238-6.69 5.465-9.63 5.465-9.63m91.83-78.44c-.27-3.48 2.61-2.68 2.61-2.68 10.7 4.55 8.08 38.01 8.08 38.01-1.3 9.11-5.48 14.74-5.48 14.74-1.3 2.13-1.3 21.15-1.3 21.15-2.61 12.58-28.17 17.12-28.17 17.12-2.62-.53 0-2.67 0-2.67 20.08-5.35 22.16-11.25 22.16-11.25 4.18-2.68 1.3-23.55 3.68-27.3 5.2-4.29 6.76-15.26 6.76-15.26s-3.13 3.75-4.43 2.4c2.09-3.21 2.35-8.29 2.35-8.29s3.4-17.94-6.26-25.97m-48.27 9.36c3.67-1.07 2.86 3.22 2.86 3.22 0 10.44-8.34 19.54-8.34 19.54 9.66 1.08 13.84 2.95 13.84 2.95s-1.05 1.61-15.14.26c-3.39.81-8.557 2.31-10.429 10.97-.326 3.42-.868 7.61 4.421 10.72 20.878 8.03 39.4 3.21 39.4 3.21 5.48-1.33 8.72-2.3 11.65-5.75 1.33-1.82 3.45-11.81-3.33-16.25-6.26-3.39-15.37-2.36-15.37-2.36l1.31-2.14c3.67-1.87 9.66 0 9.66 0l-2.09-5.36-1.56-3.75 2.35-.8c3.65 8.57 10.96 13.67 10.96 13.67 1.81 4.01 4.16 10.43 2.07 17.12-4.17 10.71-29.47 11.51-29.47 11.51s-28.56-1.13-32.737-10.5c-1.573-2.68-2.224-15.73 6.917-21.36 2.35-1.87 14.08-10.71 13.03-24.9m23.28 3.74c6.44-9.3 18.6-5.63 18.6-5.63s2.16 1.47.49 3.18c-5.49-1.96-8.35.25-8.35.25s.36 2.83-1.69 3.44c-.001-.02-2.4.7-3.32-1.73-1.19.74-4.78 2.21-5.73.49m-49.845-2.2c10.958-7.35 21.465-.73 21.465-.73l-6.45.97s-.721 2.95-3.338 2.95c-2.374-.25-2.143-2.95-2.143-2.95-2.387-2.2-8.585 1.47-9.534-.24m3.322-8.57s3.35-2.94 14.323-.73c8.34 1.22 12.64-1.96 12.64-1.96s1.68 4.17-7.88 5.39c-3.34-.99-10.01-2.7-14.295 0-6.456-.99-4.788-2.7-4.788-2.7m50.823 13.23s.35 4.34 7.27 2.87c3.72-1.33 5.12-6.05 5.12-6.05s1.91.37 1.89 2.74c-.6 4.15-5.51 6.09-5.51 6.09s-9.97 3.89-13.07-4.19c1.2-2.2 4.3-1.46 4.3-1.46m-47.23-2.61c3.825 11.01 11.439.49 11.439.49 1.43-1.95 3.82-.34 3.82-.34s-3.38 10.62-13.604 7.84c-4.191-1.4-5.913-6.1-5.913-6.1s-.434-3.2 4.258-1.89m100.65.4c6.45-.74 7.65 1.96 7.65 1.96l-2.86.25-4.79-2.21m-9.78.25c7.88.48 10.02 4.15 10.02 4.15s-6.91.5-9.06-2.19c.25.97-.96-1.96-.96-1.96m-9.3-1.73c7.16 2.7 8.84 6.38 8.84 6.38l-5.72-.98c-.001 0-4.06-2.45-3.12-5.4m-1.43-4.88l8.59 2.44c7.89 1.21 14.78-.48 14.78-.48l7.65-1.96c1.91 1.71-4.36 3.97-7.88 4.65-.12.02-9.44 1.6-17.79-.12-5.25-.98-5.35-4.53-5.35-4.53m-113.31 6.55c-1.899-1.42 6.917-4.85 6.917-4.85 2.156.49 2.156-.48.244 2.21-1.912.74-5 2.45-5 2.45l-2.157.19m-8.097-1.67c-.488-1.22 4.299-2.93 4.299-2.93s4.761-1.47 5.479 0c1.18-.48-10.266 5.14-9.778 2.93m-2.387-2.44l-10.497 1.96c-.963 1.71 1.668 1.71 1.668 1.71 11.216-1.23 8.829-3.67 8.829-3.67m-12.641-1.96c3.567-.25 5.235-.99 5.235-.99l6.212-1.45s23.14-2.7 25.28-.74c.475 1.23-1.912 2.7-1.912 2.7s-9.779-1.23-17.645.23c-4.055 0-7.147.74-7.147.74s-10.02 1.72-10.02-.49m96.85-7.59c2.02 1.59 6.38 2.07 6.38 2.07l13.65.38 4.54.97-1.67 1.23s-12.4.98-18.84-.24c-2.4-.48-4.06-1.22-4.06-1.22s-3.1-1.96 0-3.19m1.02 53.94c-2.6-6.17 3.32-9.61 3.32-9.61 3.23-2 6.85-.31 6.85-.31 4.95 2.68 1.05 7.5 1.05 7.5-3.39 4.01-4.44-.26-4.44-.26s3.16-.52 1.83-3.49c-1.54-1.97-3.62-.55-3.62-.55s-2.9 1.89-1.6 5.1c0 2.41-3.39 1.62-3.39 1.62m-34.435-8.58c-1.302-1.87 1.575-2.94 1.575-2.94 4.95-.8 8.75 4.4 8.75 4.4 2.97 4.11-1.94 7.7-3.88 7.66-5.47-.38-2.52-5.64-2.52-5.64 1.3 2.68 2.86 2.15 2.86 2.15 3.05-1.86-1.6-5.83-6.785-5.63"
       id="path1609" />
  </g>
  <path
     fill="#fff"
     d="m252.31 2.872h249.49v252.11h-498.96l.005 88.09c.855 86.08 39.3 126.95 104.86 167.53 49.16 30.42 102.75 32.35 144.61 31.84z"
     id="path1612" />
  <path
     fill="#ed1c24"
     d="m303.25 87.56c-1.79-2.834-8-9.649-9.37-11.358-1.34-1.723-3.25-3.391-4.2-2.97-.95.414-1.55 2.496-2.08 3.967-.54 1.485-1.53 2.489-.77 3.92.77 1.417.96 2.706-.23 3.356-1.18.658-1.78-.346-1.9-.943-.12-.596-2.25-2-3.78-2.889-1.56-.888-3.56-.597-3.56-.597s.29-2.068.78-3.079c.47-1 2.78-.889 3.36-1 .6-.123 1.6-.956 2.32-1.96.7-1.01.64-2.082.95-2.848.28-.772 1.35-1.831 1.23-2.957-.11-1.139-1.9-2.01-3.2-2.305-1.3-.306-2.37.712-3.92-.068-1.53-.759-1.4-2.36-2.47-3.085-1.07-.705-2.14.075-2.9.312-.77.23-1.72-.128-2.32-1.125-.6-1.017.31-3.14.31-3.14s1.24.237 1.84 0c.59-.237 1.18-2.319 1-3.269-.18-.942.6-1.776 1.3-1.661.71.122 1.53 2.082 2.67 3.675 1.13 1.601 3.84 3.323 5.25 4.103 1.44.759 2.56.292 2.56.292s.24-1.254-.47-2.903c-.71-1.668-2.09-1.254-2.73-2.434-.65-1.193.18-1.777-.06-3.262-.23-1.485-1.24-1.763-2.9-3.432-1.66-1.654-1.42-1.593-1.31-3.194.12-1.614 1.02-.888 1.67-.719.65.176 1.83.719 2.54.888.7.177 1.01-.766 1.38-1.708.34-.963 1.36-2.143 1.36-2.143s1.77-.108 2.19.834c.41.942.29 3.736.29 6.225 0 2.482 2.42 6.151 2.42 6.151s1.2.292 2.08.292c.9 0 2.41-.651 3.13-2.251.72-1.594.19-3.777.19-5.445 0-1.648 1.71-2.01 1.71-2.01s1.25 2.977 1.83 4.03c.6 1.071 1.48 1.546 2.61 1.838 1.14.292 2.09.468 2.09.468s.58.237 1 .834c.4.597-.48 2.197-1.95 2.719-1.48.542-1.9-.881-3.45-.23-1.53.651-1.06 2.482-.83 3.208.23.705-.23 1.125-1.83 2.482-1.6 1.363-2.19 3.505-2.37 5.459-.19 1.946 4.15 6.442 5.93 8.462 1.77 2.01 9.65 8.341 9.65 8.341s.53-.705 1.31-2.123c.75-1.404 2.67-1.96 3.43-1.831.77.108.12 2.319.06 3.845s1.66 3.323 3.26 5.33c1.59 2.02 5.98 6.7 5.98 6.7s4.2-2.963 5.68-4.333c1.48-1.363 6.63-4.32 10.32-6.463 3.68-2.122 5.07-3.777 5.13-5.676.08-1.892-2.36-7.296-3.19-8.53-.83-1.248-1.11-4.266-1.71-6.219-.59-1.946-3.67-21.08-3.67-21.08s2.07-1.852 3.02-2.197c.94-.36 3.55-.651 3.55-.651s1.06-3.858 2.36-5.987c1.31-2.109 4.52-1.886 6.04-2.666 1.55-.766 1.91-.766 2.85-.291.96.475-1.18 2.305-1.95 3.261-.76.95-.71 4.374-.59 4.198.12-.183.53-2.665 6.54-4.638 6.02-1.974 10.24-1.499 12.31-1.125 2.06.373 3.02 1.315 2.64 1.79-.37.461-2.07.461-2.73 1.03-.67.556-2.63 3.01-4.8 4.218-2.16 1.221-6.32 2.387-6.5 4.557s.18 3.472 1.17 4.319c1 .861 1.86 3.085 2.34 4.611.51 1.539 2.28 4.51 3.78 5.01 1.47.488 2.95.847 3.34-.136.41-1 .37-1.546.82-1.851.45-.318 2.17.448 1.95 1.668-.22 1.207-.46 3.234-2.03 4.136-1.59.902-3.57 1.546-4.38 1.546-.8 0-1.35 1.54-.26 3.065 1.07 1.546 1.92 2.753 3.59 3.248 1.67.502 2.91.143 2.99.502.09.366.08 3.377-.91 4.238-.99.848-3.07.664-3.75.488-.66-.183-1.62-.767-1.62-.767s-1.75 5.445-.08 7.568c1.66 2.143 3.56 2.597 6.08.793 2.54-1.824 5.23-4.082 6.56-6.02 1.3-1.946 4.04-6.483 5.39-7.527s2.21-1.044 2.85-.4c.63.624.16 1.844-.19 2.651-.36.821 4.21-2.333 5.06-3.472.86-1.125 5.55-7.263 7.12-10.599 1.57-3.33 5.15-10.911 6.01-15.427.87-4.503 1.45-8.348 1.41-9.711-.07-1.342.29-3.092 1.63-3.858 1.37-.767 4.31-.956 5.71.529 1.39 1.485 3.67 4.442 3.51 10.02-.14 5.141-1.57 8.185-2.3 10.769-.72 2.584-3.33 9.745-3.33 9.745s2.44-1.221 8.98-9.928c6.52-8.694 8.91-13.01 10-14.512 1.08-1.499 2.99-2.943 4.66-2.529 1.67.399 2.24 2.475 2.2 7.303-.03 4.598-1.61 8.708-4.4 14.851-2.8 6.123-7.09 12.382-9.21 15.319-2.11 2.929-7.41 9.188-9.8 11.772-2.39 2.583-4.78 5.513-4.42 5.92.36.4 1.31.488 11.84-7.127 10.5-7.623 16.23-13.176 19.7-17.15 3.48-3.96 8.17-8.836 9.93-9.738 1.75-.888 2.69.963 2.74 3.791.04 2.848-.08 9.711-1.76 12.945-1.67 3.249-6.02 7.684-12.64 12.959-5.73 4.558-12.13 10.667-16.01 13.427-3.88 2.77-7.27 5.7-7.08 6 .18.32 5.23-1.4 14.7-6.76 9.48-5.377 16.96-10.999 16.96-10.999s2.66 1.023 2.29 6.299c-.35 5.283-4.3 11.77-12.97 17.1-8.66 5.33-18.14 9.43-22.2 10.78-4.05 1.35-9.96 2.8-9.96 2.8s1.49 3.33 6.53 3.6c5.05.28 9.27-.45 11.41-1.45 2.17-.98 3.67-1.97 5.29-1.16 1.61.82 1.11 3.09.71 4.92-.4 1.81-3.79 10.59-10.97 12.44-7.16 1.84-13.21-.73-15.01-1.89-1.8-1.17-5.64-1.81-5.82-1.45-.16.37 2.82 5.48 7.46 9.17 4.64 3.7 11.72 8.21 16.91 10.96 5.18 2.73 11.55 4.23 12.09 5.63.53 1.41.48 2.98-3.22 5.1-3.69 2.11-10.47 4.46-18.17 1.99-7.7-2.49-15.11-8.44-19.53-13.18-4.41-4.74-9.11-11.17-10.01-11.5-.91-.32-.77 1-.14 2.49.63 1.48 2.66 6.74 1.81 9.96-.87 3.22-1.81 4.02-1.81 4.02s4.29 5.64 6.38 8.33c2.06 2.71 3.15 3.42 5.57 5.1 2.43 1.68 10.8 5.33 16.78 6.68 6.01 1.36 20.34 3.89 26.35-2.25 6-6.14 5.32-10.27 3.83-16.63-1.48-6.38.86-8.91 2.4-11.29 1.52-2.4 2.7-4.31 2.46-6.35-.23-2.04-1.07-3.35-1.07-4.21s.71-1.53 2.25-1.49c1.52.04 2.66.86 4.33.68s3.66-1.94 5.02-3.79c1.34-1.84 4.1-4.1 5.44-4.92 1.37-.8 1.89-1.16 2.03-1.79.27-1.19.27-3.26-.62-3.62-.91-.37-1.45 1.26-2.54 1.08-1.07-.18-1.34-2.48.37-3.61 1.71-1.12 4.43-1.44 6.14-.49 1.73.95 4.23 4.48 2.85 9.2-1.41 4.73-5.74 7.3-6.78 9.74-1.03 2.44-1.34 4.48-1.34 4.48s2.34-.68 4.15-.18c1.8.48 2.93 2.57 2.93 3.96 0 1.4.13 2.61-.87 2.84-.98.23-3.34-.54-4.95.32-1.63.85-5.43 4.96-6.86 9.61-1.46 4.64-3.19 9.48-5.77 13.4-2.57 3.92-5.86 7.7-12.85 10.41-7 2.71-19.05 2.93-27.4.76-8.33-2.16-16.18-5.76-17.67-6.48-1.49-.73-4.78-2.61-4.78-2.61s-.44 10.87.6 13.93c1.02 3.06 4.72 7.66 7.03 10.19 2.29 2.51 6.22 5.5 6.66 8.44.46 2.92-.63 3.34-1.17 4.94-.54 1.63-.54 3.58-2.48 5.38-1.93 1.79-4.33 1.21-4.33 1.21s.73 1.28.37 2.69c-.37 1.38-1.05 1.74-1.81 1.26-.76-.51-2.24-3.48-4.27-1.95-2.05 1.53-1.97 2.75-2.01 3.74-.04 1-1 1.58-2.34 1.4-1.35-.18-3.26.13-1.4 2.16s2.98 3.5 2.26 5.37c-.73 1.86-2.88 2.58-2.88 2.58s.39-3.89-2-3.8c-2.38.09-3.05.98-3.47 2.34-.41 1.37-.3 3.08-.3 3.08s-3.37.63-4.11-.76c-.73-1.4-.27-3.58.94-4.89 1.22-1.31 1.3-2.43.6-2.71-.72-.26-2.36.91-3.58 2.27-1.21 1.35-3.24.99-3.24.99s.58 2.58-1.48 3.88c-2.09 1.31-2.85-.36-4.11-.72-1.25-.36-2.04-1.68-1.25-2.54.76-.85 2.74-1.61 2.24-3.42-.49-1.8-2.12-3.02-3.2-3.2-1.09-.17-2.3-.23-2.3-.23s.04-2.43 1.58-3.69c1.53-1.27 2.7-2.25 2.7-2.25s-.67-2-.55-2.99c.15-1 1.01-1.4 2.4-1.9 1.4-.49 2.31-1.44 2.61-2.93.32-1.48.09-3.33.09-3.33s3.08-.59 4.25.46c1.16 1.02 1.12 2.47.98 4.05-.13 1.57-.13 2.97-.13 2.97s3.3.19 4.34-.5c1.03-.66 1.58-3.01 2.66-4.23 1.07-1.21 2.62-2.29 2.29-4.46-.31-2.17-.8-3.71-2.79-5.05-1.98-1.37-3.74-2.93-4.23-3.8-.5-.86-1.28-1.04-2.05-.18-.76.86-2.66 3.56-6.84 3.2-4.2-.36-5.73-3.16-5.73-3.16s2.66-1.52 3.06-3.15c.41-1.62.55-4.61-.68-7.81-1.2-3.2-1.39-4.77-1.53-8.6-.13-3.84-.17-6.13-.17-6.13s-10.83-.1-17.36 2.75c-6.56 2.84-8.13 5.81-8.13 8.06 0 2.26.75 5.14 3.77 7.95 3.05 2.79 3.82 3.83 3.68 6.03-.14 2.21-.38 3.79-2.46 3.83-2.06.04-3.1.85-3.96 1.85-.85 1-2.66 2.54-3.29 2.8-.63.28-.72.42-1.13 1.55-.4 1.13-1.75 1.62-1.75 1.62s-1.88-2.67-3.69-2.31c-1.83.37-2.68.69-2.55 1.82.14 1.12.33 1.98.33 1.98s-2.54-.46-4.52-.24c-1.98.24-3.47.96-4.32.87-.86-.09-1.66.67-1.31 2.2.36 1.53 1.44 2.87.86 4.69-.59 1.81-2.24 2.09-3.66 1.81-1.4-.26-3.33-.4-3.33-.4s2.47-2.13.8-3.85c-1.66-1.71-3.97-.62-4.73.14-.77.76-1.99 1.89-1.99 1.89s-1.81-.94-1.3-3.15c.5-2.21 1.26-3.24 2.92-4.38 1.67-1.12 2.26-2.74.59-2.65-1.67.08-5.39.86-7.57.72s-3.48-1.58-3.97-2.03c-.51-.45-.31-.99-.31-.99s2.98.47 3.91-1.53c.95-2 1.28-2.77-.13-3.93-1.38-1.18-2.31-1.91-2.31-1.91s1.1-2.55 3.14-2.47c2.02.1 3.37 1.81 5.43 2.35 2.09.54 3.26.26 3.26.26s.76-1.84 0-2.65c-.77-.82-2.5.09-3.74-.72-1.26-.82-3.48-3.6-2.35-5.18 1.13-1.6 2.62-1.73 2.62-1.73s2.19 3.17 3.86 2.13 3.26-2.58 3.39-3.08c.12-.49.59-.99.59-.99s2.8.06 3.48 3.07c.67 3.03-.23 7.63-.23 7.63s2.21.49 4.82-.37c2.63-.85 6.22-1.98 6.82-2.74.58-.77.36-2.76-1.22-3.98-1.59-1.21-6.72-4.77-7.9-7.4-1.16-2.61-2-7.29-4.85-8.69-2.86-1.42-5.29-1.24-7.87-1.14-2.56.08-7.48-1.58-8.71-4.01-1.22-2.44-1.04-3.48-1.04-3.48s2.94 1.85 4.26 1c1.3-.86 2.75-3.17 5.95-3.93s8.44-.12 8.44-.12 1.6-4.71 9.29-7.14c7.66-2.43 15.88-1.44 21.29-.14s7.67 1.48 9.39 1.4c1.71-.1 4.45-.54 4.45-.54s-5.67-6.22-9.25-10.23c-3.56-4.02-7.22-7.59-7.22-7.59s-2.03.18-5.4 1.17c-3.39 1-6.74.54-10.91.32-4.21-.22-6.55-.59-8.79.64-2.25 1.21-3.42 2.16-4.17 3.25-.73 1.08-3.88-1.28-2.98-3.75.91-2.49 2.25-3.83 2.25-3.83s-6.26.72-9.82 1.03-7.79-.29-6.74 4.6c1.09 4.88 4.9 5.02 6.2 5.24s1.59 1.67 1.45 2.35c-.15.66-.19.9-.19.9s-2.52-.6-4.23.44c-1.72 1.05-1.67 2.31-1.67 2.31s-1.91.41-2.57-.82c-.7-1.21.21-2.43.8-3.2.58-.76.17-.94-.55-.94-.71 0-2.49-.24-2.64-1.26-.23-1.45 1.17-3.03-.04-3.7-1.23-.67-3.26.09-3.72 1.61-.45 1.55-1.49 4.08-2.33 4.16-.86.09-2.56-.69-2.81-.14-.21.54-.45 2.39-.3 3.65.14 1.26-.84 2.39-1.87 2.21s-1.44-1.63-1.44-1.63.91-2.29.26-3.69c-.62-1.39-2.43-1.35-2.43-1.35s-.76-1.85.09-2.43c.86-.58 2.31.18 3.63-.32 1.3-.5 5.09-3.56 6.31-4.43 1.22-.86 2.03-2.11 1.49-2.25s-2.85.99-4.65.54c-1.79-.46-2.24-1.54-3.01-1.72-.78-.18-1.6.54-2.05 1.5-.44.94-2.25 1.25-3.32.23-.6-.59-.95-2.63-.95-2.63s1.38-.63 1.16-2.43c-.21-1.81-1.16-2.69-.54-3.33.62-.63 1.3-.94 2.02-.58.73.36 1.49 1.66 2.44 2.7.94 1.03 1.86.89 2.63.27.78-.63.71-2.39-.23-2.8-.95-.4-2.71-1.48-2.04-2.3.67-.8 1.56-.61 1.73-1.57.19-.96-.69-2.62-1.78-3.13-1.08-.49-2.1-1.88-1.55-2.78.51-.91 2.23-.91 2.23-.91s2.5.5 4.08.5c1.56 0 1.93-.28 2.83.08.9.37 1.41 2.04.65 3.11-.78 1.09-2.46 2.23-2 3.67.45 1.45 2.3 6.27 2.3 6.27s5.73-.65 10.64-1.23c4.92-.58 11.77-2.16 11.77-2.16s-2.66-2.27-2.87-4.2c-.25-1.94-.29-3.21.62-3.1.9.08 1.42 1.11 3.34 1.44 1.9.3 4.74.3 7 .04 2.95-.35 4.05-1.76 4.05-1.76s-3.38-3.7-3.92-6.17c-.54-2.49-.17-9.17-.17-9.17s-4.07-4.95-7-7.2c-2.93-2.27-4.52-2.98-6.51-2.53-1.97.44-2.55 1.58-3.05.72-.51-.86-.64-3.17 1.08-4.872 1.71-1.722 5.55-3.709 5.55-3.709s-1.7-3.118-3.48-5.967"
     id="path1614" />
  <g
     stroke="#111"
     stroke-width="1.183"
     id="g1620">
    <path
       fill="none"
       d="m 303.25,87.56 c -1.79,-2.834 -8,-9.649 -9.37,-11.358 -1.34,-1.723 -3.25,-3.391 -4.2,-2.97 -0.95,0.414 -1.55,2.496 -2.08,3.967 -0.54,1.485 -1.53,2.489 -0.77,3.92 0.77,1.417 0.96,2.706 -0.23,3.356 -1.18,0.658 -1.78,-0.346 -1.9,-0.943 -0.12,-0.596 -2.25,-2 -3.78,-2.889 -1.56,-0.888 -3.56,-0.597 -3.56,-0.597 0,0 0.29,-2.068 0.78,-3.079 0.47,-1 2.78,-0.889 3.36,-1 0.6,-0.123 1.6,-0.956 2.32,-1.96 0.7,-1.01 0.64,-2.082 0.95,-2.848 0.28,-0.772 1.35,-1.831 1.23,-2.957 -0.11,-1.139 -1.9,-2.01 -3.2,-2.305 -1.3,-0.306 -2.37,0.712 -3.92,-0.068 -1.53,-0.759 -1.4,-2.36 -2.47,-3.085 -1.07,-0.705 -2.14,0.075 -2.9,0.312 -0.77,0.23 -1.72,-0.128 -2.32,-1.125 -0.6,-1.017 0.31,-3.14 0.31,-3.14 0,0 1.24,0.237 1.84,0 0.59,-0.237 1.18,-2.319 1,-3.269 -0.18,-0.942 0.6,-1.776 1.3,-1.661 0.71,0.122 1.53,2.082 2.67,3.675 1.13,1.601 3.84,3.323 5.25,4.103 1.44,0.759 2.56,0.292 2.56,0.292 0,0 0.24,-1.254 -0.47,-2.903 -0.71,-1.668 -2.09,-1.254 -2.73,-2.434 -0.65,-1.193 0.18,-1.777 -0.06,-3.262 -0.23,-1.485 -1.24,-1.763 -2.9,-3.432 -1.66,-1.654 -1.42,-1.593 -1.31,-3.194 0.12,-1.614 1.02,-0.888 1.67,-0.719 0.65,0.176 1.83,0.719 2.54,0.888 0.7,0.177 1.01,-0.766 1.38,-1.708 0.34,-0.963 1.36,-2.143 1.36,-2.143 0,0 1.77,-0.108 2.19,0.834 0.41,0.942 0.29,3.736 0.29,6.225 0,2.482 2.42,6.151 2.42,6.151 0,0 1.2,0.292 2.08,0.292 0.9,0 2.41,-0.651 3.13,-2.251 0.72,-1.594 0.19,-3.777 0.19,-5.445 0,-1.648 1.71,-2.01 1.71,-2.01 0,0 1.25,2.977 1.83,4.03 0.6,1.071 1.48,1.546 2.61,1.838 1.14,0.292 2.09,0.468 2.09,0.468 0,0 0.58,0.237 1,0.834 0.4,0.597 -0.48,2.197 -1.95,2.719 -1.48,0.542 -1.9,-0.881 -3.45,-0.23 -1.53,0.651 -1.06,2.482 -0.83,3.208 0.23,0.705 -0.23,1.125 -1.83,2.482 -1.6,1.363 -2.19,3.505 -2.37,5.459 -0.19,1.946 4.15,6.442 5.93,8.462 1.77,2.01 9.65,8.341 9.65,8.341 0,0 0.53,-0.705 1.31,-2.123 0.75,-1.404 2.67,-1.96 3.43,-1.831 0.77,0.108 0.12,2.319 0.06,3.845 -0.06,1.526 1.66,3.323 3.26,5.33 1.59,2.02 5.98,6.7 5.98,6.7 0,0 4.2,-2.963 5.68,-4.333 1.48,-1.363 6.63,-4.32 10.32,-6.463 3.68,-2.122 5.07,-3.777 5.13,-5.676 0.08,-1.892 -2.36,-7.296 -3.19,-8.53 -0.83,-1.248 -1.11,-4.266 -1.71,-6.219 -0.59,-1.946 -3.67,-21.08 -3.67,-21.08 0,0 2.07,-1.852 3.02,-2.197 0.94,-0.36 3.55,-0.651 3.55,-0.651 0,0 1.06,-3.858 2.36,-5.987 1.31,-2.109 4.52,-1.886 6.04,-2.666 1.55,-0.766 1.91,-0.766 2.85,-0.291 0.96,0.475 -1.18,2.305 -1.95,3.261 -0.76,0.95 -0.84258,4.362951 -0.72258,4.186951 0.12,-0.183 0.66258,-2.653951 6.67258,-4.626951 6.02,-1.974 10.24,-1.499 12.31,-1.125 2.06,0.373 3.02,1.315 2.64,1.79 -0.37,0.461 -2.07,0.461 -2.73,1.03 -0.67,0.556 -2.63,3.01 -4.8,4.218 -2.16,1.221 -6.32,2.387 -6.5,4.557 -0.18,2.17 0.18,3.472 1.17,4.319 1,0.861 1.86,3.085 2.34,4.611 0.51,1.539 2.28,4.51 3.78,5.01 1.47,0.488 2.95,0.847 3.34,-0.136 0.41,-1 0.37,-1.546 0.82,-1.851 0.45,-0.318 2.17,0.448 1.95,1.668 -0.22,1.207 -0.46,3.234 -2.03,4.136 -1.59,0.902 -3.57,1.546 -4.38,1.546 -0.8,0 -1.35,1.54 -0.26,3.065 1.07,1.546 1.92,2.753 3.59,3.248 1.67,0.502 2.91,0.143 2.99,0.502 0.09,0.366 0.08,3.377 -0.91,4.238 -0.99,0.848 -3.07,0.664 -3.75,0.488 -0.66,-0.183 -1.62,-0.767 -1.62,-0.767 0,0 -1.75,5.445 -0.08,7.568 1.66,2.143 3.56,2.597 6.08,0.793 2.54,-1.824 5.23,-4.082 6.56,-6.02 1.3,-1.946 4.04,-6.483 5.39,-7.527 1.35,-1.044 2.21,-1.044 2.85,-0.4 0.63,0.624 0.16,1.844 -0.19,2.651 -0.36,0.821 4.21,-2.333 5.06,-3.472 0.86,-1.125 5.55,-7.263 7.12,-10.599 1.57,-3.33 5.15,-10.911 6.01,-15.427 0.87,-4.503 1.45,-8.348 1.41,-9.711 -0.07,-1.342 0.29,-3.092 1.63,-3.858 1.37,-0.767 4.31,-0.956 5.71,0.529 1.39,1.485 3.67,4.442 3.51,10.02 -0.14,5.141 -1.57,8.185 -2.3,10.769 -0.72,2.584 -3.33,9.745 -3.33,9.745 0,0 2.44,-1.221 8.98,-9.928 6.52,-8.694 8.91,-13.01 10,-14.512 1.08,-1.499 2.99,-2.943 4.66,-2.529 1.67,0.399 2.24,2.475 2.2,7.303 -0.03,4.598 -1.61,8.708 -4.4,14.851 -2.8,6.123 -7.09,12.382 -9.21,15.319 -2.11,2.929 -7.41,9.188 -9.8,11.772 -2.39,2.583 -4.78,5.513 -4.42,5.92 0.36,0.4 1.31,0.488 11.84,-7.127 10.5,-7.623 16.23,-13.176 19.7,-17.15 3.48,-3.96 8.17,-8.836 9.93,-9.738 1.75,-0.888 2.69,0.963 2.74,3.791 0.04,2.848 -0.08,9.711 -1.76,12.945 -1.67,3.249 -6.02,7.684 -12.64,12.959 -5.73,4.558 -12.13,10.667 -16.01,13.427 -3.88,2.77 -7.27,5.7 -7.08,6 0.18,0.32 5.23,-1.4 14.7,-6.76 9.48,-5.377 16.96,-10.999 16.96,-10.999 0,0 2.66,1.023 2.29,6.299 -0.35,5.283 -4.3,11.77 -12.97,17.1 -8.66,5.33 -18.14,9.43 -22.2,10.78 -4.05,1.35 -9.96,2.8 -9.96,2.8 0,0 1.49,3.33 6.53,3.6 5.05,0.28 9.27,-0.45 11.41,-1.45 2.17,-0.98 3.67,-1.97 5.29,-1.16 1.61,0.82 1.11,3.09 0.71,4.92 -0.4,1.81 -3.79,10.59 -10.97,12.44 -7.16,1.84 -13.21,-0.73 -15.01,-1.89 -1.8,-1.17 -5.64,-1.81 -5.82,-1.45 -0.16,0.37 2.82,5.48 7.46,9.17 4.64,3.7 11.72,8.21 16.91,10.96 5.18,2.73 11.55,4.23 12.09,5.63 0.53,1.41 0.48,2.98 -3.22,5.1 -3.69,2.11 -10.47,4.46 -18.17,1.99 -7.7,-2.49 -15.11,-8.44 -19.53,-13.18 -4.41,-4.74 -9.11,-11.17 -10.01,-11.5 -0.91,-0.32 -0.77,1 -0.14,2.49 0.63,1.48 2.66,6.74 1.81,9.96 -1.20594,3.22781 -1.75531,3.96531 -1.75531,3.96531 0,0 4.23531,5.69469 6.32531,8.38469 2.06,2.71 3.15,3.42 5.57,5.1 2.43,1.68 10.8,5.33 16.78,6.68 6.01,1.36 20.34,3.89 26.35,-2.25 6,-6.14 5.32,-10.27 3.83,-16.63 -1.48,-6.38 0.86,-8.91 2.4,-11.29 1.52,-2.4 2.7,-4.31 2.46,-6.35 -0.23,-2.04 -1.07,-3.35 -1.07,-4.21 0,-0.86 0.71,-1.53 2.25,-1.49 1.52,0.04 2.66,0.86 4.33,0.68 1.67,-0.18 3.66,-1.94 5.02,-3.79 1.34,-1.84 4.1,-4.1 5.44,-4.92 1.37,-0.8 1.89,-1.16 2.03,-1.79 0.27,-1.19 0.27,-3.26 -0.62,-3.62 -0.91,-0.37 -1.45,1.26 -2.54,1.08 -1.07,-0.18 -1.34,-2.48 0.37,-3.61 1.71,-1.12 4.43,-1.44 6.14,-0.49 1.73,0.95 4.23,4.48 2.85,9.2 -1.41,4.73 -5.74,7.3 -6.78,9.74 -1.03,2.44 -1.34,4.48 -1.34,4.48 0,0 2.34,-0.68 4.15,-0.18 1.8,0.48 2.93,2.57 2.93,3.96 0,1.4 0.13,2.61 -0.87,2.84 -0.98,0.23 -3.34,-0.54 -4.95,0.32 -1.63,0.85 -5.43,4.96 -6.86,9.61 -1.46,4.64 -3.19,9.48 -5.77,13.4 -2.57,3.92 -5.86,7.7 -12.85,10.41 -7,2.71 -19.05,2.93 -27.4,0.76 -8.33,-2.16 -16.18,-5.76 -17.67,-6.48 -1.49,-0.73 -4.78,-2.61 -4.78,-2.61 0,0 -0.44,10.87 0.6,13.93 1.02,3.06 4.72,7.66 7.03,10.19 2.29,2.51 6.22,5.5 6.66,8.44 0.46,2.92 -0.63,3.34 -1.17,4.94 -0.54,1.63 -0.54,3.58 -2.48,5.38 -1.93,1.79 -4.33,1.21 -4.33,1.21 0,0 0.73,1.28 0.37,2.69 -0.37,1.38 -1.05,1.74 -1.81,1.26 -0.76,-0.51 -2.24,-3.48 -4.27,-1.95 -2.05,1.53 -1.97,2.75 -2.01,3.74 -0.04,1 -1,1.58 -2.34,1.4 -1.35,-0.18 -3.26,0.13 -1.4,2.16 1.86,2.03 2.98,3.5 2.26,5.37 -0.73,1.86 -2.88,2.58 -2.88,2.58 0,0 0.39,-3.89 -2,-3.8 -2.38,0.09 -3.05,0.98 -3.47,2.34 -0.41,1.37 -0.3,3.08 -0.3,3.08 0,0 -3.37,0.63 -4.11,-0.76 -0.73,-1.4 -0.27,-3.58 0.94,-4.89 1.22,-1.31 1.3,-2.43 0.6,-2.71 -0.72,-0.26 -2.36,0.91 -3.58,2.27 -1.21,1.35 -3.24,0.99 -3.24,0.99 0,0 0.58,2.58 -1.48,3.88 -2.09,1.31 -2.85,-0.36 -4.11,-0.72 -1.25,-0.36 -2.04,-1.68 -1.25,-2.54 0.76,-0.85 2.74,-1.61 2.24,-3.42 -0.49,-1.8 -2.12,-3.02 -3.2,-3.2 -1.09,-0.17 -2.3,-0.23 -2.3,-0.23 0,0 0.04,-2.43 1.58,-3.69 1.53,-1.27 2.7,-2.25 2.7,-2.25 0,0 -0.67,-2 -0.55,-2.99 0.15,-1 1.01,-1.4 2.4,-1.9 1.4,-0.49 2.31,-1.44 2.61,-2.93 0.32,-1.48 0.09,-3.33 0.09,-3.33 0,0 3.08,-0.59 4.25,0.46 1.16,1.02 1.12,2.47 0.98,4.05 -0.13,1.57 -0.13,2.97 -0.13,2.97 0,0 3.3,0.19 4.34,-0.5 1.03,-0.66 1.58,-3.01 2.66,-4.23 1.07,-1.21 2.62,-2.29 2.29,-4.46 -0.31,-2.17 -0.8,-3.71 -2.79,-5.05 -1.98,-1.37 -3.74,-2.93 -4.23,-3.8 -0.5,-0.86 -1.28,-1.04 -2.05,-0.18 -0.76,0.86 -2.66,3.56 -6.84,3.2 -4.2,-0.36 -5.73,-3.16 -5.73,-3.16 0,0 2.66,-1.52 3.06,-3.15 0.41,-1.62 0.55,-4.61 -0.68,-7.81 -1.2,-3.2 -1.39,-4.77 -1.53,-8.6 -0.13,-3.84 -0.0412,-5.03518 -0.17,-6.13 0,0 -10.83,-0.1 -17.36,2.75 -6.56,2.84 -8.13,5.81 -8.13,8.06 0,2.26 0.75,5.14 3.77,7.95 3.05,2.79 3.82,3.83 3.68,6.03 -0.14,2.21 -0.38,3.79 -2.46,3.83 -2.06,0.04 -3.1,0.85 -3.96,1.85 -0.85,1 -2.66,2.54 -3.29,2.8 -0.63,0.28 -0.72,0.42 -1.13,1.55 -0.4,1.13 -1.75,1.62 -1.75,1.62 0,0 -1.88,-2.67 -3.69,-2.31 -1.83,0.37 -2.68,0.69 -2.55,1.82 0.14,1.12 0.33,1.98 0.33,1.98 0,0 -2.54,-0.46 -4.52,-0.24 -1.98,0.24 -3.47,0.96 -4.32,0.87 -0.86,-0.09 -1.66,0.67 -1.31,2.2 0.36,1.53 1.44,2.87 0.86,4.69 -0.59,1.81 -2.24,2.09 -3.66,1.81 -1.4,-0.26 -3.33,-0.4 -3.33,-0.4 0,0 2.47,-2.13 0.8,-3.85 -1.66,-1.71 -3.97,-0.62 -4.73,0.14 -0.77,0.76 -1.99,1.89 -1.99,1.89 0,0 -1.81,-0.94 -1.3,-3.15 0.5,-2.21 1.26,-3.24 2.92,-4.38 1.67,-1.12 2.26,-2.74 0.59,-2.65 -1.67,0.08 -5.39,0.86 -7.57,0.72 -2.18,-0.14 -3.48,-1.58 -3.97,-2.03 -0.51,-0.45 -0.31,-0.99 -0.31,-0.99 0,0 2.98,0.47 3.91,-1.53 0.95,-2 1.28,-2.77 -0.13,-3.93 -1.38,-1.18 -2.31,-1.91 -2.31,-1.91 0,0 1.1,-2.55 3.14,-2.47 2.02,0.1 3.37,1.81 5.43,2.35 2.09,0.54 3.26,0.26 3.26,0.26 0,0 0.76,-1.84 0,-2.65 -0.77,-0.82 -2.5,0.09 -3.74,-0.72 -1.26,-0.82 -3.48,-3.6 -2.35,-5.18 1.13,-1.6 2.62,-1.73 2.62,-1.73 0,0 2.19,3.17 3.86,2.13 1.67,-1.04 3.26,-2.58 3.39,-3.08 0.12,-0.49 0.59,-0.99 0.59,-0.99 0,0 2.8,0.06 3.48,3.07 0.67,3.03 -0.23,7.63 -0.23,7.63 0,0 2.21,0.49 4.82,-0.37 2.63,-0.85 6.22,-1.98 6.82,-2.74 0.58,-0.77 0.36,-2.76 -1.22,-3.98 -1.59,-1.21 -6.72,-4.77 -7.9,-7.4 -1.16,-2.61 -2,-7.29 -4.85,-8.69 -2.86,-1.42 -5.29,-1.24 -7.87,-1.14 -2.56,0.08 -7.48,-1.58 -8.71,-4.01 -1.22,-2.44 -1.04,-3.48 -1.04,-3.48 0,0 2.94,1.85 4.26,1 1.3,-0.86 2.75,-3.17 5.95,-3.93 3.2,-0.76 8.44,-0.12 8.44,-0.12 0,0 1.6,-4.71 9.29,-7.14 7.66,-2.43 15.88,-1.44 21.29,-0.14 5.41,1.3 7.67,1.48 9.39,1.4 1.71,-0.1 4.45,-0.54 4.45,-0.54 0,0 -5.67,-6.22 -9.25,-10.23 -3.56,-4.02 -7.22,-7.59 -7.22,-7.59 0,0 -2.03,0.18 -5.4,1.17 -3.39,1 -6.74,0.54 -10.91,0.32 -4.21,-0.22 -6.55,-0.59 -8.79,0.64 -2.25,1.21 -3.42,2.16 -4.17,3.25 -0.73,1.08 -3.88,-1.28 -2.98,-3.75 0.91,-2.49 2.25,-3.83 2.25,-3.83 0,0 -6.26,0.72 -9.82,1.03 -3.56,0.31 -7.79,-0.29 -6.74,4.6 1.09,4.88 4.9,5.02 6.2,5.24 1.3,0.22 1.59,1.67 1.45,2.35 -0.15,0.66 -0.19,0.9 -0.19,0.9 0,0 -2.52,-0.6 -4.23,0.44 -1.72,1.05 -1.67,2.31 -1.67,2.31 0,0 -1.91,0.41 -2.57,-0.82 -0.7,-1.21 0.21,-2.43 0.8,-3.2 0.58,-0.76 0.17,-0.94 -0.55,-0.94 -0.71,0 -2.49,-0.24 -2.64,-1.26 -0.23,-1.45 1.17,-3.03 -0.04,-3.7 -1.23,-0.67 -3.26,0.09 -3.72,1.61 -0.45,1.55 -1.49,4.08 -2.33,4.16 -0.86,0.09 -2.56,-0.69 -2.81,-0.14 -0.21,0.54 -0.45,2.39 -0.3,3.65 0.14,1.26 -0.84,2.39 -1.87,2.21 -1.03,-0.18 -1.44,-1.63 -1.44,-1.63 0,0 0.91,-2.29 0.26,-3.69 -0.62,-1.39 -2.43,-1.35 -2.43,-1.35 0,0 -0.76,-1.85 0.09,-2.43 0.86,-0.58 2.31,0.18 3.63,-0.32 1.3,-0.5 5.09,-3.56 6.31,-4.43 1.22,-0.86 2.03,-2.11 1.49,-2.25 -0.54,-0.14 -2.85,0.99 -4.65,0.54 -1.79,-0.46 -2.24,-1.54 -3.01,-1.72 -0.78,-0.18 -1.6,0.54 -2.05,1.5 -0.44,0.94 -2.25,1.25 -3.32,0.23 -0.6,-0.59 -0.95,-2.63 -0.95,-2.63 0,0 1.38,-0.63 1.16,-2.43 -0.21,-1.81 -1.16,-2.69 -0.54,-3.33 0.62,-0.63 1.3,-0.94 2.02,-0.58 0.73,0.36 1.49,1.66 2.44,2.7 0.94,1.03 1.86,0.89 2.63,0.27 0.78,-0.63 0.71,-2.39 -0.23,-2.8 -0.95,-0.4 -2.71,-1.48 -2.04,-2.3 0.67,-0.8 1.56,-0.61 1.73,-1.57 0.19,-0.96 -0.69,-2.62 -1.78,-3.13 -1.08,-0.49 -2.1,-1.88 -1.55,-2.78 0.51,-0.91 2.23,-0.91 2.23,-0.91 0,0 2.5,0.5 4.08,0.5 1.56,0 1.93,-0.28 2.83,0.08 0.9,0.37 1.41,2.04 0.65,3.11 -0.78,1.09 -2.46,2.23 -2,3.67 0.45,1.45 2.3,6.27 2.3,6.27 0,0 5.73,-0.65 10.64,-1.23 4.92,-0.58 11.77,-2.16 11.77,-2.16 0,0 -2.66,-2.27 -2.87,-4.2 -0.25,-1.94 -0.29,-3.21 0.62,-3.1 0.9,0.08 1.42,1.11 3.34,1.44 1.9,0.3 4.74,0.3 7,0.04 2.95,-0.35 4.05,-1.76 4.05,-1.76 0,0 -3.38,-3.7 -3.92,-6.17 -0.54,-2.49 -0.17,-9.17 -0.17,-9.17 0,0 -4.07,-4.95 -7,-7.2 -2.93,-2.27 -4.52,-2.98 -6.51,-2.53 -1.97,0.44 -2.55,1.58 -3.05,0.72 -0.51,-0.86 -0.64,-3.17 1.08,-4.872 1.71,-1.722 5.55,-3.709 5.55,-3.709 0,0 -1.7,-3.118 -3.48,-5.967 z"
       id="path1616"
       sodipodi:nodetypes="ccccccccccccccccccccccccccccccccccccscscsccccccccccccccsccccccccccccccccccccscccccccscccccccccscccccccccccccccccccccccccccccccccccccccccccccccccccccccccscscccccccccccscccccccccccccccccccsccccccccccccccccccccccccccccccccccccccsccccccccccccccccccccccsccccccccccccscccccccccccccsccsccccccccccscsccccccsccccccsccccccsccccccccccccccccscccccccccccccccccccc" />
    <path
       d="m335.53 43.606c-1.83-.495-3.24 0-3.24 0s-1.65.237-2.09.739c-.43.488-1.1.956-1.53 1.959-.31.732-.25 2.136-.25 2.136s-.97.25-1.34.434c-.38.19-5.27.374-6.2 2.455-.92 2.082-.43 7.358.86 8.151 1.3.807 1.04.128 1.35-.055.3-.183 1.23-1.601 2.83-1.417 1.58.183 4.22 1.295 5.76 1.349 1.52.068 3.99-1.349 6.56-.542 2.57.793 6.61 4.164 7.96 7.106 1.36 2.95 1.31 4.32.93 5.27-.25.624-1.12 1.105-2.58 1.038-1.48-.055-6.81-1.581-11.76.196-4.98 1.777-3.63 1.404-3.93 1.777-.32.359-.06.983.3 1.099.38.122 6.56.427 7.73.183 1.16-.237 6.61.122 8.15-.061 1.53-.176 3.92.129 4.73-2.082.79-2.211 0-5.154-.19-5.886-.19-.739-1.79-4.727-3.86-6.93-2.09-2.211-4.62-5.377-5.39-8.585-.81-3.249-.91-3.54-1.55-5.208-.97-2.584-3.25-3.126-3.25-3.126zm-55.28 36.917s.08.665-.2 1.274c-.26.631-.26 1.167-1.07 1.499-.83.353-1.85.618-2.46.618s-1.02.345-.88.678 1.08.753 1.56.956c.48.197 3 .333 3.46.333.49 0 2.4-.333 2.93-.61.54-.278.69.075 1.17-.678.46-.752-.97-1.973-1.44-2.373-.48-.422-3.07-1.697-3.07-1.697zm-5.69-24.873s-.34-.753-1.77-.888c-1.44-.143-2.59-.542-3.13.135-.56.685-1.9 1.973-1.83 2.584.05.61.2.875.95 1.084.74.21 1.15-.067 2.11 0 .94.068 2.02.488 2.02.488s1.03-.488 1.17-1.098.48-2.305.48-2.305zm5.37-9.725s.31-.454.36-.787c.04-.339.49-1.098.14-1.491-.37-.414-1.01-.414-1.71-.428-.72-.027-.99.136-1.17-.332-.19-.475 0-.929.41-1.208.39-.291 1.37-.726 1.83-.888.45-.169.58-.542 1.75-.502 1.17.055 1.5.095 2.12.624.62.515.56.333 1.26 1.248.68.936.52 1.505.52 1.505l-1.22 2.096s-.14.807-.74 1.038c-.6.237-1.11 0-1.47-.095-.35-.095-.97-.359-1.49-.434-.53-.067-.59-.346-.59-.346zm18.17 1.92s.56 0 1.74-.184c1.19-.176 1.74.265 1.92-.732.18-1-1.19-2.01-1.02-2.651.18-.644.56-.644 1.39-.102.81.556 1.45 1.193 1.83 2.21.35.997.81 2.638.81 3.472 0 .821 0 1.336-.17 2.251-.18.916-.56 1.275-.56 1.275s-1.1.095-2.46-.637c-1.38-.726-1.19-.156-1.94-1.526-.71-1.363-1.54-3.376-1.54-3.376zm-3.85 109.42c.28.06 2.63 1.09 2.19 2.34-.43 1.25-1.32 2.23-1.32 2.65 0 .45 2.06.24 3.44-.36 1.41-.61 2.93-2.14 3.02-3.83.07-1.68-1.11-3.8-1.11-3.8s-3 .07-3.96.43c-.95.37-2.56 2.5-2.26 2.57zm-19.6-5.06s-2.71.51-3.01 2.19c-.3 1.7-.2 3.53.22 4.7.44 1.17 1.76.8 1.99-.36.2-1.18.42-2.12 1.17-2.21.73-.07 1.68.29 1.68.29s.95-1.09.81-2.26c-.15-1.18-.81-2.06-1.39-2.2-.59-.15-1.47-.15-1.47-.15zm-2.21-16.65s-2.48-.07-3.22.96c-.73 1.03-1.61 3.44-1.23 3.96.35.51 4.38.43 4.38.43s1.4-1.46 1.32-2.13c-.07-.65-1.25-3.22-1.25-3.22zm10.21-11.44s.22-1.68-1.03-3c-1.23-1.32-2.64-1.54-3.81-1.77-1.19-.22-1.94.16-.68 1.54 1.27 1.39.96 2.86.96 2.86s1.48.29 2.43.44c.96.15 2.13-.07 2.13-.07zm40.84 91.68s1.41.96 1.29 2.37c-.15 1.4-.97 2.73-.4 3.05s2.65-1.08 3.66-1.97c1.02-.91 1.6-2.31 1.54-3.45-.07-1.15-.76-2.86-1.97-3.31-1.23-.45-3.04-.57-3.55-.13-.5.44-.95.91-.82 1.53.13.64.25 1.91.25 1.91zm-21.81 6.81s-.9 2.65.14 4.62c1.01 1.98 2.92 3.05 3.74 3.32.84.25 1.16-.71.89-1.85-.24-1.15-.96-1.84-.37-2.74.56-.9 1.53-1.34 1.53-1.34s1.53-1.69 1.2-2.76c-.31-1.08-1.27-2.11-2.48-1.92-1.2.19-3.31 1.01-3.62 1.6-.33.57-1.03 1.07-1.03 1.07zm-8.32-19.32s-2.29.32-3.62 1.34c-1.34 1.02-2.03 2.33-2.73 4.2-.71 1.88-.07 3.53.19 4.49.25.96 1.39-.2 2.03-1.52.64-1.34.84-1.46 1.84-1.54 1.03-.05 2.15.45 3.23 0 1.09-.44 1.78-1.69 2.1-2.7.32-1.02.32-1.53-.06-1.91-.38-.39-2.98-2.36-2.98-2.36zm15.85-12.14s-2.05-1.97-4.41-2.47c-2.35-.51-4.38-.51-5.59.2-1.22.69-2.37 1.65-.65 1.9s2.5.37 2.81 1.15c.31.75.95 1.93 1.34 2.52.38.57 1.85 1.08 2.42.89.57-.2 2.15-1.38 2.86-2.2.7-.84 1.22-1.99 1.22-1.99zm77.79 39.3s1.99-.54 2.65.65c.65 1.2.92 3.43.86 4.31-.05.86 1.25.26 2.13-1.15s1.4-2.45 1.52-3.75c.11-1.31 0-2.62 0-2.62s-2.17-2.17-2.94-2.55c-.76-.37-2.41.66-2.77 1.2s-1.01 1.52-1.01 2.23-.44 1.68-.44 1.68zm-9.95 12.22s1.09 2.34 2.72 2.88c1.64.54 4.09 0 5.05-.23.99-.2-.06-1.45-.86-1.73-.81-.26-1.53-1.2-1.3-1.68.2-.49 1.09-1.5.54-3.03-.54-1.51-1.48-1.9-2.88-1.57-1.43.32-2.14.92-2.57 1.9-.42.98-.7 3.46-.7 3.46zm-18.86-11.34s-2.63.48-3.13 2.55c-.49 2.07-.54 3.89-.2 5.49.31 1.61 1.64 3.22 2.09 1.78.43-1.45.54-2.47 1.46-2.86.92-.38 2.51.05 2.51.05s2.62-1.47 2.67-2.72c.04-1.25-.99-2.83-2.07-3.43-1.1-.6-3.33-.86-3.33-.86zm8.66-16.68s-2.23-1.42-4.36-1.25c-2.11.17-3.63 1.36-4.08 2.01-.43.65-.32 1.26 1.7 1.09 2-.17 2.55 0 3.14 1.03.6 1.04.76 3.05.76 3.05s2.28-.6 2.62-2.72c.33-2.13.22-3.21.22-3.21z"
       fill="#ffe013"
       id="path1618" />
  </g>
  <path
     fill="#ed1c24"
     d="m311.74 61.01c-.49-.108-2.45.251-3.06 2.583-.53 2.042-.44 5.323 3.06 6.375 6.15 1.852 9.47-.136 14.6-.61 5.28-.481 6.75-.678 10.55-.861 5.15-.251 6.83-.4 8.16.075 1.1.373 2 .841 2 .841s-.34-3.37-1.45-4.468c-.49-.489-2.09-.739-2.09-.739s-4.78-.123-9.08.739c-4.28.861-11.39 1.959-15.32 1.722-3.94-.251-6.47-1.233-6.63-2.333-.24-1.722.86-2.461.5-2.943-.37-.49-.74-.252-1.24-.381"
     id="path1622" />
  <path
     stroke="#111"
     stroke-width="1.183"
     fill="none"
     d="m311.74 61.01c-.49-.108-2.45.251-3.06 2.583-.53 2.042-.44 5.323 3.06 6.375 6.15 1.852 9.47-.136 14.6-.61 5.28-.481 6.75-.678 10.55-.861 5.15-.251 6.83-.4 8.16.075 1.1.373 2 .841 2 .841s-.34-3.37-1.45-4.468c-.49-.489-2.09-.739-2.09-.739s-4.78-.123-9.08.739c-4.28.861-11.39 1.959-15.32 1.722-3.94-.251-6.47-1.233-6.63-2.333-.24-1.722.86-2.461.5-2.943-.37-.49-.74-.252-1.24-.381z"
     id="path1624" />
  <path
     fill="#fff"
     d="m340.12 45.634s1.69 4.32 2.42 4.93c.76.617 2.9.739 4.08.38 1.17-.38 3.59-1.919 3.59-1.919s-1.98-1.973-2.78-2.468c-.81-.488-2.28-.99-3.52-.922-1.22.06-3.79-.001-3.79-.001"
     id="path1626" />
  <g
     stroke="#111"
     fill="none"
     id="g1662">
    <path
       d="m 330.13,192.71 c 0,0 -0.08,2.04 1.82,3.25 1.9,1.21 3.23,3.15 3.15,4.36 -0.11,1.21 -1.51,3.33 -1.94,3.76 -0.44,0.45 -1.3,1.48 -1.3,1.48 m -2.85,2.86 c 0,0 1.38,1.16 1.81,1.86 0.44,0.69 0.63049,1.77524 0.63049,1.77524 M 320.31,209.66 c 0,0 -1.95,0.47 -2.25,2.09 -0.35,1.9 1.13,3.63 1.13,3.63 m -20.2,-2.07 c 0,0 -1.2,-2.91 0.09,-4.15 1.31,-1.27 4.24,-1.27 6.06,-0.82 1.81,0.42 3.63,0.16 3.63,0.16"
       stroke-width="1.183"
       id="path1628"
       sodipodi:nodetypes="csccccccccccccc" />
    <path
       d="m 305.28774,203.08226 c 0,0 1.16132,-0.44445 3.43132,-0.97445 1.87,-0.43 3.47094,-0.67144 4.07094,-0.50144"
       stroke-width="1.378"
       id="path1630"
       sodipodi:nodetypes="ccc" />
    <g
       stroke-width="1.183"
       id="g1642">
      <path
         d="m308.16 177.67s1.22-.9 2.65-.74c2.43.29 3.97 1.01 5.1 2.73 1.12 1.73.51 4.76 2.23 5.62 1.74.86 2.35.26 2.35.26"
         id="path1632" />
      <path
         d="m 293.65313,173.0025 c 0,0 1.96687,2.2875 4.64687,1.7675 2.69,-0.52 3.72,-2.59 6.66,-3.55 2.93,-0.94 4.4,-0.76 5.85,0 2.05,1.09 2.23,1.3 3.02,1.39 m -9.48,2.68 c 0,0 3.61,-1.87 6.39,-1.21 3.28,0.81 4.92,2.24 4.92,2.24"
         stroke-linecap="round"
         id="path1634"
         sodipodi:nodetypes="cccccccc" />
      <path
         d="m 323,121.2 5.15,-1.12 m -3.94,3.8 c 0,0 -2.59,-4.28 -2.08,-8.04 0.52,-3.76 0.93,-5.5 4.29,-8.1 3.36,-2.6 9.42,-4.66 9.42,-4.66 m -14.91762,23.14 c 0,0 2.22762,-2.3 3.60762,-2.3 1.4,0 4.99,-0.22 4.99,-0.22 m -20.23438,16.66906 C 309.62219,140.18938 311.5,138.96 313.4,138.26 c 1.9,-0.67 2.33,-0.5 2.33,-0.5 l -0.16,-0.78 c 0,0 -1.82,0.51 -2.78,0 -0.95,-0.52 -2.91,-3.41 -4.23,-3.24 m 3.05906,12.65906 C 311.91219,146.10188 314.78,143.03 317.8,141.99 c 3.03,-1.04 6.37,-0.48 8.88,-0.6 3.54,-0.18 5.27,-2 7.08,-2.68 1.81,-0.69 3.64,-0.45 3.64,-0.45 M 346.44,125 c 0,0 0.25,3.59 -0.44,5.27 -0.69,1.7 -1.46,6.54 -1.46,6.54 m -1.56,-11.47 c 0,0 1.03,2.29 0.6,4.15 -0.44,1.86 -1.46,3.95 -1.38,4.89 0.09,0.96 0.17,2 0.17,2 m -3.07,6.22 c 0,0 4.45,-1.12 6.17,-1.55 1.74,-0.43 2.35,-2.34 1.13,-3.21 -1.21,-0.86 -3.76,-1.3 -5.66,-1.56 -1.91,-0.25 -3.12,-1.64 -2.25,-3.62 0.87,-1.99 2.16,-6.19 2.16,-6.19 m 42.34,36.36 c 0,0 -3.89,4.24 -7.09,3.03 -3.2,-1.2 -3.8,-2.37 -3.37,-5.23 0.42,-2.85 1.39,-4.55 0.86,-6.84 -0.44,-1.89 -2.99,-4.32 -4.37,-4.93 -1.38,-0.59 -7.61,-2.29 -8.99,-3.58 -1.37,-1.31 -1.77,-3.54 -2.85,-4.07 -1.09,-0.51 -4.29,-0.69 -5.76,-2.59 -1.46,-1.91 -3.46,-5.37 -3.46,-5.37 m 41.35,46.86 c 0,0 -4.77,-4.39 -5.98,-6.29 -1.21,-1.9 -1.64,-2.43 -1.64,-2.43 0,0 2.43,5.16 2.94,7.4 0.52,2.25 0.69,5.71 0.61,7.1 -0.09,1.38 -0.35,3.54 -0.35,3.54 m 3.99,1.8 c 0,0 0.46,5.49 0.73,7.59 0.16,1.25 0.27,1.46 0.27,1.46 m -17.27,-3.63 c 0,0 -0.25,3.54 -0.08,4.59 0.17,1.04 0.86,1.98 0.86,1.98 m -3.85,-6.91 c 0,0 0.86,5.62 0.86,6.32 0,0.67 -0.49895,2.80685 -0.90581,3.12657 M 366.63,191.6 c 0,0 0.43,9.98 0.08,11.45 -0.34,1.48 -1.64,3.63 -1.64,3.63 M 337.4,179.57 c 0,0 6.09,-3.15 10.93,-3.58 4.86,-0.45 11.74,-0.53 11.74,-0.53 m -21.89,-0.26 c 0,0 5.75,-1.99 9.12,-1.99 3.37,0 8.17,-0.16 9.25,-0.16 1.07,0 3.33,-0.09 3.33,-0.09 m -20.85,-1.9 c 0,0 3.77,-1.04 5.51,-1.04 1.72,0 8.42,0.08 10.89,0.16 2.47,0.1 4.28,0.1 4.28,0.1 m -15.53,-3.64 c 0,0 13.55,-0.43 15.18,-0.26 m -3.65629,-6.10266 3.75629,3.25266 0.08,0.27 -10.42,-0.27"
         id="path1636"
         sodipodi:nodetypes="ccccsccscccccccccccccccccccccccccccccccccccscccccccccccsccccccccssccscccccccc" />
      <path
         d="m423.96 129.45s-5.03 4.77-10.31 5.15c-5.27.36-10.43-3.44-12.26-4.18-1.83-.73-5.53-1.88-5.53-1.88m-21.74 11.79s5.57 8.75 5.69 12.3-2.09 9.55-2.09 9.55m6.99-25.74s10.69 11.64 14.73 15.2 11.22 10.25 14.7 12.62c5.03 3.45 11.04 3.2 11.04 3.2m-34.6 34.9s1.05 4.54 2.16 5.53c1.12.99 2.09 2.55 2.7 2.98.59.44 2.23.7 2.23.7s-2.51 2.6-2.6 3.89c-.08 1.3.69 2.25 1.3 2.34.63.09-.85 1.3-1.38 1.46-.52.18-4.06.26-4.06.26m-32.42-66.07s1.64 1.82 1.64 3.46c0 1.65-.08 3.43-.08 5.76s-.61 7.08-.36 10.29c.26 3.19.44 4.71.44 4.71"
         stroke-linecap="round"
         id="path1638" />
      <path
         d="m400.17 101.86s7.72-1.6 19.25-10.188c11.52-8.579 25.87-24.271 25.87-24.271m-42.07 45.979s9.59-.42 17.92-3.56c9.45-3.55 23.42-13.477 23.42-13.477"
         id="path1640" />
    </g>
    <path
       d="m395.26 91.06s8.71-6.984 15.45-13.983c6.75-6.984 10.43-11.649 14.83-19 4.43-7.357 5.52-12.633 5.52-12.633"
       stroke-width="1.378"
       id="path1644" />
    <g
       stroke-width="1.183"
       id="g1652">
      <path
         d="m463.09 147.71s-3.45 3.45-4.19 5.64c-.74 2.22-1.71 3.69-1.71 3.69m4.53-15.2s-1.71 2.81-3.79 6c-2.09 3.19-3.69 5.51-3.93 7.85-.23 2.33-.61 4.53-.61 4.53m-3.2-8.22s-2.93 3.94-3.18 6.88c-.24 2.94.74 5.76.74 5.76m1.35-16.07s-1.72 3.81-3.08 6.38c-1.34 2.58-2.2 3.19-2.07 5.76.12 2.59.98 5.15.98 5.15m-82.29-93.31s-.99 5.269-.12 8.707c.86 3.431 3.17 4.17 3.17 4.17"
         stroke-linecap="square"
         id="path1646" />
      <path
         d="m393.67 221.67l1.59 2.33m55.67-82.53s1.36 1.22 1.97 2.45c.61 1.22.37 1.35.37 1.35"
         stroke-linecap="round"
         id="path1648" />
      <path
         d="m 362.03,225.71 c 0,0 2.09,1.59 4.17,0.73 2.08,-0.85 5.5,-4.76 5.5,-4.76 m -0.6,11.26 c 0,0 -3.32,-0.36 -3.81,1.6 -0.49,1.96 0.66524,3.3421 0.66524,3.3421 M 386.55,223.63 c 0,0 -2.57,0.85 -3.18,3.42 -0.49,2.06 1.84,3.93 1.84,3.93"
         id="path1650"
         sodipodi:nodetypes="ccccscccc" />
    </g>
    <path
       d="m 324.61,96.45 c 0,0 -1.95,2.835 -2.68,5.158 -0.75,2.33 -2.09,2.45 -3.08,4.53 -0.96,2.09 -2.3775,5.17281 -2.3775,5.17281"
       stroke-width="1.378"
       id="path1654"
       sodipodi:nodetypes="cccc" />
    <path
       d="m 316.9,93.88 c 0,0 -3.8,3.683 -4.29,5.513 -0.49,1.855 -0.98,6.265 -0.98,6.265 m 7.35,-9.947 c 0,0 -3.91,3.574 -4.42,5.407 -0.48,1.83 -0.97,6.37 -0.97,6.37 m 7.12,-9.566 c 0,0 -3.33,3.326 -3.94,5.276 -0.61,1.96 -1.67656,6.41406 -1.67656,6.41406"
       stroke-width="1.183"
       id="path1656"
       sodipodi:nodetypes="ccccccccc" />
    <path
       d="m305.37 94.24s.99-.36 2.21-.611c1.22-.237 2.56.861 2.56.861s-.96-4.292-.61-6.374c.38-2.082.75-4.04.75-4.04"
       stroke-width="1.378"
       id="path1658" />
    <path
       d="m 280.03406,137.27656 c 0,0 1.42594,-0.59656 2.88594,-0.10656 1.45656,0.62453 3.78266,0.19531 3.78266,0.19531"
       stroke-width="1.183"
       id="path1660"
       sodipodi:nodetypes="ccc" />
  </g>
  <path
     fill="#111"
     d="m331.12 48.26l1.59-1.472.75-.61s1.49.292 1.95 1.221c.87 1.722.62 2.95.62 2.95s-1.23-1.349-2.94-1.837c-1.72-.489-1.97-.252-1.97-.252"
     id="path1664" />
  <g
     fill="none"
     stroke="#111"
     stroke-linecap="round"
     stroke-width="1.183"
     id="g1670">
    <path
       d="m290.41 56.23s1.1 3.682 1.83 5.635c.74 1.96 2.03 5.03 2.41 6m-8.79-5.75s1.61 2.333 1.97 2.821m-7.17-14.363s2.52-.108 3.38-.23c.85-.129 1.22 1.967 1.58 2.943.38.983.99 2.821.99 2.821m6.11 96.91s.88-1.25.39-2.11c-.49-.87-.61-.87-.61-.87"
       id="path1666" />
    <path
       d="m 342.29,46.05 c 0,0 1.38,2.665 2.25,3.02 0.84,0.379 1.84,-0.428 1.84,-0.428 0,0 -2.66,-0.671 -2.72,-2.529 -0.02,-0.692 -1.37,-0.068 -1.37,-0.068 z m -2.12,-0.115 c 0,0 0.99,2.529 2.07,4.197 0.8,1.234 3.41,1.221 4.75,0.611 1.34,-0.611 3.34,-1.472 3.34,-1.472 M 338,45.189 c 0,0 2.56,0.861 4.65,0.624 2.09,-0.25 3.66,-0.054 4.65,0.807 0.98,0.861 2.21,2.123 4.06,2.862 1.84,0.732 3.19,0.624 3.19,0.624 m -11.01225,-8.895825 c 0,0 3.78225,0.05882 4.75225,0.797825 0.98,0.732 1.59,1.343 1.59,1.343 l 2.33,-4.04"
       id="path1668"
       sodipodi:nodetypes="ccccccccccccccccccc" />
  </g>
  <g
     fill="#111"
     id="g1676">
    <path
       d="m353.08 43.966c.65-.854.79-1.594 1.47-2.441 1.75-2.149 3.55-2.733 6.25-3.316 1.52-.305 2.28-.989 3.81-1.098l.47-.129c-.76 1.533-2.23 1.505-3.79 2.21l.5.36c-.87.657-1.72.379-2.82.488-.07.278-.26.427-.26.739 0 .4.53.468.87.624-1.14.997-3.69-.197-3.69 1.343 0 .671.81.739 1.23 1.221-.36.156-.62.25-.97.38 0 .203.23.265.23.488 0 .176-.33-.156-.49-.129.23.333.41.611.61.99-.18 0-.3.122-.48.122-1.3-.001-1.88-1.208-2.94-1.852"
       id="path1672" />
    <path
       d="m360.19 54.762c-.15.332-.37.583-.37.983 0 1.2 1.36 1.627 1.36 2.821 0 .739-.99.861-.99 1.594 0 1.627 1.34 2.292 1.34 3.919 0 .807-.96.862-1.71 1.112.22 1.432 0 2.238 0 3.683-.68.054-1.04.081-1.72 0-.07.787-.2 1.092-.18 1.899-.86 0-1.34.061-2.21 0 0 .637.03 1 0 1.654l-1.41.861c-1.83-1.112-.66-4.36-2.21-5.886l-.49-.129.37 4.04c-.39 1.261-.83 1.627-.98 2.943-.92.102-1.92.305-2.09 1.228.52.19.8.373 1.36.373.79 0 1.16-.61 1.95-.61.53 0 .71.481 1.22.481s.65-.4.99-.732c.22.217.41.488.74.488 1.68 0 2.82-1.627 2.82-3.31 0-1.044 1.6-.556 2.45-1.098 1.17-.773.61-2.15.61-3.554.58.082.92.055 1.48-.122.12-.251.36-.685.36-.99 0-.61-.36-.915-.36-1.525 0-1.933.99-2.916.99-4.849 0-.4-.14-.61-.26-.983-.76-1.839-1.8-2.7-3.06-4.293"
       id="path1674"
       style="fill:#000000" />
  </g>
  <g
     stroke="#111"
     fill="none"
     id="g1702">
    <g
       stroke-width="1.183"
       id="g1688">
      <path
         d="m 366.81,92.77 c 0,0 1.71,1.112 1.22,3.072 -0.48,1.973 -0.65,2.526194 -2.38,3.265194 M 361.79,92.898 c 0,0 2.68,0.983 5.02,-0.237 2.33,-1.24 2.18,-4.346 2.18,-4.346 m -6.85266,-2.055 c 0,0 0.87266,2.347 3.32266,2.598 2.44,0.244 3.44,0 3.82,-1.221 0.35,-1.241 -1.33,-3.099 -1.33,-3.099 m -11.19,19.03 c 0,0 3.43,-2.94 5.88,-3.44 2.44,-0.484 4.04,-1.468 6.38,-3.176 2.33,-1.723 3.55,-1.723 6.37,-2.821 2.82,-1.112 3.2,-1.973 3.93,-2.834 0.74,-0.848 1.96,-2.692 3.92,-3.913 1.97,-1.227 3.31,-3.933 3.45,-5.283 0.11,-1.342 -0.99,-1.58 -2.59,-1.708 -1.6,-0.122 -3.19,0.237 -3.19,0.237 0,0 2.2,-3.303 4.06,-4.652 1.83,-1.35 2.32951,-3.34868 2.32951,-3.34868 M 362.28,86.522 c 0,0 0.85,4.415 -0.87,7.236 -1.71,2.814 -3.8,4.292 -3.18,6.01 0.61,1.712 0.62951,1.76773 0.62951,1.76773"
         id="path1678"
         sodipodi:nodetypes="ccccccccccccccccccccccccc" />
      <path
         d="m367.55 93.39s3.07-1.342 4.53-1.342c1.48 0 2.21-1.241 1.48-2.21-.73-.983-.62-1.974.98-2.943 1.58-.983 2.57-1.973 2.57-1.973"
         stroke-linecap="round"
         id="path1680" />
      <path
         d="m373.67 87.39s3.06-.488 4.05.61c.99 1.105.87 1.959.37 3.425-.49 1.478-2.05 2.434-2.05 2.434m-7.02-8.07s5.27.374 5.03 1.723"
         id="path1682" />
      <path
         d="m358.38 98.23s2.19.068 4.02-.793c1.84-.861 2.58-1.953 2.58-1.953"
         stroke-linecap="round"
         id="path1684" />
      <path
         d="m 410.51188,87.7925 c 0,0 -4.21188,4.6165 -7.03188,6.6985 -2.82,2.082 -5.15,3.805 -7.47,3.933 -2.34,0.123 -4.55,-0.373 -4.55,-0.373 m 22.81562,-39.193125 c 0,0 -2.69562,4.483125 -4.66562,6.450125 -1.97,1.959 -6.74,6.306 -7.45,7.392 -0.67,1.044 -5.06,4.875 -5.92,6.456 -0.84,1.601 -1.47,2.333 -2.56,3.567 -1.12,1.228 -3.21,2.225 -3.21,2.225 m 22.06156,-25.479125 c 0,0 -2.55156,4.983125 -4.39156,6.937125 -1.84,1.96 -6.87,6.876 -8.96,9.318 -2.08,2.461 -2.56,3.323 -5.02,6.144 -1.8,2.068 -3.08,2.93 -4.3,3.303 -1.22,0.359 -2.32,1.763 -2.32,1.763 m -1.6,-6.178 c 0,0 5.14,0.373 6.86,0.373 1.73,0 2.6,-0.501 2.6,-0.501 m -6.96468,-3.03 c 0,0 2.64468,-0.156 4.49468,-0.027 1.84,0.108 5.15,-0.38 5.15,-0.38 m -6.96,-1.701 c 0,0 3.41,-0.631 5.24,-0.502 1.84,0.122 4.18,-0.488 4.18,-0.488 m -6.74,-1.472 c 0,0 4.4,0.122 6.25,-0.488 1.83,-0.625 3.66,-1.607 3.66,-1.607 m -7.22,-0.848 c 0,0 2.92,0.292 4.89,-0.251 1.99,-0.542 5.07,-1.682 5.07,-1.682 m -7.62,-1.139 c 0,0 2.19,0.379 3.9,-0.237 1.73,-0.625 5.16,-3.065 5.16,-3.065 m -6.99,0.61 c 0,0 3.31,-0.983 4.42,-1.471 1.1,-0.488 2.32,-1.35 2.32,-1.35 m -4.42,-0.984 c 0,0 3.69,-0.739 4.67,-1.349 0.99,-0.611 1.96,-1.35 1.96,-1.35 m -4.76049,-0.709903 c 0,0 5.27049,-2.104097 5.88049,-2.714097 m -3.81,-2.339 c 0,0 3.93,-1.716 4.54,-2.455 m -27.22,30.787 c 0,0 8.81,-5.764 13.36,-11.772 4.54,-6.02 6,-8.334 8.09,-14.221 2.09,-5.893 4.71,-14.04 5.04,-15.82 0.47,-2.712 0.97,-1.723 0.12,1.458 -0.87,3.194 -2.59,8.096 -3.68,11.413 -1.11,3.31 -5.47531,11.429437 -5.47531,11.429437 M 378.98,87.18 c 0,0 2.05,0.556 3.16,0.196 1.1,-0.366 2.22,-0.977 2.22,-0.977 m -3.2,-2.453 c 0,0 1.11,-0.129 1.11,0.359 0,0.488 -1.6,0.861 -1.6,0.861 m -6.46,-2.346 c 0,0 3.39,-1.946 5.11,-0.956 1.71,0.97 1.48,2.204 1.59,2.692 0.12,0.481 -1.22,1.96 -1.71,2.333 -0.49,0.359 -1.37,0.97 -1.37,0.97"
         id="path1686"
         sodipodi:nodetypes="cscccccccccccccccscccccccccccccccccccccccccccccccccccccscccccc" />
    </g>
    <path
       d="m 417.96149,102.81376 c 0,0 -4.43149,2.71624 -7.37149,4.42624 -2.95,1.72 -5.65,3.2 -6.87,3.07 m 1.20125,-16.985625 c 0,0 4.61062,-3.608375 6.33062,-4.470375"
       stroke-width="1.378"
       id="path1690"
       sodipodi:nodetypes="ccccc"
       style="stroke-width:1.078;stroke-dasharray:none" />
    <g
       stroke-width="1.183"
       id="g1700">
      <path
         d="m347.79 116.2s4.18-7.97 7.12-10.79 1.97-2.08 1.97-2.08-2.08-.86-1.34-4.04c.73-3.194 1.7-4.307 2.82-6.145 1.1-1.844 1.46-3.926 1.46-3.926"
         stroke-linecap="round"
         id="path1692" />
      <path
         d="m 376.73,112.16 c 0,0 3.2,0.84 2.47,3.43 -0.74,2.57 -4.42,1.1 -4.42,1.1 m -0.38,-9.08 c 0,0 4.9,0.09 4.3,3.16 -0.41,2.05 -3.59,1.35 -3.59,1.35 m 4.69875,-9.32687 c 0,0 3.85125,-0.20313 3.56125,3.10687 -0.41,4.27 -5.85,2.5 -5.85,2.5 m 8.67,-8.27 c 0,0 -4.42,2.09 -6.5,2.71 -2.09,0.61 -4.04,1.1 -4.04,1.1 m 14.78,-11.977 c 0,0 -6.77,4.937 -11.48,6.211 -0.49,0.123 5.03,-3.194 7.24,-2.332 2.21,0.861 3.93,1.471 3.93,3.064 0,1.604 -0.87,3.184 -1.6,4.294 -0.73,1.11 -3.31,1.96 -3.81,2.08 m 0.7,-15.813 c 0,0 5.44,-2.333 7.76,-1.098 2.33,1.221 3.07,3.18 2.33,5.02 -0.73,1.838 -4.56629,4.028951 -5.41629,6.112951 M 388.76,81.001 c 0,0 1.48,0.868 0.49,2.57 -0.99,1.722 -1.22,3.072 -2.7,4.672 -1.46,1.594 -2.45,2.442 -3.06,3.425 l -0.61,0.989 m 26.57,15.249 c 0,0 5.07,-2.63 7.14,-3.48 2.09,-0.86 4.17,-1.70238 4.17,-1.70238"
         id="path1694"
         sodipodi:nodetypes="cccccccccccccccssccccccccccccc" />
      <path
         d="m381.1 108.75s3.89.77 3.66 3.59c-.23 2.84-5.46 2.18-5.46 2.18"
         stroke-linecap="round"
         id="path1696" />
      <path
         d="m 380.76,143.36 c 0,0 1.58,3.12 2,4.23 m -5.19,-28.29 2.24,0.87 m -4.17,0.6 c 0,0 1.47,1.29 2.52,1.39 m -5.35,-1.53 c 0,0 2.73,0.43 4.11,-0.6 1.39,-1.04 0.86,-2.64 -0.16,-2.9 m -0.19,7.14 3.93,3.36 m -9.38,-0.13 c 0,0 2.78,3.3 3.55,3.52 m -3.41,-6.85 c 0,0 2.08,1.52 2.5,1.74 m -2.72,-6.23 c 0,0 1.91,0.44 2.11,1.73 0.15,0.82 -1.38,1.35 -1.38,1.35 m -4.8,11.18 c 0,0 -0.45,-2.2 -1.28,-3.14 -0.81,-0.96 -2.08,-3.21 -2.08,-3.21 0,0 2.25,4.18 5.16,3.72 2.92,-0.44 1.56,-5.29 1.56,-5.29 0,0 3.07,3.44 5.67,1.42 2.63,-2.02 -2.68,-5.53 -2.68,-5.53 0,0 6.8,4.55 8,1.57 1.19,-3 -1.29,-3.20875 -1.29,-3.20875 M 378.1,129.61 c 0,0 2.02,2.01 3.6,2.45 1.57,0.46 2.24,1.43 2.47,1.88 m 1.8,-2.98 2.56,1.58 m -11.09,0.95 c 0,0 2.86,3.58 6.96,2.98 4.09,-0.59 3.66,-2.78 3.14,-4 -0.53,-1.19 -4.43,-3.23 -4.43,-3.23 m -11.35,4.7 3.64,3.66 m -5.64,-0.08 c 0,0 7,5.47 9.09,2.78 1.64,-2.12 -1.19,-6.44 -1.19,-6.44 m -14.77,5.77 c 0,0 4.31,5.01 6.77,3.21 2.46,-1.8 0,-5.61 0,-5.61 m -5.61,0 c 0,0 0.75,1.41 2.03,2.16 1.26,0.75 1.43016,0.85328 1.43016,0.85328 M 359.93,132.43 c 0,0 1.37742,1.09685 1.57,1.43 m -2.84,0.82 c 0,0 1.87,3.9 4.18,3.08 2.34,-0.84 1.43,-3.98 1.43,-3.98 0,0 1.29,5.24 5.32,3 4.02,-2.25 0.105,-5.5075 0.105,-5.5075 0,0 3.835,4.8275 7.435,2.2875 3.59,-2.54 -1.58,-6.13 -1.58,-6.13 0,0 5.69,4.72 7.49,1.59 1.79,-3.15 -0.83,-5.02 -0.83,-5.02 m -24.79,17.24 c 0,0 2.59,2.57 4.46,1.07 1.88,-1.49 1.06,-3.43 0.15,-4.42 m 16.37,2.1 c 0,0 2.13,3.35 3.52,4.72 1.04,1.05 1.83,2.05 1.83,2.05 m 14.09,-8.63 c 0,0 -2.47,-0.9 -3.66,-1.95 -1.2,-1.05 -2.4,-2.93 -3.68,-3.15 -1.26,-0.22 -2.18,-0.61 -2.18,-0.61 m 12.07,-8.8 5.67,-0.36 M 391.11322,124 c 0,0 3.73678,0.7 4.40678,4.19 0.68,3.5 0.38,3.71 -1.28,4.24 -1.64,0.53 -5.94,0.1 -5.94,0.1 m 5.41,-15.72 c 0,0 5.32,0.09 7.19,2.1 1.87,2.02 1.66,2.54 0.98,3.67 -0.66,1.12 -2.17,1.49 -3.66,1.49 -1.49,0 -7.49,-0.15 -7.12,0 m 1.95,-15.84 c 0,0 11.01,-2 10.7,2.98 -0.28,5 -8.83,5.75 -8.83,5.75 l -1.34,-0.06 m 2.9321,-18.514612 c 0,0 4.3879,0.189612 4.0279,3.034612 -0.38,2.84 -2.18,2.99 -3.68,4.19 -1.49,1.2 -3.28,2.09 -3.28,2.09 l -0.53,0.15 m -5.75,18.05 4.56,2.59 m -1.96,-8.68 c 0.98,0.07 8.15,1.2 8.91,0.6 m -8.83,-8.67 c 0,0 5.69,3.07 9.2,-0.29 m -10.84,-7.42 c 0.37,0 6.05,-1.41 6.05,-1.41 m -15.92,8.68 c 0,0 1.95,1.41 3.61,0.52 m -7.57,1.36 1.49,0.96 m 7.49,6.34 c 0,0 2.11,2.62 4.11,1.58 m -9.42,-4.87 4.18,0.9 m 0.84,-3.29 c 0,0 2.42,2.8 6.85,1.64 m -7.75,-7.84 c 0,0 4.62,0.75 6.33,-0.22 m -14.87,1.11 2.17,0.46 m -1.41,-2.53 c 0,0 4.03,-0.39 4.55,-1.07 m 7.4,-1.79 c 0,0 5.53,0.56 6.35,2.32 0.83,1.74 0.6,3 -0.75,3.75 -1.34,0.74 -3.41,1.39 -4.08,1.39 m 0.57,7.42 c 0,0 3.15,2.16 2.17,4.56 -0.98,2.39 -3.95,2.09 -5.8,1.27 -1.89,-0.82 -3.61,-1.72 -3.61,-1.72 m 3.29,-11.81 c 0,0 7.08,-0.21 8.37,3.5 0.75,2.17 -0.45,3.74 -2.03,4.27 -1.57,0.52 -6.27,-0.98 -6.27,-0.98 m -3.23,-3.93 c 0.3,0.15 4.36,1.61 3.01,4.46 -1.35,2.85 -5.61,0.75 -5.61,0.75"
         id="path1698"
         sodipodi:nodetypes="ccccccccccccccccccccccccccccccccccccccccccsccccccccccccccccccccccccccccccccccscccccccccccccccccccccccccccccccccccccccccccccccsc" />
    </g>
  </g>
  <g
     fill="#ffe013"
     id="g1706">
    <path
       d="m189.27 423.25s1.54-1.3 3.34-2.18 4.25-.12 5.28 2.05c1.05 2.17-.56 6.07-.56 6.07s-.48-3.09-1.36-3.77c-.87-.69-2.93.87-2.93.87s-2.03-1.06-2.46-1.49c-.45-.44-1.31-1.55-1.31-1.55zm4.52 21.38s3 .19 3.07 1.94c.05 1.73-1.13 3.83-1.13 3.83s2.86-1.12 3.47-4.09c.63-2.96-1.54-4.4-1.54-4.4s-2 .69-2.49 1.01c-.5.3-1.38 1.71-1.38 1.71zm-12.02 7.27s2.39 1.41 1.1 3.12c-1.48 1.98-1.6 3.66-1.6 3.66s3.46-2.55 4.26-4.29c1.22-2.63.45-4.35.45-4.35s-1.13-1.3-1.39-1.43c-.24-.13-1.27.55-1.58 1.17s-1.24 2.12-1.24 2.12zm-24.27-19.53s-3.72-.11-4.41 2.27c-1.41 4.86 1.56 6.54 1.56 6.54s-.14-4.35.92-4.98c1.06-.62 2.42.13 2.42.13s1.43.67 1.99.13c.57-.57.75-1.14.19-1.87-.57-.75-2.67-2.22-2.67-2.22zm-46.26 4.55s3.72.91 3.12 5.27c-.52 3.7-4.89 4.35-4.89 4.35s3-1.97 2.21-4.15c-.74-2.1-2.02-1.89-2.02-1.89l1.58-3.58zm-32.445 14.38s-1.438 4.62 2.143 6.46c3.092 1.57 5.03-.21 5.03-.21s-3.662-1.39-3.133-3.19c.326-1.11 1.031-2.67 1.031-2.67s-.515-1.31-2.278-.92c-1.764.41-2.795.53-2.795.53zm-9.114-13.16s-5.805 1.31-5.805 6.01c0 4.79 5.412 4.87 5.412 4.87s-2.943-3.56-.99-5.02c1.966-1.42 3.01-.51 3.01-.51s.448-2.15 0-2.86c-.462-.72-1.628-2.49-1.628-2.49zm9.303-16.27s-5.452-2.12-8.259 1.68c-2.482 3.35.19 6.71.19 6.71s.597-4.58 3.105-4.66c2.523-.07 2.387 2.16 2.387 2.16s2.224-.9 2.509-2.7c.272-1.81.068-3.19.068-3.19zm44.686-139.94s-2.3.44-2.81.82c-.51.37-1.38.95-1.38.95s-2.58.18-4.77-.06c-2.2-.26-5.09 1.25-4.65 5.32.43 4.09 3.08 8.99 3.08 8.99s.56-2.51 1.88-3.46 2.64-.12 3.39 1.51c.75 1.64 2.13 3.34 2.13 3.34s3.68-.67 5.28-.08c1.23.45 2.38 1.52 3.4 2.77.99 1.25 2.12 1.56 2.32 2.13.18.56 1.19 1.56-3.51 1.51-4.72-.06-7.68 1-8.36 2.69-.69 1.7.19 2.89.19 2.89s.75-2.19 4.19-2.57c3.46-.38 4.97-.06 7.29.89 2.33.93 3.21 1.2 3.21 1.2s-1.82-5.36-2.33-7.56c-.5-2.18-2.08-5.52-2.89-6.02-.8-.5-4.02-1.75-3.83-4.08.19-2.32 1.14-4.34.94-4.83-.38-.94-2.77-2.9-2.89-4.07-.12-1.19.12-2.28.12-2.28z"
       stroke="#111"
       stroke-width="1.183"
       id="path1704" />
  </g>
  <path
     d="m129.37 297.35c-1.91-1.39-3.81-1.84-3.81-4.85 0-3 1.29-3.62.65-4.42-.65-.79-3.08-3.1-2.75-5.33.31-2.24 2.36-3.91 4.09-3.58 1.72.31 3.83 2.17 4.67 3.13.82.96 2.11.45 3 .05.89-.36 2.96-.19 3.81.91.82 1.09 4 5.48 8.95 5.08 4.96-.39 7.05-1.38 7.05-3.61s-.95-4.48-.95-4.48 4.15 2.62 4.03 4.29c-.14 1.66-.21 4 .07 4.57.24.58-.97 1.79-1.36 1.79-.37 0-1 1.22-1.07 1.91-.08.7-.45 1.99.07 2.05.51.06 1.15.44 2.87-.83 1.72-1.29 2.29-2.23 2.29-2.23s.45 3.88-.44 5.04c-.9 1.15-3.07 1.72-3.07 1.72s1.34 2.5-.89 3.34c-2.24.84-3.27-.13-3.27-.13s.35 3.35-.67 3.54c-1.03.19-1.46-1.6-1.46-1.6s-1.36 1.16-1.55 1.67c-.19.52 1.15 2.48 1.55 3.84.36 1.34 1.27 3.73-.78 7.61-2.04 3.86-4.16 4.38-3.39 7.63.78 3.26 1.93 3.46 3.07 3.15 1.16-.33 5.41-3.27 9.82-1.68 4.4 1.6 4.54 3.65 4.92 5.88.38 2.25-1.08 5.92-3.65 7.33-2.55 1.41-7.73 1.33-7.73-1.35 0-2.67 2.81-3.48 2.81-3.48s-1.22 2.71.13 3.23c1.35.51 3.14.38 3.78-.38.63-.76-.52-1.41-1.22-1.41-.71 0-1.28-1.05.46-1.77 1.72-.7 2.87-2.3 2.36-3.96-.52-1.65-2.7-2.8-4.67-2.61-1.99.2-3.17 1.39-3.97 3.64-.79 2.23-2.15 4.39-3.35 5.15-1.22.77-1.96.47-1.62-1.35.59-2.9-1-3.61-1.58-3.69.58.68.51 1.39-.13 2.77-.65 1.36-1.41 2.83-1.41 2.83s3.12 4.62 3.52 6.99c.39 2.36.44 2.98.44 2.98s4.01-2.28 6.55-2.48c2.57-.19 3.86-1.15 4.62-1.67.77-.51 3.08-.05 4.47.91 1.4.96 4.13 2.29 5.85 1.21 1.73-1.09 1.41-2.76 1.66-4.8s2.12-2.74 3.91-3.26c1.79-.51 2.24-1.41 1.79-1.72-.46-.31-2.51-2.33-1.42-6.36 1.1-4.03 1.92-5.13 3.52-7.42 1.6-2.31 2.05-4.52.57-6.69-1.46-2.17-5.1-3.58-6.97-4.8-1.84-1.19-3.7-4.31-2.29-8.65 1.41-4.35 3.38-7.02 6.84-8 3.45-.95 5.48-.95 7.06.32 1.6 1.28 6.08 4.55 9.02 4.67 2.95.13 7.33-2.2 14.04-6.65 6.71-4.44 12.68-1.92 12.44 1.98-.26 3.91-4.01 3.52-5.33 2.88-1.36-.64-.66-.9-.66-.9s3.36.46 3.23-.95c-.12-1.41-.87-2.3-2.3-2.43-1.44-.12-2.97-.25-3.99 1.08-1.03 1.35-2.94 1.99-4.61 2.95-1.67.95-5.02 3-6.07 3.2-1.05.19-.58 2.19.57 3.31 1.16 1.13 6.11 5.92 14.68 6.31 8.56.37 15.45-3.27 15.45-3.27s1.35 7.68-6.51 9.02-14.41-.26-17.42-1.72c-3.01-1.47-5.61-1.6-6.07-1.55-.45.08 1.03 1.36 3.13 2.63 2.11 1.28 6.07 3.99 6.52 4.53.45.55 0 1.03-3.77-.43-3.77-1.47-6.93-3.01-7.48-3.27-1.25-.58 1.54 2.92 3.2 4.76 1.65 1.87 8.66 7.54 15.95 10.55s10.17 3.39 10.17 3.39-.12 2.53-2.81 3.68c-2.92 1.25-6.85.7-11.49-1.09-7.72-2.98-16.84-9.42-17.55-9.69-.7-.25 1.25 2.11 3.62 4.23 2.36 2.1 6.15 5.58 9.71 7.38 3.58 1.79 4.89 2.49 5.09 2.95.19.44-2.33.25-5.21-.77-2.87-1.03-7.7-3.93-9.84-5.58-2.15-1.62-3.2-2.92-1.77-.21 1.44 2.71 6.88 8.08 10.84 10.01 3.96 1.92 8.67 3.63 8.67 3.96 0 .32-1.58 3.29-8.16 2.78-6.59-.5-13.4-3.81-15.06-5.09-1.66-1.27-2.17-2.17-2.17-2.17s-.31 2.59 1.84 4.67c2.19 2.09 5.67 3.55 8.3 5.86 2.62 2.3 7.47 7.75 8.11 9.91.64 2.13.31 2.43-1.78.96-2.11-1.48-5.27-3.66-7.81-5.9-2.52-2.23-6.94-6.33-8.09-6.9-1.14-.58-.37 2.76.39 5.06.76 2.29 3.36 8.65 4.79 10.9 1.45 2.24 9.25 11.41 12.76 14.28 3.51 2.88 3.86 5.19 4.26 6.65.38 1.47-1.45 1.74-4.71.07-3.25-1.67-9.37-4.69-13.83-10.01-4.49-5.3-8.7-12.56-9.16-13.58-.44-1.03-.89 2.96.14 6.3 1.02 3.32 7.39 15.65 12.5 21.95 5.12 6.31 7.29 8.6 7.79 10.2.51 1.59-.69 3.01-3.64-.05-2.94-3.08-7.71-7.33-11.93-12.25-4.21-4.92-10.39-13.21-11.22-14.67-.84-1.47.67 2.98 1.79 5.01 1.13 2.04 6.43 12.31 10.46 18 4.03 5.7 14.57 17.43 18.89 21.27s7.58 6.41 8.67 6.96c1.1.54 1.49 2.6-2.37 2.98-3.87.38-10.92-1.25-15.44-5.15-4.51-3.91-16.3-17.07-21.17-23.96-4.85-6.86-11.03-17.57-13.36-22.18-2.33-4.59-3.41-7.92-3.48-8.44-.07-.5 1.06 9.31 1.91 12.64.87 3.31 3.81 10.26 6.69 14.28 2.87 4.03 6.52 9.27 7.48 10.24.97.95.25 4.34-2.75 3.12s-7.99-5.49-9.97-7.85c-1.99-2.37-11.96-16.51-14.36-22.1-2.39-5.6-2.52-7.2-3.09-7.56-.57-.4-2 .78-.84 4.72 1.15 3.93 3.54 8.08 4.57 10.44 1.03 2.37.61 4.23-1.33 2.05-1.96-2.16-4.91-6.39-6.63-11.46-.91-2.72-.51-3.91-.44-4.67.06-.77-1.67.57-2.18 3.12-.5 2.55.12 4.45 1.73 7.33 1.6 2.87 8.28 10.64 10.32 12.88 2.04 2.25 4.28 2.56 5.31 2.25 1.03-.34 1.79.57.7 1.33-1.08.76-2.43 1.15-2.43 1.15s1.85 3.84 4.48 5.43c2.62 1.6 3.93 1.67 5.59 1.54 1.67-.12 3.78-.04 2.31 1.97-1.47 2.03-3.92 2.52-6.31 1.71-2.36-.83-4.22-1.83-4.22-1.83s6.19 7.58 8.8 10.85c2.62 3.24 5.96 7.51 8.44 7.77 2.49.25 4.76-.77 5.6-1.03.83-.26.43-1.71.07-2.33-.4-.65-.72-3.72.95-4.93 1.65-1.22 2.8-.2 3.32.7.51.89 2.05 1.73 3.2 2.63 1.15.89 1.79 3.67.38 4.89-1.4 1.21-2.74.26-4.1.83-1.33.57-2.99 2.93-3.39 2.93-.36 0 2.31-.31 3.39.46 1.1.76 2.19 1.46 3 1.34.84-.12 1.94 0 2.46.5.48.52 1.45 1.93 2.22 2.05.77.13 2.1 1.67 1.17 2.43-.98.77-3.22 1.11-3.39 2.05-.21.93-.98 1.48-2.31.99-1.36-.48-4.03-.8-5.06-1.76-1.03-.95-1.82-1.71-2.68-1.85s-1.56-.51-1.56-.51.76 1.85 1.81 2.63c.56.4 1.79 1.87 2.43 2.52.64.62.96 2.3.52 3.01-.45.69-1.03 1.79-1.79 1.46-.78-.32-.75-1.72-1.67-1.41-.94.32-1.56 1.14-1.56 2.17 0 1.04-1.54 1.41-1.86.45s-2.68-6.6-2.68-9.18c0-2.55-.2-2.79-1.28-3-1.1-.19-2.18 1.09-3.27.31-1.07-.76-1.46-2.15-1.91-2.29-.45-.12-.68 1.67-2.18 1.29s-3.29-1.36-4.25-.79c-.96.6-2.43 3.08-4.67 2.64-2.23-.44-2.75-1.73-3.06-2.95-.33-1.2-.04-1.14-.04-1.14s2.41.97 2.93-.12c.5-1.08-.79-2.32-1.62-2.82-.84-.52-1.54-1.22-1.54-1.22s2.43-1.79 5.06-1.09c2.61.7 4.51 1.36 6.24 1.73 1.72.39 1.76-1.16.51-2.05-1.26-.9-3.36-4.25-6.44-6.24-3.07-1.98-4.41-2.47-7.03-4.2-1.72-1.17-1.79-2.82-1.79-2.82s.07 1.65-1.18 2.87c-1.2 1.17-3.06 1.22-4.09.77-1.03-.44-.83-.51-.83-.51s2.45-.94 1.59-3.08c-.75-1.87-.89-2.13-3.19-4.2-2.29-2.08-5.87-3.88-6.71-4.59-.83-.7-2.28-2.03-2.28-2.03s-1.25 1.81-.19 4.72 1.06 3.8 4.26 6.18c3.2 2.36 5.96 4.32 6.9 6.58.84 1.99.38 4.45-1.28 5.02-1.66.58-2.99.44-4.66-.18 1.02-.49 2.3-.43 2.24-1.84-.07-1.4-.91-1.28-2.12-1.92-1.22-.63-1.67-1.01-1.91-.56-.26.44-.49 1.47-1.86 1.39-1.38-.05-2.97-2.49-2.97-2.49s.28 7.84 2.4 11.23c2.1 3.39 4.03 2.68 4.67 1.85.63-.82.12-1.66 0-2.37-.13-.71-1.41-1.9-1.41-1.9s4.99-1.17 5.5 2.67c.5 3.84-.91 4.22-1.86 4.79-.96.58-2.87 0-2.87 0s3.39 3.43.24 5.15c-3.12 1.73-4.72-1.95-4.72-1.95s.04 4.86 2.43 6.62c1.72 1.27 3.72 0 5.17-1.27 1.47-1.28 2.43-2.72 4.21-2.24 3.57.96.85 6.58.85 6.58s.63-2.42-1.09-3.26c-1.1-.53-2.3.95-2.3 3.51 0 2.57-.25 3.01-.25 3.01s5.85 2.49 9.31 1.6c3.44-.9 5.35-4.66 5.54-6.57.2-1.94-1.2-3.22-2.3-3.47-1.09-.25-2.55.51-1.97 1.8.57 1.27 1.33 3.38 1.33 3.38s-3.83-.19-4.53-2.17c-.71-1.98.35-4.06 3.01-5.89 1.72-1.17 4.08-1.04 5.82 0 1.15.72 1.72 2.56 1.72 2.56s1.7-2.67 4.25-1.85c2.56.82 2.94 4.85 2.69 6.13-.27 1.27-.51 2.82-.51 2.82s3.25-2.74 4.98.08c1.72 2.79-3.51 6.4-3.51 6.4s6.07-2.52 7.74 4.1c1.31 5.27-2.12 9.22-5.45 9.98-3.31.76-6.63-.84-5.69-3.96.97-3.15 4.67-2.55 4.67-2.55s-3.58 2.67-1.15 3.75c2.44 1.09 4.74-2.42 3.39-5.42-1.35-3.03-3.49-4.03-5.62-3.65-2.14.38-3.24 1.93-5.15 2.1-1.93.21-3.51-.31-3.51-.31s2.42 2.82.57 4.61c-1.86 1.79-3.52.76-3.52.76s-.93 3.54-3.52 5.05c-2.58 1.5-4.83 1.11-4.83 1.11s3.43-2.15 3.17-5.33c-.26-3.19-1.06-3.27-2.53-4.98-1.47-1.74-1.92-3.15-1.79-3.78.13-.64.46-1.04.46-1.04s-3.34.1-6.4-1.69c-3.07-1.79-4.9-3.76-5.94-5.87-1.06-2.1-1.84-4.15-1.84-4.15s-1.56 9.82.33 13.01c1.89 3.2 6.43 4.61 8.21 5.43 1.79.83 3.9 4.38 2.3 8.09-1.6 3.7-6.22 5.95-8.37 4.73-2.14-1.21-1.11-4.1-1.11-4.1s1.87 2.07 3.85.71c1.24-.83.91-2.33-.24-2.92-1.15-.57-2.7-1.33-2.7-1.33s-1.04 1.21-1.69 1.48c-.64.25-1.21.37-1.21.37s.13 4.43-.31 7.2c-.45 2.74-2 6.4-6.66 7.22-4.67.84-6.19-1.09-5.94-3.52.24-2.42 1.27-3.27 1.27-3.27s.07 3.27 2 3.85c1.91.57 3.82-.44 4.27-1.35.45-.88-.57-2.5-.76-3.31-.2-.84-.2-1.6-.2-1.6s-3.07.76-4.6-1.34c-1.54-2.12-1.28-5.8-1.28-5.8s-1.95 1.14-4.44.96c-2.5-.2-3.32-.26-4.17.18-.83.46-1.19 2.17.84 2.99 1.4.57 3.84.38 3.84.38s-2.58 2.17-5.63 1.47c-1.98-.46-2.93-1.76-3.08-3.48-.12-1.74 1.16-3.77 4.3-5.3 3.12-1.55 5.28-1.74 8.4-4.61 3.14-2.88 3.9-3.35 5.18-5.5 1.29-2.14 2.24-3.1 2.75-5.6 1.45-7.04.71-8.26.71-8.26s-1.6 4.18-4.41 7.69c-2.81 3.52-7.45 4.98-9.11 5.3-1.67.33-1.86.38-1.86.38s.19 2.54-1.14 4.51c-1.36 1.99-3.56 3.27-6.54 4.09-2.97.84-6.22 2.78-5.59 5.76.64 2.98 2.82 1.84 3.49 1.22 1.08-.97.64-2.88.64-2.88s1.27.65 1.46 2.56c.26 2.54-.95 5.85-6.6 5.97-5.632.12-5.889-5.6-5.889-5.6s-3.146-.25-2.238-3.7c.895-3.45 4.788-4.67 4.788-4.67s-3.391-1.65-5.303-2.36c-1.912-.7-5.208 0-5.533 1.6-.312 1.59.57 3.46 1.465 4.03.908.57 1.641.89 1.641.89s-4.841.83-6.618-2.11c-1.791-2.93-.135-6.2 2.103-7.8 1.627-1.15 2.373-1.02 2.373-1.02s-1.248-2.41 1.817-3.93c3.079-1.53 9.331-.96 9.331-.96s-2.875-1.67-2.672-4.48c.19-2.81 2.482-5.46 4.215-6.33 1.72-.86 4.06-1.4 5.47 1.41 1.41 2.82-1.89 3.58-1.89 3.58s.5-1.28-.44-2.36c-.97-1.1-3.1.52-2.81 2.68.24 2.04 1.64 3.5 5.72 4.22 3.27.57 8.23.4 13.36-2.94 3.61-2.36 6.55-6.43 7.19-8.35s.7-3.83.7-3.83-3.2 0-4.02.38c-.83.38-1.42 1.72-1.54 2.76-.13 1.01-.17 2.29.26 2.69.57.6 1.41.41 1.41.41s-1.21 2.88-4.51 2.81c-3.33-.07-4.29-2.59-4.1-5.79.19-3.19 2.2-6.65 4.99-7.41 2.78-.77 3.81.11 5.09-.72 1.26-.82 1.84-2.78 2.1-4.92s.07-3.09-.19-3.04c-.26.08-1.34.4-2.5 1.79-.86 1.09-.75 2.54-.75 2.54s-1.23-.8-1.04-2.34 1.16-2.75 1.16-2.75-3.42 2.01-5.54.71c-1.86-1.14-1.88-2.43-1.72-3.72.14-1.02 1.08-2.09 1.08-2.09s1 3.56 3.82 2.8c2.8-.76 4.02-2.17 4.47-4.74.44-2.56.19-12.68.19-12.68s-.7 1.6-2.24 2.61c-1.54 1.02-2.52.84-3.18 2.38-.54 1.22.48 2.85 1.77 2.97 1.29.13 1.67 0 1.67 0s-1.26 2.76-3.2 2.76c-1.95 0-2.66-2.82-2.66-2.82s-1.08 3.39-2.62 4.42c-1.53 1-2.11 1.27-2.87 2.79-.6 1.21-.45 3.72.96 4.86 1.4 1.16 1.73 1.41 1.73 1.41s-4.67.06-5.89-2.42c-1.22-2.49-1.72-3.01-1.72-3.01s-3.44 3.99-5.02 6.06c-1.6 2.08-4.993 5.8-4.993 5.8s3.223.39 5.183-.25c1.94-.65 4.64-.91 6.03.38 1.41 1.28 1.81 3.58.9 4.99-.9 1.41-1.14 2.42-1.91 2.69-.78.24-6.24.05-8.41-.91-2.187-.96-3.774-2.36-4.343-2.24-.583.14-1.668 1.03-1.858 1.87-.203.83-2.075 3.01-3.269 4.15-1.18 1.12-2.455 2.13-2.59 3.23-.122 1.09.257 3.26-1.017 4.29-1.289 1.03-2.93 1.03-3.513 0-.57-1.03-.963-.71-2.17-.65-1.221.08-2.753 1.03-3.391-.44-.651-1.48-.841-1.92.054-3.33.909-1.42 3.133-3.23 5.574-4.97 2.428-1.71 2.55-2.09 2.55-2.09s-4.218.82-5.94 1.33c-1.736.52-3.01.97-3.648 1.74-.651.76-2.902 2.85-4.448 2.14-1.533-.71-1.411-2.28-1.207-3.55.189-1.28-.638-1.6-1.085-2.44-.461-.82-.827-1.6-.271-2.74.787-1.59 3.052-1.33 5.03-1.14 1.98.17 6.32-.08 8.748-.14 2.427-.05 2.752-.7 1.356-1.22-1.411-.52-5.696-1.55-7.229-2.74-1.546-1.22-1.6-2.98-1.275-3.5.312-.51 1.14-.26 1.791-1.71.638-1.48.759-2.82.38-3.58-.38-.77.434-1.16 1.858-.72 1.397.45 2.618 1.35 2.671 1.67.082.33.896-.65 1.289-.76.882-.27 1.465 1.71 1.587 3.52.136 1.78.136 4.05 1.926 4.05 1.791 0 4-.27 5.073-1.09 1.098-.81 3.852-3.74 4.543-5.84.719-2.12 1.424-4.1 2.632-5.06 1.22-.95 1.53-1.27 1.53-1.27s-2.684.84-4.095-.19c-1.396-1.03-1.587-1.51-1.587-3.14 0-1.64.638-2.59.638-2.59s1.465 1.98 2.998 1.71c1.546-.24 2.376-.76 3.266-1.71.88-.96 1.15-1.41 1.15-1.41s-1.92.45-2.04-.43c-.14-.91 1.16-2.06 2.68-2.82 1.5-.77 2.01-1.41 1.56-2-.43-.57-1.53-2.1-.19-4.27 1.35-2.18 4.48-4.45 7.35-6.87 2.88-2.43 7.04-5.63 6.91-8.32-.14-2.68-3.38-8.22-3.38-8.22s-.3 7.03-2.82 10.47c-2.93 3.96-6.47 7.54-6.97 7.22-.53-.11.32-1.36.32-1.36s3.58-6.91 4.86-9.9c1.28-2.98 2.18-8.16 2.12-8.73-.09-.57-.13-1.8-.13-1.8s.41 4.67-11.05 20.05c-11.419 15.38-17.16 17.95-18.567 19.03-1.396 1.07-6.13 3.92-7.161 4.44-1.018.51-2.563-.46-.502-3.07 2.035-2.57 6.646-8.78 9.263-12.11 2.631-3.32 10.579-15.21 11.99-18.32 1.41-3.11 1.537-5.35 1.737-6.35.19-1.03-1.032.84-3.392 4.97-2.374 4.15-9.819 15.21-14.417 20.72-4.611 5.51-10.43 12.31-19.598 18.2-9.182 5.89-18.797 9.64-23.15 8.91-4.354-.74-4.692-3.02.19-4.9 4.896-1.84 6.442-2.94 8.598-4.58 2.184-1.68 19.245-16.06 24.02-22.35 4.761-6.31 7.514-14.85 7.826-16.18.326-1.34-1.03 1.04-2.618 3.54-1.6 2.49-6.781 9.57-13.09 15-6.293 5.42-14.471 12.04-16.329 13.1-1.845 1.06-6.782 2.17-.57-3.7 6.198-5.89 13.196-13.71 18.893-20.49 5.683-6.78 7.825-10.91 8.653-13.35.841-2.41.773-4.01.773-4.01s-3.417 4.5-8.273 9.14c-4.869 4.64-10.47 9.76-13.848 11.28-3.39 1.55-5.696.58-6.646-.24-.949-.84 1.845-2.57 3.445-3.4 1.601-.84 3.865-3.11 6.727-6.5 2.848-3.4 9.738-12.24 11.596-17.04 1.845-4.79 1.152-10.29 1.152-10.29s-2.075 4.89-8.313 9.15c-6.225 4.26-8.856 4.77-10.836 5.02-1.994.24-.773-1.19 2.36-2.78 3.133-1.61 5.792-3.27 9.439-6.78 3.635-3.52 6.713-7.86 6.713-7.86l-.068-2.03s-4.435 3.69-10.293 3.64c-5.846-.09-8.992-1.06-10.01-2.28-1.018-1.22-.827-2.77 1.655-2.96 2.509-.19 7.269-1.14 10.145-3.19 2.875-2.04 4.03-4.02 4.598-5.82.583-1.78.38-3.32.38-3.32s-4.503 4.55-9.426 7.1c-4.924 2.56-12.12 2.95-14.295 2.87-2.17-.07-5.642-.76 2.211-2.22 7.866-1.48 11.718-4.1 14.08-5.7 2.333-1.6 9.344-9.19 8.462-8.47-.379.31-4.245 3.7-6.849 4.66-2.577.96-8.178 2.33-13.332 3.04-5.14.72-8.03.12-9.941-1.59-1.627-1.48-2.17-3.44 1.668-3.55 3.838-.14 7.961-1.22 11.09-2.88 2.93-1.57 4.476-2.82 6.51-4.56 2.062-1.7 4.774-3.82 5.479-4.34.705-.51-3.811 1.23-6.36 2.07-2.563.81-8.667 2.09-11.515 2.03-2.848-.07-2.359-1.22 1.343-2.12 3.716-.89 8.924-2.38 11.961-3.79 3.038-1.41 6.944-4.48 6.944-4.48s-11.908 4.48-18.906 2.74c-6.999-1.72-9.494-5.68-9.494-5.68s6.497.63 10.01.77c3.513.11 6.876.06 11.569-1.41 4.706-1.47 5.995-3.8 6.754-5.3.76-1.52 1.207-2.97 1.207-2.97s-4.123-2.44-6.93-4.37c-2.821-1.91-4.218-3.88-6.01-4.39-1.79-.52-4.231 1.13-3.716 3.5.583 2.73 3.01 1.47 3.662 1.08.624-.37.813-1.45 1.329-1.33.516.14 1.085 2.81-.516 4.03-1.6 1.2-5.94 1.08-6.971-3.07-.692-2.89.394-5.95 3.391-7.41 3.01-1.47 7.568.27 9.562 1.78 2.685 2.04 5.059 4.92 8.124 5.63 3.065.69 6.05.51 9.372-.96 3.31-1.47 8.789-3.01 12.776-.83 3.987 2.16 4.95 5.79 4.706 9.18-.258 3.4-3.934 6.52-6.05 8.3-2.102 1.8-6.456 5.09-5.425 7.19 1.018 2.12 4.03 1.67 5.425 3.01 1.411 1.35 2.563 6.98 2.333 8.11-.217 1.17-.922 1.36-1.37 1.09-.447-.24-.908.62-1.031 2.25-.122 1.63.299 2.59 1.479 2.07 1.193-.51 1.56-1.65 3.106-.71 1.533.97 2.93 3.54 3.635 6.15.719 2.62 1.41 5.62 1.722 6 .326.4 2.048-1.52 3.509-2.99 1.48-1.47 4.07-2.95 6.7-2.63 2.61.33 3.71.84 4.41 1.52.71.72 1.35 1.63 1.35 1.63s1.27-2.39 2.94-4.04c1.65-1.66 3.58-3.01 3.58-3.01s-.52-1.49.12-3.19c.65-1.69 3.3-4.76 3.3-4.76s-4.52 3.31-7.19 1.98c-1.62-.81-1.93-1.61-1.93-1.61s-3.19 1.03-4.79-.32c-1.61-1.32-1.15-2.68-1.15-2.68s-3.19 1.22-2.75 4.1c.45 2.87 2.83 2.62 3.59 2.23 1.48-.77 2.06-1.25 2.06-1.25s.45 2.32-1.18 3.33c-2.17 1.35-5.27 1.43-6.61-1.37-1.35-2.82-.75-5.96 1.41-8.07 2.14-2.09 4.38-2.69 7.56-2.42 3.2.25 3.75 1.41 6.85 1.52 3.1.14 4.32-.88 5.21-1.52.91-.63 1.67-1.46 1.67-1.46s-2.94-1.52-2.18-4.59c.75-3.07 3.52-3.52 3.52-3.52s-.46 3.78 2.93 3.84 4.1-1.78 4.61-3.33c.52-1.51-1.08-4.66-2.1-7.85l-1.02-2.7s.31 1.2-1.31 1.33c-1.63.11-5.16.11-5.16.11s-.82-2.44-3.08-2.93c-2.26-.52-4.44-.39-8.35.54-3.89.95-8.3 1.85-11.92 0-5.915-3.01-5.711-8.87-4.775-10.98 1.37-3.14 4.275-3.5 6.405-3.14 2.64.44 3.01 3.19 3.01 3.19s-2.12-1.37-4.02-.42c-1.88.94-1.45 3.81.63 5.9 2.19 2.2 4.34 2.71 9.54 2.63 5.21-.05 6.6-.43 10.37-.05 3.75.38 5.39 1.45 6.34 2 .94.57 2.57 2.01 2.57 2.01s-2.01-5.97-2.07-6.14c-.07-.2-.98-.98-.98-.98"
     fill="#ed1c24"
     id="path1708" />
  <path
     d="m110.62 360.91s-9.68.61-16.894-3c-7.215-3.61-9.358-6.12-10.972-8.76-1.601-2.66-2.184-6.61-2.184-6.61s7.947 4.41 6.931-2.55c-1.044-6.97-7.121-.55-7.121-.55s5.357-9.27-2.387-8.47c-7.731.79-.42 8.93-.42 8.93s-9.507-4.7-7.04 3.17c2.482 7.84 7.69-.24 7.69-.24s.312 7.27 7.256 12.95c6.931 5.67 14.213 6.74 18.96 7.38 4.73.64 6.51.15 6.51.15l-.33-2.4zm33.48.8s13.21 3.39 22.21 1.09c7.23-1.83 10.17-5.79 11.76-8.2 1.6-2.43 2.42-5.18 2.42-5.18s-7.69 3.94-6.57-2.46c1.13-6.4 6.8-.4 6.8-.4s-4.93-8.59 2.44-7.76c7.36.83.22 8.22.22 8.22s9.16-4.18 6.65 3.01c-2.52 7.2-7.31-.31-7.31-.31s-1.75 6.75-6.48 10.52c-6.01 4.78-12.25 4.99-16.8 5.28-6.01.36-15.21-1.48-15.21-1.48l-.13-2.33z"
     stroke="#111"
     stroke-width=".793"
     fill="#ffe013"
     id="path1710" />
  <path
     d="m126.45 288.01c-.11-.06 4.99.13 5.47 1.63.5 1.46.61 4.55-.45 5.1-1.07.51-3.32.22-4.2-.68-.87-.9-.71-6-.82-6.05"
     fill="#fff"
     id="path1712" />
  <g
     stroke="#111"
     fill="none"
     id="g1732">
    <g
       stroke-width="1.183"
       id="g1726">
      <path
         d="m126.58 288.06s-1.16 5.14.58 6.47c1.53 1.18 3.61.83 4.42-.19.79-1.02.89-2.28.89-2.28"
         id="path1714" />
      <g
         stroke-linecap="round"
         id="g1720">
        <path
           d="m127.76 291.02l1.32 1.6m-1.18-2.52s-.72 1.48.3 2.33c1.02.84 1.78-.03 1.78-.03"
           id="path1716" />
        <path
           d="m126.14 287.89s2.01.36 3.32.44 3.04 1.9 3.04 3.96c0 2.05 1.62 4.15 2.77 4.7"
           id="path1718" />
      </g>
      <path
         d="m 193.99,352.59 c 0,0 -2.18,-1.19 -2.29,-1.92 -0.12,-0.74 0.11,-1.47 0.11,-1.47 m -53.1,8.91 c 0,0 -1.15,4.84 0.97,6.97 2.11,2.13 5.54,2.13 5.54,2.13 m -4.39,-19.85 c 0,0 3.53,4.93 6.16,2.72 2.64,-2.18 1.87,-3.6 1.87,-3.6 m -12.71,2.64 c 0,0 0,3.72 -1.76,6.09 -1.77,2.37 -0.53,7.74 -0.53,7.74 0,0 2.3,-3.94 4.5,-4.66 2.2,-0.71 4.4,-3.93 4.31,-5.64 -0.16,-3.61 -3.07,-6.62 -3.07,-6.62 0,0 4.05,3.63 5.73,0.11 1.3,-2.77 -1.07,-3.91 -2.21,-5.21 -1.14,-1.33 -1.5,-2.9 -1.5,-2.9 m -21.96,10.66 c 0,0 -8.56,9.52 -3.62,16.57 4.93,7.05 12.62,6.01 12.62,6.01 0,0 -5.2,-3.46 -4.95,-7.69 0.27,-4.23 1.43,-6 1.43,-6 0,0 4.84,3.02 7.13,-1.23 2.29,-4.22 -0.37,-5.47 -1.76,-6.35 -1.43,-0.88 -2.2,-1.92 -2.12,-3.78 0.08,-2.04 3.09,-2.9 3.09,-2.9 m 7.31,-8.56 c 0,0 -7.85,3.86 -7.5,7.47 0.47,4.73 5.21,3.28 6.19,6.62 m 9.51,27.26 c 0,0 1.33,-3.34 0.71,-5.1 -0.6,-1.76 -4.5,-6.1 -3.79,-9.63 0.7,-3.53 3.71,-7.05 2.47,-10.58 m -28.93,26.37 c 0,0 -7.14,-10.15 -7.14,-19.75 0,-8.03 3.8,-13.24 3.8,-13.24 m -6.02105,-16.59532 c 0,0 1.87105,-1.19468 4.16105,-1.03468 m 7.84,11.38 c 0,0 0.54,1.78 1.6,2.37 1.06,0.63 3,1.25 3,1.25 0,0 -3,-3.88 -1.42,-6.71 1.6,-2.82 4.16,-1.68 5.73,-3.98 m -3.08594,-8.5675 c 0,0 3.83532,3.06188 8.47594,-0.7525 m 23.2,-23.13 c 0,0 -2.83,0.54 -4.96,0.18 m 3.2,-6.61 c 0,0 0.24,2.55 -5.4,2.1 m -30.77,-10.57 c 0,0 0,3.71 2.13,5.12 m -12.6,133.43 c 0,0 -0.99,-2.22 0.53,-5.26 m -23.859,18.1 c 0.257,0 1.872,-0.09 2.319,-0.72 0.461,-0.62 1.37,-2.06 2.359,-2.68 0.99,-0.63 2.319,-1.9 3.214,-2.89 m 92.17,5.98 c 0,0 -4.1,1.79 -6.4,-1.23 m 3.6,7.6 c 0,0 -1.34,-2.95 -1.79,-3.44 m -11.5,-5.34 4.08,0.13 m -15.46,38.49 c 0,0 0.87,-2.33 -2.35,-4.36 m 5.67,-1.55 -3.51,-2.21 m 12.57,-9.17 c 0,0 -2.52,5.57 -9.06,6.69 m 2.47,-13.4 c 0,0 2.26,9.54 -5.18,11.04 m -12.43,-2.9 c 0,0 -0.57,3.55 -6.6,-1.38 m -2.65281,19.37625 c 0,0 -3.29719,-0.89625 -3.85719,-5.14625 m -11.27,5.41 c 0,0 3.08,-1.16 4.07,-4.73 M 95.9,475.9 c 0,0 -0.488,-2.32 0.556,-3.98 1.058,-1.66 2.401,-2.28 2.401,-2.28 m -12.478,-29.3 c 0,0 1.791,-1.36 2.4,-2.47 0.611,-1.11 1.397,-2.47 1.397,-2.47 m 9.06,19.71 c 0,0 1.727,1.05 2.957,1.41 1.23,0.38 2.22,0.75 2.22,0.75 m -16.14,2.76 c 0.19,0 0.055,0.53 3.12,0.11 3.092,-0.4 4.57,-1.14 7.229,-1.71 2.647,-0.54 4.937,-1.48 6.467,-1.22 1.52,0.25 3.49,-0.74 3.87,-1.11"
         id="path1722"
         sodipodi:nodetypes="cccccccccccccccccccccccccccccccccccscccccccccccccccccccccccccccccccccccccccccccccccccccccccc" />
      <path
         d="m 129.37,297.35 c -1.91,-1.39 -3.81,-1.84 -3.81,-4.85 0,-3 1.29,-3.62 0.65,-4.42 -0.65,-0.79 -3.08,-3.1 -2.75,-5.33 0.31,-2.24 2.36,-3.91 4.09,-3.58 1.72,0.31 3.83,2.17 4.67,3.13 0.82,0.96 2.11,0.45 3,0.05 0.89,-0.36 2.96,-0.19 3.81,0.91 0.82,1.09 4,5.48 8.95,5.08 4.96,-0.39 7.05,-1.38 7.05,-3.61 0,-2.23 -0.95,-4.48 -0.95,-4.48 0,0 4.15,2.62 4.03,4.29 -0.14,1.66 -0.21,4 0.07,4.57 0.24,0.58 -0.97,1.79 -1.36,1.79 -0.37,0 -1,1.22 -1.07,1.91 -0.08,0.7 -0.45,1.99 0.07,2.05 0.51,0.06 1.15,0.44 2.87,-0.83 1.72,-1.29 2.29,-2.23 2.29,-2.23 0,0 0.45,3.88 -0.44,5.04 -0.9,1.15 -3.07,1.72 -3.07,1.72 0,0 1.34,2.5 -0.89,3.34 -2.24,0.84 -3.27,-0.13 -3.27,-0.13 0,0 0.35,3.35 -0.67,3.54 -1.03,0.19 -1.46,-1.6 -1.46,-1.6 0,0 -1.36,1.16 -1.55,1.67 -0.19,0.52 1.15,2.48 1.55,3.84 0.36,1.34 1.27,3.73 -0.78,7.61 -2.04,3.86 -4.16,4.38 -3.39,7.63 0.78,3.26 1.93,3.46 3.07,3.15 1.16,-0.33 5.41,-3.27 9.82,-1.68 4.4,1.6 4.54,3.65 4.92,5.88 0.38,2.25 -1.08,5.92 -3.65,7.33 -2.55,1.41 -7.73,1.33 -7.73,-1.35 0,-2.67 2.81,-3.48 2.81,-3.48 0,0 -1.22,2.71 0.13,3.23 1.35,0.51 3.14,0.38 3.78,-0.38 0.63,-0.76 -0.52,-1.41 -1.22,-1.41 -0.71,0 -1.28,-1.05 0.46,-1.77 1.72,-0.7 2.87,-2.3 2.36,-3.96 -0.52,-1.65 -2.7,-2.8 -4.67,-2.61 -1.99,0.2 -3.17,1.39 -3.97,3.64 -0.79,2.23 -2.15,4.39 -3.35,5.15 -1.22,0.77 -1.96,0.47 -1.62,-1.35 0.59,-2.9 -1,-3.61 -1.58,-3.69 0.58,0.68 0.51,1.39 -0.13,2.77 -0.65,1.36 -1.41,2.83 -1.41,2.83 0,0 3.12,4.62 3.52,6.99 0.39,2.36 0.44,2.98 0.44,2.98 0,0 4.01,-2.28 6.55,-2.48 2.57,-0.19 3.86,-1.15 4.62,-1.67 0.77,-0.51 3.08,-0.05 4.47,0.91 1.4,0.96 4.13,2.29 5.85,1.21 1.73,-1.09 1.41,-2.76 1.66,-4.8 0.25,-2.04 2.12,-2.74 3.91,-3.26 1.79,-0.51 2.24,-1.41 1.79,-1.72 -0.46,-0.31 -2.51,-2.33 -1.42,-6.36 1.1,-4.03 1.92,-5.13 3.52,-7.42 1.6,-2.31 2.05,-4.52 0.57,-6.69 -1.46,-2.17 -5.1,-3.58 -6.97,-4.8 -1.84,-1.19 -3.7,-4.31 -2.29,-8.65 1.41,-4.35 3.38,-7.02 6.84,-8 3.45,-0.95 5.48,-0.95 7.06,0.32 1.6,1.28 6.08,4.55 9.02,4.67 2.95,0.13 7.33,-2.2 14.04,-6.65 6.71,-4.44 12.68,-1.92 12.44,1.98 -0.26,3.91 -4.01,3.52 -5.33,2.88 -1.36,-0.64 -0.66,-0.9 -0.66,-0.9 0,0 3.36,0.46 3.23,-0.95 -0.12,-1.41 -0.87,-2.3 -2.3,-2.43 -1.44,-0.12 -2.97,-0.25 -3.99,1.08 -1.03,1.35 -2.94,1.99 -4.61,2.95 -1.67,0.95 -5.02,3 -6.07,3.2 -1.05,0.19 -0.58,2.19 0.57,3.31 1.16,1.13 6.11,5.92 14.68,6.31 8.56,0.37 15.45,-3.27 15.45,-3.27 0,0 1.35,7.68 -6.51,9.02 -7.86,1.34 -14.41,-0.26 -17.42,-1.72 -3.01,-1.47 -5.61,-1.6 -6.07,-1.55 -0.45,0.08 1.03,1.36 3.13,2.63 2.11,1.28 6.07,3.99 6.52,4.53 0.45,0.55 0,1.03 -3.77,-0.43 -3.77,-1.47 -6.93,-3.01 -7.48,-3.27 -1.25,-0.58 1.54,2.92 3.2,4.76 1.65,1.87 8.66,7.54 15.95,10.55 7.29,3.01 10.17,3.39 10.17,3.39 0,0 -0.12,2.53 -2.81,3.68 -2.92,1.25 -6.85,0.7 -11.49,-1.09 -7.72,-2.98 -16.84,-9.42 -17.55,-9.69 -0.7,-0.25 1.25,2.11 3.62,4.23 2.36,2.1 6.15,5.58 9.71,7.38 3.58,1.79 4.89,2.49 5.09,2.95 0.19,0.44 -2.33,0.25 -5.21,-0.77 -2.87,-1.03 -7.7,-3.93 -9.84,-5.58 -2.15,-1.62 -3.2,-2.92 -1.77,-0.21 1.44,2.71 6.88,8.08 10.84,10.01 3.96,1.92 8.67,3.63 8.67,3.96 0,0.32 -1.58,3.29 -8.16,2.78 -6.59,-0.5 -13.4,-3.81 -15.06,-5.09 -1.66,-1.27 -2.17,-2.17 -2.17,-2.17 0,0 -0.31,2.59 1.84,4.67 2.19,2.09 5.67,3.55 8.3,5.86 2.62,2.3 7.47,7.75 8.11,9.91 0.64,2.13 0.31,2.43 -1.78,0.96 -2.11,-1.48 -5.27,-3.66 -7.81,-5.9 -2.52,-2.23 -6.94,-6.33 -8.09,-6.9 -1.14,-0.58 -0.37,2.76 0.39,5.06 0.76,2.29 3.36,8.65 4.79,10.9 1.45,2.24 9.25,11.41 12.76,14.28 3.51,2.88 3.86,5.19 4.26,6.65 0.38,1.47 -1.45,1.74 -4.71,0.07 -3.25,-1.67 -9.37,-4.69 -13.83,-10.01 -4.49,-5.3 -8.7,-12.56 -9.16,-13.58 -0.44,-1.03 -0.89,2.96 0.14,6.3 1.02,3.32 7.39,15.65 12.5,21.95 5.12,6.31 7.29,8.6 7.79,10.2 0.51,1.59 -0.69,3.01 -3.64,-0.05 -2.94,-3.08 -7.71,-7.33 -11.93,-12.25 -4.21,-4.92 -10.39,-13.21 -11.22,-14.67 -0.84,-1.47 0.67,2.98 1.79,5.01 1.13,2.04 6.43,12.31 10.46,18 4.03,5.7 14.57,17.43 18.89,21.27 4.32,3.84 7.58,6.41 8.67,6.96 1.1,0.54 1.49,2.6 -2.37,2.98 -3.87,0.38 -10.92,-1.25 -15.44,-5.15 -4.51,-3.91 -16.3,-17.07 -21.17,-23.96 -4.85,-6.86 -11.03,-17.57 -13.36,-22.18 -2.33,-4.59 -3.41,-7.92 -3.48,-8.44 -0.07,-0.5 1.06,9.31 1.91,12.64 0.87,3.31 3.81,10.26 6.69,14.28 2.87,4.03 6.52,9.27 7.48,10.24 0.97,0.95 0.25,4.34 -2.75,3.12 -3,-1.22 -7.99,-5.49 -9.97,-7.85 -1.99,-2.37 -11.96,-16.51 -14.36,-22.1 -2.39,-5.6 -2.52,-7.2 -3.09,-7.56 -0.57,-0.4 -2,0.78 -0.84,4.72 1.15,3.93 3.54,8.08 4.57,10.44 1.03,2.37 0.61,4.23 -1.33,2.05 -1.96,-2.16 -4.91,-6.39 -6.63,-11.46 -0.91,-2.72 -0.51,-3.91 -0.44,-4.67 0.06,-0.77 -1.67,0.57 -2.18,3.12 -0.5,2.55 0.12,4.45 1.73,7.33 1.6,2.87 8.28,10.64 10.32,12.88 2.04,2.25 4.28,2.56 5.31,2.25 1.03,-0.34 1.79,0.57 0.7,1.33 -1.08,0.76 -2.43,1.15 -2.43,1.15 0,0 1.85,3.84 4.48,5.43 2.62,1.6 3.93,1.67 5.59,1.54 1.67,-0.12 3.78,-0.04 2.31,1.97 -1.47,2.03 -3.92,2.52 -6.31,1.71 -2.36,-0.83 -4.22,-1.83 -4.22,-1.83 0,0 6.19,7.58 8.8,10.85 2.62,3.24 5.96,7.51 8.44,7.77 2.49,0.25 4.76,-0.77 5.6,-1.03 0.83,-0.26 0.43,-1.71 0.07,-2.33 -0.4,-0.65 -0.72,-3.72 0.95,-4.93 1.65,-1.22 2.8,-0.2 3.32,0.7 0.51,0.89 2.05,1.73 3.2,2.63 1.15,0.89 1.79,3.67 0.38,4.89 -1.4,1.21 -2.74,0.26 -4.1,0.83 -1.33,0.57 -2.99,2.93 -3.39,2.93 -0.36,0 2.31,-0.31 3.39,0.46 1.1,0.76 2.19,1.46 3,1.34 0.84,-0.12 1.94,0 2.46,0.5 0.48,0.52 1.45,1.93 2.22,2.05 0.77,0.13 2.1,1.67 1.17,2.43 -0.98,0.77 -3.22,1.11 -3.39,2.05 -0.21,0.93 -0.98,1.48 -2.31,0.99 -1.36,-0.48 -4.03,-0.8 -5.06,-1.76 -1.03,-0.95 -1.82,-1.71 -2.68,-1.85 -0.86,-0.14 -1.56,-0.51 -1.56,-0.51 0,0 0.76,1.85 1.81,2.63 0.56,0.4 1.79,1.87 2.43,2.52 0.64,0.62 0.96,2.3 0.52,3.01 -0.45,0.69 -1.03,1.79 -1.79,1.46 -0.78,-0.32 -0.75,-1.72 -1.67,-1.41 -0.94,0.32 -1.56,1.14 -1.56,2.17 0,1.04 -1.54,1.41 -1.86,0.45 -0.32,-0.96 -2.68,-6.6 -2.68,-9.18 0,-2.55 -0.2,-2.79 -1.28,-3 -1.1,-0.19 -2.18,1.09 -3.27,0.31 -1.07,-0.76 -1.46,-2.15 -1.91,-2.29 -0.45,-0.12 -0.68,1.67 -2.18,1.29 -1.5,-0.38 -3.29,-1.36 -4.25,-0.79 -0.96,0.6 -2.43,3.08 -4.67,2.64 -2.23,-0.44 -2.75,-1.73 -3.06,-2.95 -0.33,-1.2 -0.04,-1.14 -0.04,-1.14 0,0 2.41,0.97 2.93,-0.12 0.5,-1.08 -0.79,-2.32 -1.62,-2.82 -0.84,-0.52 -1.54,-1.22 -1.54,-1.22 0,0 2.43,-1.79 5.06,-1.09 2.61,0.7 4.51,1.36 6.24,1.73 1.72,0.39 1.76,-1.16 0.51,-2.05 -1.26,-0.9 -3.36,-4.25 -6.44,-6.24 -3.07,-1.98 -4.41,-2.47 -7.03,-4.2 -1.72,-1.17 -1.79,-2.82 -1.79,-2.82 0,0 0.07,1.65 -1.18,2.87 -1.2,1.17 -3.06,1.22 -4.09,0.77 -1.03,-0.44 -0.83,-0.51 -0.83,-0.51 0,0 2.45,-0.94 1.59,-3.08 -0.75,-1.87 -0.89,-2.13 -3.19,-4.2 -2.29,-2.08 -5.87,-3.88 -6.71,-4.59 -0.83,-0.7 -2.28,-2.03 -2.28,-2.03 0,0 -1.25,1.81 -0.19,4.72 1.06,2.91 1.06,3.8 4.26,6.18 3.2,2.36 5.96,4.32 6.9,6.58 0.84,1.99 0.38,4.45 -1.28,5.02 -1.66,0.58 -2.99,0.44 -4.66,-0.18 1.02,-0.49 2.3,-0.43 2.24,-1.84 -0.07,-1.4 -0.91,-1.28 -2.12,-1.92 -1.22,-0.63 -1.67,-1.01 -1.91,-0.56 -0.26,0.44 -0.49,1.47 -1.86,1.39 -1.38,-0.05 -2.97,-2.49 -2.97,-2.49 0,0 0.28,7.84 2.4,11.23 2.1,3.39 4.03,2.68 4.67,1.85 0.63,-0.82 0.12,-1.66 0,-2.37 -0.13,-0.71 -1.41,-1.9 -1.41,-1.9 0,0 4.99,-1.17 5.5,2.67 0.5,3.84 -0.91,4.22 -1.86,4.79 -0.96,0.58 -2.87,0 -2.87,0 0,0 3.39,3.43 0.24,5.15 -3.12,1.73 -4.72,-1.95 -4.72,-1.95 0,0 0.04,4.86 2.43,6.62 1.72,1.27 3.72,0 5.17,-1.27 1.47,-1.28 2.43,-2.72 4.21,-2.24 3.57,0.96 0.85,6.58 0.85,6.58 0,0 0.63,-2.42 -1.09,-3.26 -1.1,-0.53 -2.3,0.95 -2.3,3.51 0,2.57 -0.25,3.01 -0.25,3.01 0,0 5.85,2.49 9.31,1.6 3.44,-0.9 5.35,-4.66 5.54,-6.57 0.2,-1.94 -1.2,-3.22 -2.3,-3.47 -1.09,-0.25 -2.55,0.51 -1.97,1.8 0.57,1.27 1.33,3.38 1.33,3.38 0,0 -3.83,-0.19 -4.53,-2.17 -0.71,-1.98 0.35,-4.06 3.01,-5.89 1.72,-1.17 4.08,-1.04 5.82,0 1.15,0.72 1.72,2.56 1.72,2.56 0,0 1.7,-2.67 4.25,-1.85 2.56,0.82 2.94,4.85 2.69,6.13 -0.27,1.27 -0.51,2.82 -0.51,2.82 0,0 3.25,-2.74 4.98,0.08 1.72,2.79 -3.51,6.4 -3.51,6.4 0,0 6.07,-2.52 7.74,4.1 1.31,5.27 -2.12,9.22 -5.45,9.98 -3.31,0.76 -6.63,-0.84 -5.69,-3.96 0.97,-3.15 4.67,-2.55 4.67,-2.55 0,0 -3.58,2.67 -1.15,3.75 2.44,1.09 4.74,-2.42 3.39,-5.42 -1.35,-3.03 -3.49,-4.03 -5.62,-3.65 -2.14,0.38 -3.24,1.93 -5.15,2.1 -1.93,0.21 -3.51,-0.31 -3.51,-0.31 0,0 2.42,2.82 0.57,4.61 -1.86,1.79 -3.52,0.76 -3.52,0.76 0,0 -0.93,3.54 -3.52,5.05 -2.58,1.5 -4.83,1.11 -4.83,1.11 0,0 3.43,-2.15 3.17,-5.33 -0.26,-3.19 -1.06,-3.27 -2.53,-4.98 -1.47,-1.74 -1.92,-3.15 -1.79,-3.78 0.13,-0.64 0.46,-1.04 0.46,-1.04 0,0 -3.34,0.1 -6.4,-1.69 -3.07,-1.79 -4.9,-3.76 -5.94,-5.87 -1.06,-2.1 -1.84,-4.15 -1.84,-4.15 0,0 -1.56,9.82 0.33,13.01 1.89,3.2 6.43,4.61 8.21,5.43 1.79,0.83 3.9,4.38 2.3,8.09 -1.6,3.7 -6.22,5.95 -8.37,4.73 -2.14,-1.21 -1.11,-4.1 -1.11,-4.1 0,0 1.87,2.07 3.85,0.71 1.24,-0.83 0.91,-2.33 -0.24,-2.92 -1.15,-0.57 -2.7,-1.33 -2.7,-1.33 0,0 -1.04,1.21 -1.69,1.48 -0.64,0.25 -1.21,0.37 -1.21,0.37 0,0 0.13,4.43 -0.31,7.2 -0.45,2.74 -2,6.4 -6.66,7.22 -4.67,0.84 -6.19,-1.09 -5.94,-3.52 0.24,-2.42 1.27,-3.27 1.27,-3.27 0,0 0.07,3.27 2,3.85 1.91,0.57 3.82,-0.44 4.27,-1.35 0.45,-0.88 -0.57,-2.5 -0.76,-3.31 -0.2,-0.84 -0.2,-1.6 -0.2,-1.6 0,0 -3.07,0.76 -4.6,-1.34 -1.54,-2.12 -1.28,-5.8 -1.28,-5.8 0,0 -1.95,1.14 -4.44,0.96 -2.5,-0.2 -3.32,-0.26 -4.17,0.18 -0.83,0.46 -1.19,2.17 0.84,2.99 1.4,0.57 3.84,0.38 3.84,0.38 0,0 -2.58,2.17 -5.63,1.47 -1.98,-0.46 -2.93,-1.76 -3.08,-3.48 -0.12,-1.74 1.16,-3.77 4.3,-5.3 3.12,-1.55 5.28,-1.74 8.4,-4.61 3.14,-2.88 3.9,-3.35 5.18,-5.5 1.29,-2.14 2.24,-3.1 2.75,-5.6 1.45,-7.04 0.71,-8.26 0.71,-8.26 0,0 -1.6,4.18 -4.41,7.69 -2.81,3.52 -7.45,4.98 -9.11,5.3 -1.67,0.33 -1.86,0.38 -1.86,0.38 0,0 0.19,2.54 -1.14,4.51 -1.36,1.99 -3.56,3.27 -6.54,4.09 -2.97,0.84 -6.22,2.78 -5.59,5.76 0.64,2.98 2.82,1.84 3.49,1.22 1.08,-0.97 0.64,-2.88 0.64,-2.88 0,0 1.27,0.65 1.46,2.56 0.26,2.54 -0.95,5.85 -6.6,5.97 -5.632,0.12 -5.889,-5.6 -5.889,-5.6 0,0 -3.146,-0.25 -2.238,-3.7 0.895,-3.45 4.788,-4.67 4.788,-4.67 0,0 -3.391,-1.65 -5.303,-2.36 -1.912,-0.7 -5.208,0 -5.533,1.6 -0.312,1.59 0.57,3.46 1.465,4.03 0.908,0.57 1.641,0.89 1.641,0.89 0,0 -4.841,0.83 -6.618,-2.11 -1.791,-2.93 -0.135,-6.2 2.103,-7.8 1.627,-1.15 2.373,-1.02 2.373,-1.02 0,0 -1.248,-2.41 1.817,-3.93 3.079,-1.53 9.331,-0.96 9.331,-0.96 0,0 -2.875,-1.67 -2.672,-4.48 0.19,-2.81 2.482,-5.46 4.215,-6.33 1.72,-0.86 4.06,-1.4 5.47,1.41 1.41,2.82 -1.89,3.58 -1.89,3.58 0,0 0.5,-1.28 -0.44,-2.36 -0.97,-1.1 -3.1,0.52 -2.81,2.68 0.24,2.04 1.64,3.5 5.72,4.22 3.27,0.57 8.23,0.4 13.36,-2.94 3.61,-2.36 6.55,-6.43 7.19,-8.35 0.64,-1.92 0.7,-3.83 0.7,-3.83 0,0 -3.2,0 -4.02,0.38 -0.83,0.38 -1.42,1.72 -1.54,2.76 -0.13,1.01 -0.17,2.29 0.26,2.69 0.57,0.6 1.41,0.41 1.41,0.41 0,0 -1.21,2.88 -4.51,2.81 -3.33,-0.07 -4.29,-2.59 -4.1,-5.79 0.19,-3.19 2.2,-6.65 4.99,-7.41 2.78,-0.77 3.81,0.11 5.09,-0.72 1.26,-0.82 1.84,-2.78 2.1,-4.92 0.26,-2.14 0.07,-3.09 -0.19,-3.04 -0.26,0.08 -1.34,0.4 -2.5,1.79 -0.86,1.09 -0.75,2.54 -0.75,2.54 0,0 -1.23,-0.8 -1.04,-2.34 0.19,-1.54 1.16,-2.75 1.16,-2.75 0,0 -3.42,2.01 -5.54,0.71 -1.86,-1.14 -1.88,-2.43 -1.72,-3.72 0.14,-1.02 1.08,-2.09 1.08,-2.09 0,0 1,3.56 3.82,2.8 2.8,-0.76 4.02,-2.17 4.47,-4.74 0.44,-2.56 0.19,-12.68 0.19,-12.68 0,0 -0.7,1.6 -2.24,2.61 -1.54,1.02 -2.52,0.84 -3.18,2.38 -0.54,1.22 0.48,2.85 1.77,2.97 1.29,0.13 1.67,0 1.67,0 0,0 -1.26,2.76 -3.2,2.76 -1.95,0 -2.66,-2.82 -2.66,-2.82 0,0 -1.08,3.39 -2.62,4.42 -1.53,1 -2.11,1.27 -2.87,2.79 -0.6,1.21 -0.45,3.72 0.96,4.86 1.4,1.16 1.73,1.41 1.73,1.41 0,0 -4.67,0.06 -5.89,-2.42 -1.22,-2.49 -1.72,-3.01 -1.72,-3.01 0,0 -3.44,3.99 -5.02,6.06 -1.6,2.08 -4.993,5.8 -4.993,5.8 0,0 3.223,0.39 5.183,-0.25 1.94,-0.65 4.64,-0.91 6.03,0.38 1.41,1.28 1.81,3.58 0.9,4.99 -0.9,1.41 -1.14,2.42 -1.91,2.69 -0.78,0.24 -6.24,0.05 -8.41,-0.91 -2.187,-0.96 -3.774,-2.36 -4.343,-2.24 -0.583,0.14 -1.668,1.03 -1.858,1.87 -0.203,0.83 -2.075,3.01 -3.269,4.15 -1.18,1.12 -2.455,2.13 -2.59,3.23 -0.122,1.09 0.257,3.26 -1.017,4.29 -1.289,1.03 -2.93,1.03 -3.513,0 -0.57,-1.03 -0.963,-0.71 -2.17,-0.65 -1.221,0.08 -2.753,1.03 -3.391,-0.44 -0.651,-1.48 -0.841,-1.92 0.054,-3.33 0.909,-1.42 3.133,-3.23 5.574,-4.97 2.428,-1.71 2.55,-2.09 2.55,-2.09 0,0 -4.218,0.82 -5.94,1.33 -1.736,0.52 -3.01,0.97 -3.648,1.74 -0.651,0.76 -2.902,2.85 -4.448,2.14 -1.533,-0.71 -1.411,-2.28 -1.207,-3.55 0.189,-1.28 -0.638,-1.6 -1.085,-2.44 -0.461,-0.82 -0.827,-1.6 -0.271,-2.74 0.787,-1.59 3.052,-1.33 5.03,-1.14 1.98,0.17 6.32,-0.08 8.748,-0.14 2.427,-0.05 2.752,-0.7 1.356,-1.22 -1.411,-0.52 -5.696,-1.55 -7.229,-2.74 -1.546,-1.22 -1.6,-2.98 -1.275,-3.5 0.312,-0.51 1.14,-0.26 1.791,-1.71 0.638,-1.48 0.759,-2.82 0.38,-3.58 -0.38,-0.77 0.434,-1.16 1.858,-0.72 1.397,0.45 2.618,1.35 2.671,1.67 0.082,0.33 0.896,-0.65 1.289,-0.76 0.882,-0.27 1.465,1.71 1.587,3.52 0.136,1.78 0.136,4.05 1.926,4.05 1.791,0 4,-0.27 5.073,-1.09 1.098,-0.81 3.852,-3.74 4.543,-5.84 0.719,-2.12 1.424,-4.1 2.632,-5.06 1.22,-0.95 1.53,-1.27 1.53,-1.27 0,0 -2.684,0.84 -4.095,-0.19 -1.396,-1.03 -1.587,-1.51 -1.587,-3.14 0,-1.64 0.638,-2.59 0.638,-2.59 0,0 1.465,1.98 2.998,1.71 1.546,-0.24 2.376,-0.76 3.266,-1.71 0.88,-0.96 1.15,-1.41 1.15,-1.41 0,0 -1.92,0.45 -2.04,-0.43 -0.14,-0.91 1.16,-2.06 2.68,-2.82 1.5,-0.77 2.01,-1.41 1.56,-2 -0.43,-0.57 -1.53,-2.1 -0.19,-4.27 1.35,-2.18 4.48,-4.45 7.35,-6.87 2.88,-2.43 7.04,-5.63 6.91,-8.32 -0.14,-2.68 -3.38,-8.22 -3.38,-8.22 0,0 -0.3,7.03 -2.82,10.47 -2.93,3.96 -6.47,7.54 -6.97,7.22 -0.53,-0.11 0.32,-1.36 0.32,-1.36 0,0 3.58,-6.91 4.86,-9.9 1.28,-2.98 2.18,-8.16 2.12,-8.73 -0.09,-0.57 -0.13,-1.8 -0.13,-1.8 0,0 0.41,4.67 -11.05,20.05 -11.419,15.38 -17.16,17.95 -18.567,19.03 -1.396,1.07 -6.13,3.92 -7.161,4.44 -1.018,0.51 -2.563,-0.46 -0.502,-3.07 2.035,-2.57 6.646,-8.78 9.263,-12.11 2.631,-3.32 10.579,-15.21 11.99,-18.32 1.41,-3.11 1.537,-5.35 1.737,-6.35 0.19,-1.03 -1.032,0.84 -3.392,4.97 -2.374,4.15 -9.819,15.21 -14.417,20.72 -4.611,5.51 -10.43,12.31 -19.598,18.2 -9.182,5.89 -18.797,9.64 -23.15,8.91 -4.354,-0.74 -4.692,-3.02 0.19,-4.9 4.896,-1.84 6.442,-2.94 8.598,-4.58 2.184,-1.68 19.245,-16.06 24.02,-22.35 4.761,-6.31 7.514,-14.85 7.826,-16.18 0.326,-1.34 -1.03,1.04 -2.618,3.54 -1.6,2.49 -6.781,9.57 -13.09,15 -6.293,5.42 -14.471,12.04 -16.329,13.1 -1.845,1.06 -6.782,2.17 -0.57,-3.7 6.198,-5.89 13.196,-13.71 18.893,-20.49 5.683,-6.78 7.825,-10.91 8.653,-13.35 0.841,-2.41 0.773,-4.01 0.773,-4.01 0,0 -3.417,4.5 -8.273,9.14 -4.869,4.64 -10.47,9.76 -13.848,11.28 -3.39,1.55 -5.696,0.58 -6.646,-0.24 -0.949,-0.84 1.845,-2.57 3.445,-3.4 1.601,-0.84 3.865,-3.11 6.727,-6.5 2.848,-3.4 9.738,-12.24 11.596,-17.04 1.845,-4.79 1.152,-10.29 1.152,-10.29 0,0 -2.075,4.89 -8.313,9.15 -6.225,4.26 -8.856,4.77 -10.836,5.02 -1.994,0.24 -0.773,-1.19 2.36,-2.78 3.133,-1.61 5.792,-3.27 9.439,-6.78 3.635,-3.52 6.713,-7.86 6.713,-7.86 l -0.068,-2.03 c 0,0 -4.435,3.69 -10.293,3.64 -5.846,-0.09 -8.992,-1.06 -10.01,-2.28 -1.018,-1.22 -0.827,-2.77 1.655,-2.96 2.509,-0.19 7.269,-1.14 10.145,-3.19 2.875,-2.04 4.03,-4.02 4.598,-5.82 0.583,-1.78 0.38,-3.32 0.38,-3.32 0,0 -4.503,4.55 -9.426,7.1 -4.924,2.56 -12.12,2.95 -14.295,2.87 -2.17,-0.07 -5.642,-0.76 2.211,-2.22 7.866,-1.48 11.718,-4.1 14.08,-5.7 2.333,-1.6 9.344,-9.19 8.462,-8.47 -0.379,0.31 -4.245,3.7 -6.849,4.66 -2.577,0.96 -8.178,2.33 -13.332,3.04 -5.14,0.72 -8.03,0.12 -9.941,-1.59 -1.627,-1.48 -2.17,-3.44 1.668,-3.55 3.838,-0.14 7.961,-1.22 11.09,-2.88 2.93,-1.57 4.476,-2.82 6.51,-4.56 2.062,-1.7 4.774,-3.82 5.479,-4.34 0.705,-0.51 -3.811,1.23 -6.36,2.07 -2.563,0.81 -8.667,2.09 -11.515,2.03 -2.848,-0.07 -2.359,-1.22 1.343,-2.12 3.716,-0.89 8.924,-2.38 11.961,-3.79 3.038,-1.41 6.944,-4.48 6.944,-4.48 0,0 -11.908,4.48 -18.906,2.74 -6.999,-1.72 -9.494,-5.68 -9.494,-5.68 0,0 6.497,0.63 10.01,0.77 3.513,0.11 6.876,0.06 11.569,-1.41 4.706,-1.47 5.995,-3.8 6.754,-5.3 0.76,-1.52 1.207,-2.97 1.207,-2.97 0,0 -4.123,-2.44 -6.93,-4.37 -2.821,-1.91 -4.218,-3.88 -6.01,-4.39 -1.79,-0.52 -4.231,1.13 -3.716,3.5 0.583,2.73 3.01,1.47 3.662,1.08 0.624,-0.37 0.813,-1.45 1.329,-1.33 0.516,0.14 1.085,2.81 -0.516,4.03 -1.6,1.2 -5.94,1.08 -6.971,-3.07 -0.692,-2.89 0.394,-5.95 3.391,-7.41 3.01,-1.47 7.568,0.27 9.562,1.78 2.685,2.04 5.059,4.92 8.124,5.63 3.065,0.69 6.05,0.51 9.372,-0.96 3.31,-1.47 8.789,-3.01 12.776,-0.83 3.987,2.16 4.95,5.79 4.706,9.18 -0.258,3.4 -3.934,6.52 -6.05,8.3 -2.102,1.8 -6.456,5.09 -5.425,7.19 1.018,2.12 4.03,1.67 5.425,3.01 1.411,1.35 2.563,6.98 2.333,8.11 -0.217,1.17 -0.922,1.36 -1.37,1.09 -0.447,-0.24 -0.908,0.62 -1.031,2.25 -0.122,1.63 0.299,2.59 1.479,2.07 1.193,-0.51 1.56,-1.65 3.106,-0.71 1.533,0.97 2.93,3.54 3.635,6.15 0.719,2.62 1.41,5.62 1.722,6 0.326,0.4 2.048,-1.52 3.509,-2.99 1.48,-1.47 4.07,-2.95 6.7,-2.63 2.61,0.33 3.71,0.84 4.41,1.52 0.71,0.72 1.35,1.63 1.35,1.63 0,0 1.27,-2.39 2.94,-4.04 1.65,-1.66 3.58,-3.01 3.58,-3.01 0,0 -0.52,-1.49 0.12,-3.19 0.65,-1.69 3.3,-4.76 3.3,-4.76 0,0 -4.52,3.31 -7.19,1.98 -1.62,-0.81 -1.93,-1.61 -1.93,-1.61 0,0 -3.19,1.03 -4.79,-0.32 -1.61,-1.32 -1.15,-2.68 -1.15,-2.68 0,0 -3.19,1.22 -2.75,4.1 0.45,2.87 2.83,2.62 3.59,2.23 1.48,-0.77 2.06,-1.25 2.06,-1.25 0,0 0.45,2.32 -1.18,3.33 -2.17,1.35 -5.27,1.43 -6.61,-1.37 -1.35,-2.82 -0.75,-5.96 1.41,-8.07 2.14,-2.09 4.38,-2.69 7.56,-2.42 3.2,0.25 3.75,1.41 6.85,1.52 3.1,0.14 4.32,-0.88 5.21,-1.52 0.91,-0.63 1.52156,-1.38188 1.52156,-1.38188 0,0 -2.79156,-1.59812 -2.03156,-4.66812 0.75,-3.07 3.52,-3.52 3.52,-3.52 0,0 -0.46,3.78 2.93,3.84 3.39,0.06 4.1,-1.78 4.61,-3.33 0.52,-1.51 -1.08,-4.66 -2.1,-7.85 l -1.02,-2.7 c 0,0 0.31,1.2 -1.31,1.33 -1.63,0.11 -5.16,0.11 -5.16,0.11 0,0 -0.82,-2.44 -3.08,-2.93 -2.26,-0.52 -4.44,-0.39 -8.35,0.54 -3.89,0.95 -8.3,1.85 -11.92,0 -5.915,-3.01 -5.711,-8.87 -4.775,-10.98 1.37,-3.14 4.275,-3.5 6.405,-3.14 2.64,0.44 3.01,3.19 3.01,3.19 0,0 -2.12,-1.37 -4.02,-0.42 -1.88,0.94 -1.45,3.81 0.63,5.9 2.19,2.2 4.34,2.71 9.54,2.63 5.21,-0.05 6.6,-0.43 10.37,-0.05 3.75,0.38 5.39,1.45 6.34,2 0.94,0.57 2.57,2.01 2.57,2.01 0,0 -2.01,-5.97 -2.07,-6.14 -0.07,-0.2 -0.98,-0.98 -0.98,-0.98 z"
         id="path1724"
         sodipodi:nodetypes="cscccccccscccsccccccccccccccccccscccscccccccccccccccsccccccccccccccccccccccscccccccscccccccccccsccccccccccccccccccccccccscccccccccsccccccccccccccccccccccccccccsccccccccsccccccssscccsccccccccccccccccccccscccccccccccccccccccccccsccccccccccccccccccccccccccccccccccccccccccccccccccccccccccccccccccccccccccccccccccccccccccccccccscccccccccscccscccccccccccsccccccccccccccccccccccccccccccccccccccccccscccccscccccccccccccccccccccccccccccccccccccccccccccccccccccsccccccccccccccccccccccccccccccccccccccccccccccccccccccccccccccccccccccccccscccccccccccscccccccc" />
    </g>
    <path
       d="m3.279 254.81h498.49m-249.77-251.92v538.76z"
       stroke-width="1.17"
       id="path1728" />
    <path
       d="m2.845 341c0 137.29 123.74 201.64 248.72 202.1 125.13.45 250.26-64.81 250.3-200.76v-339.46l-499.02.002z"
       stroke-width="5.8"
       id="path1730" />
  </g>
</svg>
