<?xml version="1.0" encoding="utf-8"?>
<!DOCTYPE svg PUBLIC "-//W3C//DTD SVG 1.1//EN" "http://www.w3.org/Graphics/SVG/1.1/DTD/svg11.dtd">
<svg width="100%" height="100%" viewBox="0 0 400 450" version="1.1" xmlns="http://www.w3.org/2000/svg" xml:space="preserve">
  <path
  d="M 199.99,450 C 89.539,450 0,360.5 0,250 L 0,0 l 400,0 0,250 c 0,110.5 -89.55,200 -200,200"
  id="path324"
  style="fill:#000;fill-opacity:1;fill-rule:evenodd;stroke:none" /><path
  d="m 132.83,45 262.18,0 0,42.5 -246.74,0 c 1.18,-3.1 0.64,-6.7 -2.08,-9.9 -4,-4.6 -9.77,-4.7 -13.77,-1.2 -0.82,0.7 -1.57,1.7 -2.09,3 -3.49,-2.6 -8.65,-4.3 -12.88,-0.6 -2.93,2.5 -3.79,5.6 -3.01,8.4 -0.27,0 -0.55,0.4 -0.82,0.4 l -9.45,0 c -2.93,-0.9 -5.655,-2.6 -7.789,-5 -5.81,-6.7 -5.394,-17.4 1.232,-23.2 0.862,-0.7 2.163,-0.6 2.907,0.3 0.41,0.5 0.59,1.1 0.51,1.7 -0.54,3.4 -1.601,5 -3.87,7.4 l 1.275,1.4 c 3.875,4.5 11.075,6 16.215,2.8 4.51,2.4 9.71,2.6 13.81,-1 4.1,-3.6 4.64,-8.7 2.91,-13.5 3.03,-3.7 3.36,-9 1.46,-13.3 m 76.05,87.5 186.13,0 0,42.5 -170.72,0 c 1.2,-3.1 0.66,-6.8 -2.07,-9.9 -3.99,-4.6 -9.77,-4.7 -13.76,-1.2 -0.83,0.7 -1.57,1.6 -2.09,3 -3.49,-2.7 -8.66,-4.4 -12.89,-0.7 -2.93,2.5 -3.78,5.7 -3.01,8.5 -0.33,0.1 -0.61,0.2 -0.92,0.2 l -9.24,0 c -2.98,-0.8 -5.74,-2.5 -7.89,-4.9 -5.82,-6.7 -5.41,-17.5 1.23,-23.2 0.86,-0.8 2.16,-0.7 2.91,0.2 0.4,0.4 0.57,1.1 0.51,1.6 -0.54,3.5 -1.61,5.1 -3.88,7.4 l 1.28,1.5 c 3.86,4.5 11.08,5.9 16.21,2.8 4.51,2.4 9.71,2.5 13.81,-1 4.1,-3.6 4.65,-8.8 2.91,-13.6 3.03,-3.6 3.36,-9 1.48,-13.2 m 76.05,87.5 110.08,0 0,29.9 c 0,4.3 0,8.4 -0.4,12.6 l -94.29,0 c 1.2,-3.2 0.67,-6.8 -2.05,-10 -4,-4.6 -9.76,-4.7 -13.79,-1.2 -0.8,0.7 -1.55,1.7 -2.08,3 -3.49,-2.6 -8.64,-4.3 -12.88,-0.7 -2.93,2.6 -3.79,5.7 -3.01,8.5 -0.36,0.1 -0.69,0.2 -1.03,0.4 l -9.04,0 c -3.01,-0.9 -5.81,-2.5 -7.99,-5 -5.81,-6.7 -5.4,-17.5 1.23,-23.2 0.86,-0.8 2.17,-0.7 2.91,0.2 0.4,0.4 0.58,1.1 0.51,1.6 -0.54,3.4 -1.6,5 -3.87,7.4 l 1.27,1.5 c 3.87,4.4 11.08,5.9 16.22,2.7 4.51,2.4 9.71,2.6 13.81,-0.9 4.11,-3.6 4.64,-8.8 2.91,-13.6 3.01,-3.6 3.36,-9 1.49,-13.2 m 76.03,87.5 25.41,0 c -3.41,11 -7.73,21.6 -12.9,31.6 -3.92,-3.7 -9.2,-3.5 -12.94,-0.3 -0.82,0.7 -1.57,1.7 -2.1,3 -3.5,-2.6 -8.67,-4.3 -12.86,-0.7 -2.93,2.6 -3.81,5.7 -3.04,8.5 -0.37,0.1 -0.72,0.3 -1.12,0.4 l -8.82,0 c -3.07,-0.9 -5.9,-2.5 -8.11,-5.1 -5.81,-6.7 -5.39,-17.4 1.25,-23.2 0.86,-0.7 2.14,-0.6 2.91,0.2 0.4,0.5 0.56,1.1 0.51,1.7 -0.56,3.4 -1.63,5 -3.9,7.3 l 1.28,1.5 c 3.87,4.5 11.1,6 16.24,2.8 4.51,2.4 9.71,2.6 13.79,-1 4.11,-3.5 4.64,-8.7 2.91,-13.5 3.04,-3.7 3.36,-9 1.49,-13.2 M 5.0059,87.5 l 0,-38.2 33.1941,38.2 -33.1941,0 z m 0,87.5 0,-42.5 72.3141,0 36.94,42.5 -109.2541,0 z m 0.3912,87.5 C 5.1504,258.4 5.0059,254.2 5.0059,250 l 0,-30 148.3741,0 36.94,42.5 -184.9229,0 z M 305.49,395 315.81,406.9 C 283.44,430.8 243.37,445 200,445 149.87,445 104.16,426.1 69.611,395 l 235.879,0 z M 32.557,350 C 24.641,336.8 18.245,322.5 13.617,307.5 l 215.823,0 36.94,42.5 -233.823,0 z"
  id="path328"
  style="fill:#fd0;fill-opacity:1;fill-rule:evenodd;stroke:none" /><path
  d="m 155.02,164.2 c -1.34,-6.5 -0.7,-13.5 2.16,-19.3 -6.21,2 -13.16,1.6 -19.49,-0.6 l 17.33,19.9 z M 78.987,76.8 c -1.339,-6.6 -0.707,-13.5 2.154,-19.4 -6.2,2 -13.154,1.7 -19.488,-0.6 l 17.334,20 z M 117,120.5 c -1.33,-6.6 -0.7,-13.5 2.16,-19.4 -6.2,2.1 -13.15,1.7 -19.485,-0.5 L 117,120.5 z m 76.04,87.5 c -1.34,-6.6 -0.71,-13.5 2.15,-19.4 -6.2,2 -13.16,1.7 -19.48,-0.6 l 17.33,20 z m 38.01,43.7 c -1.34,-6.6 -0.7,-13.5 2.16,-19.4 -6.2,2.1 -13.15,1.7 -19.49,-0.5 l 17.33,19.9 z m 38.02,43.7 c -1.34,-6.5 -0.7,-13.5 2.16,-19.3 -6.21,2 -13.16,1.6 -19.49,-0.6 l 17.33,19.9 z m 38.02,43.8 c -1.33,-6.6 -0.69,-13.5 2.16,-19.4 -6.21,2 -13.17,1.7 -19.49,-0.5 l 17.33,19.9 z m 36.86,42.3 0.8,-0.8 c -0.8,-5.9 0,-12 2.53,-17.2 -6.21,2 -13.17,1.7 -19.49,-0.5 l 16.16,18.6 z M 40.971,33 c -1.336,-6.5 -0.702,-13.5 2.149,-19.3 -6.2,2 -13.152,1.6 -19.477,-0.6 L 40.971,33 z M 323.07,401.3 5.0064,35.4 l 0,7.4 314.2436,361.5 c 1.28,-1 2.56,-2 3.82,-3 M 5.0064,28.9 326.35,398.5 c 2.77,-2.3 5.49,-4.8 8.16,-7.3 L 5.0064,12.1 l 0,16.8 z M 238.17,266.4 10.943,5 5.0064,5 l 0,0.6 332.5636,382.6 c 1.18,-1.2 2.3,-2.3 3.44,-3.5 L 238.17,266.4 z m 133.16,76.8 c 0,-0.1 -0.32,-0.2 -0.32,-0.3 -1.94,-2.3 -5.54,-2.8 -7.78,-0.8 -1.15,1 -1.87,2.2 -2,3.6 l -3.76,1.1 c -2.8,-3.2 -6.8,-4.5 -9.2,-2.4 -3.12,2.7 -1.6,4.6 0,7.3 -9.34,4.5 -19.74,4.7 -27.2,-3.9 -7.23,-8.4 -6.88,-21.8 1.65,-29.2 2.64,-2.3 6.64,-2 8.93,0.6 1.23,1.4 1.76,3.3 1.52,5 -0.34,2.3 -1.12,4.7 -2.34,6.7 3.92,2.9 8,2.1 11.44,-0.8 3.46,2.2 7.6,4.2 11.3,1 3.71,-3.3 2.32,-7.6 0.59,-11.3 3.33,-3.1 4.75,-7 2.37,-11.3 -4.58,2.1 -11.65,2 -14.98,-0.8 -3.07,-2.5 -2.8,-6.4 0.61,-8.3 3.71,-2.3 10.67,-1.4 14.93,1.3 2.94,-3.9 2.08,-8.1 -0.8,-11.5 2.24,-3.5 4.22,-7.6 0.99,-11.3 -3.2,-3.7 -7.57,-2.3 -11.31,-0.6 -3.01,-3.3 -6.96,-4.7 -11.22,-2.4 2.02,4.6 1.92,11.6 -0.8,15 -2.46,3.1 -6.32,2.8 -8.35,-0.5 -2.27,-3.7 -1.39,-10.7 1.28,-15 -3.89,-3 -8.03,-2.1 -11.47,0.7 -3.46,-2.2 -7.57,-4.1 -11.3,-0.9 -3.71,3.2 -2.32,7.6 -0.62,11.3 -3.3,3 -4.72,7 -2.34,11.2 2.1,-0.9 4.61,-1.3 6.93,-1.4 1.73,0.1 3.52,0.8 4.75,2.2 2.29,2.7 2.02,6.7 -0.62,9 -8.56,7.4 -21.92,5.9 -29.17,-2.5 -7.47,-8.6 -5.87,-18.8 -0.1,-27.4 2.37,2 4.02,3.8 7.17,1.1 2.37,-2.1 1.71,-6.2 -1.09,-9.5 l 1.6,-3.5 c 1.38,0 2.69,-0.5 3.89,-1.5 2.21,-1.9 2.21,-5.6 0.27,-7.8 -1.92,-2.2 -5.52,-2.7 -7.74,-0.8 -1.2,1 -1.89,2.3 -2.02,3.7 l -3.79,1 c -2.8,-3.2 -6.8,-4.4 -9.17,-2.4 -3.15,2.8 -1.6,4.7 0.1,7.3 -9.35,4.6 -19.75,4.7 -27.21,-3.9 -7.25,-8.3 -6.9,-21.8 1.65,-29.2 2.63,-2.3 6.63,-2 8.93,0.6 1.22,1.4 1.73,3.3 1.51,5 -0.35,2.3 -1.12,4.8 -2.35,6.7 3.9,2.9 8.03,2.1 11.47,-0.8 3.44,2.3 7.58,4.2 11.28,1 3.71,-3.2 2.32,-7.6 0.62,-11.3 3.3,-3 4.72,-7 2.34,-11.3 -4.58,2.1 -11.65,2 -15.01,-0.8 -3.04,-2.5 -2.79,-6.3 0.64,-8.3 3.71,-2.3 10.67,-1.4 14.93,1.3 2.94,-3.9 2.08,-8 -0.77,-11.5 2.21,-3.4 4.19,-7.5 0.96,-11.3 -3.23,-3.7 -7.57,-2.3 -11.31,-0.6 -2.98,-3.3 -6.97,-4.7 -11.24,-2.3 2.04,4.5 1.95,11.6 -0.79,14.9 -2.43,3.2 -6.31,2.9 -8.34,-0.5 -2.27,-3.7 -1.39,-10.7 1.27,-15 -3.89,-2.9 -8.03,-2.1 -11.46,0.8 -3.46,-2.2 -7.57,-4.2 -11.29,-1 -3.71,3.3 -2.33,7.6 -0.61,11.3 -3.3,3 -4.73,7 -2.37,11.3 2.12,-1 4.63,-1.4 6.93,-1.4 1.74,0 3.54,0.8 4.76,2.2 2.3,2.6 2.02,6.6 -0.62,8.9 -8.55,7.4 -21.91,5.9 -29.16,-2.4 -7.46,-8.6 -5.88,-18.9 -0.1,-27.5 2.37,2 4.02,3.8 7.16,1.1 2.38,-2.1 1.71,-6.2 -1.09,-9.4 l 1.6,-3.6 c 1.4,0 2.71,-0.5 3.89,-1.5 2.22,-1.9 2.22,-5.6 0.3,-7.8 -1.93,-2.2 -5.52,-2.7 -7.74,-0.8 -1.19,1.1 -1.87,2.3 -2.03,3.7 l -3.76,1.1 c -2.8,-3.2 -6.81,-4.5 -9.19,-2.4 -3.13,2.7 -1.6,4.6 0.1,7.2 -9.3,4.6 -19.69,4.7 -27.16,-3.9 -7.24,-8.3 -6.89,-21.7 1.65,-29.2 2.64,-2.3 6.64,-2 8.94,0.6 1.22,1.5 1.74,3.3 1.51,5.1 -0.34,2.2 -1.12,4.7 -2.35,6.6 3.9,3 8.03,2.1 11.47,-0.7 3.45,2.2 7.57,4.1 11.28,0.9 3.71,-3.2 2.33,-7.6 0.61,-11.3 3.31,-3 4.73,-7 2.37,-11.2 -4.61,2 -11.67,1.9 -15.02,-0.9 -3.05,-2.4 -2.8,-6.3 0.63,-8.3 3.72,-2.2 10.68,-1.3 14.94,1.3 2.93,-3.9 2.08,-8 -0.78,-11.4 2.23,-3.5 4.19,-7.6 0.96,-11.3 -3.22,-3.7 -7.57,-2.4 -11.3,-0.6 -3.01,-3.4 -6.98,-4.8 -11.25,-2.4 2.04,4.6 1.95,11.6 -0.78,15 -2.44,3.1 -6.32,2.8 -8.35,-0.6 -2.27,-3.7 -1.39,-10.7 1.28,-14.9 -3.9,-3 -8.04,-2.1 -11.47,0.7 -3.46,-2.2 -7.57,-4.2 -11.29,-0.9 -3.71,3.2 -2.33,7.5 -0.61,11.3 -3.31,3 -4.73,6.9 -2.37,11.2 2.11,-0.9 4.63,-1.4 6.93,-1.4 1.75,0 3.54,0.8 4.76,2.2 2.29,2.6 2.02,6.6 -0.62,8.9 -8.54,7.4 -21.92,5.9 -29.16,-2.4 -7.47,-8.6 -5.88,-18.9 -0.1,-27.5 2.39,2.1 4.03,3.9 7.17,1.2 2.38,-2.1 1.71,-6.3 -1.09,-9.5 l 1.6,-3.6 c 1.4,0 2.71,-0.4 3.9,-1.5 2.22,-1.9 2.22,-5.5 0.3,-7.7 -1.93,-2.2 -5.53,-2.8 -7.75,-0.8 -1.18,1 -1.86,2.2 -2.01,3.6 l -3.78,1.1 c -2.79,-3.2 -6.8,-4.4 -9.18,-2.4 -3.14,2.7 -1.6,4.6 0.13,7.3 -9.35,4.5 -19.74,4.7 -27.209,-3.9 -7.245,-8.4 -6.89,-21.8 1.654,-29.2 2.64,-2.3 6.635,-2 8.925,0.6 1.23,1.4 1.74,3.3 1.53,5 -0.36,2.3 -1.14,4.7 -2.36,6.7 3.89,2.9 8.02,2.1 11.46,-0.8 3.45,2.2 7.57,4.2 11.28,1 3.72,-3.3 2.34,-7.6 0.62,-11.3 3.31,-3 4.72,-7 2.37,-11.3 -4.61,2.1 -11.68,2 -15.02,-0.8 -3.05,-2.5 -2.81,-6.4 0.62,-8.3 3.72,-2.3 10.68,-1.4 14.94,1.3 2.94,-3.9 2.09,-8.1 -0.77,-11.5 2.22,-3.5 4.2,-7.6 0.96,-11.3 -3.23,-3.7 -7.58,-2.3 -11.3,-0.6 -3.01,-3.3 -6.99,-4.7 -11.26,-2.4 2.04,4.6 1.96,11.6 -0.78,15 -2.43,3.1 -6.319,2.8 -8.343,-0.5 -2.272,-3.7 -1.39,-10.7 1.274,-15 -3.893,-3 -8.034,-2.1 -11.464,0.8 -3.461,-2.3 -7.573,-4.2 -11.288,-1 -3.712,3.2 -2.336,7.6 -0.616,11.3 -3.304,3 -4.722,7 -2.37,11.2 2.117,-0.9 4.634,-1.3 6.933,-1.4 1.747,0 3.533,0.8 4.765,2.2 2.288,2.7 2.008,6.7 -0.632,9 C 75.448,51.5 62.08,50 54.84,41.6 47.371,33.1 48.957,22.8 54.77,14.2 c 2.382,2 4.027,3.8 7.168,1.1 C 64.314,13.2 63.893,8.6 59.96,5 L 17.036,5 c 8.294,6.4 19.614,7.5 29.118,2.6 l 1.59,1.8 1.589,1.9 c -7.299,10.2 -6.661,24.1 1.677,33.7 8.336,9.6 22.008,12.1 33.16,6.3 l 1.59,1.9 1.594,1.8 c -7.304,10.2 -6.661,24.1 1.672,33.7 8.331,9.6 22.004,12.2 33.164,6.4 l 1.6,1.8 1.59,1.8 c -7.31,10.3 -6.67,24.1 1.66,33.7 8.34,9.6 22.01,12.2 33.17,6.4 l 1.59,1.8 1.59,1.8 c -7.12,10.3 -6.49,24.2 1.85,33.7 8.34,9.6 22.01,12.2 33.16,6.4 l 1.59,1.8 1.6,1.9 c -7.3,10.2 -6.67,24.1 1.67,33.7 8.34,9.6 22.01,12.1 33.16,6.3 l 1.6,1.9 1.59,1.8 c -7.31,10.2 -6.67,24.1 1.67,33.7 8.33,9.6 22,12.2 33.16,6.4 l 1.6,1.8 1.57,1.8 c -7.3,10.3 -6.64,24.2 1.68,33.7 8.35,9.6 22,12.2 33.18,6.4 l 1.57,1.8 1.6,1.9 c -7.31,10.2 -6.67,24.1 1.68,33.7 8.32,9.6 22,12.1 33.17,6.3 l 1.6,1.9 1.55,1.8 c -3.2,4.5 -4.88,9.8 -5.01,15 8.58,-10.1 16.18,-21.2 22.58,-32.9 m -63.97,-62.7 2.75,-2.5 10.8,12.5 -2.75,2.4 -10.8,-12.4 z m 40.61,46.7 2.78,-2.4 -10.8,-12.5 -2.78,2.4 10.8,12.5 z m -21.14,-27.1 c 1.41,-1.2 3.52,-1.1 4.74,0.3 1.2,1.4 1.07,3.5 -0.34,4.7 -1.39,1.2 -3.52,1.1 -4.72,-0.3 -1.2,-1.4 -1.07,-3.5 0.34,-4.7 m -2.32,-2.7 c 2.88,-2.5 7.2,-2.1 9.71,0.7 2.45,2.9 2.16,7.2 -0.69,9.7 -2.86,2.5 -7.2,2.2 -9.68,-0.7 -2.48,-2.9 -2.19,-7.2 0.66,-9.7 m -46.96,-101.2 -2.4,-2.8 -12.43,10.8 2.4,2.8 12.43,-10.8 z m -5.62,43.5 2.74,-2.4 -10.8,-12.4 -2.76,2.4 10.82,12.4 z M 231.2,193 l 2.76,-2.4 10.8,12.4 -2.76,2.4 -10.8,-12.4 z m 23.89,24.7 c 1.39,-1.2 1.54,-3.4 0.3,-4.8 -1.22,-1.4 -3.33,-1.5 -4.73,-0.3 -1.4,1.2 -1.55,3.4 -0.3,4.8 1.21,1.4 3.33,1.5 4.73,0.3 m 2.3,2.6 c 2.86,-2.4 3.16,-6.8 0.67,-9.6 -2.48,-2.9 -6.82,-3.2 -9.68,-0.7 -2.85,2.5 -3.16,6.8 -0.68,9.7 2.49,2.8 6.82,3.1 9.69,0.6 M 199.01,106 l 2.41,2.8 -12.44,10.8 -2.4,-2.8 12.43,-10.8 z m -43.85,-0.5 2.76,-2.4 10.81,12.5 -2.76,2.4 -10.81,-12.5 z m 40.62,46.8 2.76,-2.4 -10.81,-12.5 -2.75,2.4 10.8,12.5 z m -21.13,-27.1 c 1.39,-1.2 3.52,-1.1 4.73,0.3 1.21,1.4 1.07,3.5 -0.33,4.7 -1.4,1.3 -3.51,1.1 -4.73,-0.3 -1.22,-1.4 -1.07,-3.5 0.33,-4.7 m -2.3,-2.7 c 2.86,-2.5 7.19,-2.2 9.68,0.7 2.49,2.9 2.18,7.2 -0.68,9.7 -2.85,2.5 -7.19,2.2 -9.68,-0.7 -2.48,-2.9 -2.18,-7.2 0.68,-9.7 m -46.97,-101.2 -2.4,-2.8 -12.43,10.8 2.4,2.8 12.43,-10.8 z m -5.64,43.5 2.77,-2.4 -10.81,-12.4 -2.76,2.4 10.8,12.4 z m -40.612,-46.7 2.76,-2.4 10.802,12.4 -2.762,2.4 -10.8,-12.4 z m 23.892,24.7 c 1.4,-1.3 1.55,-3.4 0.3,-4.8 -1.22,-1.4 -3.333,-1.5 -4.734,-0.3 -1.394,1.2 -1.549,3.3 -0.333,4.7 1.213,1.4 3.337,1.6 4.737,0.4 m 2.29,2.6 c 2.87,-2.5 3.18,-6.8 0.69,-9.7 -2.49,-2.8 -6.826,-3.1 -9.682,-0.6 -2.862,2.4 -3.163,6.8 -0.683,9.6 2.485,2.9 6.825,3.2 9.675,0.7 m 245.77,235.6 2.4,2.7 -12.42,10.8 -2.4,-2.7 12.42,-10.8 z"
  id="path332"
  style="fill:#008444;fill-opacity:1;fill-rule:evenodd;stroke:none" /></svg>