<?xml version="1.0"?>
<svg viewBox="-1 -1 430 518" xmlns="http://www.w3.org/2000/svg" xmlns:xlink="http://www.w3.org/1999/xlink">
<pattern id="a" height="76.78" patternTransform="translate(10 151.5)" patternUnits="userSpaceOnUse" width="360">
<path d="m.01 0h359.99l-.01 38.39h-359.99z" fill="#e10000"/>
<path d="m.01 38.39h359.99l-.01 38.39h-359.99z" fill="#fff"/>
</pattern>
<use stroke="#000" stroke-width="4.8" xlink:href="#e"/>
<g fill="#00529f">
<use stroke="#000" stroke-width="5.7" xlink:href="#b"/>
<path id="b" d="m37.1 324.75c0 113.18 77.84 188.5 177.18 188.5 99.3 0 177.16-75.32 177.16-188.5l5.33-220.36h-365.01z" fill="#00529f"/>
<path d="m331.05 290.79l-6.55-3.84c-13.73-8.45-34.11-35.34-34.11-55.12 0-1.19.05-2.37.11-3.51h-13.59c-.98 3.4-2.73 7.61-5.47 11.24-1.6 2.11-3.65 7.54-3.65 14.72 0 1.16.07 2.35.18 3.59l.22 2.39-2.31.52c-3.35.74-7.02 0-10.07-1.31.07 3.67 1.77 7.71 3.11 9.47l1.24 1.64-1.21 1.67c-1.04 1.44-2.39 2.71-3.94 3.77 2.88 3.17 5.68 5.68 8.22 7.38 6.48 4.27 13.4 8.23 20.1 12.03 19.88 11.3 38.67 22 38.67 39.01 0 3.01-.59 5.61-1.66 7.72 2.69 1.6 5.39 2.26 9.46 2.26 14.93 0 25.78-11.15 25.78-26.51 0-13.14-12.46-20.24-24.53-27.12"/>
<path d="m214.03 169.64c-.6-1.32-1.84-3.04-2.96-4.09-2.49-2.35-5.57-3.61-7.8-4.11-.4 2.08-1.36 4.4-3.08 6.4-.84 1-1.48 2.06-2.16 2.56 2.66-.63 5.55-1.11 8.55-1.11 2.5 0 5.18.14 7.45.35"/>
<path d="m196.56 181.5c4.36 0 6.06.69 9.46.69 2.33 0 7.2-.13 8.78-3.53-2.92-.6-6.12-.9-9.55-.9-4.3 0-7.56.95-10.52 1.91.21.83.78 1.43 1.23 1.84.21 0 .41-.01.6-.01"/>
</g>
<use stroke="#000" stroke-width="5.5" xlink:href="#c"/>
<use stroke="#000" stroke-width="4" xlink:href="#f"/>
<path id="c" d="m199.47 137.12c0 1.75 1.24 3.63 3.48 3.63 1.73 0 3.21-1.91 3.57-2.91-1.23-1.34-3.85-2.94-6.39-3.19-.46.59-.66 1.66-.66 2.47zm83.44 77.94c2.66-20.49 2.07-29.99.56-33.51 3.9-.22 7.21-.76 10.23-2.08-3.36-3.27-8.75-10.06-10.47-16.02-1.42-4.91-4.69-12.71-8.72-14.22 2.67-.85 4.58-2.03 6.89-5.31-6.89-3.26-9.86-7.4-16.79-10.92 2.19-1.28 4.11-3.57 4.75-5.96-3.6-.48-7.04-1.85-10.45-3.52-.55 2.7-1.51 5.18-4.41 8.4l-1.99-1.69c1.81-2.09 3.92-5.37 3.92-8.01 0-3.66-2.96-7.26-4.99-8.44-2.21-1.27-4.19-1.07-8.82 2.08-1.55 1.11-5.16 4.41-7.23 6.19l-1.45-1.73c2.02-1.95 4.59-4.01 5.84-5.07-1.36-.27-2.45-.33-3.32-.33-3.9 0-7.71.52-10.76 2.89-19.47 0-29.5 11.07-31.61 16.31-7.48 4.4-15.75 11.12-15.75 15.95 0 1.27.18 2.08.46 2.64 2.01-1.03 3.96-2.74 5.71-4.3l1.19 1.33c-1.49 1.52-4.59 3.95-5.89 4.79-.97 1.28-1.21 3.39-1.21 5.21 0 5.38 5.58 10 11.37 10 8.25 0 11.17-7.64 10.69-11.16 4.48-.36 17.21 4.16 17.21 17.21 0 8.14-8.93 9-12.05 9-3.14 0-5.46-.97-8.91-.97-3.47 0-5.06 1.23-5.06 3.56 0 3.15 3.65 5.99 7.61 5.99 3.89 0 4.18-3.21 7.3-3.21 1.83 0 4.96.96 4.96 6.06 0 5.06-5.31 7.2-10.59 7.2-12.2 0-20.59-8.89-24.14-8.89v11.12c-11.3 0-15.06-3.15-19.75-7.46-3.87 3.15-8.12 9.21-8.12 16.08 0 4.76.4 8.68 1.36 11.4-9.66 1.37-19.61 10.79-24.35 21.81-3.03 7.02-3.85 10.75-10.06 13.4 3.48 8.59 11.21 12.95 18.53 13.23-4.61 5.24-1.92 16.73 1.49 17.23 4.47-4.1 9.23-5.02 14.38-5.02 11.87 0 18.28 4.22 29.79 4.22 21.91 0 35.88-7.45 46.47-16.76 4.82 2.31 11.87 3.56 15.16 3.56 6.46 0 11.99-2.45 14.8-6.34-2.22-2.94-4.95-10.16-3.02-15.43 2.67 2.17 7.66 3.77 11.51 2.93-.83-8.95 1.42-16.8 4.02-20.24 2.96-3.94 4.84-9 5.53-12.38h10.79c-1.57-2.4-3.24-6.04-2.61-10.82zm-72.97-73.38s-1.14-1.93-2.33-3.05c-.52 1.41-2.57 3.47-4.63 3.47-2.98 0-4.86-2.7-4.86-5.14 0-1.13.56-2.92 1.44-3.92 3.55.32 8.29 2.29 11.93 7.41-.01-.02-1.55 1.23-1.55 1.23zm151.54 201.07c11.1-13.7 6.99-28.64 6.99-35.51 0-10.05 10.12-16.61 10.12-24.9 0-2.29-.07-4.25-1.16-6.34-4.62 4.58-7.42 4.17-11.52 5.93-4.65 2-8.99 6.81-7.86 12.23-6.53-4.61-16.78-10.5-16.78-19.99 0-13.61 24.51-9.85 24.51-24.33-2.44 3.62-5.41 5.28-9.69 5.28-4.24 0-9.88-2.61-15.51-2.61-10.5 0-14.77 7.42-14.77 11.09 0 3.68.06 6.63 1.76 9.65-7.89-2.87-14.21-10.49-14.21-20.61 0-30.08 41.43-21.21 46.58-42.04-14.63 11.28-25.52 1.47-39.11 10.54.68-3.54 1.99-5.83 5.15-8.49-8.52.68-14.35 2.66-21.82 9.51 5.67-17.86 15.5-24.15 29.47-26.26 26.16-3.95 38.45-20.87 38.45-39.25 0-6.89-.59-11.58-2.3-16.55-4.19 10.87-15.25 18.4-25.37 21.76 1.83-3.5 3.15-8.47 1.57-14.37-2.1 1.06-7.1 4.16-10 5.5-6.13 2.87-25.11 10.48-21.82 35.86-7.86 6.89-21.21 18.67-21.21 43.32 0 18.88 19.78 44.74 32.81 52.78 13.05 8.05 32.38 15.83 32.38 33.29 0 16.97-12.14 29.24-28.45 29.24-5.47 0-9.08-1.01-13.14-4.21 1.76-1.88 2.67-4.87 2.67-8.48 0-20.71-31.05-31.97-57.56-48.79-3.51-2.22-6.11-4.52-9.1-8.08-2.45 1.39-7.15 1.69-10.94 1.69-3.3 0-8.47-1.07-13.73-2.92-9.98 8.18-25.44 16.33-47.33 16.33-11.53 0-18.92-4.26-29.14-4.26-5.14 0-10.77 1.35-14.45 6.27-5.92-1.87-9.02-11.23-5.92-19.04-5.42-1.2-10.35-3.64-14.36-9.02-5.94 3.87-14.83 9.61-20.66 11.11-5.82 1.47-18.84 8.24-22.24 8.24-5.25 0-8.42-5.5-12.15-5.5-4.44 0-9.22 5.3-9.22 8.5 0 3.81 3.24 7.3 6.42 8.74-8.14-.27-10.76 2.19-10.42 7.18 4.59.74 7.48 6.93 6.35 10.71.35.96 2.13 1.93 4.02 1.38-.59 2.47-1.99 7.7 1.75 10.76 1.45-2.74 3.37-3.67 6.14-3.67 2.75 0 5.13 2.63 5.79 4.52 1.81-.41 3.84-2.16 3.84-4.58 0-4.82 2.42-8.04 4.47-8.16.66 2.95 3.21 3.91 5.31 4.58-.34-5.25 3.17-6.92 5.47-6.92 3.64 0 5.21 1.58 6.59 4.25 2.12-.8 3.44-3.13 3.34-5.76-.09-2.63-.51-3.72-1.93-4.98 1.11-1.26 6.73-4.03 12.94-4.03 9.22 0 13.4 3.13 19.34 6.97 1.83-1.26 3.55-3.39 3.77-6.61 4.04-.45 7.05 4.54 10.88 9.79 2.36-1.32 6.05-6.06 5.47-10.28 8.18.62 12.53 2.87 17.7 6.07 3.42-1.67 4.64-5.64 4.83-9.17 18.58 18.18 36.64 23.29 60.1 24.85 17.89 1.19 28.29 11.72 29.83 16.99-2.79-1.45-6.29-2.2-10.76-2.2-11.72 0-21.15 14.35-21.15 28.77 0 10.2 1.63 18.96 11.61 29.74 9.31 9.97 11.76 11.2 11.76 20.97 5.11-1.48 6.49-4 7.87-7.35.07 7.54 3.49 14.05 8.61 15.67 2.77-5.28 5.12-8.48 8.41-10.58.94 21.45-19.94 33.49-27.37 33.49-5.97 0-6.39-3.33-11.22-3.33-4.76 0-10.35 3.96-10.35 9.51 0 3.46 2.18 5.85 4.53 7.23-5.7 3.01-6.39 6.06-5.97 10.27 7.12-1.44 10.04 5.24 8.73 9.59 4.4.94 7.61-1.12 9.88-3.16.7 2.16 2.72 4.22 5.14 4.87 1.52-2.64 3.89-4.56 6.8-4.56 2.93 0 5.36 1.13 6.59 5.2 3.3-.72 7.23-6.82 5.3-11.03 3.36-.91 6.71-5.7 6.87-9.01 2.24 2.93 5.19 5.2 8.35 3.76-.32-5.63 4.42-9.7 7.58-9.7 1.84 0 3.35.26 4.53.87.41-.74.74-1.78.74-2.91 0-2.67-2.25-4.68-4.26-5.77 6.08-3.9 11.9-11.83 13.63-16.97.48 3.33 2.19 5.94 5.54 6.64 2.3-1.94 3.12-3.54 3.47-7.82 6.31 2.05 12.79 1.64 15.04-2.29-1.68-1.43-3.37-3.88-3.37-7.1 0-8.32 2.8-11.62 2.8-19.19 0-7.75-5.49-14.07-12.45-14.07-4.59 0-8.55 1.81-10.57 4.11-8.73 0-17.72-9.63-17.72-20.2 0-10.07 6.41-16.07 14.11-19.74 4.74 2.07 12.44 4.44 20.54 4.44 8.08 0 14.31-2.37 17.24-5.15 1.12 1.16 3.58 3.23 6.97 3.23 5.87 0 9.61-1.71 12.55-5.37 2.9-3.66 5.22-7.28 10.36-11.61-4.04-2.3-9.1-1.62-13.28 1.55m-129.74-13c-1.72 1.97-3.64 3.64-5.41 3.64-7.13 0-11.82-.37-18.37-.37-28.85 0-50.12 18.11-50.12 38.84 0 12.67-.54 15.46-4.48 19.79 1.73 1.36 4.4 2.23 6.67 2.14-3.83 10.35-21.39 13.71-25.64 13.71-5.96 0-6.12-5.59-12.85-5.59-4.37 0-9.88 2.01-9.88 7.04 0 2.29.54 4.8 1.41 6.22-2.44-1.35-5.18-1.67-7.47-1.67-4.04 0-8.54 3.75-8.54 8.9 0 4.79 3.12 9.7 6.9 9.7 2.2 0 3.93-.17 5.74-.65-3.39 4.64-4.12 8.88-.53 12.33.69-1.69 3.06-4.37 7.69-4.37 3.45 0 7.17 3.27 6.31 8.15 3.8-.92 9.27-4.04 8.24-13.62 2.98 0 6.14-.87 7.45-2.35.7 3.14 2.59 6.25 6.35 7.7 1.02-1.92 3.74-4.97 6.95-4.97 3.53 0 5.19 1.58 6.21 3.23 1.84-2.53 2.92-4.67 1.37-9.22 5.19-1.33 16.46-5.45 22.5-9.62l2.66 5.29c4.32-1.68 8.46-5.44 10.82-9.13 2.12 2.88 2.29 5.68 2.5 9.27 8.41-5.84 16.71-13.43 16.71-27 0-12.38-4.8-12.26-4.8-18.96 0-6.66 6.07-15.76 15.86-15.76 2.19 0 3.18.03 4.34.11 1.63-10.96 8.72-21.19 16.78-24.13-3.25-4.03-8.73-6.97-15.37-8.65m-106.77-84.92c4.76-9.36 13.34-18.95 23.02-21.25-.52-2.71-1.05-4.66-1.05-9.41 0-1.84.55-4.79 1.06-6.48-11.4-5.93-29.74-17.02-33.2-21.95-9.87-14.01-18.25-19.24-18.14-26.87.04-3.16 2.15-7.64 2.15-11.62s-4.88-5.76-7.97-5.76c-3.58 0-7.33 1.11-7.51 4.42-.16 3.32 1.16 6.27 1.63 7.98.61 2.29.32 5.53-.07 8.07-3.26-3.55-6.43-7.67-6.43-11.3 0-3.72-3.23-6.43-6.96-6.26-3.74.18-9.69 4.67-9.69 9.02 0 3.8 2.83 5.28 5.43 6.95 1.69 1.12 3.55 2.46 4.63 6.44-2.84-1.61-5.01-2.16-8.43-2.16s-8.13 1.62-8.13 7.58c0 7.48 5.5 10.36 11.67 11.19-.47 5.48 4.34 13.94 12.86 13.94 1.86 0 3.72-.93 4.55-2.16 10.26 13.96 11.81 24.49 11.86 32.7 3.89 0 7.38-1.02 8.14-6.96 3.8 11.08 3.25 19.86.23 28.23 4.08.67 10-1.28 11.48-5.76 3.79 6.35 4.1 8.4 4.21 11.54 2.47-3.38 2.21-5.31 4.66-10.12m133.86 93.14c-5.54-6.51-17.07-10.08-25.36-10.38-.03 0 .03-.06-.08.06 9.92 2.43 14.07 6.21 16.83 9.96 3.95-.61 7.31-.23 8.61.36" fill="url(#a)"/>
<use fill="#efcf4d" stroke="#000" stroke-width="4.5" xlink:href="#d"/>
<path id="d" d="m85.5 133.34c-4.31 0-6.77 1.71-8.13 3.88 2.76 1.54 4.21 2.76 5.34 4.62 1.82-1.86 4.28-2.59 6.5-2.59 1.93 0 3.41.08 4.81.5-1.51-4.01-4.09-6.41-8.53-6.41zm-20.81 5c-4.94 0-8.01 4.24-8.5 8.35 2.3.11 3.72.59 5.16 1.47 1.87-2.53 5.99-6.11 10.91-5.82-1.73-2.85-4.27-4-7.56-4zm-11.09 30.57c-3.77.76-7.13 4.55-7.13 9.65 0 4.1 2.2 7.32 3.81 9.25.92-3.91 3.2-6.32 5.28-7.28-2-2.71-3.39-6.84-1.97-11.62zm16.09 26.71c-1.76 1.5-2.71 2.43-7.06 3.32.94 1.72 4.16 5.62 8.41 5.62 3.24 0 6.9-1.71 9.13-5.09-5.66.06-8.35-1.95-10.47-3.85zm-16 83.66c-5.26 0-8.43 3.6-10.16 7.66 2.87-.14 4.92.29 6.5 1.12.29-2.45 2.63-6.32 7.16-8.34-.77-.18-2-.44-3.5-.44zm-6.56 27.91c-2.91 1.06-4.31 3.7-4.31 6.4 0 3.66 2.04 6.55 5.09 9.22.97-3.93 3.18-5.65 4.53-6.43.96-2.8-.81-8.51-5.31-9.19zm44.47 8.59c-4.15 0-3.82 4.22-3.69 6.66.51 1.52 1.99 3.77 3.34 5.31 4.23-2.99 4.87-4.75 5.47-7.37-.94-3.04-2.69-4.6-5.13-4.6zm-25.56 11c-3.02 0-4.01 2.57-4.38 3.44-.43 3.78 3.69 7.92 8.13 7.72-.22-2.37.22-4.97.91-6.75-.88-2.63-2.49-4.41-4.66-4.41zm45.75 72.1c-5.19 0-7.99 4.53-8.37 8.9 1.54-.27 4.41-.34 6 .34-.02-4.04 2.86-6.45 6.78-7.96-.74-.59-2.04-1.28-4.41-1.28zm-15.66 18.53c-2.87.5-7.47 3.79-7.47 9.37 0 4.11 1.85 7.12 3.63 9.28 1.36-3.43 3.19-4.66 4.81-5.84-2.66-3.75-3.13-9.47-.97-12.81zm56.32 19.03c-3.21 0-5.27 3.93-5.28 3.9 1.75 1.76 2.58 3.36 1.22 7.16 4.58-.13 9.56-3.58 9.09-7.16 0 0-1.79-3.9-5.03-3.9zm-35.97 5.18c-3.74 0-5.61 3.08-6 4.5-.07 3.4 3.27 6.91 5.87 8.32 1.97-1.42 3.59-4.1 4.25-5.53 1-2.58.09-7.29-4.12-7.29zm115.75 3.97c-6.87 0-9.88 6.07-8.34 14.1 1.74-2.15 3.53-2.92 5.4-3.38-.47-3.78 2.65-8.48 6.5-10-.69-.42-2.15-.72-3.56-.72zm63.44 17.07c-1.9 0-5.53 2.9-5.13 7.96 1.58.74 3 1.91 4.72 5.94 2.46-.41 6.78-4.48 6.78-8.28 0-.8-.33-2.72-1.47-4.16-1.26-.98-3.43-1.46-4.9-1.46zm-63.82 13.43c-.86 0-2.07.17-3.28.63-1.63 1.32-2.94 3.16-2.94 7.28 0 3.26 1.74 6.28 3.76 7.19 2.68-4.26 5.54-6.26 7-7.03 1.38-3.85-.28-8.07-4.54-8.07zm29 6.94c-2.21 0-3.89 1.55-5.43 4.19 1.66 3.55 2.81 7.08 2.97 10.4 3.98-2.48 6.38-5.82 7.09-9.24-.24-2.5-1.7-5.35-4.63-5.35z" fill="#efcf4d"/>
<g id="e">
<path d="m418.47 12.28l-.6 1.12-.97-.78c-1.21-.95-2.63-1.63-3.22-1.77-.99-.26-1.29-.24-1.4-.15-.87.75-.36 7.16-.19 9.26l.15 2.04-1.75-1.01c-1.05-.62-2.8-1.25-3.95-1.55-1.25-.35-1.57-.23-1.67-.18-.04.03-.16.17-.32.77-.45 1.78.43 3.68 1.36 5.7 1.05 2.21 2.12 4.48 1.51 6.88-.54 2.07-2.49 3.94-5.57 3.13-2.77-.74-4-2.91-4.98-4.67l-.28-.49c-1.16-2.01-3.67-4.68-7-5.58-1.24-.33-2.49-.62-2.97-.34-.57.32-1.03 1.98-1.49 3.78-1.31 5.16-.13 12.38 2.83 17.57l.38.65-.46.58c-2.29 2.94-3.69 6.24-4.07 7.75-.87 3.35-.67 3.65 2.53 4.51 4.11 1.1 8.6-.71 12.16-2.14 2.87-1.16 5.13-2.06 6.95-1.58 2.72.72 2.94 2.1 2.94 3.83 0 5.39-6.87 10.75-19.34 15.18-.32.14-5.45 1.76-10.5 3.87-6.97 2.89-11.9 5.89-14.74 9.29l-.81.98-.83-.98c-2.67-3.24-6.94-6.01-13.75-8.86-1.88.89-4.02 1.86-7.63 3.48 4.24 1.96 6.76 3.56 6.76 5.98 0 3.6-3.11 5.41-9.24 5.41s-9.21-1.81-9.21-5.41c0-2.82 3.55-4.66 8.58-6.98 0 0 6.16-2.75 8.08-3.74 1.91-.99 5.35-2.82 5.35-2.82 3.08-1.78 6.87-4.23 11.46-8.93l.77-.79.74.8c4.31 4.51 8.21 7.03 11.49 8.91l2.4 1.26c2.64-1.12 4.59-1.76 6.1-2.26-9.61-3.98-17.68-9.79-20.77-14.97-3.22 5.23-11.48 11.13-21.21 15.13-2.46 1.15-8.32 3.11-12.88 5.11-6.1 2.63-11.98 6.74-15.01 10.55l-.84 1.04-.82-1.06c-3.05-3.85-7.87-7.35-14.25-10.39-1.69.83-3.48 1.7-6.73 3.14 4 1.93 6.49 3.59 6.49 5.99 0 3.62-3.2 5.45-9.48 5.45-6.3 0-9.5-1.83-9.5-5.45 0-2.9 3.53-4.58 9.29-7.1 0 0 5.44-2.37 7.35-3.29 1.91-.93 5.38-2.85 5.38-2.85 3.07-1.78 7.61-4.66 11.41-9.17l.8-.96.81.96c3.79 4.51 8.36 7.4 11.43 9.17l2.92 1.53c2.97-1.28 5.12-2.03 6.79-2.63-11.44-4.31-17.7-9.45-17.7-14.6 0-2.12 1.38-4.25 4.03-4.25 1.88 0 3.84 1.46 6.33 3.32 3.13 2.32 7 5.21 11.24 5.21 3.34 0 3.57-.26 3.57-3.71 0-1.55-.54-5.11-2.03-8.56l-.3-.68.52-.52c4.17-4.27 7.1-10.94 7.1-16.26 0-4.49 0-4.49-3.48-4.49-3.42 0-6.52 1.93-8.14 3.59l-.4.39c-1.37 1.44-3.11 3.24-5.97 3.24-3.17 0-4.61-2.32-4.61-4.48 0-2.46 1.6-4.4 3.15-6.27 1.41-1.69 2.73-3.32 2.73-5.14 0-.95 0-1.1-1.77-1.1-1.21 0-3.05.17-4.22.48l-1.94.52.66-1.93c.7-1.98 2.78-8.05 2.09-9.01-.06-.1-.36-.21-1.37-.21-.6 0-2.15.27-3.54.89l-1.16.5-.29-1.23c-.65-2.61-3.42-6.16-6.45-7.33-3.03 1.17-5.77 4.72-6.42 7.33l-.3 1.23-1.15-.5c-1.41-.62-2.95-.89-3.55-.89-1 0-1.31.11-1.37.21-.67.97 1.4 7.04 2.08 9.01l.67 1.93-1.93-.52c-1.2-.32-3.03-.48-4.23-.48-1.79 0-1.79.15-1.79 1.1 0 1.82 1.34 3.45 2.76 5.14 1.54 1.88 3.13 3.81 3.13 6.27 0 2.16-1.44 4.48-4.6 4.48-2.87 0-4.6-1.8-5.98-3.24l-.39-.39c-1.6-1.66-4.71-3.59-8.14-3.59-3.46 0-3.46 0-3.46 4.49 0 5.32 2.9 12 7.08 16.26l.51.52-.3.68c-1.48 3.45-2.03 7.01-2.03 8.56 0 3.45.23 3.71 3.58 3.71 4.25 0 8.12-2.89 11.23-5.21 2.49-1.87 4.45-3.32 6.33-3.32 2.66 0 4.03 2.13 4.03 4.25 0 5.3-6.62 10.59-18.68 14.96-2.05.82-7.1 2.53-11.26 4.14-5.02 1.95-11.61 5.8-14.48 9.14l-.81.96-.78-.96c-2.74-3.23-7.01-5.98-13.87-8.84-1.89.9-3.97 1.83-7.64 3.48 4.35 1.99 6.93 3.59 6.93 6.05 0 3.71-2.99 5.44-9.44 5.44s-9.46-1.73-9.46-5.44c0-2.95 3.62-4.8 8.74-7.11 0 0 5.85-2.51 8.09-3.61 2.25-1.1 5.17-2.82 5.17-2.82 3.11-1.78 6.88-4.23 11.48-8.93l.75-.76.75.76c3.92 3.89 7.37 6.56 11.5 8.93l2.49 1.33c2.67-1.15 4.62-1.76 6.14-2.29-9.67-3.96-17.78-9.8-20.89-15-3.24 5.27-11.44 11.17-21.09 15.09-.98.45-7.97 2.78-13.01 4.95-6.98 2.97-12.12 6.4-15.03 10.15l-.81 1.05-.84-1c-3.07-3.65-7.74-6.97-13.83-9.89-1.65.82-3.53 1.71-6.76 3.14 4.03 1.93 6.55 3.62 6.55 6.02 0 2.48-1.64 5.45-9.49 5.45-7.84 0-9.48-2.98-9.48-5.45 0-2.9 3.52-4.58 9.26-7.1 0 0 5.23-2.3 7.68-3.43 2.45-1.14 5.07-2.71 5.07-2.71 3.08-1.78 7.61-4.66 11.41-9.17l.82-.96.8.96c3.8 4.51 8.33 7.4 11.42 9.17l2.55 1.42c2.98-1.28 5.21-2.06 6.85-2.63-11.24-4.29-17.4-9.37-17.4-14.48 0-2.12 1.4-4.25 4.06-4.25 1.88 0 3.84 1.46 6.33 3.32 3.11 2.32 6.98 5.21 11.22 5.21 3.34 0 3.57-.26 3.57-3.71 0-1.55-.53-5.11-2.02-8.56l-.28-.68.5-.52c4.18-4.27 7.09-10.94 7.09-16.26 0-4.49 0-4.49-3.46-4.49-3.43 0-6.55 1.93-8.16 3.59l-.38.39c-1.39 1.44-3.12 3.24-6 3.24-3.15 0-4.59-2.32-4.59-4.48 0-2.46 1.6-4.4 3.14-6.27 1.41-1.69 2.73-3.32 2.73-5.14 0-.95 0-1.1-1.77-1.1-1.19 0-3.02.17-4.21.48l-1.94.52.66-1.93c.67-1.98 2.75-8.05 2.08-9.01-.06-.1-.35-.21-1.36-.21-.62 0-2.14.27-3.56.89l-1.13.5-.31-1.23c-.65-2.61-3.41-6.16-6.43-7.33-3.02 1.17-5.79 4.72-6.44 7.33l-.31 1.23-1.14-.5c-1.4-.62-2.95-.89-3.56-.89-1 0-1.3.11-1.35.21-.68.97 1.39 7.04 2.08 9.01l.67 1.93-1.95-.52c-1.18-.32-3.02-.48-4.21-.48-1.78 0-1.78.15-1.78 1.1 0 1.82 1.33 3.45 2.72 5.14 1.56 1.88 3.15 3.81 3.15 6.27 0 2.16-1.43 4.48-4.59 4.48-2.89 0-4.6-1.8-6.01-3.24l-.36-.39c-1.63-1.66-4.74-3.59-8.14-3.59-3.48 0-3.48 0-3.48 4.49 0 5.32 2.92 12 7.08 16.26l.52.52-.29.68c-1.48 3.45-2.03 7.01-2.03 8.56 0 3.45.24 3.71 3.57 3.71 4.25 0 8.1-2.89 11.23-5.21 2.49-1.87 4.47-3.32 6.35-3.32 2.64 0 4.03 2.13 4.03 4.25 0 5.58-7.32 11.13-20.6 15.63 0 0-5.95 2.04-9.34 3.47-6.79 2.84-11.79 5.89-14.64 9.33l-.83.99-.81-.99c-2.68-3.31-7.01-6.1-13.93-9-1.8.9-3.72 1.85-7.51 3.54 4.24 1.96 6.75 3.57 6.75 5.96 0 3.65-3.05 5.42-9.3 5.42-6.26 0-9.29-1.77-9.29-5.42 0-2.94 3.56-4.77 8.58-7.03 0 0 5.74-2.53 8.26-3.73 2.51-1.22 5.17-2.78 5.17-2.78 3.09-1.78 6.88-4.23 11.46-8.93l.77-.76.74.76c3.93 3.89 7.37 6.56 11.48 8.93l2.37 1.33c2.65-1.12 4.66-1.79 6.21-2.32-9.66-3.97-17.73-9.79-20.82-14.98-3.27 5.32-11.5 11.22-21.19 15.15-3.16 1.31-6.61 2.29-13.07 4.95-6.49 2.69-12.02 6.4-14.93 10.17l-.79 1.04-.86-.99c-2.98-3.54-7.78-6.86-14.17-9.86-1.66.81-3.51 1.68-6.73 3.13 3.93 1.9 6.41 3.55 6.41 5.93 0 3.71-2.99 5.44-9.4 5.44-6.39 0-9.39-1.73-9.39-5.44 0-2.84 3.46-4.54 9.18-7.05 0 0 5.71-2.46 7.33-3.24 1.63-.78 5.5-2.95 5.5-2.95 3.08-1.78 7.61-4.66 11.42-9.17l.8-.96.81.96c3.79 4.51 8.32 7.4 11.42 9.17l2.67 1.46c2.97-1.29 5.2-2.04 6.87-2.61-11.34-4.29-17.53-9.4-17.53-14.53 0-2.12 1.39-4.25 4.05-4.25 1.86 0 3.84 1.46 6.33 3.32 3.11 2.32 6.96 5.21 11.21 5.21 3.37 0 3.58-.26 3.58-3.71 0-1.55-.54-5.11-2.02-8.56l-.31-.68.53-.52c4.18-4.27 7.08-10.94 7.08-16.26 0-4.49 0-4.49-3.48-4.49-3.41 0-6.52 1.93-8.13 3.59l-.39.39c-1.39 1.44-3.11 3.24-5.98 3.24-3.17 0-4.6-2.32-4.6-4.48 0-2.46 1.6-4.4 3.14-6.27 1.39-1.69 2.74-3.32 2.74-5.14 0-.95 0-1.1-1.78-1.1-1.19 0-3.03.17-4.22.48l-1.93.52.65-1.93c.68-1.98 2.75-8.05 2.09-9.01-.06-.1-.35-.21-1.36-.21-.62 0-2.16.27-3.57.89l-1.12.5-.31-1.23c-.66-2.61-3.42-6.16-6.44-7.33-3.02 1.17-5.77 4.72-6.42 7.33l-.32 1.23-1.14-.5c-1.4-.62-2.94-.89-3.54-.89-1.02 0-1.32.11-1.4.21-.66.97 1.43 7.04 2.12 9.01l.66 1.93-1.93-.52c-1.2-.32-3.04-.48-4.23-.48-1.79 0-1.79.15-1.79 1.1 0 1.82 1.33 3.45 2.75 5.14 1.53 1.88 3.15 3.81 3.15 6.27 0 2.16-1.46 4.48-4.62 4.48-2.87 0-4.59-1.8-5.97-3.24l-.4-.39c-1.63-1.66-4.72-3.59-8.14-3.59-3.47 0-3.47 0-3.47 4.49 0 5.32 2.92 12 7.08 16.26l.53.52-.31.68c-1.48 3.45-2.03 7.01-2.03 8.56 0 3.45.24 3.71 3.58 3.71 4.24 0 8.11-2.89 11.22-5.21 2.49-1.87 4.46-3.32 6.34-3.32 2.64 0 4.03 2.13 4.03 4.25 0 5.3-6.59 10.57-18.66 14.96-2.04.8-4.21 1.32-9.66 3.45l-1.74.73c-6.97 2.91-11.53 5.8-14.35 9.1l-.81.95-.82-.96c-2.76-3.27-7.11-6.03-14.04-8.93-1.73.82-3.71 1.74-7.24 3.28 4.33 2.21 6.79 4.08 6.79 6.35 0 2.62-3.07 5.44-9.81 5.44-6.91 0-9.35-2.81-9.35-5.44 0-3.27 3.65-5.09 9.23-7.49 0 0 6.36-2.68 7.72-3.34 1.37-.66 5.06-2.71 5.06-2.71 3.26-1.88 7.15-4.39 11.45-8.91l.75-.8.78.79c4.59 4.7 8.37 7.15 11.46 8.93l2.68 1.46c2.67-1.14 4.56-1.86 6.11-2.4-9.62-4-17.75-9.85-20.98-15.03-3.24 5.44-11.95 11.58-22.2 15.54-.51.2-6.57 2.33-11.26 4.24-7.07 3.19-9.82 6.36-9.82 11.33 0 6.5 5.08 10 9.85 10h364.98c4.78 0 9.86-3.5 9.86-10 0-4.87-2.64-8.02-9.41-11.13-1.66.8-3.63 1.66-6.61 3.02 4.29 1.97 7.01 3.69 7.01 6.51 0 3.71-2.98 5.44-9.37 5.44-6.52 0-9.82-1.84-9.82-5.44 0-2.64 3.33-4.74 9.09-7.48 0 0 6.77-3.14 8.37-3.89 1.61-.76 5.85-2.84 5.85-2.84 9.57-4.95 12.05-9.44 12.05-21.8v-.14s10.98-42.93 11.66-45.57c-3.3.37-5.86 3.45-6.93 5.44m-398.38 47.35c0-1.73.22-3.11 2.93-3.83 1.82-.48 4.09.42 6.97 1.58 3.57 1.44 8.03 3.24 12.15 2.14 1.69-.45 2.52-.85 2.8-1.33.28-.46.19-1.39-.26-3.18-.38-1.5-1.79-4.81-4.08-7.75l-.47-.58.38-.65c2.99-5.19 4.15-12.41 2.85-17.57-.47-1.79-.94-3.45-1.51-3.78-.47-.29-1.73.01-2.98.34-3.3.89-5.82 3.56-6.99 5.58l-.26.49c-1 1.74-2.22 3.92-4.99 4.66-3.06.81-5.03-1.06-5.56-3.13-.61-2.4.46-4.67 1.48-6.88.96-2.02 1.84-3.92 1.38-5.7-.16-.61-.28-.75-.33-.77-.07-.05-.4-.17-1.68.18-1.15.3-2.86.92-3.95 1.55l-1.74 1.01.15-2.04c.19-2.11.7-8.51-.19-9.26-.09-.08-.41-.1-1.38.15-.58.14-2.01.82-3.21 1.77l-1 .78-.6-1.12c-1.06-1.99-3.63-5.06-6.94-5.44.67 2.64 11.69 45.57 11.69 45.57v.14c0 12.36 2.46 16.85 12.02 21.8l4.47 2.21c2.68-1.17 4.63-1.92 6.16-2.49-11.19-4.28-17.31-9.36-17.31-14.45" fill="#efcf4d"/>
<path d="m363.34 47.41c-2.96 0-5.37 2.46-5.37 5.47 0 3.02 2.41 5.47 5.37 5.47s5.38-2.45 5.38-5.47c0-3.01-2.42-5.47-5.38-5.47zm-99.53 0c-2.96 0-5.37 2.46-5.37 5.47 0 3.02 2.41 5.47 5.37 5.47s5.38-2.45 5.38-5.47c0-3.01-2.42-5.47-5.38-5.47zm-99.06 0c-2.97 0-5.37 2.46-5.37 5.47 0 3.02 2.4 5.47 5.37 5.47 2.94 0 5.34-2.45 5.34-5.47 0-3.01-2.4-5.47-5.34-5.47zm-99.59 0c-2.95 0-5.38 2.46-5.38 5.47 0 3.02 2.43 5.47 5.38 5.47 2.96 0 5.34-2.45 5.34-5.47 0-3.01-2.38-5.47-5.34-5.47z" fill="#00529f"/>
</g>
<g id="f">
<path d="m194 181.78c-.41-.65-.66-1.08-.82-1.65 0-.01-1.88.71-1.88.69-.14.6-.31 1.33.08 2.51.58-.86 1.34-1.28 2.62-1.55zm-4.41-8.78s2.23-.57 2.23-.59c.04-.21.05-.7.05-.99-1.05.33-2.02.3-2.89.26.14.45.43 1.1.61 1.32z" fill="#fff"/>
<path d="m206.54 171.6c-5.91 0-11.31 1.9-15.41 3.1-4.12 1.2-6.42 2.13-12.21 2.13-11.34 0-15.77-5.67-15.77-10.23 0-3 1.04-5.41 3.04-7.89-.94-.78-2.23-1.09-3.47-1.09-3.9 0-8.38 3.35-8.38 10.1 0 10.34 9.44 15.13 18.74 15.13 8.52 0 16.64-3.62 20.26-4.93 3.62-1.29 8.7-2.48 11.86-2.48 5.68 0 7.75.43 10.27 1.03.04-.27.1-.79.1-1.23 0-1.38-.19-2.31-.43-3.17-1.76-.26-3.82-.47-8.6-.47z" fill="#e10000"/>
</g>
</svg>
