<?xml version="1.0" encoding="UTF-8" standalone="no"?>
<!-- Created with Inkscape (http://www.inkscape.org/) -->
<svg
   xmlns:svg="http://www.w3.org/2000/svg"
   xmlns="http://www.w3.org/2000/svg"
   version="1.0"
   width="406pt"
   height="426pt"
   viewBox="0 0 406 426"
   id="svg2">
  <defs
     id="defs4">
    <clipPath
       id="clip0">
      <rect
         width="406"
         height="426"
         x="0"
         y="0"
         id="rect7" />
    </clipPath>
  </defs>
  <g
     clip-path="url(#clip0)"
     id="surface0">
    <path
       d="M 5.994095,6.893616 C 137.03125,6.892426 268.06821,6.89061 399.10544,6.894531 C 399.05299,83.272125 399.2209,159.65082 399.02002,236.02768 C 398.48608,242.86848 397.65218,249.68529 396.81677,256.50263 C 390.46195,294.49417 373.19229,330.72794 346.85672,358.9299 C 324.99689,382.88283 297.00868,401.02431 266.43405,411.74364 C 252.2157,416.414 237.55173,419.96852 222.61487,421.21178 C 212.49529,422.75847 202.19824,421.90851 191.99762,422.04697 C 149.92812,419.91977 108.67517,403.63199 76.503845,376.40051 C 39.499466,345.52441 14.445633,300.6588 7.915604,252.87947 C 6.89888,246.97513 6.744629,240.97984 5.993698,235.04643 C 5.989304,158.99582 5.988907,82.944519 5.994095,6.893616 z "
       style="opacity:1;fill:#211c1e;fill-rule:nonzero;stroke:none"
       id="schwarz" />
    <path
       d="M 13.166153,14.166245 C 139.44334,14.163727 265.72034,14.168365 391.9976,14.163925 C 392.00304,68.768906 391.99825,123.3737 392,177.97878 C 391.91574,196.34506 392.1978,214.7151 391.79634,233.07855 C 390.52275,262.93034 382.11018,292.45799 367.3904,318.46796 C 342.07039,363.68604 297.54501,397.75603 247.0686,409.76277 C 218.73344,416.63567 188.78183,416.82596 160.36289,410.31522 C 126.5098,402.55798 94.875366,385.23535 70.226334,360.75618 C 32.987015,324.69414 11.919312,272.78516 13.165848,220.98921 C 13.165726,152.04811 13.165131,83.107269 13.166153,14.166245 z "
       style="opacity:1;fill:#ffffff;fill-rule:nonzero;stroke:none"
       id="weiss" />
    <g
       id="gruen">
      <path
         d="M 22.835037,23.835022 C 72.423615,23.819595 122.0121,23.859924 171.60069,23.814819 C 162.75365,33.746613 153.44791,43.688614 147.89369,55.942307 C 139.48328,73.799515 136.92227,93.729736 128.88817,111.7325 C 124.44795,121.85719 117.84715,131.17154 109.09032,138.007 C 96.002426,148.71613 79.890091,155.02617 67.129272,166.17691 C 59.44545,172.81035 53.983109,181.61165 49.780594,190.75961 C 40.9263,210.28191 37.316238,232.25917 24.632156,249.95416 C 23.245926,240.37277 22.641663,230.67793 22.833527,220.99788 C 22.835052,155.27681 22.832016,89.556015 22.835037,23.835022 z "
         style="opacity:1;fill:#00a34c;fill-rule:nonzero;stroke:none"
         id="gruen_oben" />
      <path
         d="M 165.26703,160.26785 C 180.81371,140.62259 185.38277,115.19803 197.62705,93.717331 C 197.53943,136.80823 197.61029,179.89972 197.59142,222.99106 C 198.15302,255.97307 189.20917,289.02478 172.28886,317.32715 C 157.14737,342.81328 135.64452,364.51817 110.20842,379.76134 C 83.616943,363.62637 61.188492,340.65875 46.023514,313.47821 C 56.506058,302.68414 66.813263,291.44635 74.218033,278.25063 C 83.561188,261.28822 87.550827,242.11131 95.335342,224.48215 C 99.383301,215.43338 104.43982,206.64621 111.57195,199.66263 C 127.53996,183.939 150.7402,177.67915 165.26703,160.26785 z "
         style="opacity:1;fill:#00a34c;fill-rule:nonzero;stroke:none"
         id="gruen_unten" />
    </g>
    <path
       d="M 207.41473,226.04111 C 207.39177,158.63556 207.40909,91.229813 207.40624,23.824173 C 265.65889,23.848602 323.91148,23.825851 382.16437,23.835556 C 382.17156,92.901932 382.15623,161.96817 382.17217,231.03458 C 381.171,259.73444 373.34584,288.22311 359.21497,313.24933 C 344.02211,340.48601 321.59001,363.6182 294.90245,379.74278 C 268.12207,363.7579 245.74364,340.55251 230.50563,313.3573 C 215.56998,286.82971 207.58551,256.4765 207.41473,226.04111 z "
       style="opacity:1;fill:#ee1921;fill-rule:nonzero;stroke:none"
       id="rot" />
    <g
       id="pferd">
      <path
         d="M 360.46875,46.21875 C 359.5871,52.346223 358.73964,58.453678 358.21875,64.625 C 345.87754,70.24195 336.02141,79.7262 325.375,87.875 C 321.34624,91.218964 316.37318,94.006153 314.375,99.125 C 318.81781,100.57359 317.92557,105.70138 314.1875,107.28125 C 315.35348,108.905 316.25563,111.55006 318.75,111.21875 C 322.92089,111.41484 323.1152,104.7814 327.53125,105.46875 C 330.17274,105.03607 334.31758,106.55824 332.96875,109.90625 C 331.40577,111.84681 328.80102,111.74649 326.59375,112.21875 C 325.64507,113.03225 324.71557,113.83296 323.78125,114.65625 C 328.3137,116.07581 333.45623,117.66923 338,115.40625 C 341.72251,113.61218 341.26496,107.68828 345.6875,106.8125 C 355.16651,104.69098 365.02072,107.40973 374.5625,105.78125 C 378.92073,104.34063 380.81934,99.820339 382.53125,95.96875 C 385.19206,96.324013 388.53038,98.197406 387.4375,101.40625 C 385.03851,109.18123 377.05864,113.69693 369.15625,113.34375 C 363.08114,132.94536 342.22702,141.28112 330.75,157 C 325.29935,163.98982 322.36163,172.65593 321.84375,181.46875 C 313.23318,184.29533 304.73231,187.38676 296.09375,190.125 C 290.46312,191.40697 288.10436,197.31886 284.4375,201.15625 C 287.35366,205.82519 290.01738,210.7026 291.78125,215.9375 C 294.38251,222.86251 295.23879,230.29402 298.125,237.125 C 300.74299,237.28371 303.79205,237.25515 305.5625,239.5625 C 307.61101,241.50901 307.5239,244.51992 307.625,247.125 C 311.68243,251.0217 316.40364,254.73061 322.21875,255.28125 C 325.44667,247.26625 324.11199,238.5023 321.71875,230.46875 C 318.80995,230.46 315.9024,230.45151 313,230.46875 C 312.99094,228.76703 312.97548,227.07054 312.96875,225.375 C 308.16282,222.92244 302.87289,219.45164 301.9375,213.6875 C 300.92414,209.3241 303.14926,205.2204 305.84375,201.96875 C 318.52632,202.47706 331.17204,203.81065 343.875,203.75 C 348.79571,203.88731 352.09089,199.56305 354.28125,195.71875 C 355.09017,195.78951 356.69109,195.92922 357.5,196 C 360.71445,200.54571 356.71819,205.39492 352.875,207.84375 C 345.43211,213.00502 336.05765,209.63307 327.71875,210.09375 C 329.79887,214.04906 332.06094,217.96407 335.09375,221.28125 C 347.77279,235.20041 368.12874,238.95573 380.125,253.65625 C 383.10432,257.71679 386.91095,262.05597 386.5,267.4375 C 386.54219,276.81095 387.45456,286.2328 389.71875,295.34375 C 391.28648,300.95509 393.33288,306.90427 398.03125,310.6875 C 405.94259,317.32891 414.37893,323.57175 420.84375,331.71875 C 424.89397,336.74225 427.0788,343.53057 425.6875,349.9375 C 423.90825,359.77839 418.81286,368.55848 414.1875,377.28125 C 415.67861,381.06356 414.12265,386.21431 409.84375,387.21875 C 402.53826,388.04433 399.25349,396.08511 397.71875,402.34375 C 406.11929,405.65838 415.32976,404.51769 423.78125,402.0625 C 423.7885,398.58542 423.53085,395.08541 423.875,391.625 C 424.39914,388.94415 427.08352,388.01125 429.21875,386.9375 C 429.64672,369.08331 436.61211,352.29574 443.5625,336.125 C 436.88327,323.98219 431.48717,310.62874 432.25,296.5 C 440.56188,285.59323 448.97757,272.52593 446.75,258.15625 C 443.53301,242.20723 429.82165,231.72119 417.875,222.0625 C 408.53061,212.66942 400.96128,201.04739 397.90625,188.03125 C 396.37257,181.33337 396.65404,174.39782 397.09375,167.59375 C 402.81181,165.30873 408.81157,163.83663 414.96875,163.4375 C 410.84571,160.04904 407.70147,155.68708 404.90625,151.1875 C 414.42558,149.01377 423.94497,146.5055 432.84375,142.40625 C 425.24472,137.81252 420.39322,130.18956 416.21875,122.59375 C 425.42607,125.52178 435.22138,125.23907 444.53125,122.96875 C 434.84217,115.37293 430.8801,102.91533 421.5625,94.9375 C 427.2488,93.70829 432.85479,91.999298 438.09375,89.4375 C 431.32938,78.87941 419.16989,73.351468 407.3125,70.75 C 413.13214,67.958175 418.80506,64.538448 423.03125,59.5625 C 407.98507,61.03812 392.89098,59.347145 378.03125,57 C 378.63321,60.690605 379.73345,65.20377 377,68.3125 C 375.26973,70.136803 372.59578,69.289295 370.46875,68.96875 C 371.26757,65.810886 372.78323,62.527359 371.625,59.25 C 370.16544,53.404244 365.38082,49.277889 360.46875,46.21875 z M 347.875,78.9375 C 350.93927,79.049801 353.85087,81.719049 356.25,83.46875 C 353.63049,84.815304 350.84695,85.751874 348,86.46875 C 346.45314,85.547505 344.91053,84.641774 343.375,83.71875 C 343.847,82.419292 344.31755,81.115905 344.78125,79.8125 C 345.8212,79.156649 346.85358,78.900066 347.875,78.9375 z "
         transform="scale(0.8,0.8)"
         style="opacity:1;fill:#ffffff;fill-rule:nonzero;stroke:none"
         id="koerper" />
      <path
         d="M 228.55838,100.34128 C 231.8716,100.36038 235.18633,100.3596 238.50269,100.34494 C 246.56084,106.5909 254.54623,112.92972 262.57074,119.21983 C 258.16508,124.27765 254.70482,130.22466 253.17787,136.79921 C 249.08847,129.22372 245.0816,121.60162 240.96004,114.04631 C 240.41681,112.53444 238.65585,112.96275 237.50044,113.30257 C 234.60056,114.00748 231.87738,115.8293 230.66625,118.63414 C 228.91835,122.30508 230.10848,126.44751 231.10434,130.15089 C 230.13576,131.12726 229.1653,132.10178 228.20224,133.08096 C 229.77054,134.83666 231.36745,136.56953 233.00983,138.26137 C 229.89395,144.06088 225.59937,149.84085 219.20754,152.20499 C 216.72257,148.47012 215.7041,144.00302 215.99544,139.54942 C 217.48029,138.07431 219.16147,136.37149 219.03795,134.09563 C 219.14873,131.90468 217.44579,130.33666 216.18341,128.78865 C 220.10399,119.20355 227.06357,110.86624 228.55838,100.34128 z "
         style="opacity:1;fill:#ffffff;fill-rule:nonzero;stroke:none"
         id="huf_oben" />
      <path
         d="M 357.6954,118.04785 C 363.37053,120.66318 369.078,124.05054 372.29073,129.62273 C 375.9277,135.77457 375.81531,143.93665 372.03476,150.00105 C 369.176,155.13498 364.08842,159.64725 364.40831,165.99428 C 364.53413,172.76105 369.66242,177.68919 372.65965,183.31667 C 375.15242,187.86316 375.64386,194.01094 372.32274,198.27531 C 369.84848,201.47067 365.40784,202.15793 361.66415,201.27271 C 362.2881,200.70087 363.53603,199.55719 364.15999,198.98537 C 365.11998,195.61913 364.19568,191.79576 361.37373,189.60658 C 354.77828,184.13684 345.5495,181.77446 340.76355,174.20807 C 336.99088,168.29936 338.15428,160.80707 340.76623,154.69051 C 342.46483,149.86108 345.97492,145.33388 345.32187,139.9675 C 344.94519,136.60941 342.15489,134.37231 339.70905,132.40129 C 345.36086,129.41058 353.13293,131.29611 356.19041,137.10092 C 358.4248,131.01894 359.00888,124.40753 357.6954,118.04785 z "
         style="opacity:1;fill:#ffffff;fill-rule:nonzero;stroke:none"
         id="schweif" />
      <path
         d="M 282.52539,213.3428 C 284.67793,207.37499 290.57571,204.02586 296.30812,202.20462 C 299.32365,205.36903 302.46074,208.83115 303.75269,213.07411 C 303.80815,223.52322 305.12266,234.1881 309.51498,243.77624 C 302.98608,251.36497 302.13799,261.9142 301.80232,271.48979 C 293.22255,271.41174 284.62245,271.14577 276.05925,271.7981 C 271.44041,271.85967 267.3091,274.57199 262.63043,274.08369 C 262.63924,276.38037 262.65155,278.67947 262.68816,280.98123 C 256.34463,283.21698 249.1852,283.85176 242.81045,281.38977 C 243.35001,276.72287 246.13895,272.73334 249.55151,269.65886 C 251.49748,269.53754 253.74905,269.77887 255.30333,268.33049 C 257.08899,266.97102 257.22038,264.58867 257.53972,262.55846 C 268.8564,262.63757 280.17406,262.5808 291.49207,262.58949 C 291.276,254.13777 287.18487,246.60048 284.17023,238.91715 C 281.04071,230.87917 279.57933,221.64261 282.52539,213.3428 z "
         style="opacity:1;fill:#ffffff;fill-rule:nonzero;stroke:none"
         id="huf_unten" />
    </g>
    <g
       id="blume">
      <path
         d="M 173.75734,335.74715 C 173.63211,332.1841 174.2253,328.66669 175.47545,325.33557 C 179.0573,325.25668 182.63577,325.70798 186.01492,326.93809 C 184.08566,329.05138 182.67549,331.56064 182.09128,334.38107 C 179.22372,334.12044 176.41864,334.71297 173.75734,335.74715 z "
         style="opacity:1;fill:#00a34c;fill-rule:nonzero;stroke:none"
         id="blume_nw" />
      <path
         d="M 219.19455,326.90849 C 222.58456,325.64577 226.1938,325.19832 229.79833,325.44319 C 230.94737,328.71764 231.35196,332.16043 231.23486,335.62289 C 228.59795,334.58043 225.79364,334.18878 222.97171,334.31547 C 222.28801,331.57869 220.90172,329.12466 219.19455,326.90849 z "
         style="opacity:1;fill:#00a34c;fill-rule:nonzero;stroke:none"
         id="blume_no" />
      <path
         d="M 198.46704,351.06758 C 205.78462,348.20865 214.8007,354.09393 214.62387,362.06462 C 215.25325,368.90578 208.82303,375.2531 202.00075,374.61389 C 196.22203,374.62773 190.97606,369.72234 190.49344,363.98572 C 189.67392,358.48851 193.2281,352.83586 198.46704,351.06758 z "
         style="opacity:1;fill:#00a34c;fill-rule:nonzero;stroke:none"
         id="blume_mitte" />
      <path
         d="M 251.8125,406.90625 C 246.24437,407.15855 240.81275,409.17297 236.84375,413.09375 C 233.51116,416.23245 233.91024,421.07814 235.21875,425.0625 C 234.32001,425.93616 233.4161,426.82742 232.5,427.6875 C 229.08625,425.12923 224.64667,423.00873 220.4375,425.0625 C 210.00604,430.14095 205.68962,443.82221 209.09375,454.5 C 210.71307,459.58297 215.98206,462.20502 221.09375,461.5625 C 221.47459,462.82288 221.88258,464.08426 222.3125,465.34375 C 218.58266,467.56141 215.32723,471.62265 216.375,476.21875 C 218.62132,487.765 230.81683,496.58517 242.46875,495.3125 C 247.26716,494.85104 250.12314,490.65071 251.21875,486.34375 C 252.56086,486.33648 253.90134,486.34057 255.25,486.375 C 256.19986,490.2399 258.43498,494.18149 262.65625,495.0625 C 274.73307,497.44094 287.729,488.08392 290.03125,476.125 C 290.9027,471.44305 287.73533,467.40319 283.90625,465.1875 C 284.22226,464.2919 284.87151,462.52063 285.1875,461.625 C 288.89678,461.70715 293.04251,461.15638 295.40625,457.9375 C 300.13348,451.06471 298.94984,441.75815 295.4375,434.625 C 292.68661,429.34214 287.76479,424.02744 281.3125,424.3125 C 278.4543,424.26215 276.40718,426.54567 273.8125,427.3125 C 272.8681,426.6632 271.95051,425.98755 271.0625,425.28125 C 273.45132,420.42009 272.17278,414.32072 267.59375,411.25 C 263.10546,408.16582 257.38063,406.65395 251.8125,406.90625 z M 252.9375,429.4375 C 263.88521,429.41377 274.57586,437.55228 276.40625,448.6875 C 279.82574,463.23949 266.46401,478.25593 251.65625,476.84375 C 239.3212,476.25625 228.94689,464.83 229.5,452.5 C 229.69937,442.88099 236.38605,433.97509 245.40625,430.8125 C 247.8509,429.87207 250.41111,429.44298 252.9375,429.4375 z "
         transform="scale(0.8,0.8)"
         style="opacity:1;fill:#ee1921;fill-rule:nonzero;stroke:none"
         id="blume_ring" />
      <path
         d="M 158.77522,376.79428 C 159.68852,373.35359 161.31581,370.17918 163.44955,367.34192 C 165.08347,369.72177 167.09787,371.81725 169.53554,373.38629 C 168.24319,375.91525 168.0076,378.72943 168.07906,381.5275 C 164.6879,380.58198 161.52702,378.98717 158.77522,376.79428 z "
         style="opacity:1;fill:#00a34c;fill-rule:nonzero;stroke:none"
         id="blume_sw" />
      <path
         d="M 235.50851,373.34959 C 237.92641,371.7532 239.94658,369.66696 241.63623,367.32553 C 243.74596,370.1201 245.29756,373.26639 246.43202,376.57506 C 243.71114,378.96635 240.44528,380.60545 236.96709,381.57629 C 237.09589,378.74774 236.88408,375.88066 235.50851,373.34959 z "
         style="opacity:1;fill:#00a34c;fill-rule:nonzero;stroke:none"
         id="blume_so" />
      <path
         d="M 202.48651,397.10515 C 204.63434,399.0546 207.21194,400.40163 210.01231,401.16242 C 208.09676,404.1279 205.55322,406.59923 202.64174,408.5817 C 199.55867,406.72733 197.02795,404.15292 195.10118,401.12784 C 197.90498,400.4996 200.50114,399.20918 202.48651,397.10515 z "
         style="opacity:1;fill:#00a34c;fill-rule:nonzero;stroke:none"
         id="blume_s" />
    </g>
  </g>
</svg>
