<svg stroke-miterlimit="10" style="fill-rule:nonzero;clip-rule:evenodd;stroke-linecap:round;stroke-linejoin:round" viewBox="0 0 407.9 487.83" xml:space="preserve" xmlns="http://www.w3.org/2000/svg" xmlns:vectornator="http://vectornator.io"><clipPath id="a"><path d="M0 0h407.9v487.83H0z"/></clipPath><g fill-rule="evenodd" clip-path="url(#a)" vectornator:layerName="Untitled"><path d="M3.95 3.955v280c.038 110.429 89.57 199.93 200 199.93s199.962-89.501 200-199.93v-280h-400Z" fill="#d00" stroke="#000" stroke-linecap="butt" stroke-linejoin="miter" stroke-width="8"/><path d="M206.909 162.412c3.75-1.035 3.968-8.351 3.095-12.07-3.174-6.061 5.222-11.335 1.426-18.259-.174-4.277-5.397-6.805-2.597-10.902 1.868-7.982-1.509-16.607-7.608-21.347-.06-7.134-.343-17.051-8.193-19.708-5.241-.641-3.077-6.051-5.269-9.493-2.329-3.078-5.764-4-6.62-8.12-3.845-7.157-14.349-1.254-17.668-8.309-3.14-6.143-3.16-13.525-4.975-19.822-6.563-1.763-8.403 6.665-9.766 11.398-3.271-2.212 4.225-9.34-4.609-6.213 1.858-8.113-6.297-4.8-7.937-.305-.341 5.86-6.802 2.658-10.243 5.298-4.5 2.041-4.616 9.29-1.572 12.541-4.031 2.694-12.485 1.247-12.693 8.463-5.246 4.455-10.607 8.28-15.802 13.037-4.995.602-7.632 5.393-11.302 8.348-2.67 5.732 1.669 11.415-.11 17.459-1.073 9.322 11.587 4.328 12.514 9.981 1.981 6.109 9.249 2.525 13.603 3.627 6.494-.76 5.658-12.399 13.132-9.416 4.059 1.686 8.22-1.347 11.705-1.41 4.886 6.358-.411 15.166-4.462 20.585-6.764 7.802-14.854 16.382-14.851 27.826-2.74 4.492-8.283 6.869-9.876 12.466-2.235 2.476-.068 12.692-5.232 7.471-6.236-3.315-13.74-4.166-17.813-10.749-5.69-1.618-12.236-1.618-18.108-1.487-4.955 1.07-6.745 6.235-8.486 10.293-5.853 6.97-11.569 15.657-19.386 20.927-2.873 3.446-8.378 5.037-8.56 10.292-3.194 6.298 1.139 13.394-.42 20.3-.62 6.145-.79 13.262 6.383 14.847 3.552 2.967 8.145 8.479 12.765 5.908 3.313-8.826 7.258-18.771 4.353-28.17-2.816-2.063-4.097-5.419-7.534-6.518-1.356-4.722 4.111-8.722 6.072-2.859 8.248-1.469 9.803-12.126 13.57-18.717 2.01-8.004 13.223-8.335 16.351-1.068 4.002 5.93 9.12 12.271 13.388 17.497-7.584-.008-14.683-3.175-21.29-6.327-5.518-1.682-8.428 3.377-10.35 7.624-5.504 2.912-8.085 10.251-4.866 15.895 1.195 12.461 1.597 25.092-1.362 37.225-2.398 6.579 3.178 10.937 2.99 17.141.504 5.68 5.505 8.88 5.65 14.516 2.305 5.139 9.017 4.556 13.5 7.128 6.126 2.753 11.611-1.13 9.308-7.948-.353-7.287.374-17.073-5.54-21.937-4.645-1.215-13.254-.987-9.95-8.844 4.346-1.882 8.706-3.141 5.78-9.263-3.064-8.065-7.11-16.402-4.755-25.443 2.664-6.261 11.58-2.252 14.301 2.19 9.31 10.173 19.768 20.826 33.798 23.254 6.91.352 12.534 9.452 19.789 5.641 1.632-5.34 6.507-4.42 10.6-2.035 7.904 3.446 14.853 9.142 23.418 10.954 13.789 4.945 28.716 3.909 42.87 1.221 7.304-.76 14.328 3.652 17.338 10.292 4.183 6.045 11.686 3.613 17.558 4.88 3.742 7.505 12.617 6.176 19.534 7.051 9.892 5.339 13.829 17.387 18.033 27.408 5.298 11.93 4.832 27.093-3.548 37.167-2.342 5.448-11.085 4.988-10.498 12.275-1.407 6.327-8.131 12.256-7.133 19.632 6.822 2.727 15.245.993 22.3-.736 7.479-1.27 15.673-7.101 13.621-16.15-3.371-4.456-1.144-9.518 2.634-12.808 1.491-3.899 3.563-6.915 7.901-6.404 5.661 2.107 3.197-7.319 2.89-10.712-.804-6.02-5.38-10.511-6.841-16.544-1.14-3.978-4.35-15.751 1.939-8.959 7.317 7.683 13.62 16.689 15.069 27.866 2.718 9.215.782 18.768-1.608 27.713-2.395 4.943-5.715 9.666-10.681 11.856-1.633 3.63-2.766 7.231-5.121 10.635-1.452 5.111-6.936 10.259-4.353 15.477 11.07 2.072 23.93.208 32.592-7.585 3.74-6.465-2.966-15.327 3.591-20.686 2.071-4.318 5.786-6.221 10.328-6.798 5.965-1.358 3.767-10.382 2.761-14.98-4.082-8.704-8.772-17.205-9.913-27.104-2.35-6.298-4.599-13.135-3.511-19.86-2.72-9.379-14.601-9.283-19.132-17.153-3.655-5.781-7.367-11.736-12.473-16.504.292-7.843 3.065-16.18-.001-24.13-2.69-7.558.312-16.209-2.852-23.901-.67-3.909-2.728-7.495-3.585-11.131 8.03.84 16.216-3.607 19.204-11.397 5.149-5.116 11.45 3.872 7.023 8.767-3.002 5.056-8.242 9.456-7.791 16.238-1.396 10.83 4.914 20.047 12.327 26.532 3.805 4.806 1.882 13.874-4.609 10.749.013 7.205 8.977 3.835 12.254 1.258 2.968-5.916 4.443-9.9 3.585.115-.44 3.582-8.515 8.009-.731 6.823 5.581-1.557 6.893-8.344 8.083-13.075-.825 8.442 4.023 3.356 4.097-1.601 1.384-.893 1.048 10.833-.951 14.523-2.348 5.165-11.534 9.655-14.595 3.354-4.432 5.451 6.363 9.037 10.645 6.632 10.557-2.854 17.279-14.344 17.631-25.195-.331-4.963-3.125-9.097-4.975-13.342 5.011 3.656 12.327 2.826 14.411-3.583 2.386-8.825-5.612 2.739-8.998-3.354-5.655-8.775 3.685-17.28 2.852-26.417 2.169-8.256-2.378-16.023-6.912-22.147 2.489-10.196 2.195-22.706-6.365-29.695-4.205-5.304-11.62-4.769-17.522-5.49-4.867-11.003-19.848-10.155-29.116-5.68-12.3 5.025-19.051 23.559-10.316 34.725 5.588 2.817 9.123 11.983 2.524 15.743-6.011 5.034-14.089-.719-19.423-4.193-10.798-9.275-25.098-14.411-39.324-13.02-15.019 1.741-30.425-1.932-43.637-9.164-4.082-2.442-2.5-4.292.109-7.204.628-2.324 2.322-3.583 3.124-5.619l.001-.004Z"/><g fill="#fff"><path d="M206.183 163.387c-3.994-3.525.026-8.056-1.561-12.169-4.991-5.308-5.647-4.873-1.5 1.106-3.229 1.99-7.446-5.039-9.035-6.862 1.108 6.031 8.325 7.625 8.596 14.296-.64 6.599-2.756 7.743-2.926.648-.504-5.451-7.739-5.737-7.645-11.551-1.7 3.31 2.824 7.079 5.377 9.111 2.265 3.255 1.795 11.482-3.182 10.749 3.314-5.198.095-9.913-4.06-12.655-3.427-4.737-.885 5.532.182 9.72-2.745-5.823-.09 10.74 3.68 5.525 12.333 10.873 29.255 16.022 45.299 15.517 10.117.347 20.68-.652 30.251 3.735 11.692 3.695 19.793 15.041 32.468 15.789 6.863.109 12.949-7.448 9.39-14.274-1.332-6.043-9.105-8.296-9.23-15.046-1.784-8.746 3.121-18.125 10.535-22.224 6.639-4.523 16.611-5.353 23.82-1.662 3.873 1.178 3.402 7.529 7.821 7.075 7.216-.427 14.397 2.193 18.033 9.034 5.225 7.067 1.625 16.381 2.378 24.321 3.454 5.527 7.57 11.166 6.657 18.412-.122 6.465-2.117 13.097-4.864 18.527.06-7.412 3.872-15.015.512-22.185 2.67 9.63-4.758 19.05-.952 28.513 1.016 4.258 4.121 8.244 7.682 9.377-8.828.452-15.142-9.927-12.857-18.628.17-7.178 3.234-16.092-2.761-21.626.353 4.447 2.063 11.686.695 17.268-2.842 8.888-2.137 19.329 3.841 26.456 5.924 9.243 4.619 24.578-4.756 30.495.416-2.792 3.186-6.976 2.743-10.825 3.376-10.196-4.589-18.358-9.84-25.502-6.021-8.204 1.291-18.285-1.975-26.874.181 3.073.402 8.127-.914 11.931-2.551 8.317 1.042 16.423 5.994 22.604 3.895 10.856.178 6.76-3.383 1.263-3.639-6.46-11.286-10.968-11.061-19.446-1.695 4.754 2.035 11.112 5.78 14.524 3.863 5.448 7.705 13.037 4.426 19.822-1.814-6.04-3.089-14.335-9.437-17.725-4.993-4.534-8.785-10.633-8.45-17.917-2.046 5.359 1.729 12.784 5.304 17.345 3.311 3.883 6.977 11.985 2.523 15.78.372-6.885-3.892-12.008-8.632-16.01-6.136-6.388-7.123-16.748-4.829-25.121 4.734-5.068 11.297-12.474 6.036-19.784-1.373-2.488-9.574-2.459-3.877-4.727 3.898-3.369 10.631 9.258 8.998 3.011-2.651-6.603-12.736-7.438-15.289-.457-1.974 10.231-13.92 15.421-22.716 10.826-6.896.437 4.209 5.96 3.658 10.254 3.011 8.107 3.954 17.265 2.817 25.998 2.95 8.331 4.16 18.002.357 26.165 4.426 3.245 8.709 8.368 11.531 13.708 3.18 5.664 7.003 11.394 13.241 13.838 2.975 2.389 7.927 4.763 7.645 9.072-.121 9.568 3.756 18.921 6.364 28.094 1.702 9.518 9.889 16.924 7.937 27.37-2.99 3.524-10.034-.895-9.915 3.8-1.056 5.534-6.77 8.623-8.191 13.926-8.798-1.329 7.047 5.934.821 6.276-4.298-3.425-11.823-2.831-15.782-3.265 5.518 2.931 14.854.564 17.157 8.074-6.491 7.357-17.479 8.601-26.631 8.165-3.643-2.423 1.577-7.231 2.379-10.482 1.483-4.176 5.47-6.778 5.172-11.48 6.323-2.571 9.658-9.514 13.154-15.166 1.393 5.955 2.927.72 7.971-.633.053-2.638-9.279-1.359-7.532-6.457 2.885-7.998-.454-16.823-1.783-24.892-1.58-7.402-5.115-13.468-9.629-19.136-4.408-6.964-11.655-10.369-19.093-12.618-9.209-2.476-17.718-7.347-23.741-14.524-3.94-3.385-7.814-6.946-13.132-7.813-7.181-.94-11.555-7.282-13.571-14.028-4.277-8.177-14.179-11.451-22.497-11.817-4.096.819 6.445 1.139 8.889 2.63 5.085 1.806 11.383 5.186 12.437 11.017-4.23 1.079-10.353 1.403-12.437-3.889-4.606-4.475 5.959-3.347-4.974-4.658-15.623 2.492-31.516 7.6-47.415 3.873-11.623-1.524-22.074-7.201-32.108-12.976-6.948-1.148-5.539-5.307.659-2.668 4.093 2.472 4.182 1.444 1.499-2.745-2.086-2.774 2.173-14.694 1.366-5.833.301 15.933 2.955 1.151 2.621-5.984-5.653 1.655-8.599 7.036-12.4 11.131-4.561.947-5.845 5.754-7.864 9.225-7.25.249-11.689-7.636-19.204-7.09-10.077-3.239-18.992-9.269-26.3-17.23-5.102-5.826-12.127-14.787-20.666-10.216-3.513 3.292-5.352 9.891-4.06 14.295 1.573-8.198 1.323 4.631 2.487 7.281.325 4.803 6.526 9.496 3.364 13.913-7.351.768-6.96 11.395-2.12 15.095-.826 5.746 7.301-2.938 10.058 2.783 2.78 7.252 3.63 16.079 1.793 23.481-5.216-.158-10.819-2.649-15.657-4.041-4.188-1.263-.29-5.834-3.84-7.928-3.7-4.536-3.363-10.878-4.39-16.43 5.355 2.479 6.03-11.705 1.975-2.554-4.77 5.255-4.317-4.628-3-8.271 2.298-11.683 1.453-23.922.66-35.605-2.818-5.369.138-10.486 4.389-13.418 2.132-4.051 6.221-8.947 10.936-5.032 8.874 5.432 19.21 4.398 28.788 7.357 6.516 2.518 12.42 6.259 16.753 11.741 1.049-2.463-9.955-9.967-1.683-7.548 3.521 1.378 6.474 6.447 10.681 4.803-2.831-1.959-7.002-3.495-9.985-6.022-5.451-1.028-6.971-4.236-4.134-9.606 3.475-7.316-.457-15.994 3.794-23.243 1.868-6.178 7.606-9.577 12.384-12.738 3.423-4.27 8.564-5.644 13.268-7.666-5.135-.428-11.983 3.226-15.838 7.891-7.503 2.132-12.009 10.06-13.718 17.725-.454 6.356.732 12.87-2.991 18.4-.609 4.129-1.219 9.619-5.86 5.272-4.034-3.554-1.557-11.217.145-15.972 3.368-8.163-1.648-17.619 3.001-25.579 3.266-6.822 4.28-3.516 2.289 2.32-1.432 2.604 1.448 12.827 1.808 6.448-2.292-8.983 6.07-15.502 5.96-24.153.842-10.785 10.003-17.029 15.512-25.022 3.443-5.531 6.376-12.411 4.901-19.365 2.225 1.284 9.223-1.367 8.523-1.144-5.892 5.331-1.175 4.243 2.085-.876 1.533-4.48 7.719-5.7 7.901-11.131 2.64-11.431-.279-14.17-1.661-2.614-.758 8.755-11.475 13.687-18.75 9.323-5.767.045-10.949 5.018-17.045 2.516-1.105-6.5-2.871 3.554-6.402 4.04-2.542 11.362-6.189.955-11.047 5.909-7.39.329 4.443-1.823 4.609-6.099 4.729-3.031 5.391-7.585-1.646-5.718-4.935 1.465-7.665 8.666-13.753 5.908-5.3 1.288-8.634-5.71-4.865-9.301.123-4.293-3.736-10.346 1.574-12.808 2.003-4.39 6.525-4.243 9.876-6.48 3.285-7.075 12.428-7.776 15.974-14.257.427-6.705 9.285-3.302 12.448-7.853 3.704-4.337 8.026-.64 12.363-.953.722-2.701-6.759-2.322-7.865-6.403-5.721 1.81-10.776 1.007-4.022-4.331 4.502-1.957 9.779.994 12.801 3.568.35-9.737 5.557-5.427 7.352.953-.939 4.207-1.015 9.368 1.792 12.77-.056-3.032-1.822-7.752-.036-11.816 1.959-4.688.707-11.463 5.523-14.409 1.782 4.387 2.029 10.838 4.193 15.782 1.748 4.636 4.183 12.498-1.816 14.904-3.087 1.079 6.345 1.712 5.158 3.355 2.72 2.598 2.065 6.96 1.903 10.406 1.386-5.411.479-14.408 3.511-4.46 2.07 2.659-2.475 12.76 1.426 6.938-1.274-9.071 1.372-7.71 4.033-1.046 1.722 6.018 4.184 12.558 2.441 18.734 3.783-2.386.22-11.146-.732-15.515-1.048-6.57 3.466 1.132 3.402 3.736 1.181 3.317.292-5.657 2.926 2.554 3.542 9.573 6.197 19.448 6.317 29.802.918 11.553-2.42 22.867-6.571 33.476 1.532-.083 4.754-10.254 2.744-1.906-.382 1.468-3.306 8.96-1.463 5.909 6.539-15.288 8.202-32.676 5.454-49.206-2.564-13.332-7.42-25.955-15.333-36.487-1.953-4.131-5.653-6.92-8.815-9.759-1.87-5.72 6.791-2.21 10.608-2.135 5.989.604 4.752 7.287-1.024 4.88-6.207-1.158 3.602 2.725 5.825 1.564 3.671.357 9.074 5.098 5.222 8.652-5.707-5.222-2.504.415.732 3.164 3.126 1.52 8.89 1.289 9.364 5.908-5.132-1.765-12.329-.75-3.402.267 4.28.416 7.777 8.097 1.537 4.117-4.537-1.623-10.769-1.526-2.451.267 3.49.21 9.931 7.269 3.438 7.433-4.401-2.25-7.452-4.33-1.646.38 4.116 2.158 10.368 3.341 11.084 9.15-3.142.78-13.912-6.435-8.34-1.296 4.603 1.632 11.118 3.382 10.681 10.025 1.473 7.089-3.893 8.071-2.671.267-1.043-5.61-7.479-4.002-10.534-7.357 2.184 4.478 11.104 4.109 8.925 11.017-1.476 6.526-10.313-8.483-4.792 1.258 4.137 2.758 9.495 3.756 11.596 9.034 4.158 2.864-3.24 16.139-2.049 10.711 2.653-5.049-.784-12.438-6.255-12.96 2.29 2.082 6.79 5.603 5.085 8.958-2.909-3.134-8.036-2.985-8.999-8.043-2.147-1.481 2.266 7.599 6.072 7.319 5.812 7.03-7.206 6.012-6.765-.676-2.583-1.388 1.785 7.085 4.79 7.042 7.489 1.835 8.248 11.562 5.767 17.716-.309 1.017 1.919 1.308-.072 2.191l-.002-.002Z"/><path d="M246.718 272.757a6.597 6.597 0 0 1 3.317 1.114c.474.493.762 1.144 1.105 1.733.293.515.326 1.138.091 1.682-.128.464-.426.921-.913 1.002a2.969 2.969 0 0 1-1.637.297c-1.392-.007-2.786.043-4.178.044-.668-.127-1.352-.092-2.015-.202-.79-.31-1.587-.594-2.391-.864-.361-.129-.637-.418-.953-.632-.206-.6-.119-1.22.248-1.717.357-.606.975-.983 1.569-1.299.471-.242.999-.287 1.515-.261.856-.062 1.734-.153 2.524-.524.545-.226 1.122-.447 1.718-.373ZM140.166 38.38c.319-.008.724-.08.938.233.37.668.312 1.464.349 2.206.253.92-.063 1.884-.497 2.686-.315.599-.585 1.243-1.06 1.729-.392.261-.869.087-1.28-.023-.584-.209-.964-.852-.934-1.487-.047-.764-.129-1.565.166-2.291.162-.42.328-.841.55-1.23.158-.269.411-.45.612-.678.206-.263.356-.58.62-.79m-31.946 67.638c-.186.878-.864 1.493-1.344 2.2-.424.569-1.033.946-1.459 1.513-.472.614-1.038 1.154-1.711 1.517-.76.422-1.608.702-2.468.745-.494-.068-1.081.056-1.465-.359l-.527-.46c-.145-.441.35-.691.705-.625.56.108 1.137.002 1.696-.085.445-.069.868-.27 1.324-.24.355.008.748-.105.926-.453.324-.447.683-.874.927-1.377.711-.518.987-1.484 1.761-1.933.487-.324 1.075-.455 1.648-.446m-74.294 95.1c.977-.493 1.94-1.055 2.656-1.979 1.653-1.407 3.128-3.073 5.084-4.02 1.228-1.364 2.788-2.413 4.007-3.804 2.273-2.121 4.28-4.5 6.175-6.975 1.74-2.307 3.673-4.455 5.39-6.784.736-1.243 1.996-2.233 2.647-3.562.484-1.6 1.634-2.892 2.035-4.547.892-1.368 1.68-2.928 3.21-3.512 1.552-.565 3.225-1.016 4.793-.249 2.613.873 5.24.887 7.846.236 1.84-.327 4.124-.725 5.446.975 1.02.486.91 1.829 1.856 2.413 1.037 1.503 2.117 3.146 3.968 3.52 2.843 1.312 5.911 2.021 8.636 3.64 2.365 1.361 5.355 1.75 7.045 4.181 1.512.903 1.12 3.041 1.38 4.566-.01 2.214-.006 4.487-.968 6.508-1.755.489-1.523 2.426-2.419 3.769-2.68.498 1.226-3.674-1.876-2.361-1.574 1.835-3.7 3.462-6.197 3.4-.15 2.059 2.365 2.132 2.675 4.038.486 1.225 1.404 2.264 2.471 2.949 1.034.552 3.069.478 2.906 2.136-.851.913-3.2.25-4.031-.864-1.812-1.689-3.834-3.169-5.528-4.965-.734-.977-1.18-2.253-2.177-3.047-1.986-1.866-3.877-3.915-5.122-6.343-.445-1.122-1.465-1.748-1.863-2.924-.623-.996-1.214-1.815-1.774-2.84-1.68-2.02-3.94-3.215-6.355-3.925-1.528-.632-3.258-.905-4.858-.974-2.617.069-4.704 1.789-6.9 3.039-1.522 1.983-2.517 4.289-3.458 6.609-1.302 3.309-2.68 6.585-4.293 9.75-.835.856-1.644 1.801-2.208 2.928-.896 1.693-2.53 2.101-3.601.388-1.22-.977-2.974-.927-4.374-.778-1.2.992-2.662 1.932-3.284 3.471-1.462 2.707-1.976 6.218-.796 9.098 1.012 1.255 3.416-.736 4.198 1.205.66 1.066 1.983 1.429 2.528 2.564 1.878 2.762 1.72 6.354 1.031 9.511.088 3.108-1.04 6.039-1.7 9.026-.777 1.661-1.045 3.568-1.88 5.16-.975 1.712-2.827.306-4.121-.23-1.287-.834-2.67-1.46-3.747-2.563-.968-.412-1.678-1.235-2.517-1.927-.989-.144-2.91-1.676-1.416-2.534 1.32-.488 2.51-1.414 3.38-2.524 1.305-2.25 2.033-4.915 3.07-7.36.213-1.308 1.288-2.098 1.665-3.326.758-1.139 1.722-2.135 2.905-2.809-1.102-1.84-3.5 1.572-4.66 2.881-1.22 2.63-2.27 5.414-3.233 8.178-.748 1.172-1.96 2.022-2.837 2.968-.35 2.705-4.534 2.564-3.284-.151 2.357-1.021-.256-3.722.037-5.533.42-3.148.498-6.341.514-9.501-.058-2.226-.343-4.485-1.41-6.463-.26-1.421-.35-3.087.796-4.115.538-1.697.52-3.743 2.05-4.897.048-.401.376-.554.62-.781M302.33 342.933c-.995-.062-1.866.43-2.812-.056-1.136-.292-1.8-1.566-2.932-1.976-1.185-1.247-1.283-3.247-.485-4.752.132-1.945.089-3.897-.054-5.893-.518-2.94-1.306-5.829-1.83-8.754-.803-2.33-1.749-4.604-2.244-7.033-.935-2.13-1.432-4.438-2.379-6.565-.336-.988-2.145-2.652-.617-3.299 1.331-.095 3.009-1.297 4.038.045.732.381 1.502.948 2.137 1.543 1.196.659 2.088 1.726 2.594 3.036.6.862.967 2.167 2.199 2.001 1.8.312 1.415 2.785 2.111 4.154.351 1.743 1.398.404.896-.755-.38-1.908-1.509-3.824-.918-5.772.8-2.111 3.164-.895 3.047 1.202a58.328 58.328 0 0 1 1.962 9.897c.836 2.459 1.16 5.149 2.227 7.502.723 1.198.958 2.872 2.09 3.793 1.061 1.335 1.427 3.104 2.598 4.36.765 2.245 1.174 4.663 1.629 7.011-.077 1.434-.857 2.468-1.684 3.551-1.535.427-2.943 1.782-4.604.995-1.481.436-2.491-2.584-3.532-.278-1.064 1.881.2 4.154-.985 5.996-.842.901-.876 2.344-1.804 3.205-.24 1.176-1.589 1.693-1.853 2.916-.467 1.453-.944 2.902-1.254 4.401-.535 1.138-3.528-.515-2.87 1.167 1.291.405 2.749.799 3.324 2.22 1.635 1.943.141 4.036-1.814 2.447-3.447-1.363-7.25-1.645-10.885-1.227-1.211.445-5.981-1.377-4.217.467 3.023 1.413 6.288-.122 9.408.578 1.489.027 3.037.075 4.244 1.105 1.601.646 2.922 1.748 3.9 3.22.385 1.121.903 2.409-.22 3.292-1.402 1.051-2.373 2.777-4.155 3.23-2.025 1.009-4.201 1.655-6.35 2.271-2.674.879-5.495 1.212-8.261 1.694-2.087.235-4.187.584-6.27.319-1.316-.43-4.52.906-3.781-1.64.193-3.125 1.714-5.912 3.227-8.54.78-1.246 1.523-2.482 1.963-3.908.575-1.105.205-2.569 1.264-3.408.557-1.656-.261-4.109 1.553-5.063 1.704-.362 2.961-1.647 4.48-2.403.757-.614 1.488-1.105 2.258-1.725 1.494-1.018 1.821-2.879 2.866-4.262 1.207-2.166 2.487-4.288 3.738-6.436.491-.876.995-1.638 1.696-2.395 1.702-1.832 1.392 1.363 1.173 2.587 1.522.424 2.071-.606 3.212-1.317 1.231-.465 2.88-1.154 2.983-2.72m-111.792-184.66c.23.226.507.396.748.611.265.236.546.455.802.701.267.3.552.584.808.894.11.146.229.286.288.464.105.212.18.435.241.665.082.283.245.533.322.819.161.489.235 1.042.035 1.531-.076.286-.133.58-.223.859-.062.124-.119.225-.125.011-.216-1.059-.582-2.082-1.028-3.058-.562-1.2-1.251-2.328-1.868-3.497Z"/></g><path d="M155.02 46.345c-.791.068-1.091.98-1.171 1.682-.271 1.888.174 3.822-.267 5.692-.032.716-.449 1.29-.683 1.927-.144.81-.402 1.592-.528 2.405-.124.746.01 1.503.285 2.194.064.454.321.826.672 1.086l.631.567c.867.224.858-.877.598-1.42.053-.741-.367-1.416-.256-2.142-.037-.762 1.105-.966 1.287-.23.57.803.679 1.911.346 2.839-.33.441-.652.918-.845 1.44-.377.705.229 1.9 1.035 1.296.595-.53 1.19-1.118 1.496-1.888.372-.855.683-1.875.285-2.781-.117-.663-.316-1.283-.485-1.93-.145-.701-.64-1.238-.883-1.885-.393-.398-.508-.928-.707-1.438a9.457 9.457 0 0 1-.522-1.735c-.339-.624-.322-1.352-.419-2.046-.006-.748.001-1.51.085-2.27.112-.449.162-.907.046-1.363Zm-25.307 17.956c-.713.26-1.494.242-2.18.593-.638.055-1.266.139-1.85.429-.881.182-1.644.684-2.446 1.078-.87.544-1.303 1.559-1.586 2.528-.32.766.749 1.24.959.393.212-.65.569-1.221.934-1.785a3.697 3.697 0 0 1 1.216-1.217c.509-.26 1.037-.602 1.631-.485.718.052 1.425-.138 2.068-.461.681-.218 1.417-.193 2.116-.114.671.124 1.375.082 2.004.403.802.231 1.429.818 2.01 1.41.571.352 1.055.933 1.211 1.62-.13.67.73 1.383 1.067.56.387-.737.188-1.746-.489-2.224-.475-.326-.933-.636-1.258-1.138-.556-.251-.961-.769-1.538-.98-.581-.212-1.236-.07-1.777-.423-.663-.088-1.346-.007-2-.13l-.092-.057Zm14.807.61c-.322.337-.798.533-.898 1.052-.31.716-.386 1.508-.633 2.246.009.358-.215.668-.33.99-.375.23-.328.679-.577.992-.255.27-.345.64-.663.84-.343.324-.619.766-1.091.893-.328.202-.682.403-.871.765-.137.4.09.97.573.883.51-.05.968-.31 1.411-.56.315-.087.567-.356.813-.542.371-.193.62-.507.881-.827.206-.254.45-.501.489-.845.107-.251.201-.487.31-.734.101-.258.059-.701.26-.968.056-.355.155-.704.077-1.065a5.86 5.86 0 0 1 .535-2.627c.071-.208-.108-.425-.286-.493Z"/><path d="M127.114 67.424c-.643.256-1.32.38-1.963.694-.721.381-1.332.99-1.764 1.699-.5.347-.648 1.018-.977 1.507-.271.57-.702 1.025-1.056 1.532-.511.646.418 1.528.986.947.53-.395 1.138-.654 1.529-1.236.452-.454.605-1.118.902-1.684.334-.482.769-1.017 1.261-1.366.541-.212 1.369-.33 1.685.31.225.725-.318 1.433-.865 1.816-.698.278-.689 1.205-.052 1.56.515.58 1.313.603 1.992.41.696-.232 1.059-1.082 1.832-1.11.433-.12.664.314.95.557l1.063 1.035c.823.07 1.579.44 2.364.633.673-.05 1.509-.175 1.921-.792.458-.705-.402-1.026-.941-.805-.474-.031-1.003.236-1.429-.056l-1.585-.81c-.574-.722-1.102-1.497-1.411-2.385-.386-.658-.98-1.168-1.541-1.656-.86-.568-1.89-.81-2.901-.8Zm-2.411 6.94c-.067.255-.118.533.003.78.228.496.737.74 1.2.937.393.157.799.289 1.212.379.555.063 1.093-.13 1.623-.27.287-.032.552-.164.835-.223.352-.104.745-.297.853-.696.069-.201-.077-.38-.129-.563-.466-.01-.916.164-1.302.426-.208.136-.439.242-.689.238-.345.044-.689.116-1.039.1-.366.037-.688-.177-1.03-.27-.137-.142-.388-.157-.44-.383-.124-.216-.366-.33-.593-.392a2.419 2.419 0 0 0-.504-.063Zm-11.565 2.025c-.732.505-1.546.843-2.341 1.22-.819.85-1.891 1.4-2.842 2.05a9.813 9.813 0 0 0-2.732 2.364c-.812.732-1.555 1.45-1.989 2.484-.704 1.173-.4 2.622-.586 3.927-.182 1.758-.86 3.53-2.221 4.654-.92.934-2.19 1.36-3.125 2.26-.677.225-1.29 1.794-.11 1.508 1.596-.74 3.081-1.71 4.513-2.741.622-.587.882-1.472 1.561-2.012.54-.715.812-1.607 1.007-2.48.15-1.228-.364-2.417-.344-3.633.138-1.13.841-2.041 1.603-2.804 1.268-1.392 2.861-2.4 4.348-3.512.865-.497 1.53-1.268 2.353-1.818.548-.13 2.192-1.062 1.018-1.446l-.113-.02v-.001Zm-15.217 9.064c-.667.06-1.265.46-1.94.468-.35.466-.962.539-1.343.928-.363.57-.85 1.01-1.288 1.508-.508.47-1.046.904-1.566 1.359-.588.33-.95.97-1.178 1.609-.122.502-.135 1.154.25 1.538.46.25.784-.317 1.02-.64.263-.445.755-.887 1.29-.683.484.17.856.674 1.404.637.67.337-.306.976-.563 1.312-.216.506-.735.729-.957 1.216-.394.435-.97 1.212-.397 1.743.644.14.893-.723 1.261-1.093.415-.637 1.01-1.12 1.59-1.582.516-.272 1.037-.507 1.436-.962.436-.345.97-.524 1.374-.92.458-.285.763-.757 1.134-1.148a7.22 7.22 0 0 0 .815-1.773c.072-.69.012-1.396-.29-2.021-.385-.732-1.026-1.454-1.874-1.512l-.089.003-.089.013Zm34.238 2.293c-.436.007-.768.977-.768 1.868 0 .95.304 1.796.695 3.087.391 1.292.874 3.11.476 4.537-.457 1.494-1.683 2.663-3.183 3.545-1.499.746-3.157 1.278-3.548 1.753-.325.476.612.965 1.719.763 1.109-.137 2.282-.818 3.585-1.906 1.24-1.087 2.588-2.45 3.109-4.08.521-1.698.202-3.555-.256-5.526-.456-1.836-1.189-3.663-1.646-4.003-.065-.043-.12-.04-.183-.038Zm18.436.537a1.103 1.103 0 0 0-.768.266c-.521.543-.302 1.68-.366 2.63-.067.952-.347 1.697-.805 2.783-.585 1.086-1.431 2.385-1.243 2.593.261.136 1.628-.801 2.67-2.364.978-1.63 1.767-3.762 1.573-4.917-.122-.68-.591-.973-1.061-.991Zm3.921.146c-.289.04-.635.473-.878 1.067-.393 1.019-.58 2.509-.841 4.003-.261 1.563-.668 3.064-1.317 3.812-.654.746-1.559.816-2.341.953-.796.183-1.447.442-1.646.99-.195.477.184 1.389 1.097 1.526.849 0 2.369-.613 3.476-1.906 1.108-1.36 1.892-3.33 2.414-5.3.457-2.037.635-4.017.439-4.764-.098-.28-.229-.405-.403-.381Zm25.12 15.626c-.245.034-.496.274-.659.648-.457.747-.516 2.094-.841 3.317-.327 1.222-.916 2.334-1.829 3.964-.784 1.549-1.81 3.51-1.939 4.193-.196.681.519.063 1.171-.686.652-.747 1.235-1.767 1.756-2.516.457-.815.895-1.401 1.353-1.944.391-.612.782-1.223 1.171-2.516.326-1.223.596-3.073.402-3.888-.098-.442-.341-.606-.585-.572Zm-28.678 7.014c-.343.076-.78.3-1.171.572-.848.543-1.506 1.224-2.158 1.906-.655.744-1.299 1.415-2.341 2.439-1.044 1.021-2.482 2.371-2.743 3.05-.196.681.851.599 1.828.191.913-.477 1.758-1.395 2.671-2.211.91-.951 1.867-1.849 2.78-2.935.914-1.09 1.783-2.309 1.719-2.783 0-.239-.243-.305-.585-.229Zm30 .769c-.391.135-.523 1.423-.914 2.782-.391 1.427-1.12 3.124-1.902 4.956-.784 1.915-1.696 4.036-1.427 4.231.259.134 1.641-1.726 2.817-3.697 1.239-1.97 2.211-4.048 2.341-5.68.199-1.631-.524-2.661-.915-2.592Zm-32.774 6.782c-.415.065-1.062.73-1.976 1.563-1.108.883-2.568 2.125-2.633 2.668-.071.549 1.302.552 2.414.076a4.436 4.436 0 0 0 2.487-2.401c.389-.884.245-1.77-.146-1.906-.049-.017-.087-.01-.146 0Zm34.12 2.598c-.244-.026-.587.202-.914.61-.588.883-1.05 2.461-1.573 3.888-.585 1.494-1.228 2.832-1.683 3.85-.444 1.086-.693 1.854-.365 2.135.288.242 1.211.043 1.719-.686.585-.613.802-1.703 1.39-3.469.652-1.767 1.689-4.296 1.756-5.451.065-.577-.085-.851-.33-.877Zm1.358 7.356c-.35-.009-.764.193-1.024.533-.458.678-.391 1.841-.585 2.859-.199 1.019-.668 1.893-1.646 3.66-.96 1.695-2.398 4.33-2.597 5.489-.261 1.156.788.894 1.573.076.782-.745 1.232-1.98 1.755-3.202.521-1.222 1.113-2.371 1.829-4.002.655-1.7 1.484-3.736 1.354-4.689-.033-.509-.308-.716-.659-.724Zm-49.349 17.297c-.602-.054-2.231.522-3.658 1.296-1.498.829-2.727 2.103-2.926 2.859-.261.748.441 1.101 1.353.762.913-.272 2.054-1.237 3.292-2.325 1.174-1.087 2.383-2.244 2.122-2.516a.31.31 0 0 0-.183-.076Zm1.475 3.135c-.326-.052-.876.063-1.463.267-1.108.476-2.265 1.222-3.439 2.172-1.174.885-2.277 1.901-3.255 2.783-.902.964-1.697 1.77-2.341 2.783h-.037c-.653 1.088-1.145 2.45-1.536 3.469-.457 1.086-.81 1.91-.549 2.249.261.272 1.205.001 1.793-.61.456-.611.654-1.617.914-2.364.327-.883.754-1.594 1.536-2.477.783-.885 1.853-2.004 3.548-3.431 1.762-1.427 4.222-3.264 4.939-4.079.326-.475.216-.711-.11-.762Zm190.023 9.258c-.498.068-.824.266-.988.572-.326.542.026 1.429 1.134 1.906 1.173.543 3.194.749 4.499.953 1.434.135 2.15.351 2.671.419.456.086.727.07.914-.076-2.085-1.632-4.522-3.002-6.218-3.545-.847-.238-1.515-.297-2.012-.229Zm-2.412 4.989c-1.566.07-2.998.141-3.584.686-.652.543-.366 1.558.219 1.83.588.204 1.481-.263 2.524-.534 1.1-.219 2.36-.21 3.402-.076 1.043.136 1.903.567 2.816.839.979.272 1.925.486 2.707 1.029.782.476 1.318 1.211 1.646 1.144.197-.136.245-1.157-.146-1.906-.391-.747-1.23-1.21-2.012-1.754-.912-.476-1.77-.9-3.073-1.105-1.305-.203-2.935-.153-4.499-.153Zm19.782 1.415a.35.35 0 0 0-.219.115c-.261.273 0 .781.585 1.257.654.543 1.774.981 2.817 1.525.995.537 1.811 1.2 2.853 1.944.978.748 2.103 1.517 2.56 1.449.325-.135.003-1.113-.585-1.792-.521-.682-1.244-1.132-1.829-1.677-.654-.476-1.237-1.01-2.085-1.487-.782-.475-1.922-.749-2.707-.953-.684-.205-1.118-.397-1.39-.381Zm-.878 4.27c-1.012.013-1.383.667-1.097 1.143.259.544 1.436.736 2.414 1.144.977.272 1.809.815 2.853 1.563.995.878 2.233 2.098 3.146 2.439.849.274 1.432-.206 1.171-.953-.197-.746-1.189-1.763-2.817-2.782-1.566-1.087-3.824-2.311-5.194-2.516a2.804 2.804 0 0 0-.476-.038Zm-2.926 3.354c-1.043.07-1.187.849-.731 1.258.457.475 1.559.452 2.341.724.901.342 1.641.839 2.414 1.449.912.612 1.911 1.404 2.89 1.677.978.272 1.938.058 1.938-.419.065-.408-.835-.997-1.682-1.677-.782-.612-1.447-1.287-2.817-1.83-1.305-.68-3.311-1.249-4.353-1.182Zm-205.755.232c-.239-.001-.487.042-.731.076-.978.203-1.779.668-2.561 1.144-.848.543-1.464 1.153-2.377 2.173-.984 1.012-2.087 2.428-3 4.002-.978 1.563-1.785 3.331-1.719 4.079 0 .746.788.535 1.244-.076.522-.544.654-1.427.914-2.173.26-.747.649-1.285 1.756-2.44 1.107-1.088 2.935-2.658 4.499-3.812 1.631-1.223 3.054-1.962 3.183-2.439.098-.356-.489-.531-1.207-.534h-.001Zm52.896 2.403c-.534.012-.976.518-1.024 1.182-.13.883.347 2.059.805 3.621.521 1.563.971 3.511 1.427 4.803.459 1.199.958 1.942 1.207 2.516.258-2.76.235-5.448-.037-7.548-.393-2.444-1.11-3.909-1.829-4.383-.195-.12-.37-.195-.549-.191Zm5.853 2.549a.866.866 0 0 0-.476.153c-.52.34-.208 1.074.183 2.363.261 1.225.65 2.99.586 4.689-.129 1.635-.571 3.321-.513 4.346.133 1.155.856 1.645 1.244 1.372.393-.271.456-1.298.585-2.249.13-.884.271-1.77.403-3.469.194-1.766.31-4.405-.147-5.832-.44-1.018-1.278-1.395-1.865-1.373Zm5.373 3.66c-.257.011-.512.113-.659.343-.324.542-.102 1.846-.036 3.545 0 1.766-.208 3.781.183 4.46.398.61 1.299-.253 1.755-1.144.521-.814.513-1.827.513-3.049 0-1.155.008-2.577-.513-3.393-.325-.508-.815-.78-1.243-.762Zm-67.224.268c-.198.004-.41.025-.621.077-.912.27-1.956 1.013-3 1.829-1.044.816-2.03 1.691-3.072 3.05-1.04 1.42-1.99 3.449-2.195 4.345-.13 1.02.576.849 1.097.305.522-.475.774-1.297 1.427-2.249.586-1.018 1.509-2.128 2.487-3.011 1.044-.95 2.132-1.599 3.109-2.211.979-.68 1.829-1.231 1.829-1.639 0-.305-.464-.506-1.061-.496Zm71.8 2.599c-.382-.01-.853.531-1.097 1.296-.261 1.018-.277 2.382-.146 3.469.066 1.088.258 1.957.585 1.753.258-.061.73-1.203.988-2.63.196-1.358.261-3.155 0-3.698-.098-.136-.202-.187-.33-.19Zm-30.761 5.257c-.281-.016-.67.214-1.061.572-.457.476-.898 1.223-1.682 3.126-.855 1.854-1.958 4.995-3.585 7.776-1.696 2.717-3.866 5.133-5.56 6.9-1.696 1.767-2.913 2.849-3.109 3.392-.067.545.96.545 1.938 0 1.107-.543 2.232-1.555 3.731-3.049 1.5-1.563 3.338-3.53 4.902-5.909 1.631-2.312 2.839-5.103 3.621-6.938.718-1.903 1.004-2.897 1.134-3.85.13-.884.188-1.702-.073-1.906a.39.39 0 0 0-.256-.114Zm.07 10.137c-.25.035-.535.429-.878.991-.391.745-.978 1.697-1.499 2.783-.521 1.019-1.018 2.038-1.866 3.125-.717 1.02-1.841 2.102-3.146 3.393-1.239 1.292-2.796 2.721-4.426 4.079-1.63 1.427-3.447 2.693-4.426 3.507-.923.718-1.127 1.039-1.207 1.296 3.313-1.425 6.419-3.241 8.889-5.07 2.412-1.971 4.179-3.939 5.743-5.909 1.499-1.904 2.8-3.881 3.255-5.374.458-1.495.079-2.473-.183-2.745a.318.318 0 0 0-.256-.076Zm-.363 8.917c-.471-.043-1.347.764-1.975 1.715-.652.951-.979 2.222-1.5 3.24-.585 1.155-1.323 2.197-1.975 3.012a17.182 17.182 0 0 1-2.158 2.249c-.913.878-2.012 1.811-2.012 2.287 0 .544 1.188.544 2.231 0 1.046-.543 1.898-1.543 2.744-2.63.782-1.087 1.565-2.184 2.414-3.202.782-1.087 1.562-2.177 2.085-3.469.521-1.291.75-2.785.293-3.126-.049-.042-.079-.07-.147-.076Zm-100.851.951c-.39.068-1.363 1.516-2.342 3.012-.911 1.494-1.698 2.902-1.243 3.583.468.732 2.035.668 3.475-.076 1.434-.748 2.65-2.155 2.78-2.631.196-.545-.82-.152-1.536-.152-.654 0-1.135-.45-1.135-1.334-.066-.885.326-2.402 0-2.402Zm219.367 7.356a.3.3 0 0 0-.146.038c-.391.135-.385 1.108.073 2.058.391.885 1.15 1.908 1.865 2.859.785.951 1.654 1.97 2.305 3.736.585 1.866 1.154 4.5 1.353 6.671.193 2.223.147 3.976.147 5.26 0 1.495.041 2.582.365 3.126.325.544.926.56 1.317.153.391-.408.639-1.214.768-2.097.13-.951.065-1.928 0-3.354 0-1.496-.03-3.304-.877-6.023-.716-2.65-2.248-6.121-3.293-8.158-1.106-2.039-1.762-2.658-2.414-3.202-.628-.596-1.122-1.091-1.463-1.067Zm-129.671 5.306c-.342-.009-.784.106-1.207.343-.848.477-1.637 1.471-1.573 1.944.141.403 1.06.209 1.902-.267.849-.475 1.631-1.2 1.5-1.677-.032-.204-.279-.335-.622-.343Zm127.365 9.417c-.383.009-.8.19-1.061.496-.521.681-.493 1.686-.365 3.316.066 1.563.187 3.617-.074 4.841-.261 1.223-.862 1.632-1.316 2.516-.516.744-.953 2.04-.695 2.516.326.475 1.243.193 1.828-.419.521-.611.78-1.555 1.171-3.05.455-1.562 1.109-3.54 1.5-5.375.324-1.904.455-3.52 0-4.269a1.072 1.072 0 0 0-.988-.572Zm-182.637 2.318c-1.278.434.902 1.813 1.302 2.464 1.381.738 2.223 2.13 3.53 2.969 1.241.464 2.364 1.23 3.39 1.989 1.566.609 3.307.64 4.48 1.975 1.159.502 2.465.059 3.669.405 1.969.426 4.07.29 5.887 1.325 1.41.53 2.335 1.72 3.484 2.577.978.977 2.493 1.385 3.851 1.481 1.41.32 2.97.062 3.732-1.358.95-.981 1.591-2.218 2.165-3.493.767-1.466 2.367-2.254 3.772-2.934 1.115-.177 2.544-2.71.507-1.904-.934.798-2.159 1.162-3.168 1.867a9.97 9.97 0 0 0-3.175 2.567c-1.016 1.49-2.509 2.93-4.342 3.151-1.636-.257-3.279-.902-4.246-2.35-1.147-1.175-2.688-2.258-4.415-1.908a19.449 19.449 0 0 1-7.099-.945c-1.238-.602-2.614-.755-3.855-1.365-1.333-.296-2.242-1.284-3.426-1.862-1.342-1.098-2.621-2.263-4.029-3.304-.672-.404-1.196-1.181-2.014-1.347Zm58.234 2.476c-.355.059-.756.899-1.098 1.792-.391 1.018-.601 2.04-.731 4.078-.187 1.964-.31 4.98.146 6.481.458 1.494 1.481 1.465 1.939.991.457-.543.393-1.607.329-3.507 0-1.835-.006-4.51-.073-6.48 0-1.902-.042-3.18-.366-3.317-.049-.025-.096-.046-.146-.038Zm127.294 1.793c-.297-.059-.649.691-.878 1.525-.261.95-.507 1.963-.768 3.049-.261 1.019-.446 1.966-1.097 3.393-.585 1.366-1.569 3.129-2.341 4.422-.846 1.294-1.448 2.083-1.317 2.287.13.203 1.029-.142 1.683-.686.715-.61 1.188-1.396 1.646-2.211.52-.882.965-1.721 1.682-3.012.718-1.427 1.684-3.257 2.012-4.955.261-1.765-.121-3.328-.512-3.736-.041-.042-.067-.068-.11-.076Zm-122.249.122c-.499-.14-1.32 1.244-1.72 3.088-.526 2.098-.529 4.803-.073 6.633v.038c.391 1.834 1.252 2.76 1.902 2.897.586 0 .988-.74.988-1.487 0-.748-.318-1.434-.512-2.249-.197-.817-.286-1.824-.22-3.66.067-1.834.275-4.564-.182-5.108-.057-.085-.112-.132-.183-.152Zm5.045 1.671c-.285-.021-.731.394-1.025.801-.457.475-.601.867-.731 1.41-.194.476-.256 1.119-.256 2.478 0 1.378.089 3.319.475 4.612.325 1.29.912 1.813 1.5 1.678.455-.07.967-.816 1.097-1.563.065-.815-.328-1.535-.658-2.554-.324-.951-.722-2.112-.658-3.469.066-1.291.538-2.795.475-3.202-.049-.119-.125-.184-.219-.191Zm4.541 4.196c-.281-.052-.544.54-.658 1.373-.067.952.105 2.237.366 3.392.398 1.086.86 2.036 1.317 2.097.39.067.841-.824.841-1.639 0-.815-.451-1.611-.841-2.63-.325-1.02-.588-2.243-.915-2.516-.04-.034-.069-.069-.11-.077Zm115.437 1.72c-.388-.034-.9.178-1.243.534-.456.408-.565 1.174-.695 2.059-.067.814-.142 1.748.183 2.02.269.28.897-.264 1.353-.801.458-.61.747-1.226.878-1.906.13-.747.178-1.586-.146-1.791a.64.64 0 0 0-.33-.115Zm4.542.037c-.484-.047-.662.751-.549 1.525 0 .815.378 1.704.769 2.859.393 1.222.724 2.645.658 4.955 0 2.318-.457 5.488-1.171 7.586-.717 2.107-1.684 3.191-2.597 4.346-.846 1.155-1.703 2.406-1.573 3.088.065.542.968.542 1.683 0 .652-.546 1.135-1.587 2.048-3.355.979-1.768 2.392-4.224 3.11-7.281.717-3.059.67-6.633.146-9.149-.521-2.58-1.654-4.156-2.305-4.498a.602.602 0 0 0-.219-.076Zm-7.058 6.477c-.262.014-.695.338-1.061.763-.588.679-.849 1.604-1.5 2.554-.597.878-1.514 1.776-1.573 2.325-.064.612.722.806 1.244.534.652-.341.994-1.141 1.646-2.364.588-1.222 1.5-2.923 1.5-3.469 0-.254-.099-.351-.256-.343Zm4.424 1.366c-1.63 2.652-3.447 5.204-5.011 7.243-1.564 1.97-3.021 3.348-3.475 4.232-.391 1.019.144 1.501.732 1.296.652-.136 1.295-1.022 2.012-1.906.784-.882 1.552-1.637 2.267-2.859.718-1.156 1.461-2.712 2.049-4.003.587-1.29 1.01-2.247 1.207-2.859.269-.671.29-.875.219-1.144Zm-9.809 5.843c-.585 0-1.291.866-1.097 1.411.199.402 1.26.476 1.646 0 .327-.545-.028-1.411-.549-1.411Zm15.404 4.916c-.069.02-.117.072-.182.115-.391.34-.474 1.536-.732 2.554-.197 1.02-.58 1.986-1.427 3.278-.854 1.293-2.137 3.05-2.524 4.269-.324 1.087.186 1.717 1.098.763.978-.95 2.36-3.329 3.402-5.299.911-2.039 1.564-3.554 1.499-4.574-.058-.832-.645-1.241-1.134-1.106Zm-18.985 5.063c-2.284 0-6.064 1.977-8.67 2.249-5.934.682-11.131-2.406-16.022-2.135-.587 0-1.052.88-.987 1.22.066.272.591.356 1.243.495.588.068 1.619.616 2.598.953 3.851 1.232 7.574 2.364 11.741 2.364 2.607 0 9.724-2.016 11.157-4.46.326-.545-.476-.686-1.061-.686h.001Zm-205.72 4.696c-.72.863-1.04 1.982-1.57 2.966-.307.906-.596 1.849-.515 2.822-.112.939-.165 1.894-.219 2.843a40.214 40.214 0 0 1-.263 2.398c-.169.823-.35 1.653-.833 2.345-.7 1.236-1.678 2.265-2.683 3.237-.575.328-.862 1.952.153 1.464a25.98 25.98 0 0 0 1.664-1.688c.555-.589 1.171-1.109 1.78-1.635.511-1.201 1.16-2.378 1.36-3.69.073-1.312.334-2.608.372-3.92.071-.676.1-1.381.13-2.068.286-1.139.443-2.331 1.002-3.374.152-.503.772-1.371.103-1.683a1.276 1.276 0 0 0-.48-.017Zm209.009.11c-.588-.136-1.499.438-2.414.915-.977.542-1.953.95-3.256 1.219-1.24.205-2.814.205-3.987 0-1.241-.268-2.141-.626-2.597-.419-.521.203-.659.963-.659 1.372 0 .475.117.475.769.61.652.138 1.903.399 2.816.534.914.138 1.626.143 3.256-.267 1.76-.407 4.576-1.284 5.816-2.096 1.173-.887.907-1.733.256-1.868Zm20.566 5.038c-.813.064-1.513.507-1.317 1.219.261.815 2.078 2.133 3.512 3.355 1.499 1.158 2.602 2.211 2.926 2.211.391 0 .202-1.006-.256-1.754-.398-.817-.929-1.488-1.573-2.439-.654-.885-1.446-2.109-2.487-2.516a2.4 2.4 0 0 0-.805-.076Zm-268.46-71.763h.465c.24.282.316.732.114 1.058-.205.602-.847.831-1.175 1.337-.536.674-1.026 1.418-1.75 1.891a3.89 3.89 0 0 1-2.748.674c-.413-.085-.725-.615-.494-1.016.21-.36.655-.42 1.023-.363.315.049.635.031.938-.073.48-.136.955-.347 1.348-.67.29-.33.552-.699.92-.943.294-.322.523-.704.828-1.017.196-.278.327-.6.53-.874m30.306-35.794c-1.956.613-3.13 2.108-3.26 2.855-.13.746.85.612 1.956.272 1.174-.272 2.478-.815 4.564-.612 2.088.204 5.02 1.088 6.587 1.155 1.563.069 1.89-.815 2.084-2.039.197-1.223.328-2.717-.456-3.058-.784-.338-2.608.613-4.76.885-2.154.329-4.822-.074-6.718.536l.004.006Zm26.806 14.407c.781-.203 1.497-.61 2.28-1.291.783-.543 1.696-1.291 1.63-1.698-.13-.273-1.239-.273-2.151 0-.913.338-1.63.95-2.348 1.56-.651.613-1.37 1.155-1.301 1.427.116.269 1.03.208 1.883 0l.007.002Zm1.3 4.147c.78-.135 1.694-.679 2.737-1.222 1.044-.544 2.152-1.02 2.348-1.563.195-.544-.587-1.155-1.304-1.02-.847.069-1.694.884-2.608 1.495a19.07 19.07 0 0 1-2.413 1.36c-.521.272-.521.272-.261.476.26.203.784.524 1.498.463l.001.011h.002Z"/><path d="M95.814 91.832c.103-.388.51-.557.664-.915.14-.19.135-.505.356-.612.19-.086.23-.303.302-.48.082-.26.147-.527.262-.773.081-.252.113-.518.146-.78.083-.22.145-.444.283-.63.135-.21.437-.273.634-.118.396.24.555.742.54 1.199-.009.326-.095.65-.243.936-.172.158-.39.26-.483.495-.486.667-1.102 1.275-1.87 1.563a1.795 1.795 0 0 1-.587.103" fill="#fff"/></g></svg>