<svg xmlns="http://www.w3.org/2000/svg" xmlns:xlink="http://www.w3.org/1999/xlink" width="330.002" height="260.001" viewBox="0 0 87.313 68.792" xmlns:v="https://vecta.io/nano"><style><![CDATA[.B{stroke-width:.378}.C{fill:#129612}.D{stroke:#003718}.E{fill:none}.F{fill-rule:evenodd}.G{stroke:#000}.H{fill:#b400b4}.I{stroke:#531553}.J{stroke-width:1.65}.K{fill:#7eff00}.L{stroke-width:.404}.M{stroke-width:.099}.N{stroke-width:.371}.O{stroke-width:.033}.P{stroke-width:.265}.Q{fill:#961e1d}.R{stroke-width:.387}.S{stroke-width:2.845}]]></style><g transform="translate(1776.203 570.261)"><path d="M-1776.203-570.261h87.313v68.792h-87.313z" fill="#0c2d83"/><g transform="matrix(.560999 0 0 .561565 -780.18367 -249.73944)"><g class="D"><path d="M-1697.737-556.488c-.016 0-.121.244-.233.542l-.251.653-.046.112-.205-.148c-.113-.082-.219-.148-.236-.148s-.032.188-.032.418c0 .359-.016.433-.111.526l-.111.108.137.256c.122.229.13.275.076.436-.034.099-.091.181-.127.181s-.168-.089-.294-.198c-.288-.249-.838-.495-1.357-.607-.781-.167-3.331-.075-3.25.117.101.24.095.302-.031.304-.068.001-.219.035-.335.076s-.477.136-.803.213c-1.037.246-1.7.522-2.11.879-.094.082-.171.173-.171.203s-.113.08-.252.113c-.622.146-1.115.455-1.67 1.049-.288.308-.608.74-.608.82 0 .012.111.005.246-.013l.247-.034-.15.235c-.357.559-.728 1.047-1.127 1.481l-.428.495c0 .017.302.019.672.006.495-.018.759-.051 1-.126l.352-.103c.013 0 .052.077.085.17.066.184.045.181.592.088.254-.043.156.022-.158.104-.451.119-1.12.417-1.353.604-.195.156-.418.507-.369.58.013.019.117.049.233.067l.211.032-.41.401c-.395.386-.595.671-.666.951-.032.125-.024.132.152.132.102 0 .186.02.186.043s-.102.17-.228.325c-.23.285-.51.516-.919.762-.123.074-.224.152-.224.173 0 .084.422.163.869.162.534-.001 1.034-.103 1.551-.316.397-.163.537-.121.273.083-.092.071-.16.136-.15.145s.18-.005.378-.031c.435-.056 1.101-.331 1.493-.617l.277-.201v.441l.264-.131a2.91 2.91 0 0 0 .482-.315c.12-.101.268-.198.329-.215.15-.042.838-.352.894-.402.019-.017.063 0 .108.029l.234-.143 1.107.144 1.423-1.3 1.74.867 6.167-.193.79-1.781 1.476.962 2.471 1.551c-.041-.04.01-.029.106-.013.115.02.214.003.305-.051.13-.078.148-.074.56.114.234.107.46.195.501.195s.187.094.323.21c.28.236.713.481.766.432.019-.018.035-.105.035-.195v-.163l.33.213a3.4 3.4 0 0 0 1.567.584l.236.031-.144-.137c-.166-.158-.194-.283-.052-.226.846.334 1.606.491 2.093.433.309-.037.661-.125.661-.166 0-.016-.137-.108-.304-.206-.371-.218-.85-.649-1.008-.906l-.118-.192h.192c.189 0 .191-.003.156-.156-.054-.238-.263-.538-.664-.954l-.364-.377.186-.032c.235-.04.258-.076.168-.271-.162-.352-.606-.631-1.459-.916-.506-.169-.505-.198.006-.106.117.021.148.001.207-.134l.08-.173c.006-.008.162.033.347.091.25.078.506.111 1.007.129.37.013.672.008.672-.013s-.162-.212-.36-.428c-.45-.489-.657-.752-1.034-1.323l-.298-.451.24.033c.132.018.24.02.24.004 0-.164-.509-.774-1.001-1.198-.394-.339-.805-.553-1.272-.662-.141-.033-.257-.086-.257-.117 0-.104-.462-.447-.826-.613-.432-.197-.891-.344-1.464-.469l-.702-.19c-.153-.053-.339-.097-.414-.097-.104 0-.129-.018-.105-.076.07-.168.094-.309.051-.309a27.3 27.3 0 0 1-.676-.072c-1.51-.172-2.767-.034-3.536.389-.325.179-.311.192-.367-.329-.019-.179-.049-.325-.066-.325s-.108.076-.201.168-.189.168-.214.168-.11-.184-.188-.408-.205-.506-.281-.625l-.14-.217-.137.098-.137.099-.062-.193c-.073-.227-.323-.63-.39-.63-.026 0-.116.078-.202.172l-.155.172-.254-.316c-.14-.174-.267-.316-.284-.316z" stroke-width=".282" class="C F"/><g transform="matrix(.090398 0 0 .086695 -1766.3187 -553.37255)" class="E S"><path d="M760.288 33.955s-12.108-6.054-12.613-9.586l2.775-2.775s-7.568-7.82-7.063-9.333l2.775-2.27s-3.279-8.324-3.532-11.099l5.55.757s.252-2.775 1.261-4.793-2.523-6.811-2.523-6.811l2.018-1.766.252-7.82 4.541 3.279 5.297-14.883 5.55 7.063 3.784-4.541s4.036 4.541 3.532 10.595l4.288-3.027s5.802 9.081 4.541 14.378c0 0 4.793-1.009 6.306-3.027 0 0 1.514 8.577 0 12.36l5.297-.252-6.559 13.369 4.036.252s-7.82 15.892-12.36 18.162m-12.864-54.989s5.55 21.441 3.784 30.775 1.261 22.45 1.261 22.45"/><path d="M754.739-14.225l13.117 8.577m9.586-7.821S773.406.91 768.613 1.162M753.73-2.622l14.631 10.847m-18.163 1.766s16.649 13.369 18.414 12.36M784-.856s-2.018 18.162-15.64 22.955M743.64.91s-18.919-5.297-21.694-3.027c0 0 7.063.252 6.054 6.306 0 0-16.144-3.027-26.486 4.793l12.108 4.793-4.036 2.27s4.793 5.551 17.91 5.299c0 0 2.27 10.595 22.703 5.802"/><path d="M717.153 11s19.171-.757 31.532 10.847"/><path d="M722.198 18.063s9.333-5.802 15.892-3.027m-3.279-12.36s-1.514 8.324 2.775 11.856"/><use xlink:href="#B"/><use xlink:href="#C"/><use xlink:href="#D"/><use xlink:href="#E"/><use xlink:href="#F"/><path d="M688.901 63.216s-9.081 8.324-10.847 23.459c0 0 .505 7.063 10.342-1.009m-7.315-81.477s-9.586 4.036-9.333 6.306m24.721 1.514s-17.405-4.288-21.694 1.514l4.288 2.27-8.072 2.523"/><path d="M671.496 9.739l3.532 2.775m20.432-1.01l7.568 3.279-1.766 3.532 13.369 1.009m-48.937 50.198s-35.063 17.153-37.333 25.982"/><path d="M636.18 67s3.279-1.261 8.324-.252 18.667 4.036 18.667 4.036m-33.045 11.351s11.099-3.027 15.387-1.261c0 0 4.793 3.532.757 12.36m6.559-57.766s33.802-7.315 44.649-6.811"/><path d="M666.451 42.027s4.541-11.604 17.153-12.36M672 69.27s12.613-6.559 15.135-5.297"/><g transform="matrix(-1 0 0 1 1531.4472 0)"><path d="M743.64.91s-18.919-5.297-21.694-3.027c0 0 7.063.252 6.054 6.306 0 0-16.144-3.027-26.486 4.793l12.108 4.793-4.036 2.27s4.793 5.929 17.91 5.677c0 0 2.27 10.595 22.703 5.802"/><path d="M717.153 11s14.343-.566 26.215 6.79"/><path d="M722.198 18.063s9.333-5.802 15.892-3.027m-3.279-12.36s-1.514 8.324 2.775 11.856"/><use xlink:href="#B"/><use xlink:href="#C"/><use xlink:href="#D"/><use xlink:href="#E"/><use xlink:href="#F"/><path d="M688.901 63.216s-9.081 8.324-10.847 23.459c0 0 .505 7.063 10.342-1.009m-7.315-81.477s-9.586 4.036-9.333 6.306m24.721 1.514s-17.405-4.288-21.694 1.514l4.288 2.27-8.072 2.523"/><path d="M671.496 9.739l3.532 2.775m20.432-1.01l7.568 3.279-1.766 3.532 13.369 1.009m-48.937 50.198s-35.063 17.153-37.333 25.982"/><path d="M636.18 67s3.279-1.261 8.324-.252 18.667 4.036 18.667 4.036m-33.045 11.351s11.099-3.027 15.387-1.261c0 0 4.793 3.532.757 12.36m6.559-57.766s33.802-7.315 44.649-6.811"/><path d="M666.451 42.027s4.541-11.604 17.153-12.36M672 69.27s12.613-6.559 15.135-5.297"/></g></g></g><path d="M-1710.606-488.864c2.92 3.546 10.856 3.856 13.089 8.056 3.401-4.51 10.684-5.061 14.944-8.538" stroke="#d2d2d2" stroke-width=".823" class="E"/><path d="M-1713.949-530.952c-.495.199-1.189.331-1.321.86.033.199.396.232.693.165-.033-.364.066-.496.528-.397-.066-.198.066-.397.099-.629zm33.979 0c.495.199 1.189.331 1.321.86-.033.199-.396.232-.693.165.033-.364-.066-.496-.528-.397.066-.198-.066-.397-.099-.629zm-14.364 17.207c.429.132 1.09.298 1.189.761 0 .199-.33.199-.627.165.033-.331-.066-.463-.495-.397.066-.165-.066-.364-.066-.529z" fill="#b68c5b" class="G M"/><path transform="matrix(.264583 0 0 .264583 -1776.2029 -570.26052)" d="M312.545 80.406c1.373 0 2.621.25 3.994.375 8.487 24.513 49.297 24.513 57.784 8.63-4.368-4.002-5.242-7.004-4.743-12.382.374-3.127 1.123-9.38 9.36-9.755 3.12-.125 5.117 2.001 5.367 11.006.624 14.633-17.597 29.641-34.82 28.64-11.981-.75-37.69-8.379-36.942-26.514z" fill="#ccc"/><g class="G"><g class="M"><path d="M-1707.212-520.628c-.066-.463-.264-.893-.462-1.224 0 .066-.264.132-.264.066.198.331.363.761.429 1.092.099.066.198.066.264.099zm.33-11.582c-.066-.463-.264-.893-.462-1.224 0 .066-.264.132-.264.066.198.331.363.761.429 1.092.099.066.198.066.264.099zm-8.618 3.375c.066-.463.264-.894.462-1.224 0 .066.264.132.264.066-.198.331-.363.761-.429 1.092-.099.066-.198.066-.264.099z" fill="#0f0"/><path d="M-1707.411-521.223c.132 0 .33.099.396.132.264.265.792.827.792 1.191 0-.265.297-.993.033-1.224-.165-.232-1.024-.265-1.222-.099zm0 .132c-.165 0-.33.199-.429.364-.165.43-.462 1.291-.297 1.721-.132-.364-.792-.993-.66-1.423.132-.331 1.057-.794 1.387-.662zm-.099-.298c-.132.066-.33.232-.363.397-.165.397-.528 1.258-.297 1.721-.165-.364-.792-.993-.693-1.456.099-.364 1.09-.794 1.354-.662zm.429-11.416c.132 0 .33.099.396.132.264.265.792.827.792 1.191 0-.265.297-.993.033-1.224-.165-.232-1.024-.265-1.222-.099zm0 .132c-.165 0-.33.199-.429.364-.165.43-.462 1.291-.297 1.721-.132-.364-.792-.993-.66-1.423.132-.331 1.057-.794 1.387-.662zm-.099-.298c-.132.066-.33.232-.363.397-.165.397-.528 1.258-.297 1.721-.165-.364-.792-.993-.693-1.456.099-.364 1.09-.794 1.354-.662zm-8.123 3.541c-.132 0-.33.099-.396.132-.264.265-.792.827-.792 1.191 0-.265-.297-.993-.033-1.224.165-.232 1.024-.265 1.222-.099zm0 .132c.165 0 .33.198.429.364.165.43.462 1.291.297 1.721.132-.364.792-.993.66-1.423-.132-.331-1.057-.794-1.387-.662zm.099-.298c.132.066.33.232.363.397.165.397.528 1.257.297 1.721.165-.364.792-.993.693-1.456-.099-.364-1.09-.794-1.354-.662z" class="K"/></g><path d="M-1707.51-521.356a.8.8 0 0 0-.429.265c-.198.265-.561.927-.33 1.191-.165-.265-.925-.695-.792-.993.132-.232 1.222-.563 1.552-.463zm-.033.033c.165.033.363.232.429.43.165.364.495 1.258.297 1.688.165-.331.792-.96.693-1.423-.132-.331-1.09-.827-1.42-.695zm.363-11.615a.8.8 0 0 0-.429.265c-.198.265-.561.927-.33 1.191-.165-.265-.925-.695-.792-.993.132-.232 1.222-.563 1.552-.463zm-.033.033c.165.033.363.232.429.43.165.364.495 1.258.297 1.688.165-.331.792-.96.693-1.423-.132-.331-1.09-.827-1.42-.695zm-7.991 3.342a.8.8 0 0 1 .429.265c.198.265.561.927.33 1.191.165-.265.925-.695.792-.993-.132-.232-1.222-.563-1.552-.463zm.033.033c-.165.033-.363.232-.429.43-.165.364-.495 1.258-.297 1.688-.165-.331-.792-.96-.693-1.423.132-.331 1.09-.827 1.42-.695z" class="K O"/><g class="M"><path d="M-1686.608-520.628c.066-.463.264-.893.462-1.224 0 .066.264.132.264.066-.198.331-.363.761-.429 1.092-.099.066-.198.066-.264.099zm-.33-11.582c.066-.463.264-.893.462-1.224 0 .066.264.132.264.066-.198.331-.363.761-.429 1.092-.099.066-.198.066-.264.099zm8.618 3.375c-.066-.463-.264-.894-.462-1.224 0 .066-.264.132-.264.066.198.331.363.761.429 1.092.099.066.198.066.264.099z" fill="#0f0"/><path d="M-1686.409-521.223c-.132 0-.33.099-.396.132-.264.265-.792.827-.792 1.191 0-.265-.297-.993-.033-1.224.165-.232 1.024-.265 1.222-.099zm0 .132c.165 0 .33.199.429.364.165.43.462 1.291.297 1.721.132-.364.792-.993.66-1.423-.132-.331-1.057-.794-1.387-.662zm.099-.298c.132.066.33.232.363.397.165.397.528 1.258.297 1.721.165-.364.792-.993.693-1.456-.099-.364-1.09-.794-1.354-.662zm-.429-11.416c-.132 0-.33.099-.396.132-.264.265-.792.827-.792 1.191 0-.265-.297-.993-.033-1.224.165-.232 1.024-.265 1.222-.099zm0 .132c.165 0 .33.199.429.364.165.43.462 1.291.297 1.721.132-.364.792-.993.66-1.423-.132-.331-1.057-.794-1.387-.662zm.099-.298c.132.066.33.232.363.397.165.397.528 1.258.297 1.721.165-.364.792-.993.693-1.456-.099-.364-1.09-.794-1.354-.662zm8.123 3.541c.132 0 .33.099.396.132.264.265.792.827.792 1.191 0-.265.297-.993.033-1.224-.165-.232-1.024-.265-1.222-.099zm0 .132c-.165 0-.33.198-.429.364-.165.43-.462 1.291-.297 1.721-.132-.364-.792-.993-.66-1.423.132-.331 1.057-.794 1.387-.662zm-.099-.298c-.132.066-.33.232-.363.397-.165.397-.528 1.257-.297 1.721-.165-.364-.792-.993-.693-1.456.099-.364 1.09-.794 1.354-.662z" class="K"/></g><path d="M-1686.31-521.356a.8.8 0 0 1 .429.265c.198.265.561.927.33 1.191.165-.265.925-.695.792-.993-.132-.232-1.222-.563-1.552-.463zm.033.033c-.165.033-.363.232-.429.43-.165.364-.495 1.258-.297 1.688-.165-.331-.792-.96-.693-1.423.132-.331 1.09-.827 1.42-.695zm-.363-11.615a.8.8 0 0 1 .429.265c.198.265.561.927.33 1.191.165-.265.925-.695.792-.993-.132-.232-1.222-.563-1.552-.463zm.033.033c-.165.033-.363.232-.429.43-.165.364-.495 1.258-.297 1.688-.165-.331-.792-.96-.693-1.423.132-.331 1.09-.827 1.42-.695zm7.991 3.342a.8.8 0 0 0-.429.265c-.198.265-.561.927-.33 1.191-.165-.265-.925-.695-.792-.993.132-.232 1.222-.563 1.552-.463zm-.033.033c.165.033.363.232.429.43.165.364.495 1.258.297 1.688.165-.331.792-.96.693-1.423-.132-.331-1.09-.827-1.42-.695z" class="K O"/><g class="M"><path d="M-1701.038-503.652c.066-.463.264-.894.462-1.224 0 .066.264.132.264.066-.198.331-.363.761-.429 1.092-.099.066-.198.066-.264.099zm-.33-11.582c.066-.463.264-.894.462-1.224 0 .066.264.132.264.066-.198.331-.363.761-.429 1.092-.099.066-.198.066-.264.099zm8.618 3.375c-.066-.463-.264-.893-.462-1.224 0 .066-.264.132-.264.066.198.331.363.761.429 1.092.099.066.198.066.264.099z" fill="#0f0"/><path d="M-1700.839-504.248c-.132 0-.33.099-.396.132-.264.265-.792.827-.792 1.191 0-.265-.297-.993-.033-1.224.165-.232 1.024-.265 1.222-.099zm0 .132c.165 0 .33.199.429.364.165.43.462 1.291.297 1.721.132-.364.792-.993.66-1.423-.132-.331-1.057-.794-1.387-.662zm.099-.298c.132.066.33.232.363.397.165.397.528 1.257.297 1.721.165-.364.792-.993.693-1.456-.099-.364-1.09-.794-1.354-.662zm-.429-11.416c-.132 0-.33.099-.396.132-.264.265-.792.827-.792 1.191 0-.265-.297-.993-.033-1.224.165-.232 1.024-.265 1.222-.099zm0 .132c.165 0 .33.199.429.364.165.43.462 1.29.297 1.721.132-.364.792-.993.66-1.423-.132-.331-1.057-.794-1.387-.662zm.099-.298c.132.066.33.232.363.397.165.397.528 1.257.297 1.721.165-.364.792-.993.693-1.456-.099-.364-1.09-.794-1.354-.662zm8.123 3.541c.132 0 .33.099.396.132.264.265.792.827.792 1.191 0-.265.297-.993.033-1.224-.165-.232-1.024-.265-1.222-.099zm0 .132c-.165 0-.33.199-.429.364-.165.43-.462 1.291-.297 1.721-.132-.364-.793-.993-.66-1.423.132-.331 1.057-.794 1.387-.662zm-.099-.298c-.132.066-.33.232-.363.397-.165.397-.528 1.257-.297 1.721-.165-.364-.792-.993-.693-1.456.099-.364 1.09-.794 1.354-.662z" class="K"/></g><path d="M-1700.74-504.38a.8.8 0 0 1 .429.265c.198.265.561.927.33 1.191.165-.265.925-.695.792-.993-.132-.232-1.222-.563-1.552-.463zm.033.033c-.165.033-.363.232-.429.43-.165.364-.495 1.257-.297 1.688-.165-.331-.792-.96-.693-1.423.132-.331 1.09-.827 1.42-.695zm-.363-11.615a.8.8 0 0 1 .429.265c.198.265.561.927.33 1.191.165-.265.925-.695.792-.993-.132-.232-1.222-.563-1.552-.463zm.033.033c-.165.033-.363.232-.429.43-.165.364-.495 1.257-.297 1.688-.165-.331-.792-.96-.693-1.423.132-.331 1.09-.827 1.42-.695zm7.991 3.342a.8.8 0 0 0-.429.265c-.198.265-.561.926-.33 1.191-.165-.265-.925-.695-.792-.993.132-.232 1.222-.563 1.552-.463zm-.033.033c.165.033.363.232.429.43.165.364.495 1.257.297 1.688.165-.331.792-.96.693-1.423-.132-.331-1.09-.827-1.42-.695z" class="K O"/></g><g transform="matrix(.264583 0 0 .264583 -1776.2029 -570.26052)" fill="#ffd312"><path d="M365.708 365.439c-11.487 13.986-17.235 9.052-29.552 5.351-12.31-3.708-25.444-9.869-37.347-12.745-11.903-2.884-41.462-4.949-59.52-5.767-16.717-.767-22.523-7.512-22.975-12.745.117-.036 5.31-1.365 16.135-.285 10.948 1.102 11.495.832 13.68-2.467a16.24 16.24 0 0 0 1.493-2.737c1.042-.723 1.522-1.767 1.522-3.146 0-4.124-2.877-10.278-32.43-10.278-10.038 0-17.453-.343-23.113-.89l8.748-22.564c2.666-7.402-9.644-8.628-9.644-8.628-11.495 0-20.323.197-26.063-1.241-10.832-2.708-19.296-3.694-35.708-2.876-16.419.825-29.552.825-51.719-5.76 2.054 8.439 18.473 19.943 18.473 19.943l-25.859 11.935 7.386 1.854c22.166 6.584 35.3 6.584 51.719 5.76 12.522-.628 20.411-.204 28.256 1.241l-5.718 18.403c10.366 10.767 17.562 16.425 50.247 19.563l-6.286 7.957 1.355.27c11.771 16.184 18.335 21.381 45.702 21.943 27.36.54 39.954.27 61.021 9.862 21.074 9.599 30.733 12.95 47.421 8.015 0 0 .299.869 3.329-6.278 3.409-8.037 4.254-23.396 7.532-26.148 3.285-2.737 7.663-10.417 7.663-10.417l-5.747 2.876"/><path d="M441.239 328.283c3.555 1.642 7.386 2.738 18.881-.555 11.487-3.278 44.871-9.037 62.383-7.672-6.84-6.03-24.898-15.081-24.898-15.081l18.335-15.081s-4.655.27-11.218-1.372c-19.427-5.475-38.039.825-54.457 7.687-3.249 1.35-5.929 2.38-8.158 3.146l-3.883-13.57s-6.68-4.876-22.516.431c-14.452 4.862-17.708 12.731-16.885 14.643.823 1.92 7.663 14.811 7.663 14.811l-.16.467c-6.024 2.825-13.855 5.694-23.375 8.57-27.09 8.241-33.107 12.059-57.189 29.63l6.294 15.081 13.134 4.11s3.285 1.095 6.017.825l.335.212c13.702-9.366 22.071-13.089 42.905-19.418 27.09-8.227 40.493-16.184 37.485-23.856l-4.647-12.614s6.017-3.562 8.479-2.467l5.478 12.059"/></g><g fill="#fff"><path d="M-1733.579-487.012l.846-2.969c.121-.728 1.257-1.176 4.439-.713 2.199.321 3.953.672 4.947-.131l.044-.019c.131-1.416-1.86-1.279-1.86-1.279h-.054c-3.041 0-5.377.052-6.896-.328-2.868-.717-5.105-.981-9.45-.763-3.98.201-7.233.216-12.262-1.12.977 1.196 3.465 3.027 3.465 3.027l-4.888 2.339c5.865 1.742 9.34 1.742 13.684 1.524 3.589-.182 5.74-.031 7.994.425m14.93 6.406c.746-.147 2.112-.167 3.694.055 2.463.355 3.371.116 3.569-.199l-1.61 3.708s-6.266.071-5.977-3.482"/><path d="M-1678.051-474.149l-1.301 1.86c-2.382 3.202-5.315 2.225-8.669 1.437-3.259-.975-6.734-2.609-9.883-3.372s-10.968-1.304-15.746-1.524-6.191-2.285-6.083-3.701a1.56 1.56 0 0 1 .093-.44l.804-1.433.119-.156c.536-.666 1.92-.595 4.306-.251 1.521.214 2.552.245 3.205.079l.054-.189c0-1.089-.651-2.287-8.471-2.287s-9.611-.761-11.35-1.524c-1.023-.448-2.5-1.939-2.22-2.909l-1.762 5.738c2.968 3.123 4.398 4.716 13.449 5.588l-1.521 2.252c3.113 4.278 4.851 5.657 12.09 5.802s10.571.071 16.147 2.609c5.574 2.544 8.318 3.384 12.734 2.078m-50.513-24.651c.403.875 1.58 1.844 2.357 2.184 1.156.508 2.338 1.014 5.31 1.296l-.008.008 1.7-4.62c-.703 1.957-3.001 1.441-5.807 1.029m68.978 4.244c.941.438 1.954.728 4.996-.143s10.246-2.43 14.879-2.067l-4.57-2.196 3.361-2.704-.638-.141c-5.14-1.452-10.064.216-14.409 2.03s-4.851 1.452-5.429.796l-1.158-2.248s.071-1.014.941-1.377l1.014-.437s-.941-1.306-4.562 0-3.837 2.976-3.764 3.266c0 0 .725-.071 1.447-.361s2.463-1.306 2.97-.071.505 1.485.505 1.485c.798 2.03-2.822 4.025-9.989 6.202s-8.617 3.048-14.989 7.691l1.014 2.758 3.325 1.033c4.531-3.222 6.566-4.236 12.749-6.111 7.168-2.177 10.716-4.282 9.918-6.314l-1.158-3.193s1.305-1.157 2.101-.871l1.447 2.976"/></g><path d="M-1731.204-482.825c-.326.45-.366 1.064.152 1.396.094.06.243.095.349.095l-.073-.8.578.309.042.425c.224-.071.439-.263.574-.452.318-.437.337-1.105-.137-1.41-.515-.328-1.147-.027-1.486.437l-.522-.38c.547-.755 1.58-1.068 2.373-.558s.86 1.52.31 2.279c-.266.361-.628.637-1.033.769l.052.68-.57-.292-.023-.344c-.27.004-.557-.089-.804-.247-.792-.506-.869-1.514-.305-2.287l.522.38m4.472.186l.657.064-.517 1.732c-.114.38-.239.923.32.975s.754-.479.869-.863l.517-1.731.657.064-.553 1.852c-.225.753-.744 1.29-1.648 1.207-.904-.091-1.081-.693-.856-1.449l.551-1.852m4.258 3.425l-.669-.013.667-3.11.669.015-.667 3.108m2.618 6.173l-.524-.367 1.555-2.233-.542-.377.318-.458 1.604 1.12-.316.458-.542-.379-1.553 2.235m4.267-.631l-.297.556.081.021c.343.106.634.087.821-.267s-.023-.502-.353-.605l-.085-.027-.168.321-.628-.176.42-.792.842.251c.63.193.931.578.601 1.199-.197.367-.617.668-1.079.605l.252 1.497-.754-.226-.152-1.402-.01-.004-.621 1.169-.623-.189 1.122-2.107.628.176m3.855 1.115l-.382.662.786.062-.129-1.19h-.008l-.268.465-.547-.155.833-1.261.501.039.455 3.361-.69-.048-.091-.695-1.151-.087-.437.653-.682-.052 1.262-1.908.547.155m3.555-1.267l.47.027 1.264 2.32h.006l.472-2.142.649.033-.715 3.252-.468-.027-1.262-2.32h-.01l-.476 2.165-.65-.033.719-3.276m6.144 1.236a.49.49 0 0 0-.424-.305c-.204-.023-.443.108-.499.313-.145.535 1.222.444.933 1.508-.173.637-.707 1.045-1.38.977-.455-.044-.719-.332-.846-.72l.522-.348c.021.249.193.494.468.521.262.025.482-.174.549-.415.089-.328-.2-.452-.432-.577-.378-.211-.632-.448-.499-.939.145-.529.667-.914 1.222-.858.293.031.661.212.804.446l-.418.396m2.336 2.946l-.624-.12.968-2.6-.644-.124.197-.533 1.914.375-.197.527-.646-.124-.968 2.598m2.998-2.589l.594.234-.675 1.707c-.15.375-.328.917.177 1.118s.748-.315.896-.691l.673-1.709.594.238-.719 1.823c-.295.744-.833 1.184-1.648.859s-.908-1.014-.613-1.758l.721-1.825m3.464 4.367l.835.348-.214.514-1.424-.593 1.253-3.028.59.245-1.039 2.515m2.72 1.656l-.601-.216 1.1-3.088.601.211-1.1 3.094m2.716.689l-.638-.124.748-2.58-.659-.129.152-.527 1.956.384-.152.525-.659-.129-.748 2.584m2.621-10.457c-.187-.087-.374-.102-.561.004-.177.099-.272.332-.168.521.27.479 1.289-.359 1.827.603.32.574.191 1.18-.393 1.505-.391.224-.808.155-1.189-.064l.164-.554c.197.178.507.261.746.127.227-.127.258-.4.137-.618-.166-.294-.486-.226-.757-.187-.451.052-.825.017-1.072-.427-.266-.471-.127-1.053.353-1.325.252-.143.675-.214.958-.12l-.044.535m1.082-1.433l.565-.301.863 1.619c.189.353.488.84.968.587s.241-.776.05-1.136l-.862-1.619.563-.301.921 1.732c.376.709.362 1.402-.412 1.814s-1.357.042-1.733-.664l-.923-1.731m5.15-1.804c-.179-.097-.364-.124-.557-.037-.185.087-.297.313-.206.506.233.5 1.312-.261 1.777.738.279.593.106 1.19-.499 1.472-.411.193-.819.095-1.183-.147l.202-.543c.185.187.49.297.736.18.237-.108.289-.377.181-.606-.143-.309-.466-.261-.74-.241-.455.019-.823-.046-1.039-.502-.229-.494-.05-1.064.449-1.298.264-.124.69-.166.966-.048l-.085.527m3.504 1.301l-.594.234-.998-2.53-.613.241-.204-.518 1.821-.72.204.518-.613.241.996 2.534m2.227-.804l-.603.209-1.058-3.106.605-.207 1.056 3.104m.167-3.598l.434-.155 2.386 1.595.006-.004-.727-2.082.599-.214 1.106 3.16-.434.151-2.384-1.588h-.008l.736 2.105-.603.211-1.112-3.179" fill="#0d2897"/><path d="M-1700.509-548.589c.462 1.82 4.227 1.688 5.052 1.621l3.467-.993-.099.058c1.057 2.713 5.085 4.244 8.354 4.211 3.203-.033 5.316-1.059 6.604-2.912-1.123-1.191-1.42-1.555-1.288-3.64.099-1.191 1.123-2.184 2.278-2.217 1.321-.033 2.444 1.026 3.401 1.952 1.519 1.456 2.708 3.177 4.359 4.467 1.519 1.257 3.203 1.224 4.59 2.184 1.486 1.059 3.137 2.747 3.797 4.434.561 1.456-.462 3.011-1.42 3.011-1.09 0-2.245-.96-2.047-1.853-1.915-1.423-5.614 1.621-6.505 4.897-1.189 4.269.627 8.868 2.807 10.721-.693 1.82-3.104 3.342-4.359 4.5-.462 1.688.198 4.037 1.618 5.096 1.684.265 4.491.199 6.307.331 1.021 1.392 1.763 4.349 1.585 5.923-.561 3.806-1.75 7.048-5.349 9.53-1.882 1.257-3.434 2.118-5.614 2.912-.958-.86-1.816-2.118-2.873-2.614-3.401-.066-7.562 1.688-8.717 4.169-.561 1.224.892 2.548 2.543 3.905-3.467 2.515-7.562 3.772-11.359 5.493-1.288.596-2.444 1.456-4.359 3.673-1.981-2.382-3.005-3.408-4.854-4.269-3.269-1.489-7.198-2.349-9.675-4.897 1.519-.894 2.444-1.621 2.675-3.011-2.113-2.68-4.59-5.526-7.859-6.354-1.09.43-2.477 2.349-3.335 3.772-8.057-1.688-14.595-10.589-10.368-17.935.925.364 2.278 1.026 3.401.43 2.113-1.324 4.623-3.011 4.788-5.493-.066-2.383-1.882-4.07-4.029-5.162 1.42-1.026 2.972-4.666 3.071-7.28.099-2.449-1.255-4.699-2.543-6.784-.594-1.026-1.981-1.952-2.807-2.25-.363.563-1.816 1.82-2.906 1.886-1.09.033-2.675-.86-2.675-1.985 0-.86.363-2.217 1.354-2.813 2.708-1.654 5.878-2.747 8.354-4.732 1.486-1.224 2.179-3.408 3.731-4.666.594-.463 1.255-.96 1.882-1.125 1.6 6.712 3.98 7.52 7.321 8.655 3.665.43 8.529-1.11 11.699-4.849z" fill="#c4c4c4"/><path d="M-1701.401-548.953c-.495 3.077-5.752 5.009-8.79 5.117-3.02-.217-5.277-1.576-7.093-3.562.726-.165 1.552-1.721 1.453-2.945-.033-.993-.958-2.018-1.915-2.184-.726-.132-1.189-.099-1.783.132-1.42 7.148 5.944 10.258 9.675 10.159 3.731-.132 9.271-2.862 9.006-6.602v-.074z" fill="#ccc"/><path d="M-1668.386-483.371l.289.664.931-.411.224.51-.931.409.355.811.966-.421.224.508-1.55.68-1.316-3.003 1.551-.682.224.508-.966.427m4.463.693l-.555.317-1.014-2.534-.574.324-.272-.483 1.704-.966.274.483-.574.328 1.012 2.53" fill="#0d2897"/><path d="M-1682.351-490.618c.021.027-.021.044-.042.068h-.023v-.064l.066-.004"/><path d="M-1682.392-490.332l-.044-.064c.042-.044.131.042.044.064"/><path d="M-1682.131-490.404h.152"/><path d="M-1669.845-489.12c.422.651 1.67.182 3.038-.399.878-.25 1.663-.479 1.58.102-.108.984-3.356 2.676-3.458 2.463-.39-.812-.418-.906-1.16-2.166zm10.419-2.041l-1.158.366c-.714.037-1.434.315-1.416-.462.419-.804 2.124-1.496 2.134-1.464l.44 1.56zm-71.072-52.042l2.597-1.361c2.536-1.6 2.822-1.612 4.139-3.26 1.722-2.155.696-1.542 2.366-3.223.23 2.804 5.144 10.693 10.394 10.636 6.448-.006 10.426-4.022 11.648-6.57 1.528-.097 3.05-.186 4.623-.066 1.42 4.103 6.736 6.718 11.062 6.684 4.689-.033 10.963-3.077 10.435-10.523 6.816 8.887 6.435 4.112 11.854 9.464-9.894-.764-17.072 12.635-8.916 22.099-1.148 1.432-.841 3.444.132 3.552l3.056 3.575c8.244 7.686-2.495 14.057-7.877 15.513l-8.156 5.692h-2.245c-2.576 3.044-9.048 3.111-12.119 6.784-3.962-4.567-8.982-3.111-11.161-7.148h-1.42s-4.033-1.951-10.276-5.292c-7.229-3.327-10.44-5.357-7.823-14.46 6.458-4.285 5.989-6.568 4.56-9.236 5.22-7.801 5.367-18.826-7.793-22.427z" fill="#fff"/><g fill="#ffd312"><path d="M-1729.799-511.892c.694.132 1.354.232 1.948-.033-3.104 6.883 1.783 12.541 8.255 15.652-.297.496-.594.86-.892 1.291-6.406-2.879-12.647-9.034-9.312-16.909zm21.034 20.748h-1.42v1.754c2.807 3.408 10.435 3.706 12.581 7.743 3.269-4.335 10.269-4.864 14.364-8.207v-.927h-2.245c-2.576 3.044-9.048 3.111-12.119 6.784-3.962-4.567-8.982-3.111-11.161-7.148zm41.342-21.708c.693.033 1.387-.033 2.08.099 3.929 8.769-.859 13.6-8.321 17.737-.429-.496-.925-1.059-1.42-1.456 5.382-1.456 12.878-7.611 7.661-16.38zm-1.486-7.876l-1.486 1.291c-8.156-9.464-1.519-23.296 8.916-21.774.991.132 1.783 2.316 1.387 2.184-12.086-4.964-14.364 13.203-8.817 18.299zm-24.534-28.26c.099.662.561 1.059.991.926.462-.165.594-.96.495-1.423-.066-.596-.528-1.489-1.288-1.489-.66 0-1.486.761-1.519 1.754-.033.761-.033 1.588-.066 2.383 1.42 4.103 6.736 6.718 11.062 6.684 4.689-.033 10.963-3.077 10.435-10.523-.396-.364-.759-.761-1.123-1.125.892 6.155-5.019 9.894-9.345 9.795-3.599-.099-10.203-2.78-9.642-6.982zm-5.647-.894a9.03 9.03 0 0 1-.363 3.111c-1.222 2.548-3.038 6.023-10.567 6.354-8.123.331-12.052-6.221-11.062-11.085a4.29 4.29 0 0 1 1.585-.894c-1.42 4.897 3.434 10.159 9.642 10.159 4.392 0 9.51-3.706 8.916-6.651-1.717 0-1.915-2.647.462-2.614 1.189 0 1.42.993 1.387 1.621zm-33.021 7.214c13.538 2.68 13.77 15.222 8.387 22.535l-1.387-1.655c5.316-6.188 2.873-17.571-8.387-20.086l1.387-.794zm55.012-3.971c.958-1.158 1.321-1.522 1.354-2.449.033-.529-.132-1.919-.66-1.919-.561 0-.759 1.092-.826 1.621-.066.695.826 1.555.132 2.747zm13.605 8.339c1.123.298 1.75-.331 2.344.066.396.265.462.596.297.86-.165.331-.66.496-1.024.397-.693-.199-.925-.86-1.618-1.324zm-53.758-9.034c-.66-.893-1.123-1.886-1.156-2.647-.033-.629.363-1.621.859-1.39.462.166.892 1.125.627 1.919-.231.827-.462 1.456-.33 2.118zm-12.053 8.339c-1.321-.662-2.047-1.158-3.137-1.026-.66.066-1.354.728-1.222 1.423s1.057 1.059 1.717.827c.991-.265 1.354-.993 2.642-1.224z"/><g class="G"><path d="M-1696.942-550.74c1.024 0 1.849.827 1.849 1.886 0 1.026-.826 1.886-1.849 1.886s-1.882-.86-1.882-1.886c0-1.059.859-1.886 1.882-1.886z" class="N"/><path d="M-1725.31-510.988c-1.003 0-1.815-.76-1.815-1.765a1.82 1.82 0 0 1 1.815-1.819 1.8 1.8 0 0 1 1.815 1.819c0 1.005-.786 1.765-1.815 1.765z" stroke-width=".305"/><path d="M-1724.847-519.734a2.11 2.11 0 0 1 2.113 2.118c0 1.191-.925 2.151-2.113 2.151-1.156 0-2.113-.96-2.113-2.151a2.13 2.13 0 0 1 2.113-2.118zm-3.996-5.063c1.123 0 2.08.96 2.08 2.118s-.958 2.118-2.08 2.118a2.13 2.13 0 0 1-2.113-2.118 2.13 2.13 0 0 1 2.113-2.118zm63.763 1.125c-1.354 0-2.477 1.092-2.477 2.449a2.5 2.5 0 0 0 2.477 2.482c1.354 0 2.444-1.125 2.444-2.482a2.44 2.44 0 0 0-2.444-2.449z" class="N"/><path d="M-1668.978-511.23c.991 0 1.82-.832 1.82-1.851 0-.993-.83-1.824-1.82-1.824-1.017 0-1.847.832-1.847 1.824 0 1.019.83 1.851 1.847 1.851z" stroke-width=".301"/><path d="M-1669.207-519.635c1.255 0 2.278 1.026 2.278 2.283s-1.024 2.283-2.278 2.283-2.245-1.026-2.245-2.283.991-2.283 2.245-2.283zm-8.784 20.583c-.925 0-1.684.761-1.684 1.688 0 .96.759 1.721 1.684 1.721.958 0 1.717-.761 1.717-1.721a1.7 1.7 0 0 0-1.717-1.688z" class="N"/><path d="M-1683.111-494.611c.957 0 1.755.826 1.755 1.786 0 .986-.798 1.812-1.755 1.812-.984 0-1.782-.826-1.782-1.812 0-.96.798-1.786 1.782-1.786z" stroke-width=".299"/><path d="M-1680.699-496.868c.991 0 1.816.794 1.816 1.82 0 .993-.826 1.82-1.816 1.82s-1.816-.827-1.816-1.82c0-1.026.826-1.82 1.816-1.82zm-36.207-2.383a1.87 1.87 0 0 1 1.849 1.853c0 1.059-.859 1.886-1.849 1.886-1.024 0-1.882-.827-1.882-1.886 0-1.026.859-1.853 1.882-1.853zm3.583 1.886c-1.156 0-2.113.96-2.113 2.151a2.13 2.13 0 0 0 2.113 2.118c1.189 0 2.146-.96 2.146-2.118 0-1.191-.958-2.151-2.146-2.151zm3.5 6.155c-1.057 0-1.915-.86-1.915-1.886a1.92 1.92 0 0 1 1.915-1.919c1.057 0 1.948.86 1.948 1.919 0 1.026-.892 1.886-1.948 1.886z" class="N"/></g></g><path d="M-1728.719-522.878c-.085.052-.122.053-.17.063a1.62 1.62 0 0 1-.155.025c-.111.013-.241.021-.372.022-.225.002-.272.024-.246.005s-.025.039-.114.265c-.023.058-.046.12-.098.191s-.14.142-.228.176c-.174.068-.31.055-.542.055h-.185c-.005.142-.035.313-.135.448-.108.145-.246.251-.463.419l-.345.292-.108.111a.86.86 0 0 0 .319.137c.262.066.676.233 1.012.397.287.14.752.295.907.319a2.32 2.32 0 0 1 .868.33c.166.11.207.123.188.127l.068-.051c.196-.154.431-.233.663-.272a1.34 1.34 0 0 1 .345-.017c.114.01.234.031.355.131.184.153.243.323.209.552-.026.179-.156.334-.297.412s-.291.106-.456.117c-.329.02-.725-.044-1.174-.181-.994-.303-1.199-.348-1.526-.349.003.084-.01.179-.049.234-.094.132-.174.147-.258.178-.168.063-.394.114-.76.189a3.5 3.5 0 0 0-.505.164l-.212.082c.016.015.028.019.047.042.054.065.106.217.082.328-.049.223-.142.252-.251.366-.049.051-.31.448-.457.756-.166.346-.367.716-.518.914-.014.019-.011.017-.023.034l.562.062c.545.049 1.069.16 1.552.332a5.72 5.72 0 0 0 .554.164c.175.042.337.064.369.065.136.001.153-.005.182-.021s.107-.084.25-.247l.218-.266.056-.08c-.001.005-.021.009-.021.109 0-.154.058-.197.09-.235s.062-.065.093-.091c.063-.051.135-.097.216-.138.003-.001.127-.086.253-.191l.404-.365c.182-.178.331-.31.472-.408s.276-.173.456-.173c.105 0 .203-.011.341.093a.4.4 0 0 1 .146.267c.007.104-.028.179-.06.231-.127.21-.284.282-.531.416-.089.049-.182.113-.247.167s-.099.137-.066.048c-.058.156-.137.216-.226.293a1.54 1.54 0 0 1-.304.205c-.08.041-.406.309-.574.512l-.273.317c.019.036.05.065.055.1.011.074-.003.126-.016.165-.051.156-.11.198-.197.302-.045.053-.045.073-.066.116a.46.46 0 0 1 .2.243c.075.195.028.265.006.382a3.21 3.21 0 0 1-.101.379 3.12 3.12 0 0 1-.287.639c.063.013.13.047.199.119.047-.058.092-.119.151-.166a.49.49 0 0 1 .168-.092c.074-.023.178-.025.266.011.176.073.224.207.258.31s.052.209.067.339c.029.247.112.345.143.385.007-.011.003 0 .011-.017.085-.165.193-.303.375-.377.091-.037.21-.05.321-.013.066.022.102.077.149.122.016-.009.031-.012.085-.062.152-.14.374-.443.572-.842l.229-.425c.068-.112.118-.194.217-.276.049-.041.123-.098.257-.096a.4.4 0 0 1 .302.184c.024.042.009.065.02.099a1.92 1.92 0 0 1 .267-.172c.088-.046.131-.095.308-.095.068 0 .1-.017.098-.015.016-.098.036-.21.127-.283a.51.51 0 0 1 .341-.107c.004 0 .039-.001.121-.086a1.99 1.99 0 0 0 .302-.47c.086-.172.191-.314.301-.452-.033-.022-.071-.043-.105-.112-.024-.049-.002-.109.003-.17l-.385-.029c-1.162-.003-2.088-.798-2.353-1.986a2.01 2.01 0 0 1 .447-1.771c.293-.342.627-.587 1.051-.703s.917-.117 1.584-.055c.171.016.155.019.187.001s.154-.132.385-.383a4.3 4.3 0 0 0 .311-.377l.013-.02c-.111-.037-.221-.06-.324-.205-.055-.078-.078-.186-.075-.262a.62.62 0 0 1 .037-.182c.053-.163.029-.321.029-.508-.023.02-.032.039-.08.061a.34.34 0 0 1-.253.015c-.109-.037-.174-.128-.199-.183-.049-.11-.036-.15-.037-.198-.001-.054.001-.03.002-.029s-.042-.024-.154-.024c-.248 0-.482-.085-.659-.262-.069-.069-.045-.043-.02-.04s-.041.004-.198.048c-.235.066-.488.077-.712.057-.112-.01-.213-.027-.316-.065-.051-.019-.105-.042-.164-.094-.026-.022-.034-.083-.058-.123-.029.019-.078.052-.184.149-.156.143-.203.202-.215.227s-.022.092-.022.297c0 .447.19.963.337 1.12.066.07.119.123.162.236.022.057.058.154-.01.291s-.231.186-.309.186c-.1 0-.132-.024-.164-.04s-.057-.031-.082-.047c-.05-.033-.099-.071-.153-.116a4.82 4.82 0 0 1-.36-.336c-.432-.442-.802-1.086-1.146-1.945.013.032-.125-.137-.269-.222-.072-.042-.147-.075-.189-.087s-.041.03.067-.037zm2.463.165c0 .13.031.123.039.124s.01.001.02.002c-.021-.045-.059-.069-.059-.125z" class="C"/><path d="M-1728.798-523.149c-.041.001-.067.018-.087.05-.047.075-.133.087-.274.038-.113-.039-.339-.05-.503-.024-.255.04-.302.084-.326.302-.047.418-.164.494-.679.441l-.458-.047.049.271c.046.252.015.295-.426.612-.488.349-.711.595-.711.782 0 .135.44.366.697.366a1.18 1.18 0 0 1 .451.14c.817.446 1.053.54 1.353.54.226 0 .464.084.742.263l.409.263.217-.171c.279-.219.855-.322 1.023-.182s.159.477-.01.541c-.317.122-1.184.05-1.439-.118-.14-.093-.32-.148-.4-.122s-.233-.01-.34-.079-.425-.133-.706-.142c-.683-.023-.687-.022-.51.174.085.094.136.189.114.211s-.339.098-.704.167c-.75.144-1.187.36-1.216.604-.011.091.002.118.028.059s.114-.106.194-.106.192-.046.248-.102.102-.077.102-.046.172-.017.383-.108.437-.144.502-.119.144.005.175-.045.167-.091.301-.091c.307 0 .416-.16.21-.31-.269-.197-.092-.204.518-.023l.76.197a1.74 1.74 0 0 1 .298.067c.895.316 1.483.318 1.731.006.211-.265.127-.562-.204-.722-.3-.145-.67-.123-1.041.062-.345.172-.452.162-.608-.061-.106-.152-.222-.191-.583-.201-.588-.015-1.078-.239-1.019-.466.038-.144-.004-.166-.328-.171-.463-.008-.73-.053-1.033-.176-.225-.091-.23-.104-.093-.255.079-.088.243-.209.364-.271l.39-.207c.094-.053.27-.117.392-.142.179-.037.215-.085.184-.247-.034-.177-.01-.197.203-.17.291.036.579-.187.742-.574.15-.357.481-.411.703-.115.141.188.468.293.445.142s.017-.276.093-.276c.086 0 .427.642.427.804 0 .05.077.234.17.409s.143.318.109.318.023.06.127.132.189.173.189.222.098.166.217.26c.289.227.221.269-.171.105-.326-.136-.517-.328-1.085-1.086-.265-.354-.721-.738-.876-.738-.132 0 .013.247.385.654.501.548.53.661.149.587l-.532-.103c-.511-.099-1.829-.13-1.829-.043 0 .141.127.181.738.229.319.025.791.089 1.049.141l.468.094-.468.139c-.622.185-.633.377-.021.383.246.002.446-.022.447-.054s.114-.114.253-.184c.246-.123.597-.105.597.031 0 .037.077.047.17.023s.17-.002.17.051.035.095.077.095.314.134.605.298.624.323.741.352c.19.048.206.033.152-.139-.035-.109-.028-.172.016-.145s.125.018.183-.018c.116-.071.055-.266-.228-.731-.212-.348-.514-1.242-.464-1.373.022-.058.133-.166.246-.24.169-.111.205-.113.205-.016 0 .066.057.167.128.225.102.085.154.084.259-.003.099-.082.155-.085.23-.01.135.135.4.124.455-.02.044-.115.314-.098.502.031.047.032.212.05.367.04.23-.015.297.02.361.19.102.267.1.281-.027.288-.058.003-.25.177-.424.388l-.318.382-.119-.281c-.065-.155-.153-.396-.194-.536-.089-.299-.299-.337-.365-.066-.035.144-.077.169-.174.108-.192-.122-.425-.1-.425.04 0 .068.159.269.353.447.761.696.933.995.625 1.091l-.276.095c-.171.064-.261.084-.465.102-.123.011-.831.671-1.44 1.344-.222.245-.805.307-1.093.116a3.06 3.06 0 0 0-1.127-.453c-.273-.041-.319-.025-.319.113 0 .12.082.175.319.215.427.073.872.228.872.305 0 .132-.977.181-1.484.075-.838-.175-1.408-.193-1.408-.045s.358.258.563.179c.076-.029.191-.01.254.043s.172.074.242.048.149-.011.177.034-.019.104-.104.131a2.82 2.82 0 0 0-.38.169 1.05 1.05 0 0 1-.398.121c-.095 0-.223.048-.285.106a2.55 2.55 0 0 1-.424.271c-.488.257-.697.44-.629.55.079.128.353.043.694-.217.145-.11.29-.2.324-.2.119 0 .862-.362 1.008-.491.082-.072.149-.104.149-.07s.048.031.106-.006a.87.87 0 0 1 .272-.092c.149-.023.145-.004-.043.197-.114.122-.428.358-.697.524s-.489.352-.489.413c0 .142.172.25.243.153.056-.076.31-.233.698-.429.297-.15.657-.568.726-.841.048-.19.094-.219.304-.188.136.02.267.004.292-.035.058-.093.459-.092.459.002 0 .114-.594.863-.684.863-.045 0-.081.055-.081.121 0 .219.292.186.497-.056.19-.225.358-.307.351-.172-.002.035-.117.197-.256.36-.223.261-.273.284-.422.19-.156-.097-.187-.068-.383.361-.312.682-.486.817-.967.75-.215-.03-.495-.053-.621-.052s-.251-.053-.277-.121c-.033-.085-.115-.107-.259-.071-.182.046-.208.026-.191-.14.011-.106-.018-.187-.064-.179l-.383.075c-.53.11-1.446.143-1.446.052 0-.047.096-.161.213-.253s.213-.207.213-.256.078-.144.174-.211.166-.155.156-.196c-.026-.113.157-.518.264-.584.067-.041.068-.09.004-.167-.108-.13-.023-.21.454-.432.291-.136.313-.166.188-.257-.169-.123-.479-.064-.424.082.021.056-.077.187-.218.292s-.257.238-.257.297c0 .193-.568 1.289-.754 1.454-.1.089-.182.188-.182.22 0 .14.482.256 1.065.256.43 0 .748.051.995.159.569.248 1.213.437 1.495.437.265 0 .528-.239.834-.757a1 1 0 0 1 .428-.353c.157-.062.286-.153.286-.203 0-.086.654-.69.911-.842a.32.32 0 0 1 .243-.024c.249.095.11.301-.345.509-.347.159-.454.248-.416.347s-.062.183-.384.325c-.331.146-.506.298-.735.637-.165.245-.337.446-.383.446s-.083.041-.083.091.079.069.191.038l.191-.053-.179.157c-.19.166-.374.465-.374.606 0 .047.086.097.191.112.15.021.185.073.163.24-.016.117-.064.249-.106.293s-.078.182-.078.306-.094.334-.208.467c-.242.282-.218.375.088.341.19-.021.215.003.182.175-.062.323.135.288.344-.06.222-.369.444-.365.444.008 0 .447.103.749.285.837.261.126.256.129.432-.198.179-.332.277-.367.434-.153.098.135.128.13.412-.064a1.4 1.4 0 0 0 .432-.507 7.46 7.46 0 0 1 .292-.595c.091-.164.188-.367.215-.452.072-.225.22-.089.22.202 0 .316.089.315.441-.007.155-.141.339-.25.409-.242.24.028.409-.101.363-.276-.038-.144-.013-.161.168-.116.252.063.47-.171.716-.769.086-.209.2-.381.254-.381.082 0 .201-.181.201-.305 0-.02-.077-.036-.17-.036s-.17-.04-.17-.09.036-.068.079-.041.102.013.129-.032c.087-.141-.131-.202-.673-.187-.332.009-.619-.033-.775-.115-.137-.071-.287-.131-.333-.133s-.181-.088-.298-.192c-.754-.667-1.051-1.77-.669-2.487.496-.929 1.501-1.33 2.569-1.024.158.045.312.031.449-.043.244-.13.969-.986.969-1.143 0-.059-.115-.13-.255-.158-.196-.039-.255-.097-.255-.249 0-.109.035-.234.078-.279.122-.127.128-.482.013-.761l-.105-.255-.188.234c-.235.293-.291.293-.324 0-.025-.218-.057-.236-.473-.26-.312-.018-.447-.061-.447-.144 0-.179-.161-.241-.309-.119-.072.06-.325.109-.563.109-.351 0-.456-.035-.556-.187-.144-.216-.319-.242-.389-.058-.027.071-.141.164-.254.207-.169.064-.214.157-.262.537-.067.539.182 1.338.483 1.549.252.176.116.27-.144.099-.593-.389-1.293-1.428-1.447-2.15-.044-.204-.147-.314-.437-.468-.186-.098-.294-.142-.362-.141zm5.456 1.599c.111 0 .059.174-.152.508-.226.358-.221.372.167.465l.254.061-.415.376c-.414.375-.487.407-.73.314-.206-.079-.239-.193-.144-.502.081-.265.881-1.222 1.021-1.222zm-4.064 3.597c.181-.002.21.035.21.187a1.13 1.13 0 0 0 .05.33c.041.107-.004.122-.255.081-.26-.042-.332-.016-.482.174-.097.123-.209.224-.25.224-.155 0-.178-.186-.049-.384.074-.113.135-.265.135-.336s.057-.131.128-.131.128-.029.128-.064.134-.071.298-.079l.087-.003zm.373 1.306c.007.045.1.175.214.299.247.267.208.327-.209.327-.352 0-.838.211-.909.396-.075.195.02.218.341.084.165-.069.322-.103.349-.076s.05.005.05-.05.053-.099.118-.099c.131 0-.829 1.495-1.232 1.918-.282.296-.316.464-.094.464.148 0 .697-.493.697-.627 0-.036.057-.123.128-.193.113-.113.128-.108.128.049 0 .117.055.176.164.176.141 0 .161-.053.139-.376-.026-.393.152-.884.35-.96.062-.024.113-.087.113-.141s.078-.147.173-.206c.143-.089.205-.086.359.022.102.072.238.13.303.13s.211.074.326.165l.209.165-.182.098c-.1.054-.293.219-.429.367-.208.227-.26.25-.335.142s-.121-.088-.299.128c-.116.14-.21.301-.211.357-.001.16-.334.352-.524.302-.116-.03-.24.028-.38.179a2.08 2.08 0 0 1-.481.364c-.151.077-.293.165-.316.194s-.148.121-.277.203a2.83 2.83 0 0 1-.425.221c-.221.083-.579-.01-.419-.109.055-.034.101-.137.101-.228a.84.84 0 0 1 .074-.314 3.94 3.94 0 0 0 .164-.427c.078-.24.066-.302-.083-.44-.169-.158-.17-.165-.014-.332.088-.094.267-.212.398-.262.291-.111.277-.359-.025-.43l-.208-.049.265-.188c.146-.104.297-.188.337-.187.179.003.965-.475.93-.565-.021-.056.112-.201.296-.323.161-.107.297-.174.328-.164zm2.294 1.493l.091.006c.283.029.301.049.293.326-.009.328-.194.769-.343.817-.053.017-.12-.065-.15-.183-.111-.443-.679-.505-.638-.07.027.287-.071.61-.245.808s-.229.188-.347-.07c-.194-.425-.771-.041-.817.544-.023.288-.236.657-.508.878-.147.119-.198.125-.304.032-.145-.127-.41-.055-.588.158-.218.262-.337.163-.321-.267.013-.357.037-.403.202-.398.103.003.172-.019.152-.05s.088-.146.238-.255.304-.249.341-.312c.043-.072.146-.094.281-.06.176.044.278-.015.589-.34.207-.216.407-.393.445-.393.097 0 .496-.318.99-.791.326-.312.438-.387.636-.383z" fill="#013818"/><path d="M-1716.159-497.852c-.032-.007-.064.002-.089.023s-.038.052-.036.084.004.058 0 .087-.029.094-.063.123c-.048.041-.079.051-.115.056s-.082 0-.144 0-.108.019-.127.026c.008-.002.021-.008.053.004s.065.062.067.088c.003.037-.002.031-.005.032l-.177-.099c-.016.029-.05.073-.09.096s-.091.034-.145.036c-.111.005-.25-.014-.507-.051-.727-.103-1.131-.04-1.371.17-.143.125-.448.307-.73.448a11.38 11.38 0 0 0-.98.562l-.409.281-.24.197-.056.06c-.031.033-.037.082-.015.122l.103.184h0l.179.321c.029.049.091.066.14.038s.068-.089.041-.139c-.012-.022.024.051.014.028s.019.053.011.029.014.055.008.03.008.056.005.031.002.056.002.031-.003.056-.001.031-.009.056-.004.031-.014.055-.007.03l-.2-.057-.126.439-.071.249c-.015.054.015.11.068.127a1.44 1.44 0 0 0 .131.034l.053.011c.024.004.014.006.043.006.088 0 .147-.004.226.026.059.022.141.11.165.178.061.175.051.397.051.865v.688c0 .053.039.097.092.103l.153.018c.193.023.405.006.593-.032s.349-.09.455-.168c.053-.039.095-.066.144-.087s.099-.036.164-.01c.058.024.094.089.106.131a.55.55 0 0 1 .017.159h.208c-.003.022-.005.03-.012.043a.1.1 0 0 1-.016.022c-.019.016-.032.023-.032.023a13.03 13.03 0 0 0-.021.007c0 0-.014.002-.021.002-.013 0-.025-.002-.033-.005-.018-.006-.026-.013-.032-.018-.011-.009-.013-.013-.015-.015-.006-.008.004.007.014.022.02.031.055.079.112.12l.199.141c.047.031.11.02.142-.026s.023-.109-.022-.143c-.02-.014.047.04.029.024s.042.046.026.027.037.05.023.03.03.054.019.032.024.057.015.034.017.06.011.036.01.061.007.037.002.062.002.038h-.208v1.493c0 .029.012.057.034.076s.05.029.079.027c.167-.014.417-.122.68-.311.274-.198.543-.465.711-.727l.05-.076c.01-.014.012-.017.025-.03.033-.033.023-.028.026-.03s.016-.011.067-.008c.02.001.084.044.087.048.018.026.015.025.02.046.006.028.004.021.003.044s-.003.048-.007.082l.207.02c-.002.013-.007.029-.007.029a73.5 73.5 0 0 0-.018.029c0 0-.031.024-.031.024a525.85 525.85 0 0 0-.059.01 357.86 357.86 0 0 0-.049-.02c0 0-.022-.022-.022-.022s-.013-.024-.013-.024l-.006-.025.002.033.01.111.047.263c.049.217.094.761.115 1.273l.036.657h0c.003.037.022.068.052.085s.067.018.098.003c.089-.044.165-.067.248-.053.051.008.109.037.146.08s.055.107.055.163l.019.048.068.159.227.465.471.84a.63.63 0 0 0 .057.07c.006.006.019.022.002.001-.002-.003-.011-.017-.011-.017s-.01-.028-.01-.028a173.82 173.82 0 0 0-.001-.029 145.64 145.64 0 0 0 .012-.04 164.87 164.87 0 0 0 .03-.034 100.41 100.41 0 0 0 .031-.016 44.05 44.05 0 0 0 .036-.004l.023.004c.012.005.031.02.031.02a102.69 102.69 0 0 0 .017.021c0 0 .016.044.016.044a329.97 329.97 0 0 0-.01.057c0 0-.026.033-.026.033s-.02.013-.02.013c-.013.005-.029.01-.032.01a.54.54 0 0 0 .067-.01c.086-.017.2-.013.286.029.097.047.181.12.314.243l.149.137c.02.019.048.029.075.027s.054-.014.072-.035l.036-.041h0c.045-.051.094-.131.151-.234a2.54 2.54 0 0 0 .156-.323 6.52 6.52 0 0 0 .24-.9c.054-.29.122-.566.186-.774.033-.104.063-.189.094-.256.016-.035.029-.058.05-.086s.027-.038.039-.047.03-.02.08-.02c.04 0 .053.007.06.011s.007.007.028.027c.015.015.019.021.029.036a.67.67 0 0 1 .047.084c.032.066.068.151.101.245a1.58 1.58 0 0 0 .248.467c.033.036.073.048.111.039s.067-.04.075-.078c.007-.031.006-.032 0-.005a.93.93 0 0 1 .048-.156c.026-.064.008-.064.073-.121a.25.25 0 0 1 .108-.037c.043.003.063.016.09.034.108.075.168.17.348.395l.301.364c.067.077.107.118.148.151l.018.019.084-.182c.015.004.034.013.034.013a201.92 201.92 0 0 0 .031.028c0 0 .02.061.02.061a225.1 225.1 0 0 0-.013.049c0 0-.016.022-.016.022-.01.009-.024.019-.026.02a.48.48 0 0 0 .031-.016c.041-.022.073-.039.119-.05.038-.009.101-.008.141.005.101.033.155.088.273.192.131.115.321.234.487.315.05.024.085.034.116.046s.067.008.095-.011.045-.05.046-.084c.003-.126-.001-.304-.015-.538l-.017-.594a.9.9 0 0 1 .018-.167c.015-.066.004-.085.081-.133l-.102-.164h.031a210.48 210.48 0 0 0 .055.029 161.03 161.03 0 0 0 .026.045 66.48 66.48 0 0 0 .004.028c0 0-.002.019-.003.024a.19.19 0 0 0 .009-.064c-.003-.076-.023-.147-.069-.212-.039-.056-.075-.128-.126-.232l-.156-.344c-.078-.186-.122-.296-.139-.402-.015-.092.012-.205.049-.273.005-.009.023-.048.026-.085s-.001-.077-.01-.149c-.018-.149-.069-.389-.162-.789l-.264-1.143a.3.3 0 0 0-.165-.211.58.58 0 0 1-.155-.107c-.048-.047-.072-.061-.079-.149l-.186.07.083-.062.05-.091.007.004c-.012-.009-.025-.017-.044-.026-.092-.045-.253-.087-.512-.137a4.13 4.13 0 0 1-.414-.102c-.129-.039-.202-.059-.284-.116a.45.45 0 0 0-.287-.076c-.121.006-.271.046-.459.127-.279.12-.459.144-.848.111-.605-.051-1.017-.281-1.374-.767l-.255-.347c-.034-.046-.099-.056-.145-.022s-.056.099-.022.145-.05-.089-.026-.043-.035-.096-.019-.046-.02-.1-.012-.049-.004-.102-.004-.05h.208v-.67c0-.322.001-.495.033-.647s.096-.261.199-.428c.124-.2.177-.306.187-.406.009-.089-.02-.181-.106-.349-.134-.263-.373-.521-.617-.709-.222-.171-.428-.251-.533-.272zm6.621 9.125zm-5.33 1.865zm4.054-6.104z" class="C"/><path d="M-1714.325-486.606c-.243-.238-.324-.274-.461-.201-.193.103-.165.136-.703-.838-.211-.382-.383-.756-.383-.831 0-.211-.159-.26-.378-.117l-.199.13-.054-.573-.055-1.146c0-.324-.042-.599-.095-.632s-.073-.165-.045-.305c.068-.339.003-.309-.203.094s-.955.944-1.307.944h-.237v-.859c0-.833-.006-.862-.214-.956-.137-.063-.214-.168-.214-.293 0-.247-.121-.326-.254-.166-.168.203-.671.325-1.081.264l-.379-.057v-1.77l-.386-.058c-.212-.032-.386-.093-.386-.135s.06-.253.133-.468c.126-.371.124-.403-.043-.638-.097-.136-.176-.281-.176-.324 0-.236 1.059-.956 2.013-1.367.236-.102.44-.238.453-.304.055-.269.902-.356 1.704-.175.315.071.363.062.399-.078.027-.104.089-.141.178-.107.075.029.199.029.275-.001.108-.041.116-.079.039-.173-.137-.165.017-.248.329-.18.343.075.869.554 1.118 1.016.187.348.196.407.085.545-.069.085-.2.289-.292.454-.221.398-.224 1.343-.004 1.689.257.405.588.719.89.846.327.137 1.26.165 1.337.039.028-.045.193-.122.366-.169.266-.073.342-.062.49.074.111.102.375.183.722.222.5.056.555.083.64.309.064.168.137.233.231.204.111-.035.156.068.235.536.054.319.178.866.277 1.216.158.56.164.645.05.709s-.099.145.096.606c.124.293.257.57.296.615.094.108.091.39-.004.39-.063 0-.055.777.014 1.412.011.102-.033.169-.11.168-.191-.002-.63-.255-.864-.498-.187-.194-.219-.202-.351-.082s-.167.109-.386-.116a4.99 4.99 0 0 1-.455-.565c-.227-.336-.343-.4-.343-.189 0 .071-.035.129-.078.129-.092 0-.019-.693.085-.806.067-.073.412.255.418.398.005.104.469.744.542.748.037.002.057-.064.043-.147-.041-.246.135-.173.621.257l.507.407c.026 0 .04-.145.032-.321l-.03-.321c-.008 0-.024-.251-.035-.557s-.063-.634-.116-.728c-.157-.28-.349-1.069-.271-1.117.04-.024.017-.199-.05-.389a4.72 4.72 0 0 1-.18-.782c-.049-.371-.074-.416-.162-.296-.057.078-.17.142-.252.142-.123 0-.143-.067-.119-.397.033-.444-.007-.487-.588-.632-.198-.049-.415-.145-.483-.212-.192-.192-.24-.045-.067.203.086.123.265.468.397.765.181.406.332.604.606.792.429.295.635.49.635.601 0 .117-.267.096-.532-.043-.211-.11-.225-.108-.158.022l.351.743a7.83 7.83 0 0 0 .568 1.011c.322.455.303.746-.022.348l-.2-.245-.003.243c-.004.336-.194.251-.302-.136-.048-.169-.115-.336-.151-.372s-.064-.125-.064-.2-.134-.406-.299-.736c-.265-.532-.3-.571-.31-.343-.006.141-.005.308.004.371s-.02.159-.064.214-.104.207-.135.336-.115.236-.191.236c-.111 0-.123-.063-.07-.364.096-.544.101-1.348.01-1.735l-.096-.471c-.008-.071-.123-.349-.256-.619-.205-.417-.263-.479-.394-.409-.084.045-.427.061-.762.035-.593-.045-.609-.041-.609.152 0 .109-.05.295-.111.413-.091.177-.119.531-.069.878.017.117.266.067.266-.054 0-.169.227-.343.297-.229.031.049-.009.09-.087.09-.095 0-.125.045-.09.136s-.005.151-.119.181c-.212.055-.221.233-.021.433.083.083.138.216.123.295s.012.219.06.309c.156.292-.023.292-.266-.001l-.235-.284-.002.616c-.001.339.037.64.084.67s.224.269.392.531c.238.372.281.494.192.55-.077.049-.187-.011-.339-.184-.124-.141-.248-.256-.276-.256s-.037.154-.022.343c.033.384-.081.455-.205.129-.093-.244-.215-.277-.29-.08-.028.074-.09.11-.137.081-.097-.06-.078-.284.042-.472s.169-1.971.055-1.971c-.123 0-.291.324-.224.432.029.047.021.075-.019.063s-.166.063-.28.169c-.23.214-.518.257-.518.077 0-.064.185-.363.411-.664.6-.801.784-1.154.836-1.604.025-.221.08-.526.121-.679.07-.259.045-.308-.367-.728-.243-.248-.436-.47-.429-.494s-.045-.178-.115-.343c-.087-.205-.112-.442-.077-.75.044-.389.03-.451-.1-.461-.083-.006-.247-.026-.365-.045-.963-.154-1.724.008-1.887.403-.058.139-.139.253-.18.253s-.075.069-.075.154c0 .237-.199.604-.347.643-.112.029-.125-.031-.08-.381.029-.229.029-.416 0-.416-.091 0-.601.56-.601.659 0 .052-.052.114-.115.138s-.181.183-.261.352c-.163.343-.272.389-.349.146a1.08 1.08 0 0 1 .209-.695c.025-.024.188-.221.363-.44l.319-.397-.361-.103c-.31-.088-.743-.465-.646-.562.018-.018.185.009.373.059.685.183 1.11.181 1.524-.007.216-.098.464-.179.552-.179s.205-.046.262-.103c.066-.066.103-.07.103-.011s.114.076.279.052a1.53 1.53 0 0 1 .664.005c.992.177.917.184 1.066-.104.132-.256.129-.279-.09-.61s-.376-.439-.376-.264c0 .049-.107.049-.278 0-.346-.099-.322-.103-.322.044 0 .184-.123.227-.397.138-.135-.043-.515-.098-.845-.12s-.674-.071-.765-.106c-.131-.052-.154-.036-.11.079.087.226-.024.401-.255.401-.276 0-1.454.488-1.793.743-.146.11-.317.199-.38.199-.069 0-.023.096.115.24.259.27.284.416.113.662-.064.093-.144.256-.177.362-.052.166-.029.193.16.193.121 0 .295.075.386.166.145.145.163.265.137.938l-.029.771.234.051a.96.96 0 0 0 .464-.036c.316-.12.789-.609.859-.889.058-.23.043-.243-.288-.265-.071-.005-.129-.063-.129-.129 0-.135.606-.512.833-.518.081-.002.186-.077.234-.167.212-.397 1.436-.707 1.752-.445.389.323-.11.82-.741.737-.277-.037-.321-.019-.321.126 0 .099-.044.152-.107.128s-.235-.055-.391-.072c-.226-.026-.273-.006-.234.098.027.071-.008.219-.08.328s-.106.258-.078.332c.036.094.013.119-.076.085-.15-.058-.241.129-.285.582-.028.291-.011.321.175.321.13 0 .226.063.26.17.078.246.026 1.224-.072 1.355-.161.214.072.301.384.144.374-.189.655-.505.867-.975.172-.382.707-.949.895-.95.202-.001.197.165-.015.477-.119.175-.216.37-.216.434s-.039.117-.086.117c-.122 0-.106.236.018.277.073.024.108.346.116 1.08l.065 1.099c.029.029.125-.036.213-.144.201-.248.323-.176.4.236.033.177.097.366.141.42s.074.131.065.171c-.017.076.193.549.376.845l.125.205c.011.019.078-.015.149-.074.108-.09.16-.073.305.095.096.112.211.29.255.396.123.294.224.236.461-.267.273-.576.395-1.113.354-1.551-.024-.254.007-.367.123-.447.152-.107.279-.495.19-.583-.025-.025-.061-.202-.078-.394s-.109-.485-.203-.652c-.283-.503-.23-1.083.103-1.123.326-.039.505.483.547 1.596.046 1.227.041 1.189.18 1.304.068.056.123.194.123.306 0 .124.05.204.129.204.139 0 .174.133.054.207s-.387-.279-.533-.707l-.136-.399-.117.214c-.141.258-.163.338-.251.942-.111.763-.544 1.729-.766 1.709-.028-.003-.184-.135-.346-.294z" fill="#003718"/><g class="E G"><path d="M-1712.13-488.685l-.066.53" stroke-width=".086"/><path d="M-1726.592-516.718s1.451 1.147 2.599 0 .725-2.159.725-2.159" stroke-width=".293"/><g class="P"><path d="M-1728.796-523.075s.924-.289 1.155-1.213m12.832 29.264c.449 1.807 2.692 1.548 2.952.268"/><path d="M-1712.822-495.048s.397-.532-.066-.958m4.251 3.075s-.751.805-1.664.859m28.336-3.22s-.02 2.069 2.01 1.243"/><path d="M-1680.731-495.185s1.288.483.59-.322"/><path d="M-1670.802-517.027s1.02 1.986 3.327.966m-1.449-2.951l.644-.429m-1.791 6.897s1.015 1.433 2.389-.06"/></g></g><g transform="matrix(.351557 0 0 .351557 -1355.6495 -321.35548)"><g transform="matrix(-1.462798 0 0 1.462798 -1584.5135 -84.767978)"><g class="D"><g transform="matrix(.856015 -.204815 .097053 1.001972 -21.484412 -43.472577)" class="L"><use xlink:href="#G" class="C F"/><g class="E"><use xlink:href="#H"/><use xlink:href="#I"/><use xlink:href="#J"/></g></g><g class="B C F"><use xlink:href="#K"/><use xlink:href="#L"/></g></g><g class="F"><g transform="matrix(.225575 .039413 -.039413 .225575 -311.67635 -243.47034)" class="H I J"><circle cx="-448.064" cy="-368.485" r="4.521"/><circle cx="-446.055" cy="-373.21" r="4.521"/><circle cx="-452.617" cy="-378.161" r="4.521"/><circle cx="-442.171" cy="-380.843" r="4.521"/><circle cx="-447.796" cy="-383.12" r="4.521"/><circle cx="-440.163" cy="-389.146" r="4.521"/><circle cx="-459.179" cy="-384.325" r="4.521"/><circle cx="-454.625" cy="-387.941" r="4.521"/><circle cx="-447.93" cy="-392.628" r="4.521"/><circle cx="-440.564" cy="-397.315" r="4.521"/><circle cx="-456.232" cy="-402.403" r="4.521"/><circle cx="-462.392" cy="-397.449" r="4.521"/><circle cx="-463.464" cy="-390.485" r="4.521"/><circle cx="-455.161" cy="-395.574" r="4.521"/><circle cx="-448.599" cy="-401.466" r="4.521"/></g><use xlink:href="#M" class="B C D"/><g transform="matrix(.225575 .039413 -.039413 .225575 -295.48146 -236.98477)" class="H I J"><circle cx="-448.064" cy="-368.485" r="4.521"/><circle cx="-446.055" cy="-373.21" r="4.521"/><circle cx="-452.617" cy="-378.161" r="4.521"/><circle cx="-442.171" cy="-380.843" r="4.521"/><circle cx="-447.796" cy="-383.12" r="4.521"/><circle cx="-440.163" cy="-389.146" r="4.521"/><circle cx="-459.179" cy="-384.325" r="4.521"/><circle cx="-454.625" cy="-387.941" r="4.521"/><circle cx="-447.93" cy="-392.628" r="4.521"/><circle cx="-440.564" cy="-397.315" r="4.521"/><circle cx="-456.232" cy="-402.403" r="4.521"/><circle cx="-462.392" cy="-397.449" r="4.521"/><circle cx="-463.464" cy="-390.485" r="4.521"/><circle cx="-455.161" cy="-395.574" r="4.521"/><circle cx="-448.599" cy="-401.466" r="4.521"/></g><use xlink:href="#N" class="B C D"/><g transform="matrix(-.225575 .039413 .039413 .225575 -485.62744 -218.44886)" class="H I J"><circle cx="-448.064" cy="-368.485" r="4.521"/><circle cx="-446.055" cy="-373.21" r="4.521"/><circle cx="-452.617" cy="-378.161" r="4.521"/><circle cx="-442.171" cy="-380.843" r="4.521"/><circle cx="-447.796" cy="-383.12" r="4.521"/><circle cx="-440.163" cy="-389.146" r="4.521"/><circle cx="-459.179" cy="-384.325" r="4.521"/><circle cx="-454.625" cy="-387.941" r="4.521"/><circle cx="-447.93" cy="-392.628" r="4.521"/><circle cx="-440.564" cy="-397.315" r="4.521"/><circle cx="-456.232" cy="-402.403" r="4.521"/><circle cx="-462.392" cy="-397.449" r="4.521"/><circle cx="-463.464" cy="-390.485" r="4.521"/><circle cx="-455.161" cy="-395.574" r="4.521"/><circle cx="-448.599" cy="-401.466" r="4.521"/></g><g class="Q B"><g class="D"><use xlink:href="#O"/><use xlink:href="#P"/></g><g class="G"><use xlink:href="#Q"/><use xlink:href="#R"/></g><use xlink:href="#S" class="D"/></g></g><g class="D"><g class="E"><g class="B"><use xlink:href="#T"/><use xlink:href="#U"/><use xlink:href="#V"/></g><path d="M-399.581-361.351s-1.503-.802-2.439-.1" class="R"/></g><use xlink:href="#W" class="B C F"/><g class="B E"><use xlink:href="#X"/><use xlink:href="#Y"/><use xlink:href="#I"/><use xlink:href="#Z"/></g><g class="B E"><use xlink:href="#a"/><use xlink:href="#b"/><path d="M-400.453-342.455s-.897.897.69 6.693"/><use xlink:href="#c"/><path d="M-397.969-340.247s-.414 3.795-1.863 4.485"/></g><use xlink:href="#d" class="B C F"/></g></g><g transform="matrix(1.462798 0 0 1.462798 -401.14417 -38.139841)"><g class="D"><g transform="matrix(.856015 -.204815 .097053 1.001972 -21.484412 -43.472577)" class="L"><use xlink:href="#G" class="C F"/><g class="E"><use xlink:href="#H"/><use xlink:href="#I"/><use xlink:href="#J"/></g></g><g class="B C F"><use xlink:href="#K"/><use xlink:href="#L"/></g></g><g class="F"><g transform="matrix(.225575 .039413 -.039413 .225575 -311.67635 -243.47034)" class="H I J"><circle cx="-448.064" cy="-368.485" r="4.521"/><circle cx="-446.055" cy="-373.21" r="4.521"/><circle cx="-452.617" cy="-378.161" r="4.521"/><circle cx="-442.171" cy="-380.843" r="4.521"/><circle cx="-447.796" cy="-383.12" r="4.521"/><circle cx="-440.163" cy="-389.146" r="4.521"/><circle cx="-459.179" cy="-384.325" r="4.521"/><circle cx="-454.625" cy="-387.941" r="4.521"/><circle cx="-447.93" cy="-392.628" r="4.521"/><circle cx="-440.564" cy="-397.315" r="4.521"/><circle cx="-456.232" cy="-402.403" r="4.521"/><circle cx="-462.392" cy="-397.449" r="4.521"/><circle cx="-463.464" cy="-390.485" r="4.521"/><circle cx="-455.161" cy="-395.574" r="4.521"/><circle cx="-448.599" cy="-401.466" r="4.521"/></g><use xlink:href="#M" class="B C D"/><g transform="matrix(.225575 .039413 -.039413 .225575 -295.48146 -236.98477)" class="H I J"><circle cx="-448.064" cy="-368.485" r="4.521"/><circle cx="-446.055" cy="-373.21" r="4.521"/><circle cx="-452.617" cy="-378.161" r="4.521"/><circle cx="-442.171" cy="-380.843" r="4.521"/><circle cx="-447.796" cy="-383.12" r="4.521"/><circle cx="-440.163" cy="-389.146" r="4.521"/><circle cx="-459.179" cy="-384.325" r="4.521"/><circle cx="-454.625" cy="-387.941" r="4.521"/><circle cx="-447.93" cy="-392.628" r="4.521"/><circle cx="-440.564" cy="-397.315" r="4.521"/><circle cx="-456.232" cy="-402.403" r="4.521"/><circle cx="-462.392" cy="-397.449" r="4.521"/><circle cx="-463.464" cy="-390.485" r="4.521"/><circle cx="-455.161" cy="-395.574" r="4.521"/><circle cx="-448.599" cy="-401.466" r="4.521"/></g><use xlink:href="#N" class="B C D"/><g transform="matrix(-.225575 .039413 .039413 .225575 -485.62744 -218.44886)" class="H I J"><circle cx="-448.064" cy="-368.485" r="4.521"/><circle cx="-446.055" cy="-373.21" r="4.521"/><circle cx="-452.617" cy="-378.161" r="4.521"/><circle cx="-442.171" cy="-380.843" r="4.521"/><circle cx="-447.796" cy="-383.12" r="4.521"/><circle cx="-440.163" cy="-389.146" r="4.521"/><circle cx="-459.179" cy="-384.325" r="4.521"/><circle cx="-454.625" cy="-387.941" r="4.521"/><circle cx="-447.93" cy="-392.628" r="4.521"/><circle cx="-440.564" cy="-397.315" r="4.521"/><circle cx="-456.232" cy="-402.403" r="4.521"/><circle cx="-462.392" cy="-397.449" r="4.521"/><circle cx="-463.464" cy="-390.485" r="4.521"/><circle cx="-455.161" cy="-395.574" r="4.521"/><circle cx="-448.599" cy="-401.466" r="4.521"/></g><g class="Q B"><g class="D"><use xlink:href="#O"/><use xlink:href="#P"/></g><g class="G"><use xlink:href="#Q"/><use xlink:href="#R"/></g><use xlink:href="#S" class="D"/></g></g><g class="D"><g class="E"><g class="B"><use xlink:href="#T"/><use xlink:href="#U"/><use xlink:href="#V"/></g><path d="M-399.581-361.351s-1.503-.802-2.439-.1" class="R"/></g><use xlink:href="#W" class="B C F"/><g class="B E"><use xlink:href="#X"/><use xlink:href="#Y"/><use xlink:href="#I"/><use xlink:href="#Z"/></g><g class="B E"><use xlink:href="#a"/><use xlink:href="#b"/><path d="M-400.453-342.455s-.897.897.69 6.693"/><use xlink:href="#c"/><path d="M-397.969-340.247s-.414 3.795-1.863 4.485"/></g><use xlink:href="#d" class="B C F"/></g></g><g transform="matrix(1.462798 0 0 1.462798 -358.71014 -84.766642)"><g class="D"><g transform="matrix(.856015 -.204815 .097053 1.001972 -21.484412 -43.472577)" class="L"><use xlink:href="#G" class="C F"/><g class="E"><use xlink:href="#H"/><use xlink:href="#I"/><use xlink:href="#J"/></g></g><g class="B C F"><use xlink:href="#K"/><use xlink:href="#L"/></g></g><g class="F"><g transform="matrix(.225575 .039413 -.039413 .225575 -311.67635 -243.47034)" class="H I J"><circle cx="-448.064" cy="-368.485" r="4.521"/><circle cx="-446.055" cy="-373.21" r="4.521"/><circle cx="-452.617" cy="-378.161" r="4.521"/><circle cx="-442.171" cy="-380.843" r="4.521"/><circle cx="-447.796" cy="-383.12" r="4.521"/><circle cx="-440.163" cy="-389.146" r="4.521"/><circle cx="-459.179" cy="-384.325" r="4.521"/><circle cx="-454.625" cy="-387.941" r="4.521"/><circle cx="-447.93" cy="-392.628" r="4.521"/><circle cx="-440.564" cy="-397.315" r="4.521"/><circle cx="-456.232" cy="-402.403" r="4.521"/><circle cx="-462.392" cy="-397.449" r="4.521"/><circle cx="-463.464" cy="-390.485" r="4.521"/><circle cx="-455.161" cy="-395.574" r="4.521"/><circle cx="-448.599" cy="-401.466" r="4.521"/></g><use xlink:href="#M" class="B C D"/><g transform="matrix(.225575 .039413 -.039413 .225575 -295.48146 -236.98477)" class="H I J"><circle cx="-448.064" cy="-368.485" r="4.521"/><circle cx="-446.055" cy="-373.21" r="4.521"/><circle cx="-452.617" cy="-378.161" r="4.521"/><circle cx="-442.171" cy="-380.843" r="4.521"/><circle cx="-447.796" cy="-383.12" r="4.521"/><circle cx="-440.163" cy="-389.146" r="4.521"/><circle cx="-459.179" cy="-384.325" r="4.521"/><circle cx="-454.625" cy="-387.941" r="4.521"/><circle cx="-447.93" cy="-392.628" r="4.521"/><circle cx="-440.564" cy="-397.315" r="4.521"/><circle cx="-456.232" cy="-402.403" r="4.521"/><circle cx="-462.392" cy="-397.449" r="4.521"/><circle cx="-463.464" cy="-390.485" r="4.521"/><circle cx="-455.161" cy="-395.574" r="4.521"/><circle cx="-448.599" cy="-401.466" r="4.521"/></g><use xlink:href="#N" class="B C D"/><g transform="matrix(-.225575 .039413 .039413 .225575 -485.62744 -218.44886)" class="H I J"><circle cx="-448.064" cy="-368.485" r="4.521"/><circle cx="-446.055" cy="-373.21" r="4.521"/><circle cx="-452.617" cy="-378.161" r="4.521"/><circle cx="-442.171" cy="-380.843" r="4.521"/><circle cx="-447.796" cy="-383.12" r="4.521"/><circle cx="-440.163" cy="-389.146" r="4.521"/><circle cx="-459.179" cy="-384.325" r="4.521"/><circle cx="-454.625" cy="-387.941" r="4.521"/><circle cx="-447.93" cy="-392.628" r="4.521"/><circle cx="-440.564" cy="-397.315" r="4.521"/><circle cx="-456.232" cy="-402.403" r="4.521"/><circle cx="-462.392" cy="-397.449" r="4.521"/><circle cx="-463.464" cy="-390.485" r="4.521"/><circle cx="-455.161" cy="-395.574" r="4.521"/><circle cx="-448.599" cy="-401.466" r="4.521"/></g><g class="Q B"><g class="D"><use xlink:href="#O"/><use xlink:href="#P"/></g><g class="G"><use xlink:href="#Q"/><use xlink:href="#R"/></g><use xlink:href="#S" class="D"/></g></g><g class="D"><g class="E"><g class="B"><use xlink:href="#T"/><use xlink:href="#U"/><use xlink:href="#V"/></g><path d="M-399.581-361.351s-1.503-.802-2.439-.1" class="R"/></g><use xlink:href="#W" class="B C F"/><g class="B E"><use xlink:href="#X"/><use xlink:href="#Y"/><use xlink:href="#I"/><use xlink:href="#Z"/></g><g class="B E"><use xlink:href="#a"/><use xlink:href="#b"/><path d="M-400.453-342.455s-.897.897.69 6.693"/><use xlink:href="#c"/><path d="M-397.969-340.247s-.414 3.795-1.863 4.485"/></g><use xlink:href="#d" class="B C F"/></g></g><path d="M-974.449-647.569s.378 3.963 3.246 4.019" stroke-width=".753" class="E G"/></g><path d="M-1669.12-522.845c-.036 0-.224.151-.418.336-.329.315-.414.458-.308.523.063.039.055.093-.026.174-.064.064-.077.061-.147-.026-.164-.203-.343.024-.41.523-.033.246-.032.506.004.92.059.668.149 1.062.273 1.187.088.088.088.088.262-.012a1.74 1.74 0 0 1 .527-.15c.443-.063.761.013 1.266.3.798.454 1.116 1.011 1.116 1.956 0 .25-.018.356-.066.396a.2.2 0 0 0-.066.134c0 .13-.33.507-.632.723-.363.259-.571.33-1.062.363-.686.046-.793.144-.687.626.079.359.377 1.134.542 1.41.198.331.559.639 1.017.868.301.151.439.196.603.196.203 0 .23.015.543.305.181.168.386.335.456.371.143.074.466.41.63.657.061.091.124.165.142.165.03 0 .06-.093.17-.54.029-.116.069-.221.091-.234.055-.034.712.349 1.523.888.378.252.706.446.729.432s.029-.077.013-.139a1.58 1.58 0 0 0-.175-.337c-.225-.343-.291-.758-.398-2.507-.074-1.204-.094-1.33-.287-1.815-.12-.301-.16-.463-.116-.463.009 0 .116.019.238.042s.428.063.679.089c.718.073 1.059-.029.96-.288-.05-.132-.044-.136.451-.244l.73-.197c.431-.145 1.123-.496 1.088-.552-.271-.439-1.041-1.407-1.119-1.407-.02 0-.087-.067-.15-.149-.102-.133-.108-.163-.062-.286.069-.183.028-.217-.507-.421-.272-.104-.474-.211-.551-.293s-.166-.129-.246-.129c-.13 0-.935-.174-1.352-.292l-.242-.069.506-.475.506-.475-.004-.316c-.004-.353-.04-.415-.283-.478l-.154-.04.011-.316.011-.316-.915-.001-2.227-.111c-.043-.017-.129-.118-.192-.224l-.113-.194-.216.181-.24.221c-.014.022-.061.059-.105.083-.068.036-.105.003-.243-.22-.259-.42-.363-.435-.735-.105-.12.107-.235.194-.255.194-.052 0-.16-.132-.244-.298-.04-.079-.102-.143-.138-.143zm3.016 5.889l.485.044 1.499 1.19-.22.176-1.058-.661z" class="C"/><path d="M-1669.121-522.833c-.034 0-.24.169-.457.376-.306.291-.366.394-.268.455.104.064.105.101.01.196s-.133.092-.202-.019c-.074-.12-.103-.118-.236.015-.303.303-.124 2.645.203 2.645.063 0 .138-.038.168-.085s.274-.113.544-.147c.392-.049.579-.023.919.128 1.032.456 1.432.985 1.478 1.952.017.351-.008.627-.056.627s-.086.056-.086.125c0 .192-.462.664-.868.887-.248.136-.529.201-.881.205-.696.007-.783.144-.549.865.294.905.462 1.227.813 1.557.392.369 1.083.701 1.326.638.11-.029.268.067.461.28.161.178.385.359.497.402s.327.249.478.457l.275.379.106-.422c.058-.232.118-.421.133-.421.084 0 1.434.82 1.769 1.074h-.002c.218.166.436.301.485.301.093 0-.043-.313-.239-.55-.162-.197-.282-1.186-.353-2.934-.022-.543-.092-.914-.229-1.222-.229-.514-.243-.623-.075-.558.067.026.428.08.802.121.789.086 1.138-.009.998-.27-.077-.144-.017-.174.531-.269.34-.059.874-.238 1.187-.398l.569-.291-.329-.491c-.181-.27-.51-.657-.73-.86-.322-.297-.38-.395-.294-.499.141-.169.044-.248-.533-.435-.26-.084-.496-.213-.524-.286-.052-.135-.154-.16-.227-.099l-.395-.086c-.035-.014-.184-.048-.465-.106-.391-.081-.711-.18-.711-.218s.229-.268.509-.51c.477-.412.506-.462.481-.807-.024-.323-.057-.372-.273-.397-.225-.026-.241-.055-.194-.344l.051-.315-.998-.013-1.227-.033-.603-.033c-.297-.01-.399-.06-.495-.239l-.121-.226-.32.281-.32.281-.188-.33c-.222-.389-.376-.412-.665-.1-.117.126-.257.229-.31.229s-.145-.103-.202-.229-.132-.229-.167-.229zm1.126.466c.044.004.066.042.066.114s.102.217.227.334c.199.187.246.197.39.085.09-.07.197-.169.239-.22.049-.059.092-.051.122.023.026.063.218.119.429.125s.498.037.64.069l.258.058-.189.202c-.104.111-.189.265-.189.342s-.143.269-.317.427c-.473.431-1.842 1.174-1.99 1.08-.067-.043-.236-.078-.375-.079-.209-.001-.252-.042-.252-.236 0-.326.267-1.111.422-1.24.144-.12.173-.359.043-.359-.047 0-.212.107-.367.237-.266.224-.282.227-.282.051 0-.274-.158-.324-.283-.09-.114.213-.142 1.124-.043 1.434.048.152.007.186-.266.218-.368.043-.417-.035-.372-.613l.038-.619c.006-.159.061-.252.147-.252.076 0 .138-.038.138-.085s.052-.141.115-.209.183-.245.268-.394c.143-.252.378-.432.34-.26-.029.129.117.398.216.398.051 0 .234-.124.406-.275.212-.186.35-.274.424-.268zm3.287.543c.63 0 .821.028.785.115l-.111.274c-.083.207.191.321.424.176.256-.16.356-.129.356.109 0 .249-.245.541-.825.983-.227.173-.426.344-.442.381-.064.143.045.195.442.209l.509.033 1.003.22a.35.35 0 0 0-.026.108c-.013.158.028.224.14.224a5.93 5.93 0 0 1 1.115.257c.022.017-.031.082-.117.145-.14.102-.089.185.492.801l.797.847c.082.088.132.171.111.183-.409.247-1.067.446-1.481.447-.087 0-.183.039-.212.086s-.236.086-.46.086c-.424 0-.503.081-.27.275.33.274.091.306-1.008.135-.342-.053-.616-.188-1.077-.532-.34-.254-.619-.491-.619-.526s-.164-.131-.364-.211c-.359-.144-.644-.122-.644.05s.213.485.447.67c.129.102.295.255.368.34s.313.208.532.273c.336.099.43.182.597.528.124.256.208.627.223.989.014.319.065.723.113.899.053.192.055.32.004.32-.113 0-.108.527.005.565.049.017.11.196.136.397l.101.619c.064.294-.034.321-.292.081a2.26 2.26 0 0 0-.392-.282c-.233-.125-.542-.378-.946-.777-.304-.3-.433-.225-.437.252v.26l-.379-.3a3.84 3.84 0 0 1-.638-.672l-.402-.576c-.179-.254-.45-.182-.379.101.068.272-.069.479-.232.346-.637-.519-.812-.719-1.068-1.229-.401-.797-.39-.891.095-.882.214.004.549-.059.745-.141l.39-.148c.11 0-.08.783-.256 1.055-.033.051-.089.247-.124.435-.053.281-.038.343.083.343.081 0 .148-.047.148-.105 0-.086.423-1.04.517-1.167.061-.082.583.508.583.659 0 .269.269 1.007.456 1.254.227.298.348.167.194-.208-.179-.436-.229-.799-.11-.799.11 0 .143.029 1.041.903.511.498.591.548.553.346-.025-.13-.102-.283-.172-.341s-.127-.158-.127-.221-.351-.446-.779-.85l-.779-.79c0-.031.072-.056.16-.057.224-.001.964-.387 1.009-.526.051-.158-.167-.143-.526.035-.165.083-.471.169-.679.192-.319.035-.413.004-.6-.196l-.222-.238.188-.206c.353-.387.478-.693.552-1.352.026-.227.093-.443.151-.48s.338-.068.623-.069l.519-.001.703.665c.61.577 1.151.919 1.146.726-.001-.033-.248-.329-.549-.657s-.549-.63-.549-.672c-.002-.097.744-.055.883.049.058.043.14.071.183.061.085-.02.545.085.766.175.076.031.179.062.229.07s.174.047.275.088l.492.197a1.91 1.91 0 0 0 .587.124c.273 0 .275-.004.111-.184-.092-.101-.325-.232-.519-.29s-.352-.14-.352-.182-.031-.069-.069-.058-.308-.072-.6-.183-.63-.202-.751-.202c-.341 0-.359-.161-.026-.232.164-.035.34-.097.391-.137s.212-.087.36-.104c.478-.055.394-.26-.107-.26-.248 0-.48.029-.515.064-.143.143-1.145.413-1.639.441-.48.028-.519.016-.44-.131.048-.089.294-.302.547-.474s.463-.345.463-.384c.01-.301-.813.026-1.252.498-.657.707-1.14.816-1.352.308-.073-.176-.311-.489-.528-.696-.253-.241-.353-.392-.278-.422.243-.096.997-.51 1.305-.717.288-.194 1.058-.443 1.65-.533.121-.018.236-.081.255-.14.037-.11-.172-.136-.871-.108l-.387.015.099-.283c.054-.156.075-.344.046-.419-.044-.115.081-.136.78-.136zm-.99 5.05c.061-.013.245.119.564.403.252.224.41.409.351.411-.14.005-.875-.558-.925-.707-.021-.065-.019-.101.009-.107z" fill="#044617"/><path d="M-1675.667-497.612l-.144.007c-.278.015-.336.029-.588.151-.244.117-.311.17-.527.417-.073.083-.137.165-.18.229l-.048.077-.005.08a.15.15 0 0 1-.266.094l-.08-.096a.72.72 0 0 1-.104-.189c-.033-.075-.065-.162-.091-.248-.035-.116-.057-.159-.072-.192a.36.36 0 0 1-.145 0 1.94 1.94 0 0 1-.272-.078c-.285-.098-.267-.097-.52-.06-.148.022-.229.049-.267.075s-.059.055-.088.146c-.033.102-.106.265-.175.398s-.081.184-.07.253.065.181.187.368c.093.143.195.321.243.432.1.232.101.545.057.862s-.134.629-.287.843c-.524.732-1.436 1.021-2.195.674-.137-.063-.21-.085-.28-.086s-.161.023-.325.084a2.39 2.39 0 0 1-.537.132l-.357.046v.045c0 .211-.088.468-.219.753s-.309.588-.507.849c-.13.171-.284.438-.407.696s-.218.519-.238.649c-.024.153-.039.43-.039.673l.01.321.011.104c.009.015.017.016.047.017a1.72 1.72 0 0 0 .373-.057c.156-.036.261-.065.383-.022a.29.29 0 0 1 .145.123.52.52 0 0 1 .055.156c.006.029.009.031.014.045.011-.008.083-.033.219-.14.044-.035.076-.064.129-.09.027-.013.064-.029.119-.022s.107.049.13.083c.045.07.044.117.052.186l.021.269a7.8 7.8 0 0 0 .094.664l.064.328.011.044.134-.067c.141-.074.399-.287.824-.701l.449-.424.151-.132.053-.041.028-.018c.012-.006.013-.022.082-.022s.089.017.124.033c.022.01.045.024.067.037l.009-.029.083-.329.085-.344.035-.119.016-.044c.006-.014.003-.022.032-.057-.026.031.001-.005.014-.057s.028-.126.043-.218l.084-.731.048-.565a.15.15 0 0 1 .278-.067l.095.153.042.063c.046-.011.079-.017.109-.02.015-.002.028-.003.048-.002.01.001.021 0 .047.008a.14.14 0 0 1 .054.031c.024.021.051.067.051.113l-.001-.015.004.023.012.073.041.234c.056.32.141.536.205.617.032.041.047.042.049.043s.016.002.055-.033c.019-.017.036-.033.06-.05s.066-.042.125-.038.102.038.124.059.034.04.049.059c.062.085.097.186.125.292.034.131.068.194.083.21s.023.022.102.023c.12.001.24.02.352.095s.222.189.412.389c.171.18.421.413.528.495a5.17 5.17 0 0 0 .427.28l.174.099.006-.023a4.31 4.31 0 0 0 .055-.471l.051-.464c.013-.05.031-.102.08-.146a.24.24 0 0 1 .154-.055c-.032 0-.019.003-.007-.004s.028-.02.036-.029c.013-.015.006 0 .01-.018a.86.86 0 0 0 .005-.168l-.107-1.266-.02-.285-.002-.1.002-.041c.001-.014-.012-.018.025-.078.047-.077.101-.08.14-.086s.065-.001.098.005c.003-.015.016-.059.014-.168-.005-.234-.181-.939-.277-1.128-.052-.102-.118-.18-.178-.225s-.108-.055-.136-.05c-.101.016-.218.006-.3-.073s-.1-.183-.105-.293c-.003-.063-.013-.123.038-.2.026-.039.068-.067.103-.08s.062-.016.089-.019c.145-.015.256.048.404.136s.319.213.504.371l.159.135.052-.081c.109-.171.195-.288.298-.371s.229-.119.351-.119c.314 0 .596.223.955.655l.162.195.055-.157.158-.455c.055-.108.125-.182.222-.278s.125-.141.13-.187-.016-.138-.089-.309c-.209-.485-.309-.785-.405-1.212-.122-.544-.207-.855-.285-1.007-.039-.076-.07-.109-.101-.129s-.071-.033-.142-.041l-.191-.022a.15.15 0 0 1-.133-.139l-.02-.281c-.009-.122-.02-.188-.025-.202a.41.41 0 0 0-.21-.019c-.113.011-.267.043-.456.097l-.231.062c-.062.014-.114.032-.197-.001-.041-.016-.084-.056-.104-.095s-.022-.073-.023-.101c-.002-.057.006-.104.014-.166l.037-.224zm1.17.444zm-9.69 8.084c.007.022.004.014 0 0zm7.03-7.632v-.023.023zm.229 1.56l.443.323-.04.524-.484.04-.282-.282-.161-.282z" class="C"/><path d="M-1675.859-497.754c-.325 0-.996.329-1.082.531-.017.04-.101.132-.188.206s-.157.185-.157.248c0 .266-.209.013-.289-.349-.062-.281-.112-.369-.175-.306s-.166.051-.36-.045-.376-.119-.636-.08c-.33.05-.374.084-.464.363-.054.17-.132.344-.172.387-.127.137-.08.381.125.656.333.446.417.83.293 1.332l-.112.49c-.003.03-.109.188-.238.35-.468.587-1.36.803-1.971.477-.28-.149-.298-.149-.653.004a2.15 2.15 0 0 1-.701.157c-.267 0-.325.026-.286.128.073.19-.335 1.141-.648 1.51-.246.291-.522.793-.68 1.239-.089.252-.142 1.115-.082 1.352.055.219.084.221.729.062.194-.048.233-.026.28.162.066.261.117.268.393.051.117-.092.226-.167.242-.167s.034.152.039.337a5.75 5.75 0 0 0 .114.834l.118.497c.007 0 .161-.075.343-.165s.579-.437.883-.769c.488-.533.569-.59.69-.49.075.063.148.099.161.081.042-.058.161-.566.252-1.016l.04.014c.091-.272.136-.761.167-1.197l.028-.5c.021-.002.066.054.118.149.1.184.152.214.24.141s.124-.006.171.373c.067.539.296.898.466.731s.226-.126.334.234c.09.302.126.336.336.314.193-.02.294.047.568.378a4.47 4.47 0 0 0 .813.722h0c.264.175.518.31.564.298s.094-.293.108-.626c.02-.489.048-.596.146-.559.077.03.111-.01.118-.128l.094-.01-.115-1.111c.017-.047.012-.175-.015-.4-.05-.423-.041-.485.07-.442.251.096.261-.315.026-1.116-.155-.528-.381-.785-.624-.708-.122.039-.175.004-.212-.137-.116-.444.232-.379.863.162l.326.279.213-.337c.316-.5.728-.412 1.294.275l.333.404.09-.237a3.52 3.52 0 0 0 .136-.464c.025-.124.135-.285.244-.356.252-.165.25-.331-.01-.842-.115-.226-.244-.626-.287-.89s-.103-.519-.132-.568a.91.91 0 0 1-.077-.293c-.022-.198-.26-.536-.368-.522-.296.037-.357-.022-.33-.326.025-.289.009-.315-.207-.34-.129-.015-.398.029-.598.097s-.382.105-.405.082-.021-.17.004-.326l.046-.284zm-.019.376c.016 0 .028.004.036.011.047.047-.202.557-.292.598-.081.037.017.266.114.266.044 0 .274-.09.512-.2.679-.314.832-.346.782-.163-.127.464-.135.594-.036.59.5-.018.606.029.746.336.168.367.316.91.263.963-.043.043.426.864.618 1.079.072.081.102.174.068.208s-.135-.032-.224-.146c-.311-.401-.55-.627-.832-.786-.328-.185-.407-.195-.888-.113-.306.052-.407.026-.756-.19-.876-.545-1.768-.458-1.768.172 0 .397.493.797.868.703.189-.047.535-.345.487-.42-.13-.205.152-.268.316-.071.059.071.155.111.213.088s.145.007.193.064c.059.071.249.093.591.068.429-.031.547-.007.794.161.16.109.291.228.291.266s.057.125.126.194c.138.138.165.28.053.28-.081 0-.059.35.033.516.033.06-.116-.067-.331-.283-.305-.305-.471-.404-.751-.446-.422-.063-.689.051-.728.31-.027.187-.235.324-.235.156 0-.146-.427-.487-.745-.596-.266-.091-.3-.081-.483.131-.195.226-.195.23-.042.491.123.21.21.263.426.263.288 0 .547.24.472.436-.023.059 0 .21.048.336.203.522.166.742-.084.5-.076-.074-.091 0-.066.326l-.013.001.18 1.723c-.031.029-.103.013-.162-.036-.188-.156-.264-.013-.192.361.08.411.098.982.031.982-.025 0-.271-.188-.546-.417s-.528-.417-.561-.417-.131-.132-.218-.293c-.216-.401-.371-.524-.467-.369-.061.099-.094.091-.195-.046-.067-.091-.1-.198-.076-.238s.008-.097-.037-.126-.118-.166-.164-.303c-.109-.333-.321-.367-.422-.067-.075.224-.081.217-.14-.173-.077-.507-.207-.802-.355-.802-.062 0-.157-.095-.21-.212-.124-.273-.316-.241-.354.024l-.072-.002-.041.802-.074.73c-.053.028-.086.129-.092.284-.006.161-.046.358-.089.438-.079.148-.094.204-.094.357 0 .057-.058.055-.174-.007-.163-.087-.285-.055-.285.075 0 .142-.562.909-.81 1.104-.439.346-.454.327-.519-.654-.027-.419-.01-.521.088-.521.068 0 .178-.133.246-.295s.152-.277.188-.255.067-.042.07-.143c.008-.258.117-.558.204-.558.041 0 .074.056.074.125 0 .188.577.79.709.739.123-.047.084-.242-.09-.447-.187-.221-.471-1.084-.405-1.234.034-.078.066-.195.07-.26.01-.143.216-.229.216-.09 0 .133.326.583.423.583.104 0 .1-.31-.006-.375-.046-.028-.083-.126-.083-.217s-.114-.383-.252-.65c-.323-.62-.276-.759.251-.759.407 0 .939-.174 1.176-.384.115-.102.15-.098.265.029.073.081.133.165.133.188s.027.11.059.193.023.414-.021.734-.057.596-.031.613c.129.08.3-.204.325-.539.029-.387.167-.635.241-.433.022.06.108.172.191.25s.18.291.216.475c.079.409.079.49-.003.946-.043.237-.033.394.027.454.139.139.264-.031.319-.435.078-.583.232-.352.232.347 0 .731.073.872.243.471.106-.25.127-.264.177-.117.154.452.312.724.367.635.073-.117.011-.593-.076-.593-.035 0-.082-.141-.105-.313a3.23 3.23 0 0 0-.261-.766l-.219-.479c0-.077.324-.009.464.096.202.153.537.165.537.019 0-.102-.654-.568-.863-.614l-.263-.06-.215-.045c-.027-.003-.164-.166-.306-.361s-.41-.504-.595-.688-.337-.371-.34-.417.071-.233.161-.417.185-.468.21-.633c.04-.261.089-.314.378-.409.183-.06.332-.138.332-.172 0-.167 2.653-.26 2.855-.1.191.15.543.196.589.077.023-.061.018-.151-.012-.2-.065-.106-1.013-.365-1.112-.304-.038.023-.069.002-.069-.048s.09-.125.2-.166c.244-.093.346-.24.24-.347-.05-.05-.276.032-.613.222-.443.25-.633.307-1.118.332-.745.039-.817.049-.918.125-.046.034-.205.088-.354.12s-.271.097-.271.145-.054.042-.131-.022c-.072-.06-.112-.179-.09-.265s-.01-.176-.078-.202-.119-.112-.119-.193-.051-.19-.113-.242c-.089-.074-.095-.165-.025-.424.085-.318.099-.328.377-.284.461.073.738.333.849.793.053.223.138.405.187.405.13 0 .394-.258.394-.384 0-.059.049-.138.108-.175s.194-.189.298-.338.243-.271.308-.271.119-.032.119-.07c0-.076.294-.224.407-.221zm-1.023 2.492c.058-.005.1.028.155.103.06.082.09.197.068.257h0c-.056.146-.234.135-.393-.023-.167-.167-.165-.178.043-.29.053-.028.093-.044.128-.047zm-4.805 1.723a.56.56 0 0 1 .297.119c.1.076.13.148.079.188-.046.035-.091.177-.101.314-.03.433-.506 1.218-1.003 1.655-.532.467-.171.499.416.037.33-.26.399-.192.197.195a3.86 3.86 0 0 0-.224.646c-.097.379-.135.428-.329.428-.127 0-.303.088-.416.208-.234.249-.334.264-.334.052 0-.086-.058-.205-.129-.264-.106-.088-.181-.082-.42.032l-.315.139c-.047 0-.003-.629.058-.834.076-.254.493-1.11.569-1.168.134-.102.641-1.186.602-1.288-.059-.155.091-.231.494-.251.187-.009.355-.061.373-.114.023-.068.095-.098.185-.094z" fill="#003718"/><path d="M-1697.144-548.643s.833.062.432-.463" class="E G P"/></g></g><defs ><path id="B" d="M749.442 29.162l-20.685-1.514s-8.072-8.072-17.658-7.315c0 0 3.027 2.523 2.523 4.793 0 0-23.964-1.009-28.757 23.207l6.559-1.766s-7.82 9.081-3.279 18.162l8.577-1.009s-6.054 6.054-7.315 12.613c0 0 8.829-.505 12.108-1.514"/><path id="C" d="M743.64-.856s-7.315-15.135-49.946-8.577l1.514 4.036s-9.586.505-10.847 3.784l3.279 2.775s-6.054.505-7.315 3.784c0 0 11.856 3.279 14.378 7.315"/><path id="D" d="M687.135-3.126S664.18.153 656.36 8.477l6.306 2.018s-14.631 0-23.207 7.568-11.099 12.36-11.099 12.36l5.802-.505s-9.081 14.883-11.604 17.658-7.315 8.324-7.315 8.324 13.622.757 20.18-4.036l2.018 4.793s20.18-2.775 22.45-5.045c0 0-12.36 6.559-16.144 7.82s-18.162 4.541-20.685 11.856l6.559 1.514S617.009 83.144 616 89.198l4.541.252s-1.766 8.072-14.631 15.892c0 0 11.099 3.784 28.505-5.297 0 0 2.523 3.532 1.261 4.541 0 0 9.838-1.009 20.685-11.351v6.054s5.802-2.775 8.072-6.306"/><path id="E" d="M705.297 26.135l-19.171-1.514-6.559-4.036s-19.423-5.802-22.955 3.784c0 0-18.162 2.018-20.685 18.919 0 0 2.775-2.27 5.802-2.018s5.297.252 5.297.252l.757 1.766 9.081-.252h3.279l-2.775 5.045 17.153.505"/><path id="F" d="M687.892 40.513s-26.739 9.838-20.685 30.018l-3.027 5.297 3.784-1.009s-7.315 10.09-3.532 18.414c0 0 11.604-3.532 13.622-7.315"/><path id="G" d="M-386.75-354.579s1.592-1.048.541-2.74-.233-2.859.233-3.384 1.109-1.809.934-2.567 1.575.292 1.342 1.459-.525 1.4.175 2.042.817 1.342.875 1.575.817.525 1.167-1.225 1.05-.525 1.75-.233 2.567.642 3.092.525.817 1.634 1.925 2.101c0 0-2.042-.525-3.268.642s-.934.175-1.925.117-1.342.233-1.4.642-.117 1.167.467 1.342 2.82.487 3.229.196-2.762 2.022-3.929 1.73c-.803-.201-2.019-1.284-2.947-1.714-.421-.195-1.442.186-1.678.404"/><path id="H" d="M-386.282-354.129c.784-.371 1.113-1.732 1.263-3.181.141-1.365-.346-1.959.228-3.527.385-1.288.714-1.715-.18-2.802"/><path id="I" d="M-385.563-354.926s2.087-2.624 3.28-2.266 1.431-.537 1.491-1.073c.04-.356.304-.763 1.917-.353.815.207 1.886.446 3.628 1.367"/><path id="J" d="M-385.503-354.867c1.908-1.193 2.624.477 3.637 1.073s3.413.016 3.413.016"/><path id="K" d="M-396.449-335.446s-1.934.925-2.003-.041.897-1.725.897-2.484 0-2.76-.69-2.07-.897.759-.828 1.311-1.242-2.691-1.242-3.381-1.035-.207-1.035 1.38.483 2.898.276 3.105-.897.759-1.242-.345-2.208-2.484-2.484-1.587-1.38.345-1.656.759.414.759 0 1.311-1.242.069-.897.966-.414.897-.414 1.38 2.001 1.173 3.864 0 1.863.552 1.38.621-1.863.621-1.863 1.518-.207 1.518 1.656.759 2.07-.207 3.795-1.932c.276-.414 1.035-.138 1.104.414s.966-1.932.966-1.932z"/><path id="L" d="M-394.721-357.565s-.614-.614-.351-1.14 1.885-1.184 1.842-1.622-.132-1.184-.526-1.798-.175-1.885.307-2.236-1.622.175-1.842 1.842-1.315 1.184-1.491.702.395-2.149-.482-2.324-1.096.132-1.272.482-1.052-1.096-1.403-.614-.833.526-.658 1.535c-1.14.044-1.622.088-1.535.877s.395.57.57.965-.044.833 0 1.14.482.57 1.14.088 1.315-.438 1.403.175-.132.702-1.009 1.535-.921.877-.482 1.272 1.184.877 2.412-.438 1.798-1.272 1.929-1.009l.472.922"/><path id="M" d="M-383.601-345.921c-.035-1.928-2.337-2.965-2.337-2.965s.161-.943.372-.931 2.158 1.417 2.997 2.99"/><path id="N" d="M-397.677-327.109c-.468-1.871 1.203-2.739 1.203-2.739s-.401-.869-.601-.802-1.67 1.47-2.071 3.207"/><path id="O" d="M-391.905-358.183a6.69 6.69 0 0 0-1.145.112c-3.858.732-4.946 3.503-4.817 5.027l.155.404.555-.358s-.379-2.163 2.055-3.515c1.053-.585 2.319-.724 3.518-.544l.017-1.116-.337-.01z"/><path id="P" d="M-390.55-358.054l.021 1.242c1.142.363 2.129 1.011 2.672 1.814 1.244 1.838 1.298 3.082.865 4.921s-2.271 4.055-3.299 5.299l-6.381 7.678c-1.244 2.055-1.027 3.082-.973 3.893s.378 3.028 2.163 4.596l3.425 2.919.033-2.26-1.037-.76c-.816-.554-1.35-1.164-1.735-1.801-.6-1.01-1.081-2.365-1.158-3.665a4.46 4.46 0 0 1 .293-1.648c.593-1.562 1.961-3.046 3.348-4.557 2.418-2.631 5.531-5.853 6.688-9.676 1.012-3.389-.809-5.615-1.416-6.222-.366-.366-1.656-1.41-3.508-1.772z"/><path id="Q" d="M-390.926-361.295c-.616-.088-.617 1.497-.617 1.497l-.261 16.747 1.213-1.379.017-6.121s.265-10.656-.352-10.744z"/><path id="R" d="M-390.597-342.262l-1.239 1.361-.235 16.154c-.088 7.31-1.409 11.096-1.409 11.096l3.522-.528c-.969-1.057-.704-4.492-.704-4.492z"/><path id="S" d="M-390.64-326.738l-.007 2.493.518.662c1.352 1.893 2.055 6.543 1.298 8.597 0 0-.459.886-.636 1.019s.794.309 1.147-.132-.176.706.132.926 2.388.309 2.652-.794.913-.58.913-.58c-.152-.304-1.942-3.743-2.549-6.526-.429-1.964-1.714-3.953-3.468-5.665z"/><path id="T" d="M-393.8-363.923s-.474.684-.616 1.237a1.82 1.82 0 0 0 .046 1.043c.263.745-.702 2.017-1.71 2.455-.206.313.207.033-.223.112-.484.089-1.537.413-2.173.764-.716.395-1.047 1.5-2.252 1.272"/><path id="U" d="M-395.28-357.356c-.127-.841-2.741-5.441-5.427-5.371"/><path id="V" d="M-397.214-364.106c-.814 0-.93 2.376-.839 2.858 0 0-1.372-.368-2.473.324-.091.057-.925 1.023-.967 1.101"/><path id="W" d="M-386.092-355.102s.934-.525-.117-2.217-.233-2.859.233-3.384 1.109-1.809.934-2.567 1.575.292 1.342 1.459-.525 1.4.175 2.042.817 1.342.875 1.575.817.525 1.167-1.225 1.05-.525 1.75-.233 2.567.642 3.092.525.817 1.634 1.925 2.101c0 0-2.042-.525-3.268.642s-.934.175-1.925.117-1.342.233-1.4.642-.117 1.167.467 1.342 1.517.292 1.925 0-1.459 2.217-2.626 1.925-3.209-2.451-3.968-1.75"/><path id="X" d="M-385.566-361.21s-.35 1.673.35 2.432.7 1.05.7 1.05"/><path id="Y" d="M-383.991-360.879c-.292 1.167-.408 5.426-1.867 6.302"/><path id="Z" d="M-385.503-354.867c1.908-1.193 2.624.477 3.637 1.073s2.862-.239 2.862-.239"/><path id="a" d="M-407.628-335.555s1.863-1.173 3.933-1.242c0 0 .69-2.415-2.001-2.277"/><path id="b" d="M-406.593-338.522s1.035 1.449 4.623 2.001c2.021.423 3.578 2.198 4.168 1.86"/><path id="c" d="M-404.248-332.037s.828-1.656 2.277-1.725 2.139-1.932 2.139-1.932"/><path id="d" d="M-404.245-312.824s4.088 0 5.743.876c1.363.681.779-.876 4.77-.195 2.044-1.168 5.646-.292 7.106 0 1.752-.389 1.947-.292 5.354.292 1.655-.389 4.964-.681 6.23-.195 0 0-3.699-1.46-4.672-1.46s-2.823-.973-4.478-.584c-1.557-.779-7.884-1.265-9.442-.097-1.849-.195-4.283-.389-5.354 1.071 0 0-2.141-.876-5.256.292z"/></defs></svg>