<svg xmlns="http://www.w3.org/2000/svg" width="750" height="500" xmlns:v="https://vecta.io/nano"><clipPath id="A"><path d="M0 0h1000v666.667H0V0z"/></clipPath><path d="M.001.005h749.997v499.99H.001V.005z" opacity="NaN" fill="#000f5d" transform-origin="375px 250px"/><g fill="#ffb900"><path d="M346.554 222.899c-.038-.045-.076-.1-.113-.154-18.529-22.737.765-33.618.685-49.705 12.084 20.987-5.161 25.641 15.324 49.875l-15.896-.016zm20.031.013c-6.639-8.982-11.104-24.566-8.815-33.848 1.829-7.413 8.75-15.504 7.064-25.437 1.544 2.562 5.203 9.514 6.4 16.071 5.832-15.071 17.337-22.088 32.177-21.763-28.454 21.622 8.544 38.045-16.016 65.003l-20.81-.026zm26.083.038c7.478-11.212 9.199-17.426 9.141-23.205-.045-4.544-.543-10.22-1.013-13.512-.944-6.607 3.731-15.006 13.728-16.825-1.716 1.829-3.236 5.669-4.017 7.581-.926 2.268-1.218 4.561-.632 8.555 1.225 4.641.654 11.426-.896 14.413-1.483.409 6-12.009 10.061-12.329-3.813 6.541-2.322 15.766-7.793 24.794-2.014 3.324-5.474 7.131-9.725 10.527m-12.916 58.954c1.008-25.563 6.477-33.53 16.847-44.221-20.122-.048-42.609.011-60.906-.064 10.326 10.707 15.85 18.743 16.804 44.303l27.255-.018zm-13.667 62.282l7.961 24.97 4.397-74.147c-8.198-.028-16.396.024-24.594.012l4.22 74.119 8.016-24.954zm.009 111.963c3.512-3.257 4.509-13.866 4.509-13.866l2.185-45.299-6.635-4.662-6.649 4.647 2.115 45.31s.942 10.579 4.459 13.873l.016-.003z"/><path stroke="null" d="M356.245 284.33h37.509v8.35h-37.509v-8.35z" opacity="NaN"/><g fill-rule="evenodd"><path d="M344.811 115.084h23.062L375 93.176l7.127 21.908h23.062l-18.658 13.539 7.127 21.907L375 136.991l-18.658 13.539 7.127-21.907-18.658-13.539zm9.047-71.637h16.151L375 28.099l4.991 15.348h16.151l-13.067 9.486 4.991 15.347L375 58.795l-13.066 9.485 4.991-15.347-13.067-9.486zm95.756 26.107h16.151l4.991-15.348 4.991 15.348h16.151l-13.067 9.485 4.991 15.348-13.066-9.486-13.066 9.486 4.991-15.348-13.067-9.485zm70.587 62.608h16.151l4.99-15.348 4.991 15.348h16.151l-13.066 9.485 4.991 15.348-13.067-9.486-13.066 9.486 4.991-15.348-13.066-9.485zm-181.047 94.561h71.692v6.756h-71.692v-6.756zm219.096-4.504h16.151l4.991-15.348 4.99 15.348h16.151l-13.066 9.485 4.991 15.348-13.066-9.485-13.067 9.485 4.991-15.348-13.066-9.485zm-12.417 99.846h16.151l4.99-15.347 4.991 15.347h16.151l-13.066 9.486 4.991 15.348-13.067-9.486-13.066 9.486 4.991-15.348-13.066-9.486zm-55.115 77.118l16.151.001 4.991-15.348 4.991 15.348 16.151-.001-13.067 9.486 4.991 15.348-13.066-9.486-13.066 9.486 4.991-15.348-13.067-9.486zm-83.862 47.884h16.151l4.991-15.347 4.991 15.347h16.151l-13.067 9.486 4.991 15.348-13.066-9.486-13.066 9.486 4.991-15.348-13.067-9.486zm35.947-112.008l16.151.001 4.991-15.348 4.991 15.348 16.15-.001-13.066 9.486 4.991 15.348-13.066-9.486-13.067 9.486 4.992-15.348-13.067-9.486zm38.083-89.399h16.151l4.99-15.348 4.991 15.348h16.151l-13.066 9.485 4.991 15.348-13.067-9.486-13.066 9.486 4.991-15.348-13.066-9.485zM353.858 372.054h16.151L375 356.706l4.991 15.348h16.151l-13.067 9.485 4.991 15.348L375 387.401l-13.066 9.486 4.991-15.348-13.067-9.485zm-53.472-302.5h-16.151l-4.991-15.348-4.991 15.348h-16.151l13.067 9.485-4.991 15.348 13.066-9.486 13.066 9.486-4.991-15.348 13.067-9.485zm-70.587 62.608h-16.151l-4.99-15.348-4.991 15.348h-16.151l13.066 9.485-4.991 15.348 13.067-9.486 13.066 9.486-4.991-15.348 13.066-9.485zm-38.049 90.057h-16.151l-4.991-15.348-4.99 15.348h-16.151l13.066 9.485-4.991 15.348 13.066-9.485 13.067 9.485-4.991-15.348 13.066-9.485zm12.417 99.846h-16.151l-4.99-15.347-4.991 15.347h-16.151l13.066 9.486-4.991 15.348 13.067-9.486 13.066 9.486-4.991-15.348 13.066-9.486zm55.115 77.118l-16.151.001-4.991-15.348-4.991 15.348-16.151-.001 13.067 9.486-4.991 15.348 13.066-9.486 13.066 9.486-4.991-15.348 13.067-9.486zm83.862 47.884h-16.151l-4.991-15.347-4.991 15.347H300.86l13.067 9.486-4.991 15.348 13.066-9.486 13.066 9.486-4.991-15.348 13.067-9.486zm-35.947-112.008l-16.151.001-4.991-15.348-4.991 15.348-16.15-.001 13.066 9.486-4.991 15.348 13.066-9.486 13.066 9.486-4.991-15.348 13.067-9.486zm-38.083-89.399h-16.151l-4.99-15.348-4.991 15.348h-16.151l13.066 9.485-4.991 15.348 13.067-9.486 13.066 9.486-4.991-15.348 13.066-9.485zm-71.006-23.063l.401 3.637L329.13 211.26l-.402-3.638-130.62 14.975z" clip-path="url(#A)"/><path d="M373.145 143h3.709v20h-3.709v-20z" clip-path="url(#B)"/><path d="M292.282 98.296l3.02-2.154 47.037 65.942-3.02 2.154-47.037-65.942z" clip-path="url(#C)"/><path d="M224.67 144.49l1.389-3.439 106.626 43.079-1.389 3.439L224.67 144.49z" clip-path="url(#D)" transform="matrix(.999925 -.012217 .012217 .999925 -1.986479 3.416923)"/><path d="M420.871 211.259l.401-3.637 130.621 14.974-.402 3.638-130.62-14.975z" clip-path="url(#E)" transform="matrix(-1 0 0 -1 972.763993 433.856028)"/><path d="M407.661 162.084l3.02 2.154 47.037-65.942-3.02-2.154-47.037 65.942z" clip-path="url(#F)" transform="matrix(-1 0 0 -1 865.378983 260.379987)"/></g><path d="M332.691 114.373l-16.091-8.25 1.119-2.185 16.092 8.251-1.12 2.184zm3.74-6.942l-13-12.567 1.868-1.933 15.315 3.057.924.209c.278.077.525.163.742.257l-10.539-10.187 1.63-1.686 13 12.567-1.851 1.916-15.575-3.053c-.238-.047-.476-.107-.714-.178l-.717-.266 10.539 10.188-1.622 1.676zm14.726-29.815l-3.934 1.534 5.007 12.843 3.935-1.534c1.685-.656 2.746-1.698 3.182-3.125.434-1.433.233-3.222-.602-5.364-.801-2.051-1.851-3.451-3.154-4.2s-2.78-.8-4.434-.154zm-.411 17.328l-6.569-16.847 6.416-2.502c2.349-.916 4.418-.914 6.208.004 1.797.916 3.212 2.696 4.244 5.342 1.067 2.738 1.25 5.121.548 7.152-.697 2.019-2.204 3.482-4.523 4.386l-6.324 2.465zm18.005-6.124l-1.43-18.027 2.448-.193 1.43 18.026-2.448.194zm14.062-6.402l5.534 1.062-1.245-8.364-4.289 7.302zm-6.552 6.394l10.002-16.494 2.665.512 3.212 19.028-2.616-.502-.864-5.665-6.993-1.342-2.91 4.941-2.496-.478zm19.029 4.075l10.22-14.918 2.218 1.52-.457 15.61-.053.946c-.028.288-.072.546-.129.775l8.285-12.092 1.934 1.325-10.221 14.918-2.197-1.506.409-15.867.057-.734.143-.751-8.286 12.092-1.923-1.318zm23.128 10.774l3.003 4.768 5.262-6.619-8.265 1.851zm-9.144-.423l18.881-3.95 1.445 2.295-11.713 15.338-1.419-2.256 3.552-4.498-3.794-6.025-5.598 1.246-1.354-2.15z"/><path d="M425.34 180.891l1.286 3.184 98.714-39.882-1.286-3.184-98.714 39.882z" fill-rule="evenodd" clip-path="url(#G)" transform="matrix(-.999925 -.012217 .012217 -.999925 948.658547 330.879089)"/></g><clipPath id="B"><path d="M0 29.374h1000v533.334H0V29.374z"/></clipPath><clipPath id="C"><path d="M-4750.3-284.64H8745.78v1815.89H-4750.3V-284.64z"/></clipPath><clipPath id="D"><path d="M-10642-123.22h29122.2v1240.48H-10642V-123.22z"/></clipPath><clipPath id="E"><path d="M222.763 0h999.997v666.667H222.763V0z"/></clipPath><clipPath id="F"><path d="M-4634.9-284.64H8861.16v1815.89H-4634.9V-284.64z"/></clipPath><clipPath id="G"><path d="M-9635-103.65h26961.3v1148.43H-9635V-103.65z"/></clipPath></svg>