<svg version="1.0" width="750" height="500" xmlns="http://www.w3.org/2000/svg">
  <path style="font-size:12px;fill:#fff;fill-opacity:1;fill-rule:evenodd;stroke-width:1.43966" d="M0 .04289868h750v499.95453H0z"/>
  <path style="font-size:12px;fill:#bf0a30;fill-opacity:1;fill-rule:evenodd;stroke-width:1.01768994" d="M0 .04289868h750v250.06471H0z"/>
  <path style="font-size:12px;fill:#00205B;fill-opacity:1;fill-rule:evenodd;stroke-width:1pt" d="M0-.00000713h250.03131v500H0z"/>
  <path d="M37.394865 117.30837c-15.630966 8.72859-18.46516 12.36895-27.031932 19.06294l18.997861.39755c-.226171 1.76923-4.373446 23.79562-4.766668 25.35001 14.302787-9.50474 21.089463-13.86162 40.603749-19.35917 7.753654-2.15294-.6098-10.03069-1.416702-12.12628-5.301291 2.39271-9.37767 5.23388-13.285624 8.71545" style="font-size:12px;fill:#ffca00;fill-opacity:1;fill-rule:evenodd;stroke:#00205B;stroke-width:1;stroke-linejoin:miter;stroke-dasharray:none;stroke-opacity:1;stroke-miterlimit:4"/>
  <path d="M50.748679 139.16458c29.139196-26.69352 125.557691-26.05555 152.411821.82479.86636-.31158 18.23956-29.62117 17.3732-29.30958-52.72332-36.935002-147.194465-30.607397-186.84422-1.45924l.470322 1.73981 16.588877 28.20422z" style="font-size:12px;fill:#ffca00;fill-opacity:1;fill-rule:evenodd;stroke:#00205B;stroke-width:1;stroke-dasharray:none;stroke-opacity:1;stroke-miterlimit:4"/>
  <path d="M55.75715 127.58192c-.144708-.38131-8.472355-15.88903-8.472355-15.88903l13.630788 12.01247-3.171606-17.5521 8.927168 15.01847M105.19339 100.7945c.05942-4.741365 3.8591-5.060757 6.47447-4.240406 1.53423 1.170281 2.33972 4.984006.50095 7.157856l-3.69238 3.14689c-1.27674 1.59613-2.69048 3.4184-2.59887 5.42472l8.34212-.31857M120.3351 95.731315c-1.5235.744424-2.03601 1.922133-2.38924 3.665999-.22778 2.005486-.12627 6.747686.28391 8.707776.3656 1.45914.72873 2.41649 1.82391 3.37385 1.27673.72956 2.68964.59339 3.46542.0916 1.04813-.59256 1.7777-1.82392 2.14248-3.28305.59256-1.86932.54717-7.34026.13617-9.346569-.37963-1.336992-.85088-2.400808-1.91469-3.191449-1.27674-.547176-2.773-.428333-3.54796-.018157z" style="font-size:12px;fill:none;fill-rule:evenodd;stroke:#00205B;stroke-width:3.1249973799999999;stroke-linecap:round;stroke-linejoin:round;stroke-dasharray:none;stroke-opacity:1"/>
  <path d="M160.17579 100.28644c1.58797-.663219 2.79531-1.474962 4.11902-3.02987l-2.34335 16.51059" style="font-size:12px;fill:none;fill-rule:evenodd;stroke:#00205B;stroke-width:3.1249961900000001;stroke-linecap:round;stroke-linejoin:round;stroke-dasharray:none;stroke-opacity:1"/>
  <path d="M172.37541 99.441022c.19052.072186 7.93002 2.322368 7.93002 2.322368-3.7743 4.71527-6.86888 8.90389-9.39134 14.22719" style="font-size:12px;fill:none;fill-rule:evenodd;stroke:#00205B;stroke-width:3.1250007200000001;stroke-linecap:round;stroke-linejoin:round;stroke-dasharray:none;stroke-opacity:1"/>
  <path d="m187.06639 103.55472 7.67197 3.78416c-4.55497 3.25572-8.3003 7.35223-11.61492 12.14274" style="font-size:12px;fill:none;fill-rule:evenodd;stroke:#00205B;stroke-width:3.1250038099999999;stroke-linecap:round;stroke-linejoin:round;stroke-dasharray:none;stroke-opacity:1"/>
  <path d="m206.51697 113.48083-5.02517-2.94654-4.44429 6.01754c3.19234-.62939 5.33777.33484 6.25561 3.23184.56313 4.26717-1.99424 6.70295-4.75817 6.77913-2.90836-.06608-4.40949-1.6633-4.81875-5.01484" style="font-size:12px;fill:none;fill-rule:evenodd;stroke:#00205B;stroke-width:3.12499905;stroke-linecap:round;stroke-linejoin:round;stroke-dasharray:none;stroke-opacity:1"/>
  <path d="M70.938218 119.02279s.485182-17.92481.666418-17.90506c.07901-.72528 10.121614 14.8613 10.121614 14.8613h0M71.266913 112.63795l6.822745-2.00797" style="font-size:12px;fill:none;fill-opacity:1;fill-rule:evenodd;stroke:#00205B;stroke-width:3.1250014300000002;stroke-linecap:round;stroke-linejoin:round;stroke-dasharray:none;stroke-opacity:1"/>
  <path d="m31.438511 288.13873 9.968831.13411-.314974-43.18746 19.108069 43.41528 10.372425-.00086v-63.52346l-10.124868.13583.153936 40.16307-17.860176-39.98339-11.149307.13497-.153936 62.71191z" style="font-size:12px;fill:#ffca00;fill-opacity:1;fill-rule:evenodd;stroke:none;stroke-width:.62499958;stroke-dasharray:none;stroke-opacity:1"/>
  <path d="M213.63097 245.13119h10.61712l-.12809-5.59745c-.30089-3.61586-1.66693-8.19715-5.23377-11.58434-2.37445-2.64269-5.18477-4.13512-8.8307-5.1315-3.09487-1.21474-10.67386-.85711-14.5201 1.2947-4.5486 2.54039-8.39053 7.07096-10.95498 14.3706-3.36481 12.29101-1.84488 27.68207.28714 34.92497 2.53865 7.67618 6.52072 11.77261 11.82068 14.35685 3.29862 1.10814 9.05336 1.95407 14.43843.49518 5.8665-2.21887 8.54786-6.07114 10.87761-10.17961 1.41419-2.7811 3.03727-8.11205 2.75444-14.02071l-11.07792.13497c.00774 2.16213-.4307 4.65781-.98004 6.81994-1.25342 3.02267-3.18944 5.04553-8.00196 5.04467-3.22554-.00344-5.40571-1.33167-7.21105-3.71215-2.43635-2.35212-3.0751-7.61773-3.23758-9.10585-.73417-6.72107-.7548-13.37508 1.18207-20.38759.73761-2.83354 2.20424-5.45474 4.12306-6.73138 3.10948-1.68586 6.32643-1.43569 8.14552-.9044 2.38821.73762 4.59159 2.52234 5.27934 4.88563.53472 2.2223.61983 3.57374.65078 5.02747z" style="font-size:12px;fill:#ffca00;fill-opacity:1;fill-rule:evenodd;stroke:none;stroke-width:.62499987999999995;stroke-dasharray:none;stroke-opacity:1"/>
  <path d="m151.99654 290.2245-23.79866-18.49471-24.42592 18.38012 9.67856-28.78479-24.763457-18.22187 29.780337.70472 9.12126-29.64186 8.72671 29.22034 30.4007-.09781-24.38694 17.35445 9.66741 29.58141z" style="font-size:12px;fill:#fff;fill-rule:evenodd;stroke:none;stroke-width:.64412993;stroke-dasharray:none;stroke-opacity:1;fill-opacity:1"/>
  <path d="M50.757677 139.26969" style="fill:none;fill-opacity:1;fill-rule:evenodd;stroke:#000;stroke-width:1pt;stroke-linecap:butt;stroke-linejoin:miter;stroke-opacity:1"/>
  <path d="M50.831256 139.18109c1.048247 1.07204 3.12055.80575 5.980045.26358 2.28296-.27557 4.884426-.3803 6.931531-.61656 3.388659.27678 5.329931 1.06983 3.936972 2.67738" style="fill:none;fill-opacity:1;fill-rule:evenodd;stroke:#00205B;stroke-width:1;stroke-linecap:butt;stroke-linejoin:miter;stroke-dasharray:none;stroke-opacity:1;stroke-miterlimit:4"/>
  <path d="M216.6449 118.25092c15.63096 8.72859 18.46516 12.36895 27.03193 19.06294l-18.99786.39755c.22617 1.76923 4.37345 23.79562 4.76667 25.35002-14.30279-9.50474-21.08947-13.86163-40.60375-19.35918-7.75366-2.15293.88965-10.17037 1.69655-12.26597 5.30121 2.39274 9.79747 5.23372 13.00577 8.85514" style="font-size:12px;fill:#ffca00;fill-opacity:1;fill-rule:evenodd;stroke:#00205B;stroke-width:1;stroke-linejoin:miter;stroke-dasharray:none;stroke-opacity:1;stroke-miterlimit:4"/>
  <path d="M203.2811 140.21232" style="fill:none;fill-opacity:1;fill-rule:evenodd;stroke:#000;stroke-width:1pt;stroke-linecap:butt;stroke-linejoin:miter;stroke-opacity:1"/>
  <path d="M202.98477 140.12372c-1.7548.81119-3.56605.45257-5.75729.26358-2.07936-.30258-4.43892-.65707-6.77429-.73579-3.9148.02701-5.32994 1.66158-4.09421 2.79661" style="fill:none;fill-opacity:1;fill-rule:evenodd;stroke:#00205B;stroke-width:1;stroke-linecap:butt;stroke-linejoin:miter;stroke-dasharray:none;stroke-opacity:1;stroke-miterlimit:4"/>
  <path d="M129.37407 101.8685c3.02592.05506 5.95289.17415 5.95289.17415" style="font-size:12px;fill:none;fill-rule:evenodd;stroke:#00205B;stroke-width:2.2499971400000001;stroke-linecap:round;stroke-linejoin:round;stroke-dasharray:none;stroke-opacity:1"/>
  <path d="m138.66652 97.913834-.35282 14.422866M144.94481 112.99043c.8437-10.35205-.51121-10.72127-5.51164-10.69845" style="font-size:12px;fill:none;fill-rule:evenodd;stroke:#00205B;stroke-width:2.25000453;stroke-linecap:round;stroke-linejoin:round;stroke-dasharray:none;stroke-opacity:1"/>
  <path d="m131.73442 97.391671-.22275 11.988889c-.03225 2.27451.67531 2.92231 2.65388 2.92231" style="fill:none;fill-opacity:1;fill-rule:evenodd;stroke:#00205B;stroke-width:2.25;stroke-linecap:round;stroke-linejoin:round;stroke-dasharray:none;stroke-opacity:1"/>
  <path d="m80.600608 98.959088 7.411309 7.518952 1.338544 8.16428M92.248189 96.376012 88.186907 106.8381" style="font-size:12px;fill:none;fill-rule:evenodd;stroke:#00205B;stroke-width:3.1250026200000001;stroke-linecap:round;stroke-linejoin:round;stroke-opacity:1"/>
  <path d="M38.024821 387.45054c-15.630966-8.53542-18.46516-12.09521-27.031932-18.64106l18.997861-.38875c-.226171-1.73007-4.373446-23.26899-4.766668-24.78898 14.302787 9.29439 21.089463 13.55485 40.603749 18.93073 7.753654 2.10529-.6098 9.8087-1.416702 11.85791-5.301291-2.33976-9.37767-5.11805-13.285624-8.52256" style="font-size:12px;fill:#ffca00;fill-opacity:1;fill-rule:evenodd;stroke:#00205B;stroke-width:1;stroke-linejoin:miter;stroke-dasharray:none;stroke-opacity:1;stroke-miterlimit:4"/>
  <path d="M51.378635 366.07779c29.139196 26.10279 125.557685 25.47893 152.411815-.80654.86636.3047 18.23957 28.96565 17.37321 28.66096-52.72332 36.11761-147.194469 29.93003-186.844224 1.42694l.470322-1.7013 16.588877-27.58006z" style="font-size:12px;fill:#ffca00;fill-opacity:1;fill-rule:evenodd;stroke:#00205B;stroke-width:1;stroke-dasharray:none;stroke-opacity:1;stroke-miterlimit:4"/>
  <path d="M50.757677 366.29011" style="fill:none;fill-opacity:1;fill-rule:evenodd;stroke:#000;stroke-width:.98887253pt;stroke-linecap:butt;stroke-linejoin:miter;stroke-opacity:1"/>
  <path d="M51.461206 366.06176c1.048247-1.04831 3.12055-.78791 5.980045-.25774 2.28296.26947 4.884426.37188 6.931531.60291 3.388659-.27065 5.329931-1.04615 3.936972-2.61813" style="fill:none;fill-opacity:1;fill-rule:evenodd;stroke:#00205B;stroke-width:1;stroke-linecap:butt;stroke-linejoin:miter;stroke-dasharray:none;stroke-opacity:1;stroke-miterlimit:4"/>
  <path d="M217.27395 386.52888c15.63096-8.53542 18.46516-12.09521 27.03193-18.64106l-18.99786-.38875c.22617-1.73007 4.37345-23.26899 4.76667-24.78898-14.30279 9.29439-21.08947 13.55485-40.60375 18.93073-7.75366 2.10529.88965 9.94529 1.69655 11.9945 5.30121-2.33978 9.79747-5.11789 13.00577-8.65915" style="font-size:12px;fill:#ffca00;fill-opacity:1;fill-rule:evenodd;stroke:#00205B;stroke-width:1;stroke-linejoin:miter;stroke-dasharray:none;stroke-opacity:1;stroke-miterlimit:4"/>
  <path d="M203.2811 365.36845" style="fill:none;fill-opacity:1;fill-rule:evenodd;stroke:#000;stroke-width:.98887253pt;stroke-linecap:butt;stroke-linejoin:miter;stroke-opacity:1"/>
  <path d="M203.61467 365.1401c-1.7548-.79323-3.56605-.44255-5.75729-.25774-2.07936.29589-4.43892.64253-6.77429.71951-3.9148-.02642-5.32994-1.62481-4.09421-2.73473" style="fill:none;fill-opacity:1;fill-rule:evenodd;stroke:#00205B;stroke-width:1;stroke-linecap:butt;stroke-linejoin:miter;stroke-dasharray:none;stroke-opacity:1;stroke-miterlimit:4"/>
  <path d="M126.72341 400.30947c1.25519-4.30713 4.11564-3.78007 6.66626-3.1899 2.04815 1.40554 2.34166 5.23547.38511 7.46441l-3.59003 2.73383c-1.51803 1.00828-3.02521 2.87917-2.9681 4.97048l8.69433-.17254" style="font-size:12px;fill:none;fill-rule:evenodd;stroke:#00205B;stroke-width:3.125;stroke-linecap:round;stroke-linejoin:round;stroke-dasharray:none;stroke-opacity:1"/>
  <path d="M117.94547 399.72733c1.57498-.85608 1.95281-1.19531 3.15916-2.94728l-.67325 15.57624" style="font-size:12px;fill:none;fill-rule:evenodd;stroke:#00205B;stroke-width:3.1249983299999999;stroke-linecap:round;stroke-linejoin:round;stroke-dasharray:none;stroke-opacity:1"/>
  <path d="M98.770653 392.87564c-.002724.09539-2.649861 16.26945-2.763783 16.93101l8.42317 1.19084" style="font-size:12px;fill:none;fill-rule:evenodd;stroke:#00205B;stroke-width:3.1250007200000001;stroke-linecap:round;stroke-dasharray:none;stroke-opacity:1"/>
  <path d="m88.880864 408.9443 2.592391-17.6436" style="font-size:12px;fill:none;fill-rule:evenodd;stroke:#00205B;stroke-width:3.12499905;stroke-linecap:round;stroke-linejoin:round;stroke-dasharray:none;stroke-opacity:1"/>
  <path d="m58.789777 399.69412 6.426544-16.316c1.924769.96501 4.40477 1.34577 6.54363 3.2539 1.388833 2.309.749072 7.04476-3.230176 7.49411-2.19277-.2926-4.024976-1.35457-5.947344-2.22505" style="font-size:12px;fill:none;fill-rule:evenodd;stroke:#00205B;stroke-width:3.12499905;stroke-linecap:round;stroke-dasharray:none;stroke-opacity:1"/>
  <path d="M163.90836 396.39045c1.27102-1.23519 2.1352-2.48107 2.86173-4.51041l3.28558 17.31801" style="font-size:12px;fill:none;fill-rule:evenodd;stroke:#00205B;stroke-width:3.08430743;stroke-linecap:round;stroke-linejoin:round;stroke-dasharray:none;stroke-opacity:1"/>
  <path d="M171.32365 391.40704c.20548-.05308 8.41179-2.92307 8.41179-2.92307-.37757 6.28012-.49471 12.30812.29059 17.88209" style="font-size:12px;fill:none;fill-rule:evenodd;stroke:#00205B;stroke-width:3.1250026200000001;stroke-linecap:round;stroke-linejoin:round;stroke-dasharray:none;stroke-opacity:1"/>
  <path d="m184.04487 386.99919 8.41376-3.29285c-.36159 6.36743-.75563 13.14755.41437 17.92462" style="font-size:12px;fill:none;fill-rule:evenodd;stroke:#00205B;stroke-width:3.1249969000000002;stroke-linecap:round;stroke-linejoin:round;stroke-dasharray:none;stroke-opacity:1"/>
  <path d="M204.03716 380.40376c-.961-1.59064-2.43-2.17459-4.49402-1.63212-1.91392 1.67942-2.26998 3.00416-2.40549 5.04704.07871 2.53165.77545 5.0309 1.92502 7.26465.78868 2.08228 2.49374 3.5691 3.77804 3.89578 1.45428.5362 2.54374.39913 3.71007-.60972.88983-1.12276 1.29451-3.00763 1.21239-4.42784-.27682-1.88481-1.12778-3.59224-3.04967-4.5922-1.4874-.60967-2.10197-.73445-3.44476-.16364-2.03895 1.2046-2.40954 3.43501-2.1068 5.70932" style="font-size:12px;fill:none;fill-rule:evenodd;stroke:#00205B;stroke-width:3.1249959500000002;stroke-linecap:round;stroke-linejoin:round;stroke-dasharray:none;stroke-opacity:1"/>
  <path d="M138.00182 401.70758c3.02317-.14029 5.95173-.21029 5.95173-.21029" style="font-size:12px;fill:none;fill-rule:evenodd;stroke:#00205B;stroke-width:2.2499985699999998;stroke-linecap:round;stroke-linejoin:round;stroke-dasharray:none;stroke-opacity:1"/>
  <path d="m140.06837 397.08769.55125 11.97829c.11456 2.27186.86246 2.87265 2.8369 2.74499" style="fill:none;fill-opacity:1;fill-rule:evenodd;stroke:#00205B;stroke-width:2.2500007200000001;stroke-linecap:round;stroke-linejoin:round;stroke-dasharray:none;stroke-opacity:1"/>
  <path d="m145.9309 396.96303 1.66043 14.33131M154.24926 411.01763c-.60707-10.36863-2.00021-10.54544-6.94868-9.82604" style="font-size:12px;fill:none;fill-rule:evenodd;stroke:#00205B;stroke-width:2.2500038099999999;stroke-linecap:round;stroke-linejoin:round;stroke-dasharray:none;stroke-opacity:1"/>
  <path d="M43.757838 392.40993s12.875185-13.53203 13.001659-13.39037c.566905-.50613-2.531237 18.55813-2.531237 18.55813h0M48.464615 387.69849l6.679744 3.20408" style="font-size:12px;fill:none;fill-rule:evenodd;stroke:#00205B;stroke-width:3.1250011899999999;stroke-linecap:round;stroke-linejoin:round;stroke-dasharray:none;stroke-opacity:1"/>
  <path d="M72.802358 405.54441c-.002424-.09539 4.686093-17.50672 4.686093-17.50672 2.007664.48736 4.10547.78236 6.023014 1.46292 1.341469.44063 3.378796 2.09937 2.591796 4.77924-.370473 1.62528-1.125564 3.06943-2.274899 3.95343" style="font-size:12px;fill:none;fill-rule:evenodd;stroke:#00205B;stroke-width:3.12499905;stroke-linecap:round;stroke-dasharray:none;stroke-opacity:1"/>
  <path d="m75.424263 396.54619 6.407698 1.6432c1.725978.62092 2.14434 2.13071 2.146741 2.22525.320996 1.41768-.758972 7.52508-.758972 7.52508" style="font-size:12px;fill:none;fill-rule:evenodd;stroke:#00205B;stroke-width:3.12499905;stroke-linecap:round;stroke-linejoin:round;stroke-dasharray:none;stroke-opacity:1"/>
</svg>
