<svg width="750" height="500" xml:space="preserve" xmlns="http://www.w3.org/2000/svg">
  <rect style="opacity:1;fill:#041e42;fill-rule:nonzero;stroke:none;stroke-width:1;stroke-linecap:butt;stroke-linejoin:miter;stroke-miterlimit:4;stroke-dasharray:none;stroke-dashoffset:0;fill-opacity:1" x="-375" y="-250" rx="0" ry="0" width="750" height="500" transform="matrix(1.00067 0 0 1.001 375.25 250.25)"/>
  <path style="stroke:none;stroke-width:1;stroke-dasharray:none;stroke-linecap:butt;stroke-dashoffset:0;stroke-linejoin:miter;stroke-miterlimit:4;fill:#fff;fill-rule:evenodd;opacity:1" d="M41.520294 93.345604C20.372323 163.84732 105.40582 220.81374 163.32788 169.69856c60.74403-63.78178-7.04437-149.927145-77.440797-122.428209 51.378537-8.834149 82.003527 50.530157 47.455287 87.571979-33.370661 34.08871-94.226117 11.68759-91.822076-41.496726zM412.56316 84.605212c-2.69513 1.252736-4.68551 4.898172-5.82261 7.775124-2.69853 8.031744-5.47361 16.046724-8.1857 24.064224-1.41537 3.60561-2.78125 7.2742-4.20688 10.85151-2.61645-.35293 1.03246-4.82296.83109-6.7356.86477-3.92611 2.78656-7.76392 2.95137-11.77066-.65775-3.0003.06676-6.89404-1.42298-9.335604-2.22302 5.129754-5.03945 10.043604-6.9526 15.289424-1.43872 6.29462-3.37016 12.47722-4.17711 18.90014-.48213 3.32489-1.06652 6.60339-2.1463 9.79114-2.66226-.2484-1.95913-4.94016-3.52501-6.87438-1.42103-4.51872-4.28235-8.42853-6.35035-12.67022-1.05674-1.05054-3.48518-8.43654-3.44134-4.3205-.23764 2.97395-.44223 5.95064-.71434 8.92173-5.9166-11.0573-11.85112-22.10501-17.77474-33.158559.482 3.590729-.01501 7.461239 1.28985 10.853609 2.87311 6.19357 5.49823 12.49902 8.24244 18.75-1.44403 1.36658-1.7349-.89203-2.45648-1.81003-5.47312-9.66301-10.94623-19.32603-16.41935-28.989049-2.21049 1.552979-.67126 4.415744-.95611 6.654859.90272 3.13942 2.98323 5.95064 4.39996 8.92415 2.59025 4.84631 5.25263 9.66926 7.91311 14.46503-1.90689 2.10198-2.94473-3.84998-4.30998-5.19085-4.94937-8.5857-9.84729-17.20274-14.94338-25.702602-2.23293.771636-2.92367 2.407292-2.54823 4.571354-.36929 2.167858.52872 4.011958 1.78309 5.754328 3.82939 6.62781 7.69478 13.23479 11.55583 19.8442-1.30841 1.519-1.7083-.69962-2.47062-1.58775-6.21295-9.83149-12.42591-19.66298-18.63886-29.494464-1.51195-.680135-3.6497-2.494583-3.1661.518191-.71858 3.771408 3.38007 6.408062 4.72035 9.670083 5.5263 8.54973 11.22073 17.14618 16.72386 25.6129-1.15212 1.55269-1.68035-.43017-2.42339-1.28273-3.4917-4.95203-6.9834-9.90407-10.4751-14.85611-1.30361-.33921-2.97871-1.18612-2.48637.92909-.08647 1.34298-.44448 2.75937.69551 3.77077 5.58553 8.38296 11.27574 16.7234 16.79645 25.13265 1.79112 3.66359 3.42329 7.43757 5.31239 11.03312 3.18959 3.28248 6.37917 6.56497 9.56876 9.84745-2.28956 1.84349-4.60934-4.00817-6.88968-5.06501-2.41521-2.71839-5.66351-4.89094-7.02735-8.37153-1.65663-2.58985-2.60734-5.68227-5.16323-7.57645-2.83081-2.12413-5.00616-5.99323-8.28971-6.95471-1.0611 2.34046-.19553 7.60547 2.98352 9.41406.31685.87266 4.77451 3.8748 2.32744 3.25905-4.79965-.52712-9.30761-2.20645-13.80508-3.86438-2.71767 2.60702 6.48833 4.69389 1.32131 5.75713-3.73735.05097-6.61995-3.33774-10.03566-4.59312-8.51424-4.65574-17.23745-8.94398-25.94329-13.21329-1.80735-.54523-3.61471-1.09047-5.42206-1.6357-.50285 3.15292 4.42352 4.04244 6.06044 6.27208 6.60435 3.56621 13.37063 6.94547 19.98822 10.52741-.21192 1.98918-2.00716.48511-3.20767.29317-12.38506-3.98825-24.77011-7.97649-37.15517-11.96473-2.08029-.49735-1.71767.59441-.8759 1.99786.20738 1.62289 1.81984 1.70374 3.07845 2.17292 9.72204 3.26231 19.43529 6.55224 29.1628 9.79734.38301 1.53251.70417 3.08055 1.03817 4.62458-2.20982-1.82044-4.38809-3.90209-7.41515-4.09892-6.332-1.56831-12.85676-.23873-19.2763-.16547-3.42564-.82102-3.86969 1.94402-.45829 2.53411 2.7415 2.13036 6.27559.93417 9.4625 1.1034 5.18309-.15499 10.36586-.32096 15.54798-.50567.91764 2.95295-5.06031.97667-5.28705 3.37474-.59765 2.8475 4.77584 2.84807 6.71526 2.26578 2.96424.04965 5.01864-4.34396 7.53782-3.59564-.65835 2.81814-5.60648 3.44773-6.16789 6.36345-.37253 2.92091 5.58829 2.06106 7.30285.81332 1.9894-1.65282 5.41437-4.14847 5.59742.27919.57894 4.00094 5.86929 2.45185 8.7458 3.80663 5.12707.78187 10.37669 1.10647 15.45707 1.94623 4.86023 2.20574 9.73697 4.39476 14.58698 6.61082-.99748 2.75228-5.27238-1.42053-7.48742-1.25839-3.67048-1.02444-7.05158-3.1079-10.94994-3.14629-3.37082-.61879-6.75582-.54692-10.13902-.15316-10.24834.8563-20.51723 1.55077-30.75276 2.50805-9.52638 1.60872-19.07637 3.14953-28.60081 4.72386-2.41949.75134-7.68021 2.16918-2.64262 3.14598 10.81509-.50771 21.60799-1.41782 32.40352-2.23365.78039 1.88808-1.53914 1.24365-2.70071 1.54523-8.97812.9111-17.95623 1.8222-26.93435 2.7333-2.76374 2.04381-6.45267 3.16863-7.95931 6.51216.43297 4.75967 6.39143.40695 9.34354.72358 7.76849-1.30611 15.50681-2.54263 22.99706-4.93918 2.23154.17829 7.8103-3.80674 8.14807-.94379-8.46934 2.61266-16.95985 5.26116-25.50086 7.62845-1.81851.42488-3.63701.84977-5.45552 1.27465-.53091 4.37166 6.08116 1.82193 8.77727 2.51678 5.92713-1.38604 11.57556-3.77763 17.43386-5.43907 3.12374-.25688 7.85581-3.91862 10.11924-2.41491-2.01098 2.05345-6.68202 3.13673-9.60238 4.83586-6.02708 2.63659-12.13938 5.05809-18.01364 8.05168-3.86909 3.91998 4.11105 3.56014 6.07052 1.53044 6.27582-2.87868 12.47385-5.91792 18.65683-9.01786 1.51565 1.25355-.71274 1.85294-1.50219 2.71327-3.50272 2.74173-6.91947 5.57812-10.82536 7.73446-1.51272 1.2151-3.98693 1.63946-4.28319 3.86645 3.43112 1.95103 6.70914-.41505 9.78398-1.95051 8.03795-5.20399 16.16856-10.29421 24.34983-15.25796 3.53738-1.58418 7.16625-2.95592 10.75923-4.40437 1.3884 1.38577-.88051 1.80663-1.74089 2.61986-3.94804 2.64199-7.91093 5.26588-11.84972 7.91915-4.30601 4.45377-8.20461 9.35176-13.28957 12.96678-2.37137 1.98354-4.79172 3.76954-6.66588 5.95673-3.71818 3.73999-7.56843 7.34697-11.2526 11.12054-1.14934 3.81192-3.59866 7.39524-3.32791 11.48473.04706 4.40312-.45334 8.8545-.03846 13.22777.45186 1.8171 1.50042 5.96046 1.85547 1.8185.19968-1.89382 1.50683-8.4241 2.90956-3.84187.77106 1.71418 1.52935 6.88177 2.44293 5.98539 1.33831-2.6522 1.58613-6.37272 3.7402-8.383 1.91884 1.11982 3.43523 3.88296 5.2636.70402 2.32019-2.70142 1.97637-6.76173 3.13079-10.05079.9948-4.26772 1.99277-8.53468 2.99404-12.80088 1.81812-.52628 1.38764 1.67552 1.84064 2.80545.58193 2.63029 1.16385 5.26057 1.74577 7.89086 3.96905-1.72008 2.3486-7.0851 3.62826-10.47941.25419-2.54353 1.06308-9.24144 3.79483-4.12894 1.60489 3.84855 6.05109-.58811 5.91583-3.38662.90767-4.43461 1.77676-8.87722 2.70554-13.30746 1.19093 2.12242 2.43292 4.21558 3.64933 6.3234 4.14418-.19215 5.56989-4.34853 8.25834-6.81237 2.41567-2.50794 4.57023-5.41394 7.25131-7.59618 3.05509-1.57457 5.91772-3.67826 9.0604-5.03356 3.06606 2.83429-1.56139 6.66066-3.30327 9.09186-3.88752 4.80311-8.68589 8.75964-12.75592 13.41008-1.60652 1.85436-4.11987 3.41093-3.44584 6.17092 2.04216.91048 4.17201 1.7379 6.22902 2.66103-3.10665 1.55738-6.44572 2.89656-9.31208 4.78188-2.7756 2.40096-5.77198 4.532-8.68288 6.76384-.78591 2.1123-1.29366 4.49752 1.83105 3.61921 2.23101-.38417 8.23842.5696 3.5171 2.76712-4.43744 2.90034-9.57533 4.71065-13.96812 7.58179-1.21645 1.6241-4.48176 4.17304-.50336 4.05831 2.65715-.38219 6.63478-4.43129 8.60889-2.38138-2.79295 3.08617-6.41276 6.06402-9.46939 9.1473-1.55653 1.20455-5.0091 4.55403-2.96542 5.49542 4.8428-2.31529 8.24528-6.66687 12.37085-9.9825 1.44983-2.30299 5.33475-4.34895 4.10465.1408-4.78983 5.96332-9.41995 12.09616-14.3484 17.90335.49633 5.8319 4.24631-1.67368 6.09355-3.23856 2.8807-3.4005 5.55877-7.04414 9.3242-9.53058 1.30716-.28395 4.75447-5.19549 4.93669-3.18765-.08785 1.66978.42777 3.53375-.99125 4.83328-2.97827 4.01461-4.96889 8.60693-7.40849 12.94817-.40288 1.87402-.82022 7.25889 1.88758 4.71896 3.22379-6.01219 7.15722-11.63494 9.69536-18.00119 2.60162-5.4603 4.35703-11.32119 6.53786-16.91911 1.83528-2.73893 2.73233-1.81057 2.47667 1.0525.29618 2.66295.18361 8.3603 2.02207 8.76293 3.34186-7.63506 7.5366-14.85566 11.09943-22.37713 1.23315-3.66978 2.69833-7.27415 4.22146-10.84434 1.91946-.20118 1.03774 1.88255 1.22693 3.09275-.12909 2.4278.25702 4.93992-.1889 7.31588-2.07044 5.94496-3.62279 12.07643-6.5099 17.70423-1.75049 3.61895-4.22406 6.88049-5.91655 10.51969-1.69626 2.20924-1.06673 2.2257.8445.92704 3.38015-1.54764 5.64983-4.44952 7.99356-7.2106 3.68645-2.95636.94943 3.76612.09977 5.19206-2.00502 5.68405-3.30247 11.64794-5.57164 17.2618-.02826 1.70116-.61819 5.61199 1.54924 2.61803 4.06842-3.18072 5.54939-8.27609 7.98306-12.62222 1.47567 2.15618 4.25201 3.40202 5.59688.74348-.22587-3.35766-1.77438-6.83763-.26262-10.08965 1.49283-5.37893 2.71897-10.85943 3.56098-16.37276.40516-3.35228.63106-6.74191 1.04603-10.08225 1.86543-.96066 1.07696 2.00016 1.22693 3.12421v7.66648c1.82705.20077 5.18035-3.0372 6.13465-.91233-1.84428 1.57997-4.66063 2.5582-6.33065 4.27672-.07099 2.13987-.14198 4.27973-.21297 6.41959 2.27559-1.38423 4.55117-2.76846 6.82676-4.15269 1.61365 1.13502-.5251 1.92046-1.25683 2.85874-1.86713 1.74214-3.73426 3.48427-5.60139 5.22641-.03146 1.51007-.06292 3.02013-.09438 4.5302 1.58194-.49721 3.17615-.95969 4.75042-1.4786 1.29757 1.4772-.94089 1.81013-1.86889 2.58019-1.04974.97485-3.40899 1.14247-3.06826 2.97569-.11898 4.60922-.2879 9.21567-.47393 13.82331.83167-1.64721 3.76674-5.61309 3.33756-5.83825-.96185 1.88294-4.46309 2.00912-2.07917.04966.99104-1.20385 6.39325-5.04919 4.48551-1.20663-1.85935 2.68161-3.47501 6.25153-5.42702 8.45425-.55521-.05389-1.2214 3.88784.4613 3.10925 1.39687.95049 5.70754 1.38387 2.73047 3.03834-1.27423 1.27912-2.86927 2.41723-3.94908 3.7818.08835 3.85746-.88389 10.28224-.12903 12.52267 1.13796-1.59941 4.88306-4.48757 4.09701-5.24305-1.57949.75462-6.39262.39495-3.02419-.83037 2.05192-.77753 7.78423-.99725 4.12122 2.23364-1.95188 3.47891-6.59868 4.57359-5.72159 8.37905.01789 2.80795-1.13219 4.52289 2.30425 4.0092 3.93335-.34435 4.20719 3.48848.66183 4.53671-2.43808 1.4228-4.56888 1.32986-3.096 4.56204.7594 2.12382 6.00406 3.55739 4.6875 5.75713-.19635-2.48111-.75384.95715-2.11133-1.53203-1.67025-1.33207-3.82043-4.49881-3.11403-.2983-.30692 8.01389-.624 16.02739-.94074 24.0409 1.65344-.50603 4.5855 1.81006 4.61451 2.88297-1.70455 1.58083-5.7743-5.32359-4.71581.1439.05696 2.46252-.59089 7.01351-.08953 8.16004.8204-.69037 2.12278 1.28334 3.12974 1.6241 1.14913.79468 2.29827 1.58936 3.44741 2.38404-.63312 1.95302-1.98094-.06021-3.05947-.579-1.26625-.87663-2.5325-1.75327-3.79875-2.6299.29703 3.25842-1.13419 9.25253.17743 10.93792 1.49516 1.10191 5.4009 4.27079 5.30486 6.04204-1.93307.51621-4.7245-5.25142-5.94137-4.92218-.18813 4.86266-.36239 9.72585-.54763 14.58862 2.03016.68101 6.1417 3.32397 7.21351 4.98826-1.83378 1.55423-5.70608-4.21693-7.29328-3.48396-.28799 3.92842-.0518 7.94385-.61453 11.82625-.7446 2.82302 7.03197 2.12637 5.35034 5.01047-2.86845-.94564-6.84867-5.04919-6.87153.25389-.61256 4.22687-4.4609 8.54382-1.4653 12.55022 1.15278 3.25259 4.84731 4.63825 7.61326 6.29195 3.2667-.51535 6.40267-2.13023 9.80458-2.25739 5.01416-.77708 10.11409-1.05664 15.11152-1.86384 2.11183-1.54007 4.72897-2.99226 1.54561-4.96736-2.53428-3.11072-1.93197-7.54457-3.40173-11.0771-.00349-2.87501-.59441-4.12469-3.12361-2.04884-1.98279.39259-5.06459 4.62082-6.18847 1.98592 2.96265-1.43394 5.65128-3.29865 8.65142-4.6875-.35479-3.76246-1.08178-7.50396-1.00671-11.29404-2.37024 1.5289-5.87088 4.70742-8.14626 4.26859.92787-2.11702 5.46064-3.04849 7.39123-5.27531 1.40322-.01889.48627-2.00923.72518-3.1853-.032-3.27967-.06399-6.55935-.09599-9.83902-2.19569 2.47856-4.82437 4.24613-8.14807 4.78188-2.47216-2.16128 3.77344-1.38251 4.58022-3.22265 1.49452-1.68887 4.25773-2.74053 3.51744-5.3805-.02514-2.8999-.05028-5.79981-.07542-8.69971-1.93206 1.28258-5.47218 5.88411-7.33806 3.97804 2.01763-1.79769 6.38484-3.51737 7.2997-6.20661-.03965-3.76637-.07929-7.53274-.11894-11.29911-2.08267 2.78239-4.92518 4.6881-8.28888 5.56511-1.6508 1.83122-5.01895.20489-1.6622-.71136 3.27512-1.0858 6.58238-2.272 8.61919-5.24892 1.85123-.99204 1.22898-2.75504 1.29547-4.58161-.02981-2.68252-.05961-5.36503-.08942-8.04755-3.91182 3.46844-7.44536 7.31359-11.32551 10.82215-2.04294-2.15597 3.79602-4.02639 4.62459-6.16611 1.93109-2.31423 5.20615-4.5513 6.69644-6.54025-.02996-2.92688-.05993-5.85376-.0899-8.78064-1.49079 1.37905-3.90529 3.1272-.84941 1.47861 1.36799 1.54007-1.03344 1.69675-2.03972 2.36546-1.38531.64949-2.77532 1.28926-4.15785 1.94452-1.44623-2.71569 4.67989-4.04687 5.90137-6.436 1.65338.4058 1.04052-1.15162 1.11571-2.75977-.0215-2.04171-.04299-4.08341-.06448-6.12512-2.04365 3.72112-6.11624 1.56337-9.36602.88775-2.40024-.1962-.14154-.92825.85554-1.52157 2.57467-1.38268 5.14933-2.76537 7.72399-4.14806 1.45176 1.46518-.94317 1.74321-1.91371 2.46083-1.52234.80514-3.04467 1.61029-4.567 2.41543 2.85403 1.59902 6.35422.57567 7.22964-2.19713.00801-4.90371-.13367-9.72301-.37142-14.63382-2.25593 2.26681-3.55092 4.74617-6.35486 5.75713 1.31159-.60638 6.71997.18091 3.08305 1.13255-2.08599.4168-9.05029.68242-4.17676-1.97502 2.48872-.97756 4.10502-2.79516 5.68774-4.88354 1.8818-1.08395 1.86396-1.81859 1.60922-4.03366-.12773-3.01775-.25547-6.0355-.3832-9.05325-1.14202 1.40447-6.00715 5.24891-4.76623 5.24526 1.45647-.91776 7.16489-1.18407 3.77087.46384-2.17662-.13782-6.88196 2.89374-7.65607.23679 3.03307-1.7416 5.26283-4.46068 7.79579-6.85817 1.48332.19033.50556-1.99045.69221-3.33847-.36498-9.05917-.72997-18.11835-1.09496-27.17752-1.42475 1.26519-7.39146 6.0865-5.21014 1.30072 1.46254-1.67608 2.95291-4.6081 4.57722-5.17809 1.06295-.54553.09257-2.52376.34049-3.64357.24527-2.77305-1.44582-5.13489-2.27295-7.6802-.05751-1.04-2.00706-2.85774-.34943-3.16573 1.80468 1.53268 2.6586 5.69471 4.12134 8.15768 2.22376 5.14761 4.76351 10.1822 6.72132 15.4315 1.08205 4.36799 2.23425 8.72172 2.39094 13.24455 1.11064-.40481 3.18311.26526 3.10635-1.46654.25927-1.70387 1.49002-3.4605.40896-5.09159-4.87219-13.25916-10.41267-26.25377-15.56439-39.40454 1.2222-1.26892 1.62652.46144 2.10596 1.49177 2.99678 5.97408 4.95416 12.39959 7.45099 18.59542 2.53397 6.71812 5.19895 13.39817 8.24926 19.89813 4.69388-2.73081.81225-7.62111.14942-11.59413-2.1936-7.26648-5.15932-14.27689-7.70132-21.42782-.75452-1.27083-2.40369-1.86711-3.50125-2.8793-1.6161-1.19182-3.27288-2.39953-4.86547-3.58071 1.32423-2.50018 4.26312 1.89516 6.29452 2.11234 3.49377 3.68141 4.35434-1.97688 7.45423-2.62714.86902 3.19005-5.02369 5.77163-1.886 9.45559 2.26123 7.71401 4.29003 15.50601 7.28492 22.97814.496 1.34675.99683 2.69172 1.48991 4.03954-1.01311 1.45628.42961 7.68845 2.49499 6.08154.70804-3.36414 2.85956-6.69394 1.03206-10.09436-2.68211-10.25119-6.36437-20.20904-9.46376-30.33907.0408-3.69217 2.34719 1.57366 2.60452 3.16075 3.56324 9.67694 7.4182 19.26495 10.56793 29.08334-.66947 2.88406-.64829 8.9836 3.11451 5.53691.1687-3.85054.46928-7.79378-1.13255-11.41988-3.25777-8.66987-5.84729-17.59361-8.7458-26.39472-1.6556 1.80094-4.76939.07608-5.25297-1.91273.55585-4.37315-3.05476-4.25079-6.31584-3.97024-1.42649-.13891 2.48958-2.18268 2.94884-2.92575 1.76157-.96847 5.51621-3.93186 1.89564-4.72679-1.15663-.53129-2.30725-1.07575-3.46863-1.59662 1.72768-2.9735 3.51772-5.89224 5.80673-8.48017 1.41019-2.57081.3388-7.18313-2.39679-8.75069-1.98439-1.09033-1.76097-3.60412-2.5458-5.46688-1.03556-1.097.00335-3.21053.82912-1.62031.5157 1.77212 1.0314 3.54425 1.5471 5.31637 2.98799 1.60327 4.37488 4.23446 4.3057 7.55154 1.36295 3.09614-2.22877 4.97416-3.55359 7.31777-.78943 1.14793-1.45565 2.3849-2.19926 3.5661 1.66347.78388 3.36214 1.49668 5.0021 2.32802.3442 3.12618-5.05128 5.19319-4.65604 6.26048 5.23688-1.40543 2.05791 5.89319 6.01072 6.49138 1.34331-.01306 2.51134-1.34911 3.7828-1.9045 2.26832.42875-.9518 1.48552-.41799 2.49915 4.22668 11.49301 8.56725 22.99554 12.58336 34.5352-.38297 4.1752 3.59462 4.72019 6.07173 6.44924.34325 2.22583 1.40805 6.45293 3.75646 5.54517.10082-5.95451.47408-11.94363.4906-17.87738.33995-2.03281-3.11379-6.95896-.28314-7.20428 1.58943 4.6561 3.69327 9.19545 4.78454 13.98786.76882 3.11299-.76332 8.17009 3.70148 8.63315 1.97025.80114.44535-6.35371 2.55635-4.40583l3.49203 2.76846c4.72495.11338 1.21186-5.0675 1.28985-7.70763-1.48632-3.69449-2.8965-7.43404-4.37291-11.13675 2.19978-.91018-1.18178.32209-.54472-2.03724-.5079-3.65317-2.87502-6.40068-4.9943-9.25671-.89872-1.93554-.83847-4.22826-2.5172-1.47922-1.99734 1.65405-1.11749 4.38238.28406 6.12633 2.27832 3.52717 2.05304 8.18813 4.89878 11.37699 1.25164 2.0544 2.93107 4.12636 2.49587 6.67466.11145 1.17333.2044 3.5055-1.25839 2.37623-.19542-1.99061.53467-4.14371-.69732-5.72547-1.50854-2.96628-3.67359-4.81737-4.27332-8.14995-.65404-3.35073-2.52275-6.21491-3.93247-9.24916.31581-.7365-4.70081.40413-4.31166-1.16401 1.38758-.19472 1.14162-.80607 3.49371-.28314 1.78051-1.50561 1.76325-4.34175.56628-6.22902-2.36273-5.29458-6.00188-9.93585-8.65143-15.06921-.6682-3.35028.66282-7.47498-2.54997-9.80947-3.31987-3.23277-4.99971-7.59323-6.85649-11.74045-2.13303-2.97273-5.6058-4.72409-8.08515-7.4245-1.34993.42744-6.43918.5861-3.91205-.93814 3.48248-1.39291 5.87857.59444 8.09619 2.95157 2.5271 1.96469 5.21086 3.99664 6.05764 7.22337 1.57605 3.76742 3.62761 7.25249 6.54726 10.14318 2.57243 2.41537 1.24388 6.2764 1.9295 9.37422 3.16629 5.74345 7.40169 10.98663 9.5323 17.23993-.46038 2.73495.7556-.87521 2.05453-.55641-.12321-3.0971.95536-7.28459-1.04782-10.17136-2.09149-3.88832-4.52679-7.63701-6.41779-11.60864-1.31602-2.83479-2.92667-6.38011-4.39367-9.47388-1.53999-3.57529-3.77757-6.7845-5.89366-10.03115 2.1093-2.20636 3.20805 4.14921 4.8448 5.25377 3.68422 6.51676 6.00271 13.71595 10.03014 20.04915 1.17507 2.78024 3.66599 5.21888 4.19257 8.17942.40493 1.77012-.70242 7.50328.73419 7.02785.71737-1.38178 1.44723-2.75718 2.15719-4.14274 1.14795-.54428 3.41977-.19728 3.69573-1.45386.39771-3.86375-3.49322-6.67651-3.88448-10.46938-1.09957-5.17361-3.1731-10.06635-5.7458-14.66933-2.7609-6.06093-6.81346-11.44432-8.9984-17.77122-.57835-3.69067 2.41464 1.0211 2.47731 2.74388 2.12475 4.83478 5.22742 9.17817 7.42209 13.99826 2.09096 3.92104 4.09026 7.87528 5.2395 12.19317.78685 4.06028 2.46214 7.8138 4.57593 11.37017.36316 1.62265-.04775 2.88712 1.33549 3.03455.63923 1.49107-2.46611.73649-1.2385 3.02067.35354 1.43017-.37115 6.83222-1.44278 3.75796.0941-2.53526 1.28894-6.65799-2.33266-4.71657-.96471.83563-1.33346 2.42971-2.07452 3.54997-.61022 1.52317-2.89051 1.41571-1.33789 3.57719 2.03079 3.02475 4.73367 5.71663 5.26487 9.48245.43072 3.35822 3.22 5.63277 4.90768 8.53449 1.82999 1.88011 3.97562 7.63707 5.81112 6.6036.82028-3.57483-2.31941-5.96026-3.46758-9.06611-2.45587-5.25355-4.68435-10.6132-7.02967-15.91788 1.90618 1.37494 4.33509 2.17594 5.42186 4.43198 4.3635 5.81215 8.65366 11.68349 13.13938 17.40107 4.69904 2.25669 1.81331-3.60062.37752-5.44253-3.58371-7.23234-8.49007-13.70205-12.72413-20.56161-.91971-.93805-3.86078-5.5017-1.11438-4.09678 4.83305 5.96485 9.66611 11.9297 14.49916 17.89455 1.6332 1.11562 4.58203 2.04494 3.60085-.7335-4.14482-7.56871-9.42173-14.44067-14.0366-21.72931-4.82483-6.86341-8.92353-14.2001-13.25343-21.39206 2.27846-1.84381 5.26839 2.78544 7.80777 3.39086 4.06178 2.21851 7.68207 5.0524 11.0075 8.25529 5.60441 4.87324 10.99175 10.03036 16.8154 14.63168 2.90249 1.58967 5.16559 4.36668 8.28712 5.40212.05178-1.04844-3.19185-4.98603-1.82909-4.9606 3.27127.92156 6.36398 2.28001 9.38574 3.79081 2.02473.99662 8.35926 3.37948 5.18454-.74925-1.00968-2.06551-5.8216-3.18393-5.03613-5.42501.89337-.48045 2.34338 1.02845 3.45102 1.31335 2.54199 1.52818 5.39969 2.22141 8.31749 2.63305 4.26508-.19094 1.58515-4.63266-1.29556-4.66173-6.61143-3.5218-13.17113-7.14747-19.751-10.72208 1.36429-2.76295 5.82718 1.62372 8.39975 1.47861 1.50333-.4729 7.02547.6624 5.09274-1.94428-.81762-1.00166-2.50859-1.03512-3.67963-1.64498-9.01543-3.26544-18.0482-6.49042-27.05279-9.78113-3.84199-2.58779-7.74761-5.09653-11.60864-7.64471.59029-2.36581 4.46127.68237 6.38632.44044 3.37285.88125 6.76308 1.60903 10.26706 1.5667 2.25046.06198 6.96947.6342 7.78834.25973-1.49042-.80448-8.06575-2.7075-4.31211-3.73306 1.8831-.11604 7.80075-.23485 2.7559-.42265-3.57868-.3717-7.31789-.24391-10.77352-1.19421.44189-1.27852 2.23025-.79687 4.56486-.54866 2.54886.87377 7.71225-.62348 8.70869 1.51476 2.52987.80989 6.97356-.23038 10.22975-.03337 4.50566-.39613 9.46239.2256 13.68329-.88708 1.47192-2.29249 5.87327-3.03599 5.79258-6.01098-.29359-2.76082-.32561-5.60656-.77934-8.31538-.93734-1.02366-1.13586-3.10462-2.72366-3.19739-4.25473-.69816-8.32355-1.86771-12.35788-3.31679-8.39644-.20476-16.82671-.12921-25.19924-.62919-2.71349-.17661-5.9433 2.28046-9.06041 2.1078-4.8156.48399-9.73451.08625-14.40519 1.57517-1.80078 1.39619-4.30478-.61808-1.41905-.97743 3.60759-.95485 7.25762-1.60804 11.00188-1.55123 3.80678-.12167 7.63443-.40581 11.16357-1.96446 2.16406-1.46798 2.64285 1.02583 3.06676-1.69636 1.97996-.75069 8.31821-.21935 6.82526-2.30683-7.82042.26541-15.6456.35997-23.46896.50336-2.81373-.27833-6.40202 1.46046-9.18624 2.79991-3.26303 1.31949-.57093-1.98855 1.44714-2.07634 3.46369-2.05397 7.7729-1.54471 11.13675-3.77517 5.25754-2.44992 10.19769-5.55034 15.32089-8.24245 1.33098-1.17795 5.035-3.01412 1.11606-3.39522-3.07464-.70899-6.36169 1.06211-9.54727 1.09866-4.20059.74205.00476-2.91872 1.58398-3.62421 4.90579-2.52208 9.706-5.28003 14.39756-8.20465 1.48853-1.13598 5.88123-1.91081 4.46728-3.80663-3.97722 1.32833-7.91457 3.22941-11.98615 4.34145-1.37671.3282-7.62313 1.10022-4.53792-1.33501 5.99681-3.96051 11.89936-8.06668 17.84538-12.0983 1.98097-2.66093.54585-2.72917-1.83148-1.64278-2.75337.83811-4.80548 3.08917-7.37007 4.3981-.88037 1.54327-5.81422 2.85006-3.19455.17624 2.65618-2.30828 5.25124-4.69396 8.0232-6.86402 1.40108-1.95074 2.83793-6.59636-.96795-4.4075-2.45265 1.29161-5.60686 1.4841-7.31614 3.86971-3.02 3.1393-6.09734 6.25619-9.08168 9.40943-2.18173-2.04584 3.46127-4.3021 4.15646-6.46855 2.45117-2.80702 5.03212-5.53629 7.23196-8.53774.46512-2.46129.57285-4.19427-1.92524-2.47927-1.21437.52231-2.42875 1.04463-3.64313 1.56694.36531 2.53886-5.02279 5.19027-6.73238 7.70763-2.8939 2.47017-6.82901 3.50783-9.375 6.44925-2.03443-2.17183 3.563-3.82079 5.00209-5.09648 4.06949-1.98012 6.82235-5.70956 10.09858-8.71435-3.58529.7273-7.71604.57933-9.81544 4.15269-5.42796 5.15946-10.71005 10.50046-16.26468 15.50965-6.77243 4.69601-13.65511 9.29801-20.60612 13.68498-3.17908 1.2804-7.69731.22809-9.2031 4.06209-2.65556 3.7351-5.80082 7.0765-8.76041 10.56668 3.18167-.70061 6.20299.02642 9.0762 1.43695 2.76161.96625 5.10878 2.87557 7.75476 4.06851-.59021 2.62909-4.21707 4.62205-7.07215 4.13972-1.79378-.04893-3.41098-1.26151-5.13423-1.78024.17064-2.06847 1.92504-.39943 3.09615-.1069 2.29958 1.24515 5.41921.75986 7.11354-1.2805-.8841-1.81545-5.57554-3.64892-8.29856-4.66317-2.47125-1.48507-5.30292-.4631-7.98286-.43014-3.17008.71954.88518-2.08855 1.35346-3.18555 3.50842-3.94299 6.86535-8.00883 9.90913-12.3241-.22109-3.18524 3.31109-5.43564 4.48647-8.37455 3.46105-5.09996 5.24735-11.11084 7.90155-16.65241 1.12958-2.31176.54694-5.01235.84078-7.51388-.08438-1.35736.39663-2.83674-.07864-4.10974-2.4631 4.53157-4.99651 9.05899-7.36157 13.62206-2.9144.16832-.30044-4.45041.53972-5.64972 2.23988-4.52713 4.76638-8.97726 6.86024-13.53893.06061-1.90916.12122-3.81831.18183-5.72746-1.88664-1.64038-2.83723 3.95594-4.33541 5.26724-3.27895 5.45952-6.3072 11.10058-9.72565 16.45765-.33543 1.81135-3.95667 3.12739-2.5048.56178 4.88513-8.98614 9.90082-17.93957 14.91179-26.831421 2.01357-3.570602 1.36714-7.73963 1.65407-11.657007-1.93057-3.050561-3.27807 1.641992-4.82459 2.853963-1.97858 2.457538-2.70653 5.684859-4.22652 8.445055-2.46606 5.35537-5.02295 10.67649-7.52817 16.00803-2.80291-1.15484 1.61721-5.34083 1.65444-7.695 2.40304-6.20926 4.79419-12.423111 7.18575-18.636796-1.19835-2.492207-3.88888 4.084012-5.1594 5.599832-2.28198 5.098848-4.93121 10.025034-7.45595 15.006294-2.69946-1.17648 1.64681-5.32203 1.52911-7.579 1.30693-3.774028 3.02689-7.512005 4.29094-11.233921-.19001-1.404973 1.80066-5.057089.03146-5.127937zm17.30285 67.701338c.62126 2.48249-3.11846 3.61392-4.65604 5.53692-1.93304.72144-8.84475 2.41783-5.86959 3.97217 1.96646-1.04197 3.93742-2.07549 5.90105-3.12276 2.51265 2.38493 6.31435 4.93764 6.01732 8.57987-2.38801.59892-1.36875-4.67946-4.21147-5.1704-1.31046-2.26667-2.96809-1.68804-4.73241-.44072-1.40238.75581-2.83372 1.45924-4.2148 2.25356-2.34713-3.20551.25416-5.79598 3.63107-6.17846 3.34911-.52277 5.29946-3.40857 7.82027-5.3358l.0693-.05708.2453-.0373zm17.80621 6.92114c.23231 2.80176-4.69491 1.57984-6.02305 3.94342-2.14931 1.03924-4.32348 4.2318-6.2429 4.20466-2.1192-.41295 2.54673-2.45993 3.29003-3.61238 2.68578-2.15286 5.42752-4.13638 8.97592-4.5357zm22.83976 10.94799c-.54488.52129-.16254.41747 0 0zm-64.52391 2.737c2.91956 1.09819 6.03095 1.79606 8.50305 3.81403 3.1939 1.13003 3.34506 4.78282 4.27203 7.54083.0896 1.77663-1.44587 7.43037-3.05702 6.22077.65079-2.60607 2.9625-5.81742 1.00971-8.79837-.25749-3.27681-3.65952-4.18742-5.9631-5.76726-1.73504-.61533-3.47007-1.23066-5.2051-1.84599.14681-.388.29362-.77601.44043-1.16401zm82.23574.3146c5.93064.24291 11.91086.50209 17.80621 1.06963.65698.69434-1.18459.73612-.91234 1.10109-7.63746-.34779-15.27407-1.27627-22.91976-.64323-3.5797-.46025-6.70617 2.27422-10.33132 1.50232-1.93198.37813-6.37972-.65364-3.33658-1.45683 3.47223.38905 7.00733.43137 10.24703-1.05742 3.06955-.55884 6.32082-.18542 9.44676-.51556zm-9.12332 4.97063c6.1268.87235 12.28053 1.41583 18.47377 1.34139 3.90264.21834 8.46775-.1721 11.97379.45008-.58268 2.59863-6.03257.09177-8.36122.86803-6.87831-.08181-13.77035-.08079-20.57628-1.21235-1.3172.0372-1.72545-.17022-1.51006-1.44715zm6.638 6.85822c2.52101 2.62628 6.12978 3.09896 9.75825 2.50961 4.26892-.27634 8.64285.87991 12.78375-.70972 3.60057-.33493-.2624 2.02641-2.1475 1.79161-4.18429.87837-8.46066-.28304-12.68687.24659-3.37614 1.19455-6.14256-1.65154-8.56622-2.28497-1.81285 1.07092-3.80425 1.30334-5.85203 1.15242h-8.83049c-.59602-1.9625 1.66509-1.06789 2.84107-1.25839 2.94218-.02117 5.89477.04221 8.83049-.03146 1.27533-.49889 2.5155-1.15837 3.86955-1.41569zm-120.27055 3.99539c3.06607 1.26214-2.492 4.29807-1.58674 6.29456.13657 2.09443.38358 3.58252 1.36652.6895.44988-1.35313.86596-2.71771 1.35277-4.0583 1.2391 2.04424 2.86826 3.18824 5.22231 3.20889 1.0062 1.72596 1.48781 5.63715 2.54737 2.02382.96972-1.86505 1.71911-4.01965 3.11539-5.54731 2.26959 1.29632-.31423 5.91105.34605 8.27391-.18668 3.72417.60478 7.45121.07761 11.18452.32579 2.22268-1.8669 7.87966 2.08418 5.18248 1.36394-.64878 1.54285-2.57112 2.37878-3.78734 1.51293-2.92762.95384-6.49386 1.94014-9.59099 2.9318-.75159.26991 8.14532 3.09846 5.32274.82478-3.01066-1.4059-5.54687-1.65132-8.87769v-5.91443c1.9625-.59602 1.06789 1.66509 1.25839 2.84107-.14449 2.37062.10449 4.72765 1.13255 6.91145 3.232 1.74444 2.71287-4.26598 5.28524-5.47399 2.80031-1.11926 1.22739-6.95914 4.0583-6.32341-.26332 3.59903-2.26756 6.57602-4.75042 9.02894-1.01726 1.71516-1.49069 5.85363-4.40436 4.18415 2.11364 2.16757-.28543 6.71474-2.89429 5.94589-.57686-1.92651-.62295-4.18218-.93032-.88839-.09122 2.74794-2.01268 4.92256-3.00215 7.40055-2.37558 1.30445-6.64756 2.73362-5.0854-1.68572.28973-4.73487.6334-9.47414.05184-14.20144-.05527-1.55296.79058-6.43715.01946-5.47673-1.09161 2.20875-2.13553 4.45731-3.22835 6.6722-1.35218-2.02364-.81401-6.8011-4.01692-6.31682-1.77614-.35289-2.40352-2.47301-2.8413.40239-.78651.85017-1.76367 5.60311-3.17743 3.46057-.34462-2.61498-.12833-6.67557-3.11452-3.49203-.54871-2.12524-1.06782-4.25801-1.60444-6.38633 1.7602-1.06818 1.44823 1.34096 1.91599 2.44164-.1011 3.61312 3.76338.09193 4.21865-1.78098.27056-.55682.54335-1.11254.81796-1.66737zm49.32886 15.95008c3.35312 6.79533 6.90742 13.51199 10.50755 20.19715 1.94424 4.74375 4.29294 9.37631 5.11211 14.48194-.76869 2.42411 4.94624 5.71317 2.15508 6.3444-3.08177-2.40823-3.3994-6.2337-4.24706-9.75251-2.01306-6.27816-4.91519-12.26326-8.13661-18.01812-2.32269-4.13126-4.29535-8.42554-6.4607-12.62366.35654-.20973.71309-.41947 1.06963-.6292zm-6.85822 7.4245c3.20585.36731-2.91302 3.70252 1.07402 4.07817 2.06493.33855 1.53233 3.25795 3.40338 3.74888 4.70946.26909-.50989 6.96879 4.33132 5.98377 2.32353 1.82908-.11918 6.56351 3.52349 7.77056 3.02743 1.45541 2.16926 5.04361 3.58431 7.53019.33646 1.90614 1.4276 1.61876 2.74331.67869.97898-.64841 2.93717-1.659 2.56851.13079-1.70677.84889-3.41542 1.69403-5.12096 2.54539-1.3592-2.63355-2.56977-5.34809-2.86284-8.33683-2.66597-2.00535-5.08152-4.23599-4.66378-7.89968.63349-2.80956-4.71884.05214-3.30587-3.48439 1.85436-3.59372-2.29573-3.13137-3.15242-5.54337-.2369-2.41938-3.86547-2.02433-4.07298-4.15058.59665-1.05076 1.34878-2.00331 1.95051-3.05159zm-19.2219 34.70008c-.52628 1.56456-5.56103 6.26329-1.83826 3.29385 1.92563-1.16498 2.20054-.40736 1.85241-2.9897l-.01016-.2183-.00399-.08585zm-.75503 11.16821c3.63877.61962-4.52461 4.12153-2.77163 4.20959 1.06813-.77551 3.35029-.67641 2.16511.66937-1.7693.5444-3.53861 1.0888-5.30791 1.6332-1.31855-2.82517 4.47899-4.23472 5.85151-6.44924l.06292-.06292zm.37751 12.04908c2.98734.09267-1.63615 3.11105-2.48532 4.40436-3.25917 2.64952 3.87545-2.62698 3.30328-.0067-1.36507.95795-6.32069 4.07537-8.03304 2.34992 2.14302-2.43913 5.21504-4.03146 7.21508-6.74758zm-17.93204 10.79068c-.16561 2.29913-.60461 5.1898 1.60699 2.33102 2.46042-1.51016-.25785-1.44273-1.60699-2.33102zm-1.06964 27.84187c-.05368 2.16-.86946 5.59678 1.98197 2.89429 2.11137-.91801 3.69143-2.5758.29538-2.54698-.75775-.12318-1.52001-.22959-2.27735-.34731zm-.53481 23.59479c1.89819 1.15773 6.74705 1.4473 6.62417 3.61005-1.35889-.21132-6.38455-1.36979-6.62417-3.00729v-.60276zm-8.65143 79.49874c-7.43069.20467-14.88642-.03548-22.30495.22022-3.20574 2.04336-6.91063 3.38573-9.41849 6.34228-1.89757 2.66728 3.18706 4.95181 5.80062 4.35403 1.31757.87513 6.02198-.83708 5.22232 1.63591-1.23119 3.57052-5.24674 4.19795-7.89639 6.35486-1.63449 3.39457 2.24435 7.61123 5.15939 4.37291 1.72769-1.64104 3.21847-1.82972 4.4424.19533 2.02259 1.58585-1.41704 5.85521 3.01356 5.62472 2.89444-1.45796 5.4772-4.0046 8.19571-5.93506 1.80381-2.30602 4.72324-4.86999 5.86679-.51419 2.64879 2.2654 5.97135 1.70263 9.13655 1.49337 3.88773-.13295 8.16807-.65483 10.40243-4.31739 3.63406-1.73618 7.09859 1.80897 8.93108 4.65393 2.45352 1.61148 6.54503 1.82435 5.29424-2.25783-.96378-2.67132-.13016-5.49566 3.08082-3.77442 3.51741.67159 6.24689 3.33571 9.6209 4.26526-.20423-2.56481-.23944-7.39559 3.32067-4.11317 3.00148 2.17458 6.13657 4.2837 9.76658 5.24572.12952-1.51521-.26993-3.17256.22022-4.59312 2.33289-2.39809 7.00068 4.63696 5.97735-.72357.48612-1.84003-2.0339-5.90837.53481-5.6313 3.54583 1.49567 7.28751 2.52958 11.07383 3.2089-2.50662-4.1683-6.982-6.45784-10.79069-9.24916-3.67758-1.53078-7.56443-2.74471-11.58783-2.66856-4.34197-.39585-8.79021-.21485-13.0747-.8506-1.83483-1.33321-1.53229-.14289-1.19737.24734-2.56148 3.67135-7.1378 2.96037-11.01262 3.65354-5.41376.51747-10.88307 1.05884-16.01129 2.98447-3.54422.46111-6.67982-2.66556-9.24546-4.84604-1.12746-1.56214-1.66154-3.61448-2.52048-5.37838z"/>
</svg>
