<svg width="300" height="200" viewBox="0 0 300 200"
     xmlns="http://www.w3.org/2000/svg">
  <defs>
    <g id="state-border">
      <polygon points="2.02,0.41 1.81,0.54 1.7,0.66 1.62,0.82 1.39,0.87 1.33,0.91 1.31,0.89 0.9,0.92 0.89,0.92 0.53,1.08 0.41,1.27 0.35,1.48 0.32,1.66 0.31,1.85 0.31,1.88 0.26,1.89 0.22,1.89 0.18,1.86 0.1,1.83 0.03,1.86 0.01,1.9 0.06,1.74 0.12,1.66 0.11,1.58 0.05,1.45 0.02,1.28 0.08,1.21 0.03,1.13 0.11,1.01 0.23,0.83 0.35,0.61 0.53,0.44 0.71,0.26 0.91,0.05 1.1,0.03 1.53,0.07 1.79,0.08 1.86,0.3 2.02,0.4" style="fill:#EAEAEA;stroke:#000000;stroke-width:0.04" />
    </g>
  </defs>
  <rect x="0" y="0" width="300" height="200" fill="#D99058"/>
    <use x="3.6" y="-3.8" href="#state-border" fill="url('#myGradient')" transform="translate(10, 0) scale(50, -50)"/>
</svg>