<svg width="300" height="200" viewBox="0 0 300 200"
     xmlns="http://www.w3.org/2000/svg">
  <defs>
    <g id="state-border">
      <polygon points="3.25,0.5 3.24,0.53 3.2,0.56 3.18,0.58 3.14,0.62 3.06,0.74 3.01,0.76 2.98,0.77 2.96,0.86 2.98,0.97 3.05,1.01 3.01,1.11 2.94,1.14 2.83,1.12 2.83,1.18 2.82,1.25 2.77,1.32 2.72,1.49 2.66,1.49 2.56,1.47 2.51,1.47 2.44,1.45 2.4,1.46 2.32,1.49 2.21,1.56 2.3,1.65 2.44,1.85 2.48,1.89 2.36,1.95 2.37,2.02 2.51,2.08 2.45,2.15 2.45,2.21 2.43,2.25 2.42,2.29 2.45,2.34 2.44,2.4 2.44,2.48 2.41,2.52 2.42,2.55 2.35,2.58 2.27,2.67 2.24,2.64 2.14,2.59 2.08,2.56 2.03,2.54 1.99,2.51 1.97,2.46 1.88,2.4 1.76,2.39 1.74,2.36 1.69,2.32 1.65,2.27 1.6,2.24 1.56,2.2 1.52,2.17 1.45,2.12 1.41,2.14 1.35,2.15 1.28,2.17 1.2,2.16 1.12,2.11 1.05,2.11 0.97,2.14 0.91,2.13 0.84,2.13 0.78,2.16 0.72,2.17 0.68,2.18 0.61,2.21 0.53,2.2 0.5,2.23 0.42,2.24 0.35,2.24 0.24,2.14 0.18,1.97 0.16,1.91 0.21,1.8 0.25,1.75 0.11,1.67 0.02,1.52 0.12,1.46 0.33,1.0 0.7,0.48 0.78,0.42 0.93,0.4 1.05,0.3 1.13,0.2 1.24,0.26 1.39,0.35 1.37,0.28 1.59,0.31 1.75,0.23 1.8,0.09 1.86,0.0 1.94,0.05 2.07,0.07 2.17,0.12 2.33,0.21 2.44,0.32 2.48,0.31 2.53,0.3 2.58,0.35 2.65,0.34 2.77,0.43 2.85,0.42 2.97,0.41 3.09,0.48 3.19,0.49" style="fill:#EAEAEA;stroke:#000000;stroke-width:0.04" />
    </g>
  </defs>
  <rect x="0" y="0" width="300" height="200" fill="#FE28A2"/>
    <use x="3.7" y="-4.8" href="#state-border" fill="url('#myGradient')" transform="translate(10, 0) scale(40, -40)"/>
</svg>