<svg width="300" height="200" viewBox="0 0 300 200"
     xmlns="http://www.w3.org/2000/svg">
  <defs>
    <g id="state-border">
      <polygon points="3.14,0.82 3.0,0.83 2.93,0.78 2.84,0.83 2.8,1.0 2.64,1.09 2.43,1.05 2.46,1.13 2.32,1.06 2.19,0.99 2.1,1.07 1.98,1.17 1.86,1.2 1.75,1.25 1.41,1.71 1.18,2.21 1.07,2.3 1.16,2.43 1.31,2.52 1.26,2.57 1.22,2.68 1.23,2.74 1.28,2.91 1.39,3.01 1.42,3.07 1.37,3.11 1.32,3.2 1.28,3.23 1.17,3.24 1.12,3.27 1.09,3.32 1.07,3.37 1.01,3.41 0.97,3.44 0.95,3.48 0.91,3.51 0.9,3.54 0.88,3.58 0.87,3.63 0.83,3.65 0.77,3.68 0.73,3.7 0.7,3.73 0.66,3.75 0.61,3.77 0.59,3.81 0.45,3.69 0.38,3.59 0.4,3.55 0.38,3.51 0.39,3.44 0.29,3.42 0.24,3.42 0.18,3.45 0.09,3.42 0.04,3.45 0.0,3.41 0.05,3.36 0.07,3.31 0.07,3.26 0.12,3.22 0.18,3.16 0.18,3.12 0.18,3.05 0.15,3.02 0.16,2.98 0.18,2.94 0.22,2.88 0.26,2.86 0.26,2.81 0.24,2.76 0.24,2.74 0.24,2.68 0.28,2.64 0.28,2.59 0.29,2.54 0.27,2.48 0.27,2.43 0.33,2.41 0.38,2.4 0.46,2.39 0.47,2.37 0.44,2.33 0.37,2.28 0.37,2.22 0.34,2.17 0.3,2.12 0.27,2.08 0.24,2.03 0.21,2.0 0.2,1.95 0.22,1.91 0.3,1.91 0.36,1.87 0.39,1.83 0.44,1.8 0.52,1.81 0.58,1.76 0.56,1.72 0.56,1.65 0.58,1.6 0.58,1.57 0.55,1.48 0.62,1.44 0.67,1.41 0.71,1.37 0.78,1.32 0.73,1.27 0.75,1.21 0.73,1.17 0.75,1.13 0.77,1.08 0.83,1.07 0.87,1.04 0.85,0.98 0.88,0.93 0.85,0.89 0.81,0.84 0.86,0.81 0.94,0.79 0.99,0.78 1.03,0.74 1.03,0.65 1.0,0.59 0.97,0.57 1.02,0.53 1.04,0.47 1.1,0.44 1.17,0.46 1.21,0.46 1.24,0.42 1.24,0.38 1.24,0.33 1.25,0.28 1.3,0.25 1.29,0.22 1.31,0.17 1.34,0.12 1.32,0.06 1.31,0.03 1.33,0.01 1.37,0.0 1.4,0.02 1.45,0.03 1.52,0.03 1.63,0.14 1.61,0.18 1.65,0.25 1.77,0.26 1.94,0.29 1.93,0.39 2.08,0.49 2.22,0.44 2.39,0.43 2.48,0.45 2.52,0.43 2.58,0.43 2.64,0.43 2.69,0.44 2.71,0.45 2.74,0.45 2.76,0.46 2.8,0.45 2.87,0.38 2.94,0.35 3.03,0.31 3.09,0.29 3.27,0.28 3.36,0.37 3.32,0.53 3.24,0.73 " style="fill:#EAEAEA;stroke:#000000;stroke-width:0.04" />
    </g>
  </defs>
  <rect x="0" y="0" width="300" height="200" fill="#0067a5"/>
    <use x="8" y="-7.7" href="#state-border" fill="url('#myGradient')" transform="translate(10, 0) scale(25, -25)"/>
</svg>