<svg width="300" height="200" viewBox="0 0 300 200"
     xmlns="http://www.w3.org/2000/svg">
  <defs>
    <g id="state-border">
      <polygon points="0.0,2.17 0.02,2.14 0.04,2.13 0.05,2.12 0.05,2.08 0.11,2.03 0.15,2.0 0.15,1.96 0.34,1.11 0.49,0.55 0.56,0.44 0.75,0.31 0.78,0.17 1.01,0.0 1.03,0.05 1.02,0.14 0.92,0.22 0.9,0.33 0.84,0.3 0.9,0.26 0.99,0.17 1.06,0.15 1.05,0.26 0.99,0.33 0.93,0.36 0.98,0.35 0.95,0.38 0.96,0.37 0.99,0.33 1.07,0.29 1.1,0.28 1.11,0.27 1.13,0.26 1.13,0.25 1.14,0.25 1.13,0.24 1.11,0.27 1.17,0.19 1.24,0.14 1.25,0.25 1.17,0.28 1.19,0.26 1.26,0.23 1.24,0.39 1.14,0.43 1.03,0.45 1.07,0.43 1.14,0.43 1.22,0.44 1.32,0.52 1.36,0.56 1.29,0.6 1.34,0.61 1.34,0.62 1.35,0.6 1.38,0.59 1.38,0.59 1.4,0.62 1.4,0.6 1.41,0.57 1.39,0.55 1.45,0.56 1.44,0.6 1.45,0.63 1.48,0.61 1.49,0.58 1.5,0.61 1.49,0.58 1.53,0.59 1.54,0.62 1.55,0.62 1.55,0.61 1.53,0.59 1.56,0.59 1.58,0.58 1.55,0.57 1.56,0.56 1.59,0.56 1.59,0.56 1.59,0.56 1.6,0.57 1.6,0.55 1.62,0.58 1.64,0.58 1.62,0.57 1.64,0.56 1.64,0.55 1.61,0.56 1.58,0.54 1.57,0.53 1.56,0.52 1.57,0.5 1.6,0.51 1.57,0.5 1.55,0.51 1.57,0.48 1.57,0.48 1.58,0.47 1.56,0.47 1.57,0.46 1.58,0.44 1.6,0.43 1.59,0.42 1.58,0.44 1.57,0.45 1.56,0.45 1.56,0.44 1.57,0.43 1.57,0.43 1.57,0.42 1.59,0.41 1.58,0.4 1.59,0.39 1.57,0.36 1.56,0.33 1.58,0.3 1.56,0.28 1.58,0.25 1.69,0.26 1.8,0.24 1.85,0.19 1.94,0.13 2.28,0.33 2.4,0.31 2.44,0.29 2.52,0.36 2.7,0.32 2.85,0.46 2.75,0.65 2.85,0.65 2.88,0.69 2.73,0.85 2.57,0.92 2.42,0.96 2.28,1.05 2.22,1.08 2.31,1.14 2.32,1.22 2.3,1.33 2.45,1.37 2.58,1.42 2.59,1.57 2.71,1.67 2.72,1.7 2.79,1.73 2.64,1.95 2.62,1.99 2.48,2.12 2.27,2.31 2.19,2.48 1.94,2.71 1.8,2.88 1.71,2.95 1.63,2.97 1.58,2.97 1.5,3.0 1.43,3.0 1.38,3.02 1.33,3.03 1.28,3.02 1.22,3.01 1.18,3.04 1.15,3.07 1.1,3.09 1.08,3.03 1.05,3.02 0.9,3.1 0.76,3.08 0.59,3.1 0.47,3.04 0.44,2.95 0.39,2.88 0.4,2.86 0.42,2.83 0.42,2.81 0.35,2.79 0.3,2.76 0.29,2.73 0.26,2.7 0.26,2.67 0.27,2.65 0.27,2.64 0.35,2.64 0.37,2.47 0.32,2.38 0.12,2.22" style="fill:#EAEAEA;stroke:#000000;stroke-width:0.04" />
    </g>
  </defs>
  <rect x="0" y="0" width="300" height="200" fill="#FE28A2"/>
    <use x="6.4" y="-6.3" href="#state-border" fill="url('#myGradient')" transform="translate(10, 0) scale(30, -30)"/>
</svg>