<svg width="300" height="200" viewBox="0 0 300 200"
     xmlns="http://www.w3.org/2000/svg">
  <defs>
    <g id="state-border">
      <polygon points="3.96,2.58 3.64,2.55 3.44,2.95 3.31,3.25 3.32,3.52 2.93,3.67 2.61,3.86 2.32,4.04 2.25,4.17 2.35,4.34 2.09,4.46 1.6,4.62 1.35,4.26 1.27,3.9 1.21,3.67 1.28,3.56 1.22,3.39 1.04,3.38 0.92,3.39 0.77,3.43 0.61,3.61 0.57,3.49 0.67,3.32 0.67,3.23 0.58,3.17 0.53,3.16 0.5,3.14 0.48,3.15 0.44,3.13 0.39,3.13 0.29,2.97 0.13,2.95 0.02,2.92 0.04,2.89 0.08,2.81 0.06,2.8 0.04,2.77 0.33,2.74 0.68,2.66 0.76,2.42 0.81,2.42 0.88,2.41 0.95,2.38 1.03,2.25 1.19,2.0 1.37,1.73 1.51,1.25 1.63,1.03 1.82,0.87 1.94,0.62 2.24,0.38 2.53,0.23 2.81,0.07 3.03,0.05 3.39,0.14 3.36,0.28 3.68,0.4 4.05,0.42 4.62,0.44 4.83,0.6 4.98,0.76 4.78,0.96 4.8,1.31 4.85,1.51 4.64,1.72 4.56,2.2 4.21,2.55" style="fill:#EAEAEA;stroke:#000000;stroke-width:0.04" />
    </g>
  </defs>
  <rect x="0" y="0" width="300" height="200" fill="#C81D11"/>
    <use x="6.2" y="-7.7" href="#state-border" fill="url('#myGradient')" transform="translate(10, 0) scale(25, -25)"/>
</svg>