<svg width="300" height="200" viewBox="0 0 300 200"
     xmlns="http://www.w3.org/2000/svg">
  <defs>
    <g id="state-border">
      <polygon points="5.13,4.03 4.74,4.5 4.2,4.86 3.41,5.27 2.92,5.4 2.66,5.46 2.27,5.43 1.97,5.09 1.78,5.11 1.68,5.05 1.5,4.84 1.06,4.67 0.58,4.55 0.19,4.49 0.22,4.08 0.18,3.74 0.2,3.47 0.22,3.14 0.54,3.05 0.93,2.61 0.96,2.26 1.2,2.21 1.71,2.4 1.7,2.05 1.92,1.68 2.33,1.67 2.51,1.77 2.67,1.58 2.88,1.41 3.1,1.32 2.99,1.22 2.91,1.08 3.01,1.09 2.99,0.95 3.1,0.75 3.29,0.6 3.45,0.47 3.67,0.43 3.94,0.29 4.35,0.05 4.66,0.02 4.67,0.1 4.66,0.25 4.54,0.45 4.5,0.65 4.56,1.14 4.6,1.55 4.81,1.64 4.79,1.87 4.94,2.0 5.23,2.03 5.21,2.33 5.23,2.61 5.12,2.96 5.1,3.42 5.11,3.89" style="fill:#EAEAEA;stroke:#000000;stroke-width:0.04" />
    </g>
  </defs>
  <rect x="0" y="0" width="300" height="200" fill="#00A693"/>
    <use x="9" y="-9.7" href="#state-border" fill="url('#myGradient')" transform="translate(10, 0) scale(20, -20)"/>
</svg>