<svg width="300" height="200" viewBox="0 0 300 200"
     xmlns="http://www.w3.org/2000/svg">
  <defs>
    <g id="state-border">
      <polygon points="0.01,1.42 0.07,1.28 0.15,1.16 0.25,0.96 0.17,0.88 0.24,0.84 0.35,0.72 0.38,0.52 0.41,0.42 0.41,0.42 0.44,0.41 0.43,0.39 0.56,0.41 0.52,0.42 0.53,0.43 0.52,0.48 0.54,0.44 0.64,0.41 0.71,0.35 0.8,0.33 0.82,0.34 0.86,0.34 1.02,0.33 1.05,0.3 1.07,0.3 1.12,0.32 1.07,0.29 1.28,0.31 1.37,0.26 1.47,0.32 1.48,0.28 1.56,0.26 1.59,0.24 1.62,0.27 1.59,0.34 1.61,0.36 1.62,0.37 1.66,0.38 1.72,0.38 1.77,0.3 1.78,0.28 1.8,0.24 1.8,0.22 1.92,0.21 2.22,0.14 2.35,0.09 2.34,0.09 2.5,0.02 2.62,0.04 2.65,0.07 2.67,0.11 2.67,0.11 2.73,0.12 2.71,0.17 2.69,0.19 2.71,0.21 2.71,0.22 2.71,0.24 2.71,0.19 2.72,0.18 2.75,0.18 2.74,0.17 2.75,0.14 2.74,0.13 2.82,0.27 2.84,0.59 2.86,0.63 2.88,0.65 2.9,0.67 2.95,0.66 3.0,0.68 3.0,0.73 3.02,0.76 3.0,0.78 3.0,0.81 3.03,0.82 3.04,0.84 3.0,0.85 3.0,0.92 3.0,0.93 3.01,0.96 3.01,0.98 3.0,1.0 3.08,1.2 3.12,1.2 3.14,1.21 3.17,1.23 3.2,1.26 3.21,1.27 3.26,1.25 3.27,1.22 3.32,1.21 3.38,1.21 3.4,1.26 3.44,1.27 3.43,1.35 3.45,1.38 3.48,1.42 3.53,1.47 3.59,1.48 3.64,1.51 3.73,1.52 3.82,1.54 3.88,1.55 3.9,1.57 3.97,1.59 4.06,1.58 4.11,1.58 4.17,1.58 4.23,1.58 4.34,1.59 4.37,1.66 4.37,1.71 4.36,1.73 4.36,1.74 4.36,1.77 4.42,1.81 4.41,1.83 4.45,2.06 4.45,2.15 4.39,2.17 4.34,2.2 4.29,2.18 4.26,2.19 4.19,2.17 4.15,2.16 4.1,2.14 4.05,2.16 4.02,2.16 3.97,2.17 3.94,2.2 3.98,2.23 3.98,2.26 3.96,2.28 3.97,2.31 3.72,3.23 3.66,3.32 3.56,3.37 3.36,3.42 3.14,3.48 3.04,3.55 2.98,3.59 2.87,3.7 2.74,3.87 2.67,3.99 2.65,4.02 2.64,4.06 2.61,4.07 2.59,4.08 2.58,4.12 2.6,4.14 2.54,4.19 2.53,4.21 2.53,4.23 2.54,4.26 2.53,4.3 2.51,4.32 2.41,5.19 2.97,5.78 2.98,5.89 3.0,5.95 3.0,5.99 2.97,6.08 2.96,6.13 2.95,6.24 1.84,6.23 1.52,6.15 1.47,5.96 1.17,5.87 1.05,5.65 0.64,5.43 0.6,5.01 0.62,4.44 0.68,4.15 0.68,3.86 0.72,3.54 0.56,3.42 0.27,3.33 0.32,3.14 0.17,3.04 0.07,2.78 0.01,2.24 0.08,1.94 0.13,1.71 0.17,1.56 0.18,1.46 0.01,1.42" style="fill:#EAEAEA;stroke:#000000;stroke-width:0.04" />
    </g>
  </defs>
  <rect x="0" y="0" width="300" height="200" fill="#D99058"/>
    <use x="9.7" y="-9.7" href="#state-border" fill="url('#myGradient')" transform="translate(10, 0) scale(20, -20)"/>
</svg>