<svg width="300" height="200" viewBox="0 0 300 200"
     xmlns="http://www.w3.org/2000/svg">
  <defs>
    <g id="state-border">
      <polygon points="1.28,0.01 1.38,0.11 1.3,0.18 1.28,0.26 1.22,0.34 1.15,0.4 1.22,0.48 1.23,0.56 1.27,0.63 1.33,0.65 1.35,0.81 1.41,0.84 1.59,0.92 1.56,1.01 1.46,1.05 1.55,1.07 1.62,1.04 1.64,1.19 1.58,1.26 1.61,1.36 1.62,1.43 1.45,1.47 1.34,1.55 1.13,1.67 0.93,1.71 0.97,1.6 0.83,1.6 0.69,1.63 0.5,1.68 0.29,1.65 0.16,1.57 0.09,1.51 0.16,1.38 0.26,1.3 0.35,1.2 0.37,1.11 0.34,0.97 0.21,0.97 0.12,0.89 0.0,0.84 0.05,0.66 0.19,0.59 0.24,0.62 0.29,0.5 0.23,0.39 0.11,0.29 0.17,0.23 0.28,0.18 0.42,0.06 0.58,0.0 0.73,0.11 0.81,0.09 0.91,0.12 1.05,0.02 1.13,0.03 1.24,0.01 " style="fill:#EAEAEA;stroke:#000000;stroke-width:0.04" />
    </g>
  </defs>
  <rect x="0" y="0" width="300" height="200" fill="#D99058"/>
    <use x="4" y="-3.9" href="#state-border" fill="url('#myGradient')" transform="translate(10, 0) scale(50, -50)"/>
</svg>