<svg width="300" height="200" viewBox="0 0 300 200"
     xmlns="http://www.w3.org/2000/svg">
  <defs>
    <g id="state-border">
      <polygon points="1.13,0.0 1.19,0.02 1.25,0.05 1.24,0.07 1.23,0.09 1.22,0.12 1.26,0.19 1.31,0.26 1.43,0.34 1.62,0.32 1.76,0.32 1.88,0.24 1.93,0.27 1.93,0.31 1.99,0.3 2.01,0.26 2.06,0.23 2.12,0.24 2.16,0.26 2.21,0.25 2.27,0.24 2.36,0.21 2.41,0.2 2.48,0.19 2.55,0.17 2.66,0.08 2.76,0.14 2.91,0.17 2.84,0.26 2.81,0.32 2.83,0.35 2.85,0.42 3.01,0.4 3.04,0.48 3.08,0.58 3.13,0.63 3.17,0.72 3.04,0.76 2.87,0.92 2.76,1.0 2.78,1.07 2.73,1.07 2.59,1.05 2.54,1.08 2.52,1.02 2.46,0.98 2.37,0.99 2.28,1.06 2.21,1.05 2.17,1.08 2.14,1.14 2.17,1.21 2.14,1.26 2.13,1.31 2.24,1.36 2.11,1.35 2.02,1.35 1.89,1.47 1.79,1.44 1.71,1.44 1.62,1.36 1.44,1.4 1.27,1.49 1.16,1.57 1.04,1.61 0.89,1.72 0.8,1.57 0.65,1.53 0.58,1.42 0.63,1.35 0.65,1.31 0.67,1.25 0.67,1.17 0.6,1.13 0.56,1.08 0.43,1.08 0.36,1.07 0.28,1.05 0.22,1.04 0.19,0.99 0.17,0.94 0.07,0.96 0.01,0.92 0.04,0.86 0.14,0.79 0.18,0.75 0.23,0.71 0.31,0.69 0.36,0.64 0.4,0.59 0.46,0.58 0.5,0.56 0.55,0.54 0.59,0.52 0.64,0.47 0.68,0.45 0.74,0.41 0.81,0.37 0.91,0.34 1.02,0.28 1.06,0.26 1.12,0.22 1.15,0.19 1.1,0.1 1.11,0.03 " style="fill:#EAEAEA;stroke:#000000;stroke-width:0.04" />
    </g>
  </defs>
  <rect x="0" y="0" width="300" height="200" fill="#D99058"/>
    <use x="3.8" y="-4.8" href="#state-border" fill="url('#myGradient')" transform="translate(10, 0) scale(40, -40)"/>
</svg>