<svg width="300" height="200" viewBox="0 0 300 200"
     xmlns="http://www.w3.org/2000/svg">
  <defs>
    <g id="state-border">
      <polygon points="1.79,1.89 1.63,1.91 1.67,1.79 1.56,1.76 1.41,1.79 1.29,1.71 1.21,1.69 1.02,1.7 0.61,1.95 0.5,1.92 0.39,1.98 0.23,1.92 0.26,1.83 0.18,1.8 0.09,1.67 0.04,1.65 0.01,1.63 0.12,1.57 0.16,1.58 0.21,1.59 0.26,1.5 0.24,1.44 0.29,1.46 0.33,1.43 0.35,1.39 0.38,1.35 0.4,1.3 0.42,1.26 0.48,1.22 0.49,1.19 0.49,1.16 0.49,1.13 0.44,1.07 0.39,1.08 0.36,1.05 0.4,1.04 0.46,1.02 0.45,1.0 0.44,0.97 0.41,0.97 0.4,0.94 0.57,0.92 0.72,0.89 0.81,0.85 0.96,0.76 1.14,0.62 1.36,0.48 1.5,0.41 1.57,0.42 1.59,0.45 1.65,0.43 1.69,0.42 1.77,0.34 1.75,0.3 1.79,0.26 1.83,0.25 1.84,0.19 1.87,0.14 1.84,0.09 1.9,0.07 1.96,0.02 2.23,0.16 2.27,0.27 2.33,0.41 2.27,0.47 2.26,0.49 2.25,0.51 2.21,0.52 2.24,0.55 2.29,0.57 2.26,0.64 2.25,0.71 2.3,0.8 2.25,0.83 2.2,0.86 2.16,0.89 2.06,0.95 1.95,0.99 1.87,1.03 1.83,1.06 1.8,1.08 1.73,1.13 1.68,1.16 1.64,1.17 1.6,1.19 1.54,1.2 1.51,1.25 1.45,1.29 1.37,1.31 1.33,1.36 1.28,1.4 1.18,1.47 1.17,1.53 1.23,1.57 1.33,1.54 1.35,1.6 1.37,1.65 1.43,1.65 1.51,1.68 1.59,1.68 1.72,1.69 1.75,1.74 1.82,1.78 1.81,1.86 " style="fill:#EAEAEA;stroke:#000000;stroke-width:0.04" />
    </g>
  </defs>
  <rect x="0" y="0" width="300" height="200" fill="#0067a5"/>
    <use x="3.2" y="-3.8" href="#state-border" fill="url('#myGradient')" transform="translate(10, 0) scale(50, -50)"/>
</svg>