<svg width="300" height="200" viewBox="0 0 300 200"
     xmlns="http://www.w3.org/2000/svg">
  <defs>
    <g id="state-border">
      <polygon points="0.41,1.56 0.41,1.44 0.32,1.36 0.13,1.31 0.1,1.2 0.08,1.13 0.03,1.06 0.05,1.01 0.1,0.95 0.33,0.98 0.45,0.79 0.54,0.74 0.64,0.63 0.59,0.6 0.57,0.51 0.63,0.24 0.65,0.15 0.7,0.0 0.76,0.05 0.93,0.04 1.03,0.14 1.13,0.26 1.16,0.26 1.21,0.27 1.23,0.28 1.26,0.29 1.31,0.31 1.38,0.38 1.41,0.45 1.26,0.66 1.41,0.67 1.55,0.54 1.69,0.5 1.77,0.49 1.96,0.55 1.98,0.71 1.68,0.92 1.44,1.18 1.29,1.29 1.27,1.23 1.08,1.32 0.93,1.38 0.81,1.48 0.68,1.49 0.59,1.51 " style="fill:#EAEAEA;stroke:#000000;stroke-width:0.04" />
    </g>
  </defs>
  <rect x="0" y="0" width="300" height="200" fill="#C81D11"/>
    <use x="2.7" y="-3.2" href="#state-border" fill="url('#myGradient')" transform="translate(10, 0) scale(60, -60)"/>
</svg>