<svg width="300" height="200" viewBox="0 0 300 200"
     xmlns="http://www.w3.org/2000/svg">
  <defs>
    <g id="state-border">
      <polygon points="0.41,2.89 0.13,3.0 0.0,2.87 0.04,2.79 0.05,2.76 0.05,2.74 0.04,2.73 0.04,2.65 0.08,2.64 0.08,2.63 0.09,2.63 0.1,2.62 0.12,2.62 0.11,2.61 0.13,2.59 0.13,2.58 0.16,2.57 0.18,2.52 0.21,2.48 0.23,2.45 0.25,2.45 0.25,2.45 0.25,2.44 0.26,2.42 0.27,2.41 0.32,2.38 0.33,2.37 0.37,2.35 0.37,2.35 0.43,2.26 0.5,2.22 0.5,2.22 0.52,2.19 0.53,2.18 0.55,2.15 0.56,2.06 0.57,2.02 0.6,2.04 0.59,2.01 0.57,1.98 0.57,1.98 0.58,1.98 0.56,1.94 0.54,1.92 0.55,1.9 0.55,1.84 0.56,1.86 0.57,1.87 0.58,1.86 0.57,1.85 0.59,1.83 0.6,1.86 0.67,1.85 0.75,1.84 0.79,1.82 0.79,1.8 0.82,1.78 0.82,1.72 0.79,1.72 0.78,1.69 0.77,1.69 0.79,1.67 0.75,1.7 0.72,1.7 0.7,1.66 0.72,1.63 0.78,1.55 0.8,1.55 0.83,1.55 0.91,1.54 0.96,1.46 0.96,1.45 0.98,1.32 0.98,1.28 0.99,1.26 0.99,1.24 1.0,1.21 1.02,1.17 1.05,1.12 1.1,1.05 1.13,1.02 1.18,0.96 1.16,0.85 1.17,0.85 1.19,0.83 1.19,0.8 1.23,0.77 1.29,0.68 1.33,0.66 1.34,0.67 1.37,0.64 1.38,0.63 1.39,0.61 1.45,0.61 1.49,0.56 1.53,0.57 1.57,0.56 1.58,0.55 1.67,0.56 1.7,0.56 1.71,0.57 1.73,0.57 1.79,0.56 1.82,0.55 1.83,0.56 1.86,0.57 1.95,0.56 1.95,0.55 1.99,0.53 2.07,0.45 2.17,0.4 2.25,0.39 2.31,0.37 2.38,0.34 2.45,0.27 2.48,0.21 2.5,0.2 2.57,0.18 2.57,0.18 2.58,0.14 2.57,0.13 2.55,0.12 2.53,0.13 2.49,0.1 2.56,0.04 2.62,0.0 2.75,0.03 2.81,0.08 2.5,0.31 2.35,0.57 2.16,0.77 2.02,0.95 1.89,1.42 1.74,1.73 1.61,1.92 1.45,2.14 1.38,2.17 1.32,2.2 1.27,2.2 1.2,2.4 0.92,2.5 0.6,2.52 0.56,2.57 0.58,2.59 0.58,2.62 0.46,2.66 0.46,2.82 " style="fill:#EAEAEA;stroke:#000000;stroke-width:0.04" />
    </g>
  </defs>
  <rect x="0" y="0" width="300" height="200" fill="#D99058"/>
    <use x="4.2" y="-4.7" href="#state-border" fill="url('#myGradient')" transform="translate(10, 0) scale(40, -40)"/>
</svg>