<svg width="300" height="200" viewBox="0 0 300 200"
     xmlns="http://www.w3.org/2000/svg">
  <defs>
    <g id="state-border">
      <polygon points="1.56,0.17 1.67,0.39 1.85,0.34 1.9,0.37 2.05,0.43 2.24,0.52 2.22,0.7 2.17,0.82 1.94,0.88 1.86,1.12 1.94,1.23 2.05,1.31 1.9,1.48 1.7,1.61 1.59,1.6 1.41,1.56 1.37,1.58 1.32,1.63 1.29,1.66 1.24,1.69 1.18,1.7 1.1,1.69 1.0,1.68 0.87,1.6 0.75,1.62 0.67,1.62 0.55,1.54 0.47,1.54 0.43,1.49 0.39,1.51 0.34,1.5 0.23,1.4 0.07,1.3 0.02,1.22 0.16,1.06 0.23,0.86 0.43,0.84 0.67,0.79 0.77,0.72 0.8,0.65 0.73,0.45 0.71,0.39 0.81,0.38 0.91,0.25 1.06,0.18 1.26,0.1 1.38,0.04 1.53,0.0 1.57,0.13 " style="fill:#EAEAEA;stroke:#000000;stroke-width:0.04" />
    </g>
  </defs>
  <rect x="0" y="0" width="300" height="200" fill="#FE28A2"/>
    <use x="3.3" y="-3.8" href="#state-border" fill="url('#myGradient')" transform="translate(10, 0) scale(50, -50)"/>
</svg>