<svg width="300" height="200" viewBox="0 0 300 200"
     xmlns="http://www.w3.org/2000/svg">
  <defs>
    <g id="state-border">
      <polygon points="1.11,1.27 1.07,1.07 0.76,0.96 0.75,0.89 0.75,0.87 0.69,0.87 0.66,0.87 0.65,0.85 0.65,0.84 0.62,0.86 0.58,0.85 0.44,0.84 0.25,0.8 0.0,0.71 0.32,0.66 0.59,0.59 0.57,0.45 0.58,0.28 0.89,0.3 1.28,0.14 1.65,0.05 1.55,0.37 1.59,0.51 1.58,0.7 1.73,0.62 2.01,0.48 2.26,0.6 2.48,0.72 2.7,0.86 2.8,0.95 2.67,0.99 2.31,1.07 1.94,0.95 1.53,0.99 1.23,1.23" style="fill:#EAEAEA;stroke:#000000;stroke-width:0.04" />
    </g>
  </defs>
  <rect x="0" y="0" width="300" height="200" fill="#D99058"/>
    <use x="2.7" y="-3.8" href="#state-border" fill="url('#myGradient')" transform="translate(10, 0) scale(50, -50)"/>
</svg>