<svg width="300" height="200" viewBox="0 0 300 200"
     xmlns="http://www.w3.org/2000/svg">
  <defs>
    <g id="state-border">
      <polygon points="1.29,1.36 1.27,1.39 1.23,1.42 1.18,1.45 1.17,1.49 1.13,1.51 1.09,1.5 1.02,1.51 1.0,1.55 0.97,1.6 0.92,1.64 0.85,1.67 0.79,1.69 0.73,1.78 0.79,1.82 0.85,1.85 0.92,1.85 1.0,1.87 1.05,1.95 1.03,1.98 1.02,2.0 1.0,2.01 0.98,2.02 0.96,2.03 0.93,2.05 0.9,2.08 0.87,2.09 0.86,2.1 0.85,2.13 0.84,2.14 0.85,2.16 0.85,2.17 0.88,2.2 0.91,2.21 0.94,2.23 0.98,2.23 1.01,2.25 1.05,2.27 1.08,2.28 0.69,2.6 0.64,2.56 0.59,2.57 0.53,2.55 0.5,2.54 0.48,2.51 0.4,2.48 0.33,2.44 0.24,2.4 0.16,2.38 0.1,2.36 0.15,2.23 0.2,2.2 0.2,2.16 0.22,2.12 0.22,2.07 0.23,1.99 0.23,1.94 0.22,1.9 0.24,1.86 0.22,1.81 0.26,1.76 0.16,1.67 0.15,1.62 0.23,1.57 0.26,1.5 0.18,1.38 0.0,1.23 0.07,1.16 0.19,1.14 0.22,1.09 0.29,1.11 0.34,1.12 0.43,1.11 0.49,1.15 0.56,1.01 0.61,0.89 0.65,0.84 0.6,0.77 0.7,0.78 0.77,0.75 0.86,0.7 0.79,0.63 0.73,0.51 0.79,0.46 0.79,0.41 0.84,0.39 0.91,0.28 0.96,0.22 0.99,0.21 1.02,0.17 1.05,0.15 1.08,0.15 1.14,0.14 1.19,0.11 1.21,0.06 1.26,0.02 1.37,0.03 1.5,0.04 1.64,0.07 1.49,0.31 1.4,0.48 1.31,0.59 1.37,0.68 1.29,0.76 1.33,0.91 1.4,1.05 1.4,1.12 1.33,1.21 1.29,1.36 " style="fill:#EAEAEA;stroke:#000000;stroke-width:0.04" />
    </g>
  </defs>
  <rect x="0" y="0" width="300" height="200" fill="#C81D11"/>
    <use x="5.2" y="-4.7" href="#state-border" fill="url('#myGradient')" transform="translate(10, 0) scale(40, -40)"/>
</svg>