<svg width="300" height="200" viewBox="0 0 300 200"
     xmlns="http://www.w3.org/2000/svg">
  <defs>
    <g id="state-border">
      <polygon points="1.64,1.24 1.37,1.23 0.95,1.18 0.75,1.21 0.56,1.41 0.35,1.33 0.25,1.17 0.44,1.03 0.65,0.94 0.69,0.81 0.64,0.61 0.45,0.55 0.35,0.5 0.25,0.51 0.06,0.47 0.06,0.33 0.31,0.22 0.43,0.1 0.59,0.06 0.83,0.0 0.96,0.04 0.99,0.13 1.19,0.12 1.5,0.14 1.49,0.23 1.6,0.45 1.78,0.61 1.88,0.69 1.73,0.83 1.71,0.93 2.02,0.92 2.11,1.0 1.71,1.21 " style="fill:#EAEAEA;stroke:#000000;stroke-width:0.04" />
    </g>
  </defs>
  <rect x="0" y="0" width="300" height="200" fill="#F77FBE"/>
    <use x="2.5" y="-3.1" href="#state-border" fill="url('#myGradient')" transform="translate(10, 0) scale(60, -60)"/>
</svg>