<svg width="300" height="200" viewBox="0 0 300 200"
     xmlns="http://www.w3.org/2000/svg">
  <defs>
    <g id="state-border">
      <polygon points="2.4,1.08 2.32,1.14 2.27,1.2 2.19,1.22 2.12,1.23 2.03,1.27 1.95,1.29 1.89,1.31 1.84,1.33 1.71,1.35 1.6,1.34 1.5,1.39 1.46,1.51 1.37,1.64 1.28,1.7 1.13,1.62 1.02,1.64 0.91,1.66 0.85,1.71 0.72,1.67 0.52,1.68 0.41,1.6 0.44,1.55 0.39,1.5 0.4,1.33 0.32,1.29 0.15,0.93 0.1,0.78 0.15,0.59 0.13,0.52 0.07,0.43 0.09,0.28 0.31,0.32 0.43,0.2 0.46,0.11 0.58,0.09 0.86,0.23 1.28,0.26 1.68,0.15 2.06,0.0 2.18,0.14 2.21,0.29 2.37,0.35 2.34,0.46 2.37,0.59 2.5,0.65 2.44,0.82 2.41,1.07 " style="fill:#EAEAEA;stroke:#000000;stroke-width:0.04" />
    </g>
  </defs>
  <rect x="0" y="0" width="300" height="200" fill="#FE28A2"/>
    <use x="3.1" y="-3.7" href="#state-border" fill="url('#myGradient')" transform="translate(10, 0) scale(50, -50)"/>
</svg>