<svg width="300" height="200" viewBox="0 0 300 200"
     xmlns="http://www.w3.org/2000/svg">
  <defs>
    <g id="state-border">
      <polygon points="4.08,0.0 4.56,0.25 4.78,0.41 4.89,0.53 5.0,0.71 5.37,0.82 5.45,1.46 5.24,2.5 5.52,2.99 5.16,3.21 4.88,3.42 4.62,3.48 4.21,3.5 3.91,3.61 3.66,3.61 3.44,3.59 3.26,3.52 3.07,3.64 2.99,3.75 2.88,3.8 2.68,3.72 2.44,3.81 2.31,3.91 2.23,4.17 2.32,4.41 2.15,4.55 1.77,4.56 1.44,4.43 1.37,4.29 0.89,4.18 0.53,3.73 0.09,3.71 0.11,3.0 0.19,2.63 0.42,2.27 0.73,2.14 1.01,1.85 1.27,1.56 1.26,1.42 1.65,1.41 1.95,1.33 2.69,1.14 3.39,0.64 3.69,0.39" style="fill:#EAEAEA;stroke:#000000;stroke-width:0.04" />
    </g>
  </defs>
  <rect x="0" y="0" width="300" height="200" fill="#0067a5"/>
    <use x="8.3" y="-9.5" href="#state-border" fill="url('#myGradient')" transform="translate(10, 0) scale(20, -20)"/>
</svg>