<?xml version="1.0" encoding="UTF-8" standalone="no"?>
<svg
   inkscape:version="1.1.1 (3bf5ae0d25, 2021-09-20)"
   sodipodi:docname="Flag Baden-Württemberg 2.svg"
   id="svg2130"
   version="1.1"
   viewBox="0 0 999.99994 600"
   height="600"
   width="1000.0001"
   xmlns:inkscape="http://www.inkscape.org/namespaces/inkscape"
   xmlns:sodipodi="http://sodipodi.sourceforge.net/DTD/sodipodi-0.dtd"
   xmlns="http://www.w3.org/2000/svg"
   xmlns:svg="http://www.w3.org/2000/svg">
  <defs
     id="defs2124" />
  <sodipodi:namedview
     inkscape:pagecheckerboard="false"
     fit-margin-bottom="0"
     fit-margin-right="0"
     fit-margin-left="0"
     fit-margin-top="0"
     lock-margins="true"
     units="px"
     inkscape:snap-smooth-nodes="true"
     inkscape:snap-object-midpoints="true"
     inkscape:window-maximized="1"
     inkscape:window-y="-11"
     inkscape:window-x="-11"
     inkscape:window-height="1506"
     inkscape:window-width="2560"
     showgrid="false"
     inkscape:document-rotation="0"
     inkscape:current-layer="layer1"
     inkscape:document-units="px"
     inkscape:cy="300"
     inkscape:cx="500"
     inkscape:zoom="1.5"
     inkscape:pageshadow="2"
     inkscape:pageopacity="0"
     borderopacity="1.0"
     bordercolor="#666666"
     pagecolor="#333333"
     id="base"
     showguides="true"
     inkscape:guide-bbox="true"
     inkscape:snap-intersection-paths="true"
     inkscape:object-paths="true"
     inkscape:snap-grids="false"
     inkscape:snap-global="false"
     inkscape:lockguides="false"
     guidecolor="#00ffff"
     guideopacity="0.49803922"
     inkscape:snap-midpoints="true" />
  <g
     id="layer1"
     inkscape:groupmode="layer"
     inkscape:label="baden-wuerttemberg"
     transform="translate(150.66653,-1.9999997)">
    <g
       id="g14907"
       inkscape:label="flag"
       transform="matrix(2,0,0,2,849.33387,1.9999997)"
       style="stroke-width:0.5">
      <g
         id="g2092"
         inkscape:label="flag-0"
         style="stroke-width:0.850395"
         transform="matrix(0.58796284,0,0,0.58796284,-500.0002,0)">
        <rect
           y="0"
           fill="#f9dd16"
           width="850.39392"
           height="510.23633"
           id="rect2-3"
           x="0"
           style="fill:#f9c700;fill-opacity:1;stroke-width:1.44634"
           inkscape:label="flag-y" />
        <rect
           id="rect628"
           width="850.39386"
           height="255.11816"
           x="0"
           y="0"
           style="fill:#000000;stroke-width:0.850395"
           inkscape:label="flag-s" />
      </g>
      <g
         id="g14876"
         inkscape:label="coa"
         style="stroke-width:0.5"
         transform="matrix(0.87615905,0,0,0.87615905,-31.354893,18.126379)">
        <g
           id="g13524"
           style="stroke-width:0.81577"
           transform="matrix(0.91836902,0,0,0.91836902,-480.88504,30.55966)"
           inkscape:label="coa-0">
          <path
             id="path96"
             style="display:inline;fill:#f9c700;fill-opacity:1;stroke:none;stroke-width:1.08888;stroke-miterlimit:4;stroke-dasharray:none"
             d="m 334.24509,72.853 c 0,0 -3.31782,73.438 -7.36021,117.201 -4.04239,43.763 -30.8467,60.8828 -51.21846,64.861 -16.00619,3.12566 -31.77222,3.22132 -47.38685,0 -18.43194,-3.80254 -45.56378,-21.028 -49.60616,-64.768 L 169.53775,73.061 c 0,0 77.62218,-26.332 164.80057,-0.208 m -116.7149,-17.27 c 39.43521,-4.313 79.32891,-0.615687 117.52279,10.032313 l 0.20975,-3.413 C 287.01765,46.846313 218.22846,46.337 169.63301,61.462 c 0,1.245 0.16235,2.513 0.25613,3.781 15.55163,-4.77198 31.54071,-8.00804 47.73428,-9.661 m 117.19809,15.498313 c 0,-1.107 0,-2.167 0.18554,-3.251 C 296.97552,57.164013 257.2352,53.4433 217.94913,57.728 c -16.26436,1.641 -32.31898,4.908 -47.91982,9.753 0,0.853 0.17783,2.62471 0.24741,3.47771 49.79016,-14.736519 113.46716,-15.617841 164.54479,0.121601"
             inkscape:label="coa-0o" />
          <g
             id="g925"
             transform="matrix(1.4543344,0,0,1.4543344,-86.081732,-30.04651)"
             inkscape:label="lions">
            <path
               id="path42-2"
               style="fill:#ff0000;fill-opacity:1;stroke:#000000;stroke-width:0.357023;stroke-miterlimit:6;stroke-dasharray:none"
               d="m 202.14017,78.505112 c -0.0405,-0.257303 -0.0833,-0.532392 -0.0833,-0.532392 0,0 -1.83992,0.538673 -3.83933,0.538673 -0.70456,0 -2.46117,-0.04397 -3.3014,-0.742653 -1.54002,-1.277111 -2.07558,-3.578248 -2.07558,-3.578248 0,0 -1.47575,5.469377 5.22464,5.469377 4.58435,0 4.14401,-0.717535 4.14401,-0.717535 0,0 -0.0333,-0.211301 -0.069,-0.437222 z m 1.1405,39.164198 c 0.26047,0 -0.0833,-0.53344 -0.0833,-0.53344 0,0 -1.83994,0.53972 -3.83696,0.53972 -0.70693,0 -2.46355,-0.045 -3.30378,-0.74264 -1.54002,-1.27714 -2.07558,-3.57931 -2.07558,-3.57931 0,0 -1.47574,5.46938 5.22465,5.46938 4.58435,0 4.144,-0.71754 4.144,-0.71754 0,0 -0.29675,-0.43617 -0.069,-0.43617 z m 4.39174,37.18243 c -0.0333,-0.20919 -0.069,-0.43233 -0.069,-0.43233 0,0 -1.49718,0.43791 -3.12051,0.43791 -0.57601,0 -2.00178,-0.0363 -2.6873,-0.60457 -1.252,-1.0383 -1.68759,-2.90987 -1.68759,-2.90987 0,0 -1.19965,4.44884 4.24874,4.44884 3.72985,0 3.37042,-0.58434 3.37042,-0.58434 0,0 -0.0261,-0.17224 -0.0548,-0.35564 z"
               inkscape:label="coa-g"
               sodipodi:nodetypes="scsccscssscsccscssccsccsccc" />
            <path
               id="path140"
               d="m 272.53618,94.974351 c -0.25373,-2.520737 -2.31446,-9.51224 -4.42333,-12.144368 3.66215,-0.364427 7.29268,-8.101288 -0.31698,-11.63692 -8.76757,-4.07471 -21.60916,3.947504 -29.7744,6.103813 -1.98166,0.523263 -5.72357,2.219569 -8.33919,-1.363508 -2.61563,-3.583077 2.58399,-6.642891 1.93421,-7.514766 -0.38024,-0.491633 -6.86498,1.664676 -7.03963,5.676127 -0.17465,3.757727 3.66215,6.674521 7.53058,6.642891 3.42424,0 9.65526,-1.77538 16.50443,-4.613787 8.68781,-3.598892 14.50696,-4.375878 17.75655,-2.536552 2.74283,1.585603 2.74283,3.170518 2.29864,4.375878 -1.95003,5.279383 -9.97224,-0.253724 -20.37286,3.709595 -15.64837,5.961481 -23.16314,1.902586 -26.9525,0.301168 -0.31698,-3.392611 -2.67957,-9.242701 -4.75612,-10.289226 0,0 0.93514,-0.428374 1.1256,-2.282828 -1.57322,0.0557 -3.12857,0.349988 -4.61378,0.871875 -1.26587,-0.333485 -2.562,-0.540452 -3.86843,-0.618151 -5.9773,0 -11.82739,2.583996 -11.95391,3.075629 0.22347,1.663989 0.55696,3.310788 0.99908,4.93077 0.98327,-2.187939 2.52074,-0.840246 2.99656,0 l 0.15815,1.633735 v 0.380242 c -0.36443,1.585602 -1.6805,2.09305 -2.59981,0.618151 -0.14165,1.280996 0.31423,2.555804 1.2363,3.456558 0.74535,0.554893 2.99655,-0.935134 3.6147,-1.426767 -0.24891,1.04515 -0.44006,2.104052 -0.5707,3.170518 -2.82947,-0.58996 -5.70432,-0.939948 -8.59292,-1.046525 -3.17052,-5.041474 -10.95551,-3.075629 -10.52714,2.044918 4.75612,-1.981659 6.61126,-0.444189 6.548,1.965845 1.74375,2.09305 10.40062,7.023133 14.01533,8.62455 -2.73478,1.436318 -5.31645,3.146924 -7.70523,5.105424 -10.46388,-0.68141 -9.51224,2.90166 -9.51224,3.75772 h 17.3763 c 5.80705,-1.03703 11.53001,-2.49959 17.12258,-4.37587 0,0 0.30117,-0.85607 0.42838,-1.3477 14.26905,-0.12652 19.99193,-8.56129 25.65224,-8.815013 -0.35249,3.312094 -0.51662,6.641536 -0.49163,9.972243 -10.40062,0.42837 -8.65618,4.56634 -8.65618,4.56634 h 14.01532 c 0,0 2.48911,-7.514763 6.34173,-11.779938 4.03863,3.257678 8.61533,5.784768 13.52369,7.467318 -7.2136,0.68141 -5.72357,4.31262 -5.72357,4.31262 h 11.82738 l 0.31698,-9.11618 -6.59544,-1.918401 M 203.88701,73.540525 c -0.23791,-0.126519 -0.36443,-0.808617 -0.30117,-1.30025 0.78387,-0.338986 1.63649,-0.490945 2.48911,-0.444188 -0.63397,1.300249 -1.85514,1.855141 -2.18794,1.74375 z m 60.50043,96.250065 c -0.19046,-2.09305 -1.41095,-8.84665 -4.75612,-10.7176 0.11483,-0.0254 0.23379,-0.0254 0.34862,0 4.91495,0 8.76757,-7.03964 2.94911,-10.13108 -6.69034,-3.55145 -19.69077,3.39261 -25.90597,5.27938 -1.5856,0.46001 -4.37588,1.95003 -6.34172,-1.17304 -1.96585,-3.12307 1.98166,-5.80265 1.49002,-6.57963 -0.30117,-0.42838 -5.24775,1.45839 -5.39077,4.9624 -0.14302,3.504 1.17304,6.15125 4.13797,6.13544 2.61562,0 8.98966,-1.88677 14.26905,-4.36006 6.64289,-3.17052 13.12763,-4.10634 15.58442,-2.50493 0.68072,0.38025 1.17511,1.02384 1.36695,1.77951 0.19184,0.75567 0.0646,1.55741 -0.35274,2.21613 -1.47421,4.61379 -9.08456,-0.74536 -17.01188,2.7112 -11.9539,5.20031 -18.53354,3.17052 -21.48265,1.71212 -0.23791,-2.94911 -1.93421,-7.80012 -3.55144,-8.72012 0,0 0.39605,-0.31699 0.55489,-1.9184 -1.06561,-0.0438 -2.13222,0.0575 -3.17052,0.30116 -1.15585,-0.493 -2.37084,-0.83405 -3.61471,-1.01489 -4.56634,0 -9.51224,1.34769 -9.67107,1.77538 0.17052,1.45083 0.42425,2.89066 0.76117,4.31262 0.82573,-0.73969 1.88096,-0.93582 2.39422,0.39674 l 0.0151,1.63236 c -0.34862,1.20467 -1.26862,1.5856 -1.93422,0.30117 -0.15402,1.09466 0.14371,2.20444 0.82443,3.07563 0.57071,0.47582 2.29864,-0.80862 2.77446,-1.2363 0,0.0949 2.42585,-1.18886 0.58652,3.93168 -0.2379,0.6656 -9.68689,-0.38024 -10.14689,-1.45839 -3.42424,-7.92733 -11.87483,2.10886 -7.48314,1.37932 3.17052,-0.52326 4.47077,-0.25372 4.75612,0.93514 1.25281,1.6963 13.90394,8.27593 14.71255,10.14689 -0.0953,0.14177 -0.24382,0.23898 -0.41187,0.26954 -1.81732,0.72266 -3.47168,1.80082 -4.86751,3.17052 -7.92732,-0.58653 -6.70615,2.85353 -6.70615,3.59889 l 14.90301,-0.19047 c 5.11739,-0.79987 10.16029,-2.01943 15.07767,-3.64633 0,0 -0.28535,-1.72794 0.15883,-1.7912 10.73342,-1.5856 11.09785,-7.54639 15.42628,-7.75267 -0.14302,1.5856 -1.87096,5.8659 -1.77538,8.70431 -7.92732,0.39606 -6.61126,3.99495 -6.61126,3.99495 h 11.3832 c 0,0 3.44005,-9.9248 6.34172,-10.98714 0.1774,-0.0674 0.36511,-0.10452 0.55489,-0.11071 0.98327,1.41096 5.53311,6.00893 7.78431,6.61127 -5.5173,0.60233 -5.88172,3.78935 -5.88172,3.78935 h 10.43224 l 1.58561,-7.27686 c -1.10085,-1.02727 -2.57094,-1.56497 -4.07471,-1.49002 m -55.7436,-19.23145 c -0.19046,-0.1107 -0.28535,-0.71373 -0.23791,-1.1256 0.58796,-0.297 1.24564,-0.42844 1.90259,-0.38024 -0.47582,1.1256 -1.41096,1.64886 -1.66468,1.50584 z m 62.97373,-16.72584 c -0.25373,-2.47329 -2.2512,-9.2427 -4.31262,-11.82738 3.58307,-0.34862 7.10289,-7.92733 -0.30117,-11.33575 -8.52966,-3.96332 -21.02264,3.85261 -28.96578,5.94566 -1.93422,0.50745 -5.58055,2.15631 -8.11711,-1.31606 -2.53655,-3.47238 2.52074,-6.46824 1.87096,-7.32499 -0.34861,-0.47582 -6.65871,1.5856 -6.84917,5.51729 -0.19046,3.93169 3.58308,6.50056 7.3408,6.48474 3.32936,0 9.40154,-1.74375 16.04443,-4.50239 8.4664,-3.50401 14.12603,-4.24867 17.28142,-2.45748 2.67957,1.5856 2.67957,3.07563 2.23538,4.26449 -1.88677,5.12123 -9.7027,-0.25373 -19.81797,3.59889 -15.21999,5.80264 -22.52917,1.85514 -26.28621,0.26954 -0.30117,-3.28191 -2.59981,-8.98967 -4.67704,-10.00388 0,0 0.91932,-0.42837 1.09397,-2.21956 -1.52922,0.0516 -3.04263,0.33486 -4.48659,0.84024 -1.22964,-0.32421 -2.48835,-0.52597 -3.75772,-0.60234 -5.81846,0 -11.5104,2.52074 -11.62111,2.99656 0.21591,1.60554 0.53908,3.1939 0.96745,4.75612 0.95095,-2.10887 2.44167,-0.80862 2.90167,0 l 0.17396,1.61654 v 0.36443 c -0.34861,1.5856 -1.5856,2.04492 -2.53655,0.60234 -0.12583,1.24799 0.32386,2.48498 1.22049,3.36098 0.71373,0.53908 2.90167,-0.9035 3.504,-1.37932 -0.23928,1.04583 -0.41943,2.10474 -0.53908,3.17051 -2.75605,-0.57746 -5.55662,-0.91701 -8.37082,-1.01489 -3.02819,-4.91496 -10.65434,-2.99656 -10.24178,1.98166 4.61378,-1.9184 6.43661,-0.42838 6.34172,1.9184 1.6963,2.0291 10.11526,6.83335 13.63439,8.38664 -2.62703,1.36666 -5.10788,2.99759 -7.40406,4.86751 -10.17852,-0.66559 -9.19526,2.80609 -9.19526,3.66215 h 16.86886 c 5.66375,-0.9702 11.24843,-2.35296 16.71071,-4.13797 0,0 0.30117,-0.84024 0.42838,-1.31606 13.84067,-0.12652 19.40541,-8.3392 24.93851,-8.57711 -0.34586,3.22209 -0.50469,6.46206 -0.47582,9.70271 -10.11526,0.42837 -8.43477,4.45495 -8.43477,4.45495 h 13.66671 c 0,0 2.42585,-7.32499 6.23102,-11.46296 3.93196,3.16545 8.38481,5.62246 13.15927,7.26104 -7.02314,0.64979 -5.58055,4.20123 -5.58055,4.20123 h 11.5104 l 0.31698,-8.87827 -6.34172,-1.85514 m -66.85729,-20.88031 c -0.2379,-0.12652 -0.34861,-0.77699 -0.30116,-1.25281 0.76461,-0.32936 1.59454,-0.47582 2.42584,-0.42837 -0.66559,1.26862 -1.85514,1.93421 -2.12468,1.68049 z"
               inkscape:label="coa-s"
               sodipodi:nodetypes="ccccsccccccccccccccccccccccccccccccccccccccccccccccccccscscccsccccccccccccccccccccccccccccccccccccccccccccscsccccccccccccccccccccccccccccccccccccccccccc"
               style="stroke-width:0.687599" />
          </g>
        </g>
        <g
           id="g13519"
           style="stroke-width:0.81577"
           transform="matrix(0.91836902,0,0,0.91836902,-480.88504,30.55966)"
           inkscape:label="coas">
          <path
             id="path130"
             d="m 327.681,56.0437 c 3.3708,-0.97974 5.95061,-2.71749 7.80535,-7.51567 v -1.407 c -1.34074,4.68824 -5.29888,8.15954 -10.122,8.877 3.17532,0.821488 6.32781,1.72882 9.454,2.721 v -0.576 l -7.84,-2.306 m -112.221,-6.179 1.13,-0.646 c 3.92334,-2.03615 6.608,-5.85678 7.194,-10.238 v -0.945 l 0.392,0.876 c 1.52273,3.93487 4.50425,7.13095 8.324,8.923 l 1.107,0.461 h -1.199 c -5.05,0.3 -10.353,0.761 -15.771,1.36 l -1.291,0.138 m 8.716,-9.938 c -0.704,3.818 -2.98,7.165 -6.272,9.223 4.49595,-0.47344 9.00083,-0.857849 13.512,-1.153 -3.17118,-1.83438 -5.66896,-4.63926 -7.125,-8.001 z m -54.394,11.853 v 0.807 c 1.59303,2.03321 3.78844,3.51035 6.272,4.22 l -5.857,1.591 v 0.392 l 6.917,-1.96 c -2.9748,-0.740132 -5.58001,-2.5345 -7.332,-5.05 m 81.854,-48.674 v 32.142 c 2.306,7.309 6.917,11.805 12.29,11.99 5.373,0.185 11.045,-4.404 13.996,-12.036 l 0.83,-30.62 c -8.99815,-1.06733 -18.0552,-1.56032 -27.116,-1.476 m 2.813,11.298 c 1.107,-0.461 1.222,0.3 1.222,0.3 0.369,0.392 0.553,-0.184 0.646,-0.461 0.093,-0.277 -0.692,-1.914 -0.161,-3.32 0.531,-1.406 1.96,-2.582 2.306,-1.914 0.346,0.668 -0.807,0.715 -0.899,2.306 -0.008,0.676 0.282,1.322 0.793,1.766 0.51072,0.44349 1.19016,0.640852 1.859,0.54 1.268,0 1.015,-2.306 1.153,-2.905 0.36675,-0.875203 0.99465,-1.6159 1.798,-2.121 0.576,-0.231 1.176,0 1.061,0.277 -0.5446,0.777873 -0.87812,1.6837 -0.968,2.629 0,1.545 1.015,1.545 1.729,1.614 0.714,0.069 1.706,0 1.683,-0.761 0.104,-1.304 0.882,-2.458 2.052,-3.044 1.36,-0.576 1.453,0.392 1.199,0.576 -0.55744,0.583221 -1.01673,1.2529 -1.36,1.983 -0.29504,0.668077 0.11164,1.43636 0.83,1.568 0.56753,0.142494 1.16147,0.142494 1.729,0 0.392,0 1.591,-1.568 2.098,-1.96 0.507,-0.392 1.729,-0.968 2.121,-0.692 0.392,0.276 -0.346,0.853 -0.346,0.853 -0.674,0.445 -1.139,1.144 -1.291,1.937 -0.392,1.522 1.407,2.767 1.407,2.767 1.937,1.729 0.277,1.43 0.277,1.43 -2.73825,-1.43926 -5.74524,-2.29494 -8.831,-2.513 -3.145,-0.197 -6.301,0.131 -9.338,0.968 l -0.323,0.53 c 0.692,1.914 -1.522,1.199 -1.522,1.199 -2.306,0.231 -1.222,-1.407 -1.222,-1.407 0,0 -0.83,-1.683 0.3,-2.144 z m 19.437,23.726 c -1.337,-0.208 -1.383,-1.153 -4.773,-2.006 -3.67306,-0.778133 -7.49485,-0.441049 -10.975,0.968 0,0 0.438,1.107 -0.231,1.291 -0.669,0.184 -0.807,-0.323 -0.807,-0.323 0,0 -1.43,0.692 -1.845,-0.161 -0.415,-0.853 0.115,-1.084 0.576,-1.268 0,0 -1.107,-1.96 0.853,-1.13 l 0.669,-0.991 c 0,0 -1.729,-3.828 1.084,-5.349 0,0 1.084,-0.369 0.968,0.231 -0.116,0.6 -0.576,0.669 -0.899,1.637 -0.507,1.545 0.323,3.528 1.222,3.62 0,0 1.084,0.277 1.476,-1.176 0.392,-1.453 0.438,-4.058 2.582,-4.173 0,0 0.692,0 -0.461,1.499 0,0 -1.43,2.467 0.507,3.09 1.937,0.623 1.798,-0.899 2.167,-1.522 0.369,-0.623 1.752,-2.951 2.467,-2.836 0.715,0.115 0,0.968 -0.208,1.36 -0.208,0.392 -1.43,3.343 0.392,3.528 1.822,0.185 1.96,-0.507 3.389,-2.144 1.429,-1.637 2.49,-1.291 2.306,-0.738 -0.184,0.553 -1.268,0.83 -1.729,2.306 -0.461,1.476 0.991,3.044 1.729,3.528 0.092,-0.046 0.853,0.968 -0.461,0.761 z m -1.983,-11.875 c -2.21102,-0.428346 -4.45787,-0.644661 -6.71,-0.646 -2.596,-0.06 -5.174,0.435 -7.563,1.453 0,0 0.346,1.199 -0.507,1.522 -0.53279,0.162885 -1.11199,0.03121 -1.522,-0.346 0,0 -0.876,0.715 -1.453,0 -0.577,-0.715 0.184,-1.568 0.623,-1.43 -0.261,-0.287 -0.349,-0.691 -0.231,-1.061 0.208,-0.553 0.715,-1.153 2.006,-0.484 l 0.715,-0.369 c -0.61198,-0.844983 -0.86864,-1.89606 -0.715,-2.928 0,-2.144 1.499,-3.021 1.822,-2.905 0.323,0.116 0.623,0.346 0,1.222 -0.666,0.931 -0.666,2.182 0,3.113 0.43307,0.75101 1.39288,1.00887 2.144,0.576 0.161,-0.115 0.507,-0.438 0.507,-1.453 0,-1.015 0.899,-3.597 2.536,-3.666 1.637,-0.069 0,1.153 -0.254,1.637 -0.41966,0.890712 -0.41966,1.92229 0,2.813 0.728,0.631 1.808,0.631 2.536,0 0.576,-0.576 0.576,-1.822 1.13,-2.467 0.554,-0.645 1.914,-1.845 2.306,-1.153 0.392,0.692 -0.438,0.692 -1.015,1.706 -0.577,1.014 -0.138,2.675 1.153,2.536 1.291,-0.139 1.683,-0.231 2.698,-1.822 0.592,-1.101 1.849,-1.668 3.067,-1.383 0.3,0.277 -0.184,0.853 -0.807,1.407 -0.515,0.369 -0.841,0.946 -0.89,1.578 -0.049,0.632 0.184,1.252 0.636,1.696 1.337,1.13 2.306,0.968 2.306,2.006 0,1.038 -3.528,-0.83 -4.519,-1.153 z m -82.015,27.785 0.715,-0.646 c 2.28508,-2.26497 3.7739,-5.20998 4.243,-8.393 l 0.138,-0.83 0.369,0.738 c 1.598,3.114 4.48,5.372 7.886,6.179 l 1.245,0.346 -1.268,0.184 c -4.611,0.761 -8.739,1.476 -12.382,2.306 l -0.945,0.184 m 5.349,-8.208 c -0.52355,2.71885 -1.77462,5.24482 -3.62,7.309 3.44675,-0.687108 6.90602,-1.30988 10.376,-1.868 -2.874,-0.937 -5.304,-2.898 -6.825,-5.511 z m 118.907,7.863 -1.199,-0.254 c -4.058,-0.807 -8.301,-1.545 -12.589,-2.306 l -1.176,-0.184 1.13,-0.346 c 3.183,-0.908 5.846,-3.095 7.355,-6.041 l 0.369,-0.715 0.138,0.807 c 0.514,3.279 2.304,6.222 4.98,8.185 l 0.991,0.738 m -12.635,-2.675 c 3.4937,0.544811 6.97607,1.15994 10.445,1.845 -2.12294,-1.85334 -3.58725,-4.34544 -4.173,-7.102 -1.427,2.419 -3.641,4.274 -6.272,5.257 z m -14.595,-1.428 -1.199,-0.115 c -5.003,-0.507 -10.307,-0.876 -16.763,-1.199 h -1.199 l 1.107,-0.461 c 4.328,-2.098 7.739,-5.707 9.592,-10.145 l 0.461,-0.991 v 1.084 c 0.1588,4.70841 2.78748,8.98453 6.917,11.252 l 1.038,0.623 m -16.832,-1.798 c 5.488,0.277 10.168,0.623 14.572,1.038 -3.46,-2.275 -5.719,-5.981 -6.156,-10.099 -1.78601,3.80136 -4.71143,6.95222 -8.37,9.015 z m -29.56,0.251 1.107,-0.553 c 1.28561,-0.746734 2.50446,-1.6029 3.643,-2.559 2.17126,-2.10685 3.91697,-4.61169 5.142,-7.378 l 0.254,-0.576 0.231,0.599 c 1.42125,4.19411 4.36801,7.70024 8.255,9.822 l 1.084,0.53 h -8.578 l -9.915,0.161 h -1.245 m 10.214,-9.684 c -1.23487,2.58971 -2.93007,4.93345 -5.003,6.917 -0.91534,0.759561 -1.87794,1.4603 -2.882,2.098 4.611,-0.138 9.615,-0.161 15.172,0 -3.334,-2.16 -5.881,-5.338 -7.263,-9.062 z m -0.83,-33.825 v -1.407 c -5.557,0 -11.183,0.346 -16.901,0.761 l 16.901,27.254 v -26.608 m -13.42,42.656 c 2.5276,0.03796 4.9839,-0.838097 6.917,-2.467 l -18.861,-30.851 v 21.328 c 2.306,7.332 6.71,11.828 11.898,11.99 m 47.222,-16.002 c -0.527,0.197 -1.066,0.359 -1.614,0.484 l 0.346,2.029 1.891,-0.161 c 0.323,-1.407 0.323,-1.453 0.899,-1.683 l 3.389,-1.314 c 0.438,-0.184 0.876,-0.254 1.176,0.208 0.86,1.222 2.171,2.051 3.643,2.306 0.387,0.126 0.759,0.296 1.107,0.507 v 0.3 c -0.279,0.152 -0.572,0.276 -0.876,0.369 h -1.706 c -0.528,-0.019 -1.04,0.18 -1.415,0.551 -0.375,0.371 -0.581,0.881 -0.568,1.409 v 1.314 c -0.038,0.625 -0.39,1.187 -0.935,1.495 -0.545,0.308 -1.209,0.318 -1.763,0.027 -0.461,-0.208 -0.922,-0.761 -1.291,-0.692 -0.369,0.069 -0.623,0.738 -0.945,1.13 -0.322,0.392 -0.208,0.161 -0.277,0.277 -0.182,0.219 -0.247,0.512 -0.174,0.787 0.073,0.275 0.276,0.497 0.543,0.596 l 1.499,0.761 c 0.484,0.277 1.015,0.3 1.291,-0.323 0.222,-0.433 0.666,-0.709 1.153,-0.715 l 1.407,-0.277 c 0.553,-0.115 1.314,0 1.591,-0.415 0.277,-0.415 0.161,-1.107 0.208,-1.683 0.047,-0.576 0.3,-1.107 1.13,-1.015 0.83,0.092 1.084,0.231 1.822,0.392 -0.738,1.545 0.369,2.306 1.084,3.413 0.208,0.277 0.461,0.53 0.646,0.83 0.41167,0.476765 0.41167,1.18324 0,1.66 -0.57608,0.521958 -1.42216,0.615114 -2.098,0.231 -0.369,-0.277 -0.692,-0.553 -1.061,-0.231 l -0.53,2.075 1.914,1.015 c 0.33946,0.209376 0.77984,-0.01709 0.807,-0.415 0,-0.738 0.623,-0.922 1.222,-1.153 l 3.136,-1.268 c 0.599,-0.254 0.669,-0.599 0.277,-1.13 -0.392,-0.531 -0.553,-0.576 -0.784,-0.876 -0.738,-1.038 -0.623,-1.66 0.438,-2.306 0.92413,-0.587902 1.56596,-1.52985 1.775,-2.605 0.078,-0.700768 0.5024,-1.31564 1.13,-1.637 0.808,-0.483 1.293,-1.364 1.268,-2.306 -0.0138,-1.03766 -0.12196,-2.07191 -0.323,-3.09 l -1.522,-5.787 c -0.394,-1.388 -0.457,-2.849 -0.184,-4.266 0.004,-0.62679 0.41517,-1.17811 1.015,-1.36 0.29,-0.112 0.618,-0.043 0.838,0.176 0.22,0.219 0.289,0.548 0.176,0.838 0,0.254 -0.184,0.484 -0.254,0.738 -0.145,0.532 0.133,1.088 0.646,1.291 0.44367,0.245304 1.00096,0.115803 1.291,-0.3 0.33781,-0.480503 0.55899,-1.03312 0.646,-1.614 0,-1.291 -0.853,-1.845 -1.914,-2.306 -0.817,-0.33 -1.743,-0.258 -2.499,0.195 -0.756,0.453 -1.257,1.234 -1.352,2.111 -0.105,1.645 0.012,3.297 0.346,4.911 l 1.268,5.718 c 0.139,0.545 0.139,1.115 0,1.66 -0.15122,0.951591 -1.26552,1.39478 -2.029,0.807 -0.22913,-0.124538 -0.4455,-0.271239 -0.646,-0.438 l -2.144,-1.683 c -0.773,-0.4 -1.274,-1.181 -1.317,-2.05 -0.043,-0.869 0.38,-1.695 1.109,-2.169 0.086,-0.098 0.179,-0.19 0.277,-0.277 0.944,-0.747 1.462,-1.911 1.383,-3.113 0,-1.43 -0.231,-2.836 -0.323,-4.266 -0.063,-0.437 -0.366,-0.803 -0.784,-0.945 -1.12017,-0.480836 -2.19968,-1.05136 -3.228,-1.706 -0.98798,-0.620242 -2.17437,-0.842868 -3.32,-0.623 -0.44989,0.02118 -0.82878,0.343365 -0.922,0.784 -0.14844,0.420814 0.0265,0.887473 0.415,1.107 0.424,0.286 0.759,0.686 0.968,1.153 0.277,0.761 -0.461,0.876 -0.945,1.13 -0.484,0.254 -0.3,0.415 -0.231,0.507 0.12487,0.194675 0.32531,0.32842 0.553,0.369 0.29012,-0.03051 0.5761,-0.0922 0.853,-0.184 0,0.876 0,0.968 -0.3,1.176 l -2.859,1.337 -2.306,-3.436 c -0.352,-0.359 -0.352,-0.933 0,-1.291 0.36627,-0.304887 0.30612,-0.883911 -0.115,-1.107 -0.73314,-0.293662 -1.51625,-0.442406 -2.306,-0.438 -0.738,0 -0.461,0.899 -0.576,1.407 v 0.254 c -0.184,0.876 0,1.107 0.669,1.153 0.669,0.046 1.015,0.507 1.222,1.107 0.5175,1.1894 0.97147,2.40545 1.36,3.643 0.23043,1.14008 0.36921,2.29677 0.415,3.459 -0.015,0.133 -0.062,0.259 -0.138,0.369 -0.805,1.347 -1.971,2.441 -3.366,3.159"
             fill="#ffcc00"
             style="fill:#f9c700;fill-opacity:1;stroke-width:1.63154"
             inkscape:label="coas-o" />
          <path
             id="path112"
             d="m 335.901,19.337 -25.179,-4.496 -0.899,10.676 25.502,4.611 0.576,-10.791 m -1.424,24.031 -25.732,-4.611 -0.213,2.669 c -1.1717,14.6818 23.0117,18.0732 25.732,4.45 z m -163.852,-13.932 0.715,-2.306 0.899,2.167 3.828,9.223 1.914,-10.191 0.461,-2.444 1.153,2.306 4.773,9.223 1.476,-10.376 0.323,-2.306 6.179,10.053 -1.66,-19.714 -1.683,0.369 -22.089,5.926 1.107,16.14 2.605,-8.07 m 78.395,5.511 V 34.163 L 230.298,3.819 223.704,4.326 v 6.041 l 20.06,32.995 c 2.32371,-2.40519 4.1149,-5.27273 5.257,-8.416 m 45.1,-20.105 c 0.2242,-0.211764 0.4718,-0.397294 0.738,-0.553 1.151,0.08454 2.25074,0.509956 3.159,1.222 0.246,0.277 0.356,0.649 0.3,1.015 -0.11547,0.452971 -0.61679,0.686731 -1.038,0.484 -1.015,-0.438 -2.029,-0.968 -2.997,-1.499 -0.16039,-0.18297 -0.22058,-0.433093 -0.161,-0.669"
             fill="#ff0000"
             style="stroke-width:1.63154"
             inkscape:label="coas-g" />
          <path
             id="path114"
             d="m 309.523,27.407 -0.623,9.223 25.686,4.611 0.507,-9.269 z m -128.199,27.9 1.822,-0.415 c 10.076,-2.536 9.707,-12.889 9.661,-13.327 l -0.254,-2.951 -5.465,-8.9 -1.499,10.676 -0.392,2.629 -1.222,-2.306 -4.865,-9.431 -1.983,10.583 -0.553,2.813 -1.084,-2.652 -4.035,-9.776 -3.136,10.007 c 0,1.614 0.208,3.343 0.346,5.119 1.79,5.323 7.088,8.642 12.659,7.932 m 28.061,-5.42 c 0.553,0 13.212,-1.937 12.497,-14.134 l -0.184,-7.793 -13.143,1.729 0.715,20.198 m -2.929,-21.558 -0.899,-15.702 -12.728,2.144 1.153,15.287 12.474,-1.729"
             fill="#ffffff"
             style="stroke-width:1.63154"
             inkscape:label="coas-a" />
        </g>
        <path
           fill="none"
           stroke="#f9dd16"
           stroke-width="4"
           d="m -172.50039,81.98887 -0.72455,9.715703 -5.44772,105.722707 c 0,0 -4.4554,69.45104 -70.9296,69.45104 -66.47419,0 -69.44541,-69.45104 -69.44541,-69.45104 l -6.68453,-105.22794 -0.65958,-10.21047"
           id="path8"
           style="stroke:#000000;stroke-width:2;stroke-miterlimit:4;stroke-dasharray:none"
           sodipodi:nodetypes="cccsccc"
           inkscape:label="coa-f" />
      </g>
    </g>
  </g>
</svg>
