<?xml version="1.0" encoding="UTF-8"?>
<!-- Created with Inkscape (http://www.inkscape.org/) -->
<svg id="svg2" width="1e3" height="600" version="1.0" xml:space="preserve" xmlns="http://www.w3.org/2000/svg" xmlns:cc="http://creativecommons.org/ns#" xmlns:dc="http://purl.org/dc/elements/1.1/" xmlns:rdf="http://www.w3.org/1999/02/22-rdf-syntax-ns#"><metadata id="metadata7"><rdf:RDF><cc:Work rdf:about=""><dc:format>image/svg+xml</dc:format><dc:type rdf:resource="http://purl.org/dc/dcmitype/StillImage"/></cc:Work></rdf:RDF></metadata><g id="g11" transform="matrix(1.25 0 0 -1.25 -252.859 2067.82)"><g><path id="path11" d="m202.287 1526.26h800v-224h-800v224z" fill="#ffffff"/><path id="path369" d="m202.287 1430.26h240v-32.0008h-240v32.0008z" fill="#f9f400"/><path id="path407" d="m610.633 1480.24c-0.0762 0.4464-0.0762 1.9336 0.84356 2.4528 0.91972 0.522 1.07208-0.446 1.60812 0.4488 0.53888 0.8916 0.69124 2.0064 0.45988 2.8248-0.22852 0.8188 0.45424 1.9332 0.99028 1.5636 0.53604-0.3724 2.9144-4.2416 4.37016-5.2832 1.4558-1.0416 3.6028-2.0068 4.21504-1.8572 0.6122 0.1468 0.6122 1.2616 0.15232 1.8572-0.45984 0.5952-2.83536 2.6784-2.83536 2.6784s0.536 1.3376 0.15232 2.7512c-0.38088 1.414-2.45168 3.1188-3.21908 3.7876-0.76456 0.6688-0.84076 1.784-0.15236 2.6052 0.69124 0.8156 1.4558 0.446 2.147-0.226 0.6884-0.6688 1.4558-0.6688 2.52788 0.1496 1.07492 0.8184 0.99592 2.7516 0.99592 2.7516s1.83384 0.5956 1.9862 0c0.15516-0.5956 0-5.794 0.99872-9.068 0.99592-3.2704 1.53196-3.0476 1.53196-3.0476s1.30344 0 2.68308 0.6688c1.3796 0.6688 1.53192 1.1148 1.53192 2.9012 0 1.7836-0.53604 3.7848 0.69124 4.6032s1.83948 0.3724 1.91564-0.37c0.0762-0.7448-0.4542-3.1916 1.07212-3.8608 1.52632-0.6716 3.21344-0.6716 3.21344-0.6716s1.14828-1.0412 0.30752-2.4528c-0.84356-1.4136-2.82976 0.074-3.67332-0.4484-0.84356-0.5192-1.15108-3.4204-1.15108-3.4204s-2.1442-1.7048-2.60404-2.9688c-0.45988-1.2644-0.91976-2.0832-0.91976-2.0832s0-1.4112 0.30468-2.0064c0.30752-0.5956 0.99592-1.7864 1.61096-2.1588 0.61224-0.37 2.52224-2.0012 3.51816-3.562 0.99592-1.5632 1.07208-2.9012 1.07208-2.9012s1.45864-0.6688 2.3022-1.6368c0.84072-0.968 1.60812-2.9744 2.60404-3.4208 0.99592-0.4484 1.68716-0.5216 1.68716-0.5216h0.30748s0.46552 1.8596 1.4558 2.7512c0.99028 0.8948 2.52224 1.2644 2.52224 1.2644s-0.38372-3.7168-0.07616-4.3852c0.30468-0.672 2.37552-3.5648 2.98772-4.4568 0.61504-0.8944 3.83416-4.7608 4.59872-4.9104 0.7674-0.1496 2.06236 0.7448 2.75356 1.2644 0.6884 0.522 3.06676 2.678 5.59464 4.3148 2.53072 1.6372 7.27612 3.788 8.73192 6.0172 1.45576 2.2324 1.22724 2.2324 1.07208 3.4204-0.15236 1.1908-0.55296 3.7848-1.39372 4.3804-0.84356 0.5924-0.86332-0.1664-1.3514 1.1456-0.27368 0.7308-1.16236 6.0792-1.62224 7.5608-0.45988 1.4788-1.45016 3.8608-1.45016 4.3804 0 0.5216-2.068 11.7456-1.22724 12.7872 0.84356 1.0412 2.06236 1.86 3.44196 2.0828 1.38244 0.2228 1.91568 0.6688 2.147 1.1912 0.23136 0.5188 2.29936 5.4212 3.91032 6.7616 1.60812 1.3376 3.74668 1.6344 4.89776 1.4112 1.14828-0.2232 1.4558-1.0412 0.53604-2.0064-0.91972-0.9684-1.76328-2.7516-1.76328-3.2008v-1.1092s0.18616 0.2232 2.68304 1.4816c1.91564 0.9684 3.18524 1.372 6.59336 2.0832 2.13852 0.446 5.89368 0.6688 7.34944-0.0736 1.4558-0.7452 1.4558-1.4872 1.4558-1.4872s-1.60812-0.1552-2.68024-1.1176c-1.07488-0.9596-3.83976-2.7428-5.44228-3.7112-1.60248-0.968-4.36168-3.1244-4.36168-4.3888 0-1.264 1.53196-3.1916 2.37552-4.456s1.06644-4.1656 2.29088-5.5036c1.22728-1.3404 1.91848-2.4552 2.68304-2.232 0.7674 0.2228 1.66176 0.9452 1.91568 1.4876 0.38368 0.818 0.07896 1.71 0.07896 1.71s4.01192 0.1408 1.99188-4.6796c-1.0326-2.4636-5.51848-2.7512-5.51848-2.7512s-0.91972-2.7516 1.30344-4.2392c2.22316-1.4872 4.67488-0.968 4.67488-0.968s1.53196-2.3732-1.68712-4.38c-3.21912-2.0096-4.13884 0.4456-4.13884 0.4456s-0.30752-4.016 0.15516-6.0252c0.45704-2.0064 1.4558-2.3792 2.45172-2.3792s4.06832 1.6372 5.51844 3.1244c1.45016 1.4872 3.13448 2.9068 3.97804 4.8344s1.15108 2.746 2.60684 3.934c1.4558 1.1912 2.5702 1.97 2.5702 1.97s0.80124-0.9284 0.80124-1.4476c0-0.5224-0.15232-1.1176-0.15232-1.1176s1.75484-0.0736 3.2896 1.6368c1.53196 1.71 8.50056 11.8136 10.7999 18.062s3.98648 9.7368 4.75108 10.9276c0.76736 1.1884 3.4448 1.1152 4.59304 0.6688 1.15108-0.4456 1.99184-2.2236 1.91564-4.7528-0.07616-2.5312-0.38932-6.5388-1.76044-10.3316-1.374-3.796-4.82444-9.9624-4.82444-9.9624s4.82444 3.3416 6.81624 5.6468c1.99184 2.306 3.29528 4.7668 4.44636 7.4372 1.14828 2.6724 2.98212 4.532 4.97396 6.0928 1.9918 1.5636 4.52252 1.2588 4.06264-3.4204-0.45988-4.6796-1.5404-9.7312-4.52252-15.2344-2.98212-5.506-7.35792-10.928-9.65164-13.31-2.29088-2.3788-5.43384-6.4628-5.89368-7.6536-0.45988-1.188 0.54448-1.3376 2.60688-0.3724 2.06236 0.968 4.82156 5.128 7.42564 7.5804 2.60688 2.4552 5.74412 6.8384 7.35228 9.8128 1.61096 2.9744 3.6028 8.6952 4.9824 9.5136s2.68868 0.522 3.29528-0.5956c0.60656-1.1148 1.37396-4.3064 1.1426-8.026-0.22852-3.7196-2.44604-9.2232-6.66104-14.4976-4.21504-5.2748-7.19712-8.5544-10.4952-11.224-3.29528-2.6732-5.12628-4.084-5.89368-5.2752-0.7674-1.1908-1.45576-2.4552-1.45576-2.4552s5.82596 1.2644 9.80396 2.9776c3.97804 1.71 7.42848 4.2304 8.88428 6.6124 1.45576 2.3792 1.91564 3.57 1.91564 4.016s1.77176 1.0412 2.45452-0.7424c0.68276-1.7864 1.8254-4.4564 0.75892-7.73-1.06644-3.2736-2.8354-6.6884-10.4952-11.5964-7.65696-4.9108-19.7603-8.5484-19.7603-8.5484s2.384-1.4112 7.28176-1.7104c4.89776-0.2964 7.27328-0.6688 8.65292 0 1.3796 0.6688 3.21344 1.86 4.20936 1.1176 0.99588-0.7448 1.29496-2.828-0.38372-5.43-1.67868-2.6048-4.83004-4.8288-9.26796-5.7208-4.43788-0.894-13.0146-0.076-15.7738 0.5196-2.7592 0.5956-4.294 1.1908-4.294 1.1908s1.99464-3.8688 2.68308-5.8756c0.6912-2.0096 0.45984-5.5712-0.45988-7.6564-0.91976-2.0804-3.83132-4.09-3.83132-4.09s-0.99028 5.958-3.74952 7.736c-2.7592 1.778-4.20088 1.3152-4.20088 1.3152s1.594-1.9108 1.05796-5.4808c-0.53604-3.5704-2.53068-7.2084-2.53068-7.2084s4.75952-5.5848 6.82188-8.7032c2.06236-3.1156 4.9006-7.132 7.81216-8.2496 2.9144-1.1148 9.1156-2.4552 11.7958 2.3056 2.68304 4.7612 1.53476 6.5396 0.99872 8.9216-0.53888 2.3784-1.83384 5.2716 0.38088 9.4372 2.21752 4.1656 3.4448 6.8384 3.21344 8.3256-0.22852 1.4872-1.3796 2.8248-0.6884 3.7168 0.6884 0.8948 3.6028 0.5224 4.9824 0.3724 1.37964-0.1468 0.99592-0.2228 2.45172 0.7452 1.4558 0.9652 5.9614 4.8684 8.19304 7.5044 1.752 2.0684 1.15952 3.7872-0.0762 3.7196-0.5332-0.0284-2.52788-0.6688-2.68304-1.0416-0.15236-0.3724-0.30468 1.9336 0.92256 3.274 1.22444 1.3376 4.60436 1.1908 5.97832-0.446 1.37116-1.6372 2.06236-2.9776 1.2188-6.6944-0.58684-2.588-2.75356-4.3828-4.44072-7.1344-1.68428-2.752-2.45168-5.4244-2.45168-5.4244s4.531 0.8188 5.44228-0.892c0.91408-1.71 0.53604-4.8344 0.53604-4.8344s-3.44764-0.2228-3.83132-0.5952c-0.38368-0.3728-3.29528-4.902-3.83416-6.686-0.53604-1.7864-2.5222-7.5804-5.28144-11.6724-2.75924-4.0896-9.8322-7.9788-15.0911-8.9188-4.43228-0.7928-8.4244 0.5196-10.5714 1.86-2.147 1.338-4.7454 3.2656-4.7454 3.2656s-0.37524-7.4396 0.38368-11.1508 2.75076-5.4212 4.97396-8.4724c2.22316-3.0508 5.97268-6.6124 6.43252-8.5484 0.45988-1.9332-0.60656-5.6444-2.21752-7.8036-1.60816-2.156-3.5238-2.3028-3.98368-2.3788-0.45988-0.0736 0-1.5608-0.30752-2.306-0.30752-0.742-1.07208-1.1148-1.07208-1.1148s-0.54452 1.9336-2.76204 2.306c-2.21472 0.3724-2.90312-0.9684-2.90312-2.0092 0-1.0416 0.22852-2.5208 0.22852-2.5208s-1.22444-0.522-1.99184-0.2992c-0.7674 0.2232-2.37552 0.4464-2.0708-1.0412 0.20028-0.9732 2.37832-1.4872 2.99056-4.1656 0.51628-2.2548-2.45172-3.2708-2.45172-3.2708s-0.38368 3.048-2.30216 2.9748c-1.91568-0.0764-2.61252-0.5956-3.14012-2.306-0.5304-1.7104 0.0762-2.156 0.0762-2.156s-3.3658-1.1176-3.59716 0.5188c-0.22852 1.6372 0 2.752 1.5348 4.09 0.93384 0.818-0.30752 2.5312-0.99592 2.4552-0.6912-0.0736-1.76612-2.5288-3.06676-2.602-1.30344-0.0764-2.07084-1.7104-2.22316-2.5288-0.1552-0.8184-1.06648-1.7104-2.6746-1.1912-1.61096 0.522-2.53068 1.0412-2.9144 1.0412-0.38368 0-0.30752 0.9684 0.69124 1.9336 0.99592 0.968 2.14416 1.5632 0.91972 3.7196-1.22724 2.156-1.3796 1.9332-2.37832 2.156-0.99592 0.2232-1.68432-0.0732-1.68432-0.0732s0 2.224 1.45576 3.5644c1.4558 1.338 2.29936 1.7104 2.29936 1.7104s-0.90844 2.3988-0.91972 2.4752c-0.07056 0.5588-0.17776 1.744 2.22316 1.764 2.73948 0.0224 2.90592 1.1824 2.98212 3.042 0.07616 1.86-0.0762 2.4552-0.0762 2.4552s3.67896 0.068 4.13884-1.786c0.45988-1.8516-0.23136-4.53-0.23136-4.53s2.30784-0.5956 3.52664 0.2228c1.2188 0.8188 0.83512 1.6312 2.13852 3.3416 1.30344 1.7104 2.14704 2.7516 1.83952 4.7612-0.30472 2.0064-1.83104 3.6492-3.3658 4.7584-1.532 1.1092-3.06396 3.1916-3.06396 3.1916s-2.66612-1.9412-3.68176-2.7516c-1.06928-0.858-3.442-2.0688-5.12628-0.8864-1.68716 1.1828-3.45044 2.7464-3.45044 2.7464s3.91028 0.8916 3.83412 4.3152c-0.079 3.4204-1.76332 6.686-2.07084 10.256s-0.6122 7.8032-0.6122 7.8032-9.3526 0.8864-15.0939-2.0064c-5.74132-2.8956-7.96452-6.7704-5.58896-11.3764 2.37552-4.6032 5.74132-4.6764 5.66512-6.9852-0.07616-2.3056-0.23696-3.7252-1.83948-4.0892-1.60248-0.364-2.44604-0.6636-2.44604-0.6636s-2.9116-3.0476-3.67896-3.57c-0.7646-0.5192-1.60816-0.8916-1.68716-1.6368-0.07616-0.7424-0.91692-1.4872-0.91692-1.4872s-0.85204 2.0096-2.99056 2.1564c-2.13856 0.1496-3.21344-0.5196-3.13728-1.4116 0.079-0.8944 0.84356-1.6368 0.84356-1.6368s-2.29936-0.2228-3.37144-0.0732c-1.07208 0.1468-1.53196-0.2992-2.99056-0.6716-1.4558-0.37-2.82692 0.1496-2.82692 0.1496s-0.08464-1.6284 0.75892-3.5644c0.84356-1.9332 1.38524-2.6752-0.75892-3.57-2.147-0.892-4.3702-0.2232-4.3702-0.2232s1.4558 2.828-0.22852 3.4964c-1.68712 0.6692-2.76204 0.596-3.45044-0.2228-0.69124-0.818-1.22728-1.786-1.22728-1.786s-2.74512 1.868-1.37112 3.9424c1.37112 2.0772 3.978 4.9784 3.978 4.9784s-3.74948-0.2228-5.89368-0.522c-2.147-0.2968-3.98648 0.1496-4.67768 1.2644-0.6884 1.1148-0.53608 1.8596-0.53608 1.8596s2.07084-1.2588 3.37428 0.968c1.30064 2.224 0.45704 3.116-0.6912 4.0076-1.15112 0.8944-1.37964 0.8944-1.37964 0.8944s0 1.5608 1.68716 2.23c1.68432 0.6712 4.0542-0.5932 4.82156-1.338 0.7674-0.7424 1.99184-1.4872 2.9116-0.968 0.91972 0.522 0.7674 1.3404 0.7674 2.0096 0 0.6688-2.30784 0.9676-3.52664 1.414-1.2188 0.4456-1.83384 0.7504-1.91 2.602-0.0762 1.8544 1.9862 2.4468 1.9862 2.4468s2.147-2.2916 3.75512-1.4788c1.61096 0.8096 2.37836 1.4788 2.37836 2.2972s0.38368 1.49 0.38368 1.49 2.53636-0.604 3.6028-2.9776c1.06364-2.3736 0.30468-2.5964-0.15516-4.23-0.45988-1.6368 0.15516-2.382 0.15516-2.382s2.82692-0.0736 5.35764 1.0412c2.52788 1.1148 4.52252 2.1564 4.52252 2.1564s-0.84356 2.746-3.21908 4.3092c-2.37836 1.5608-5.90216 4.6908-6.20968 7.8828-0.30752 3.1916-2.90592 6.0196-6.12504 6.1664-3.21908 0.1496-6.96856-1.1148-10.0353 2.1588-3.06392 3.2712-1.91564 4.5296-1.91564 4.5296s1.76328-1.9188 3.91028-1.1092c2.147 0.8132 3.28964 3.3416 6.66108 3.7112 3.37144 0.3728 5.82596-0.6684 5.82596-0.6684s0.15236 4.62 8.19304 6.694c8.04068 2.0772 10.419 1.1176 16.008 0.2228 4.78776-0.7644 5.984-1.264 8.65856-1.4872 2.6774-0.2228 4.8244 0.4464 4.8244 0.4464s-2.75356 2.0032-4.057 3.5644c-1.30344 1.5604-4.67488 6.1072-5.97832 7.5128-1.30344 1.4052-4.2912 4.3064-4.2912 4.3064s-3.67332-0.9656-6.43252-1.2644c-2.75924-0.2964-6.89244 0.5224-10.34 0.1496-3.45044-0.3724-5.0586-0.7448-7.04476-2.3736-0.95924-0.7872-1.5348-2.3792-1.5348-2.3792s-2.37552 2.4468-1.76048 5.1256c0.6122 2.6752 1.91564 2.98 1.91564 2.98s-3.61124-0.3048-6.74568-0.7508c-3.13448-0.446-6.2774 0.0764-6.73728-1.71-0.45984-1.7836-0.15516-5.2748 1.76332-6.0936 1.91564-0.8184 3.18804-1.01 3.83132-1.5604 1.2188-1.0412 0-2.0096 0-2.0096s-2.29936 0.0764-3.67896-0.742-0.99592-1.86-0.99592-1.86-2.53072-0.2988-2.9144 0.6692c-0.38368 0.9676 1.3796 2.9744 1.3796 2.9744s-2.147 0.6692-2.52784 1.2644c-0.38372 0.5956 0.38368 2.9772-0.61508 3.4968-0.99592 0.5192-2.29088 0.5192-3.05828-1.414s-1.45576-3.7932-1.45576-3.7932-1.91568 0.1496-2.37556 0.1496c-0.45984 0 0.99592-0.6012 0.15236-2.9748s-2.45168-2.0768-3.21908-1.7044-0.6884 1.5548-0.6884 1.5548 1.3006 0.9656 0.84072 2.4556c-0.45984 1.4872-1.30908 1.8572-1.91564 1.7104-0.60656-0.15-1.1426-0.076-1.1426-0.076s-1.15676 1.5632 0.99024 2.232c2.1442 0.6688 2.37556-0.8184 3.75516 0.3728 1.3796 1.188 2.75924 2.4468 4.29116 3.4144 1.5348 0.9652 1.99468 1.9336 1.99468 1.9336s-3.37428-0.892-4.83004-0.2964c-2.41504 0.9852-2.53072 1.352-2.53072 1.352s-0.31032-0.9824-2.29652-1.5748c-1.9862-0.596-3.52096 2.2292-3.52096 2.2292s2.37832 0.5956 1.83944 2.5292c-0.536 1.9328-0.99588 2.7512-0.99588 2.7512s1.60248 1.7864 2.90592 0.1496 2.45452-2.5284 3.14292-2.0068c0.6884 0.5196 1.15108 1.1968 0 2.2296-1.14828 1.036-1.99184 1.8544-1.30344 2.3736 0.6912 0.5224 1.15108 1.71 0.91972 2.306-0.22852 0.5952-1.83944 0.6688-2.52788 2.1592-0.6912 1.4868 1.22444 2.5284 1.22444 2.5284s1.83952-0.446 3.14296-0.3724c1.30344 0.0732 1.3796 0.6688 1.3796 0.6688s3.21908 0.5956 2.8382-1.5608c-0.38368-2.1588-2.30216-2.382-1.91848-4.984 0.38372-2.6048 2.07084-5.574 2.07084-5.574s9.10712 0.672 13.3222 1.49c4.215 0.8188 5.6736 1.5556 5.6736 1.5556s-2.76204 1.5604-3.06672 3.4932c-0.30756 1.9364 0.30468 3.7936 0.30468 3.7936s1.92412-2.6024 5.44228-2.6024c3.52096 0 7.35228 1.4876 7.35228 1.4876s-1.68712 3.3412-3.06676 4.7556c-1.3796 1.4108-1.07208 5.4296-0.6884 7.1396 0.38372 1.7104 0.0762 2.4528 0.0762 2.4528s-3.90184 3.7144-5.05296 5.052c-1.14824 1.3404-2.98772 2.6048-4.9034 2.678-1.91848 0.0736-3.90464-1.1148-3.90464-1.1148s-1.17648 3.6324 1.01848 5.9268c1.91 1.9952 5.03036 2.0232 5.03036 2.0232s-4.43792 6.0932-7.27328 9.8128c-2.8354 3.7204-5.13476 7.1348-6.28584 7.6544-1.14828 0.522-2.068-0.2908-2.29936-1.7048-0.22852-1.414-0.5304-2.7516-1.37396-2.9744-0.84076-0.2232-0.7646-1.784-0.30472-2.8252s1.30344-2.1588 0.15236-2.1588c-1.14828 0-2.2232 0.2988-2.2232 0.2988s-0.30468 1.2644-1.68432 2.6756c-1.3824 1.4136-1.61092 1.5636-2.60684 1.3404-0.99592-0.2228-1.4558-0.522-1.4558-0.522s-0.61504 2.678 0.84356 3.274c1.4558 0.5952 1.83668-0.1496 3.5238 0.9676 1.68716 1.1148 1.22728 2.0012 1.76332 3.1892 0.53604 1.1912 1.99184 2.1592 1.30344 3.3472-0.69124 1.1912-1.76332 1.936-3.45044 1.6368-1.68432-0.296-2.8354-0.742-3.44764 1.1912-0.6122 1.9332-1.06644 1.9332-2.6774 1.5604-1.60812-0.3696-2.8354 0.5168-2.91156 0.9624z" fill="#de0031" stroke="#000000" stroke-miterlimit="3.864" stroke-width=".677221"/></g><g fill="#f9f400" stroke="#000000" stroke-miterlimit="3.864" stroke-width=".677221"><path id="path409" d="m634.072 1492.56s1.86488-0.0792 2.11316 1.044c0.24828 1.1264-0.82948 2.5712-0.82948 2.5712s3.56048-1.1628 3.47584-4.1768c-0.0818-3.0116-0.57836-4.0556-0.57836-4.0556s-2.9398-0.1612-3.43632 0.7224c-0.49656 0.8836-0.74484 3.8948-0.74484 3.8948z"/><path id="path411" d="m622.857 1496.82s-1.07488 2.9716-3.97236 2.41c-2.89468-0.5616-4.22068-3.1328-4.22068-3.1328s2.97928 0.8044 3.64232 0.2428c0.663-0.5616 0.16644-1.9272 0.16644-1.9272s1.48964-1.7672 3.14292-0.8048c1.65608 0.9656 1.24136 3.212 1.24136 3.212z"/><path id="path413" d="m613.547 1486.82s-2.23448 1.2868-3.8906-0.1612c-1.65328-1.4448-2.1498-3.1296-2.1498-3.1296s1.81972 0.3216 2.731-0.1608c0.90848-0.4828 0.74484-0.8044 0.74484-0.8044s1.7746-0.0788 2.47988 0.8836c0.70536 0.9652 0.08468 3.3724 0.08468 3.3724z"/><path id="path415" d="m617.81 1464.49s0.82664-2.088-0.49656-2.7288c-1.3232-0.6436-4.01468-0.3216-4.01468-0.3216s0.3724-2.0492 3.84824-2.3708 4.30244 1.5692 4.30244 1.5692-1.16516 2.0884-1.90152 2.9688c-1.07492 1.2844-1.73792 0.8832-1.73792 0.8832z"/><path id="path417" d="m616.348 1426.16s0.99876 1.2644 0.28496 1.888-2.5702 2.08-2.5702 2.08 3.4984 0.762 5.21376-0.6944c1.71252-1.456 1.1426-3.2736 1.1426-3.2736s-1.8564-0.3444-2.35576-0.3444c-0.5022 0-1.71536 0.3444-1.71536 0.3444z"/><path id="path419" d="m611.406 1416.24s-3.07236-0.2768-3.78616-2.5624c-0.71376-2.2888-0.28496-2.566-0.28496-2.566s1.4276 0.4152 2.3558 0.2772c0.9282-0.1384 1.71532-0.068 1.71532-0.068s1.21316 0.9 1.28372 1.73c0.07336 0.8328-1.28372 3.1892-1.28372 3.1892z"/><path id="path421" d="m612.904 1401.39s-2.64072-1.648-2.28524-4.0188c0.35832-2.3736 1.21596-2.7176 1.21596-2.7176s0.7674 2.7176 1.85644 2.7884c1.0862 0.0676 1.44448 0.0676 1.44448 0.0676s1.28368 1.3856 0.99876 2.218c-0.28496 0.8328-0.57272 1.524-1.07208 1.6624-0.4994 0.1388-2.15832 0-2.15832 0z"/><path id="path423" d="m630.506 1397.37s2.14136-0.3612 1.71536-1.7468c-0.42884-1.3884-1.78588-2.9804-1.78588-2.9804s3.8708-0.4316 5.15732 1.8712c1.28652 2.3004-0.30188 5.3508-0.30188 5.3508s-2.00028 0.0704-2.99904-0.4148c-0.99872-0.4856-1.78588-2.08-1.78588-2.08z"/><path id="path425" d="m642.414 1367.4s-1.94104 2.204-4.54508 2.492c-2.60124 0.2876-5.06988-1.5328-5.06988-1.5328s2.89748-0.2876 3.19372-1.0556c0.29624-0.7672 0.09872-1.7244 0.09872-1.7244s2.5674-2.6528 4.3476-1.278c1.77744 1.374 1.97492 3.0988 1.97492 3.0988z"/><path id="path427" d="m629.341 1357.11s-4.57616-1.2784-5.46484-3.7704c-0.88872-2.492 0.59244-5.656 0.59244-5.656s1.31756 3.5476 2.50248 3.8352c1.18496 0.2884 2.1724-1.0552 3.2586-0.2876 1.08904 0.768 2.76768 2.43 1.68148 3.6744-1.0862 1.2476-2.57016 2.2044-2.57016 2.2044z"/><path id="path429" d="m636.388 1339.79s-1.38244-3.3248 1.0862-5.1784c2.47144-1.852 3.16268-1.468 3.16268-1.468s-1.68148 1.6596-0.78996 3.5784c0.88868 1.9168 1.48116 1.8208 1.48116 1.8208s1.38244 2.108 0.29624 2.8756-2.46864 1.3432-3.2614 0.7676c-0.78996-0.576-1.97492-2.396-1.97492-2.396z"/><path id="path431" d="m654.597 1346.34s1.7802-1.022 1.48116-2.2044c-0.2934-1.1824-1.0862-2.334-1.0862-2.334s2.50532-0.2228 3.98648 1.7248c1.4812 1.95 1.0862 3.8664 1.0862 3.8664s-0.72508 3.0676-3.88492 2.0148c-3.16268-1.0552-1.58272-3.0676-1.58272-3.0676z"/><path id="path433" d="m691.874 1347.3s-3.69024 2.0124-6.15888 0.6692c-2.46864-1.3412-2.27396-3.356-2.27396-3.356s3.6564 1.758 4.54508 0.4796c0.88872-1.2784 0.78996-2.9068 0.78996-2.9068s2.52788-0.5364 2.92288 0.7112c0.39496 1.2444 0.17492 4.4028 0.17492 4.4028z"/><path id="path435" d="m684.531 1332.76s-4.15012-1.6308-3.75512-5.6556c0.39496-4.0272 1.28652-3.3556 1.28652-3.3556s1.3796 2.4924 2.36988 2.876c0.98744 0.3836 2.36988 0 2.36988 0s1.67868 0.8608 1.7774 2.0124c0.09876 1.1516-1.0862 2.7796-1.38244 3.2592-0.2962 0.48-2.66612 0.8636-2.66612 0.8636z"/><path id="path437" d="m700.206 1322.98s0.39216-2.7148 2.8636-2.8108c2.46864-0.096 3.94984 0.7648 3.94984 0.7648s-2.76488 0.5448-2.46864 1.8232 0.98744 1.95 0.98744 1.95-0.395 2.8732-2.27112 2.8732c-1.8762 0-2.8326-0.7648-3.06112-2.0124-0.23136-1.2448 0-2.588 0-2.588z"/><path id="path439" d="m709.096 1333.66s2.79872-1.3744 2.60124-2.9096c-0.19748-1.5324-0.29624-2.3-0.29624-2.3s1.97492 0.4796 2.96236 2.684c0.98744 2.204 0.29624 4.346 0.29624 4.346s-1.34856 2.588-3.45608 2.396-2.50248-1.1488-2.305-2.012c0.19748-0.8636 0.19748-2.2044 0.19748-2.2044z"/></g><g><path id="path441" d="m645.648 1480.78c-0.99308 0.5672-3.91876-0.7168-3.50968-3.6688 0.4514-3.2372 2.84668-4.5412 6.7062-4.4844 3.86236 0.0564 6.41564 0.7364 9.5134 1.0216 3.1006 0.2848 6.99964 0.852 10.8027 0.852 3.80032 0 5.84856-0.5672 5.84856-0.5672s-0.81816 3.46-1.28652 3.9144c-0.46832 0.4548-2.78744 0.3984-6.47204 0-3.6846-0.3948-10.1566-1.4168-14.7215-1.304-4.562 0.1132-5.9642-0.2284-6.58768 1.3604-0.48528 1.2388 0.70248 2.3088-0.29344 2.876z" fill="#de0031" stroke="#000000" stroke-miterlimit="3.864" stroke-width=".677221"/><path id="path443" d="m666.429 1496.08s-4.32784 1.2476-5.84852-0.2284-1.16804-4.0868-1.16804-4.0868-4.01752 1.6652-6.59052-2.3084c-2.57304-3.9736 1.17084-8.5144 1.17084-8.5144s0.38932 2.8388 2.96236 2.726c2.573-0.1128 3.74384-1.7016 5.14604-1.3632 1.405 0.3416 1.63916 1.2504 3.394 1.1344 1.75484-0.1128 3.89904-0.076 5.76956-2.3816 1.87048-2.3088 2.92568-3.556 3.74384-6.7368 0.81816-3.1776-0.93668-3.5168-3.04136-2.9492-2.10752 0.5672-3.62816 0.68-7.75856 0.1128-2.75356-0.378-6.31684-2.3084-6.31684-2.3084s3.157-0.5672 12.9046-0.5672c5.26736 0 5.6172 0.378 6.2012 1.7384 0.584 1.3628 0.46836 3.068 0.23416 4.7696-0.23416 1.7016-1.63916 4.1228-3.62816 6.734-1.989 2.6104-4.20936 4.278-4.67772 7.1512-0.46832 2.876-2.49684 7.078-2.49684 7.078z" fill="#f9f400" stroke="#000000" stroke-miterlimit="3.864" stroke-width=".677221"/><path id="path445" d="m661.633 1492.45s-0.11568 1.3632 0.821 1.818c0.93384 0.454 1.75484 0.1128 1.75484 0.1128s0.584-1.5888 0.8182-2.1564c0.23416-0.5672 0.34984-1.854 0.34984-1.854s-1.28652 1.2868-1.98904 1.6256c-0.70248 0.3412-1.75484 0.454-1.75484 0.454" fill="#000000"/><path id="path447" d="m669.002 1493.56 3.37424 0.5728 3.29244-0.4092 1.94108-2.2128-0.50784-0.818-4.81032-1.3916-2.61532 1.7188-0.67428 2.54" fill="#ffffff"/></g><g fill="none" stroke="#000000" stroke-miterlimit="3.864" stroke-width=".677221"><path id="path449" d="m623.046 1480.46s2.00876-1.504 2.7056-3.1268m-7.03628 13.1208c1.53476-0.2712 3.20496 0 3.20496 0s0.56144-3.1132 1.88184-4.8036m2.7874 0s1.74076-2.9776 2.36988-5.0036c0.62636-2.0264 1.46144-5.2076 1.46144-5.2076m13.3814-15.1464s-1.25548-6.6944-0.62916-7.9788m-2.50812 0.068s2.71972-0.068 4.3222-0.948m0.06772-9.6012s0.2116 8.3164 6.13068 10.7524m-4.52816-12.1724s1.25264 9.398 5.50432 10.6848m-3.20496-13.93s3.13724 9.9396 7.59772 13.5916m-8.64444-11.6304s2.71972 9.3304 5.15732 10.6144m2.79028-23.732s-3.9724 6.5616-0.07056 12.0368c3.89904 5.4752 9.47672 5.8136 9.47672 5.8136m-10.4529-15.4176 3.62252 1.0808m-5.64256-5.8812s0.97332 0.6772 2.09056 1.8932c1.6928 1.8516 5.36328 0.61 5.36328 0.61m-17.8362-8.7264s1.81408-1.146 2.78744-1.9588c0.97336-0.81 2.64636-1.1484 2.64636-1.1484m-5.15732-2.5712s1.81128 1.9616 5.92472 2.7064m-4.46048-8.3848s1.95236 4.1912 7.59492 4.5976c5.6426 0.4064 6.20124-0.4064 8.8504 0.7424 2.6464 1.1512 4.11344 2.4356 5.99244 2.232m-42.6438 0.6776s-2.02288-0.6776-3.62536-0.4064c-1.60248 0.2708-2.71688 0.5416-2.71688 0.5416m11.0792-13.8624s2.4376 1.4196 0.41756 2.774m17.9772-19.8824s-1.32316 0.7476-3.69304 1.8936c-2.36708 1.1484-3.48432 0.542-5.71312-1.0132-2.23164-1.5552-1.67304-2.0968-4.73696-2.1644-2.24856-0.048-3.7636 1.3516-3.7636 1.3516m9.54444-2.1644s3.552 2.9772 9.54724-0.8104m-6.06296-1.0132s1.60816 1.3524 3.4166 0c1.80844-1.3548 2.85512-1.0832 2.85512-1.0832m-1.81124 0.3384s2.02004-1.5576 2.4376-3.3132c0.42036-1.758 1.53476-3.246 2.30216-3.4488 0.76456-0.2032 0.97336-0.1356 0.97336-0.1356m29.9085 22.5584 3.12032-2.272m-0.76456 8.3848s1.46428-2.032 1.18496-3.9912c-0.27932-1.958-0.62916-7.6396-0.4204-11.0204 0.2116-3.3808 0.34984-7.5072 0.34984-7.5072m-0.62632 13.3236h-8.22408m8.15356-1.7608c-0.20876 0-12.1259-0.1324-12.1259-0.1324m12.3742-2.354s-9.09868 1.4704-16.276-0.6916m16.166-1.7552s-8.91528 2.2324-17.4892-1.5552m17.9096-0.4064s-9.89428 1.5548-19.024-2.7064m18.8124 0.8128s-9.12404 1.1484-17.698-2.9096m-7.3184-12.4404s3.48708-4.3268 3.06672-7.1008c-0.41756-2.7712-2.71692-3.7876-2.71692-3.7876m0.34984-5.6784s0.83512 1.7584-1.60528 3.4492m-8.22128-6.0876c-0.347 0.2708-1.673 0.7452-1.25548 2.4352 0.4204 1.6908 1.5348 2.8392 1.5348 2.8392m-19.371-3.516s2.02004 0.9476 2.50816 2.6384c0.48808 1.6908 0.20876 2.4356 0.20876 2.4356s4.96264-0.4912 6.06296-0.6772c1.60248-0.2708 1.8818 0.7452 1.8818 0.7452m-3.34608 4.8652s1.532-0.5392 3.55484-0.4716c2.02004 0.068 4.04008 0.6748 4.04008 0.6748m41.3912-4.5296s7.73316 3.584 2.50812 12.9824m1.60252-12.4404s2.64916 0.5416 2.02004 7.3688m2.39244-4.2676s-1.20752 0.0088-0.36956 5.216m14.5607-5.7488s0.90844-1.8912 2.30216-3.1104c1.39372-1.2164 2.15828-3.1776 2.85516-4.3264 0.69684-1.1512 0.90844-1.7584 0.90844-1.7584s-2.16112 0.1328-2.57864-1.3544c-0.4204-1.4876 1.87896-2.5004 1.87896-2.5004l-4.3194-1.6908m3.55484-4.0584c0 0.2036-0.2088 1.8264-1.3232 2.7068m-8.6924-7.53s-1.2724 1.5104 0.0508 3.2004c1.3232 1.6904 1.74356 2.7744 1.74356 2.7744m-20.4177-1.7584s1.39092 0.8104 3.7608 0.9456c2.36988 0.1356 4.81032 2.7064 4.81032 2.7064m-2.89748-14.5004s-1.49248 3.8156 2.33884 5.0348m2.85796-1.9612 1.46428 0.8096m11.0115 46.68s-4.81312 4.0016-5.39996 7.3236m-0.20876-0.0684s0.51912-4.0356 1.66176-7.1904c1.1426-3.1556 1.00436-8.3284 1.00436-8.3284m-37.8702 55.0048s-1.68712-5.5684-2.36144-6.9596c-0.67708-1.3912 2.19496-2.128 4.30248-1.964 2.11032 0.1636 3.88212-1.1488 3.45892-2.6224-0.4204-1.4728-7.00248-2.6188-7.00248-2.6188m3.205 15.2288s1.01284-0.8184 0.4232-3.4376c-0.58964-2.6216-1.77176-4.9952-1.09748-6.2228"/><path id="path451" d="m674.233 1425.11s0.75892-2.3732 0-3.7648c-0.75896-1.3912-1.60252-3.1948-1.43324-4.2588s0.08464-2.0456 0.08464-2.0456m11.4742-4.2592s0.16928-2.5372 2.69996-3.9312c2.53072-1.3912 6.07708-0.8184 8.69244-4.1744 2.61532-3.358 1.34856-4.9132 2.27676-7.3716 0.9282-2.4552 2.02568-2.7008 3.37708-2.1276 1.3486 0.5728 1.85644 1.6368 1.85644 1.6368m-27.5076 23.0912s3.45892-6.3864 8.26924-7.2868c4.80748-0.9004 3.87924 3.3556 3.87924 3.3556m-2.3614 42.4972s0.9282-2.3736-2.2796-5.5656c-3.205-3.1948-0.0818-6.6348-0.0818-6.6348m-7.59492-11.216s-0.4232 3.4376 2.61532 6.1412c3.03852 2.7012 3.28964 4.338 4.9796 5.2384 1.68712 0.9032 6.15888 2.3764 9.87168 4.504 3.7128 2.1308 5.82316 3.1948 8.35384 5.1592 2.53072 1.964 5.73572 4.9952 6.74852 7.2872 1.01288 2.2944-1.09748 3.7676-3.62816 2.7036-2.53068-1.0644-3.79464-1.8012-4.81032-1.8012-1.01 0-1.60248-0.33-1.60248-0.33m-12.5971-16.4872s-1.66172 0.9312-0.73352 2.8956 2.3614 2.9492 2.61532 5.1588c0.25392 2.21 0.42036 5.4048 0.42036 5.4048s1.9044-3.7564 4.64104-2.046c2.36424 1.4728 0 3.35 0 3.35"/><path id="path453" d="m666.892 1495.12s0.76176-1.964 3.1232-1.4732c2.3614 0.4912 2.44604 0.9824 4.81028 0.2456 1.65612-0.5164 2.86928-3.0308 4.21784-3.1944 1.34856-0.164 2.44608-0.164 2.44608-0.164m-13.0767 2.9492s1.01004-4.0948 4.04856-4.0948c3.03856 0 5.23352 1.6368 5.23352 1.6368" stroke-linecap="round"/><path id="path455" d="m670.351 1497.98s2.07928 0.7224 4.5592 0c1.68716-0.4912 3.71284-3.0284 3.71284-3.0284s-1.17084 2.9832-0.4232 4.338c1.26676 2.2944 2.95388 2.5396 2.95388 2.5396m-11.7309-8.5144s-0.08184-2.2128 1.18212-3.0312c1.26676-0.8184 2.19496-0.8184 2.19496-0.8184"/></g><g fill="#000000"><path id="path457" d="m670.52 1493.65s0.50784-3.1128 2.02568-3.2764c1.51788-0.164 2.86928 1.228 2.86928 1.228s-1.18212 0.1632-1.60252 0.736c-0.4232 0.576-0.9282 1.8036-0.9282 1.8036l-2.36424-0.4912"/><path id="path459" d="m680.225 1495.94c0.54732 2.1508 1.89872 3.1328 3.87928 4.2588 2.2796 1.29 3.77772 1.6992 6.41564 2.046-0.0226-0.124 0.0818-0.2032 0.0818-0.3272 0-0.5528-0.73636-0.4908-1.26392-0.6548-0.78152-0.2456-1.2442-0.3896-2.02572-0.6548l-0.25392-0.3272c0.29624-0.0424 0.46552-0.062 0.75892-0.082l0.16928-0.3272c-1.17928-0.9032-2.51092-0.3696-3.45888-1.476 0.56988-0.1216 1.26676-0.2456 1.26676-0.8188 0-0.1832-0.27648-0.1636-0.4232-0.2456h-1.77176c-0.505-0.1212-0.86332-0.2652-1.18212-0.6544 0.67712-0.1832 1.12004-0.246 1.77176-0.4912-0.40064-0.3892-0.9282-0.288-1.51784-0.3272l-0.16928-0.4092 0.67712-0.3276c-0.16928-0.206-0.2342-0.4908-0.50784-0.4908-1.0552 0-1.47556 0.9396-2.44608 1.3092"/><path id="path461" d="m676.64 1469.04-0.08464 0.5332c0.2934-0.0224 0.33572 0.7764 0.63196 0.7764 0.69684 0 1.15956-0.6548 1.43604-0.0396 0.2934 0.6352 0.58964 1.044 0.58964 1.7608 0 0.878-0.58964 1.29-0.58964 2.1676 0 0.452 0.10436 0.6972 0.0818 1.1488 0.25392 0.0392 0.4232 0.0816 0.67712 0.0816 0.84356 0 1.01-1.0668 1.01-1.8848v-1.5556c0-0.4712 0.16932-0.818 0.50784-1.1452 0.44296 0.3272 0.44296 1.0016 1.01288 1.0636 0.65452 0.0816 1.26676-0.2852 1.68712 0.164 0.38088 0.4092 0.08464 1.024 0.505 1.3912 0.4232 0.3696 0.86612 0.3696 1.43604 0.4908 0.42036 0.9852 0.1044 1.6596 0.33856 2.7036 0.14672 0.6552 0.94796 0.6944 1.17928 1.3096 0.16928 0.4716 0.16928 0.7988 0.16928 1.3096 0 0.7988-0.67428 1.1684-0.67428 1.9672 0 0.5732 0.58964 0.8184 0.58964 1.3912 0 0.6124-0.48524 0.8808-0.9282 1.3096-0.20876 0.5336-0.58964 0.9624-0.58964 1.5552 0 0.288 0.12696 0.6548 0.42036 0.6548 0.97052 0 1.32884-0.94 1.68996-1.8008 0.4204-1.002 0.67428-1.6172 0.67428-2.7008 0-1.1064-0.25388-1.7216-0.25388-2.8252 0-0.8608 0.33852-1.3092 0.33852-2.1704 0-0.7588-0.78148-1.188-1.56296-1.2276-0.04232-0.5528 0-0.88 0-1.4336 0-0.6544 0.16924-1.1656-0.2088-1.6792-0.56992-0.7364-1.43604-0.4292-2.36424-0.6548-0.90564-1.5152-1.58276-3.028-3.37428-3.028-0.33852 0-0.42316-0.4124-0.75892-0.4124-0.48524 0-0.69684 0.4124-0.9282 0.8216-0.61224-0.5952-0.99308-1.2308-1.8564-1.2308-0.56992 0-1.38808 0.6212-1.72384 1.0528l0.9226 0.1356"/></g><g fill="none" stroke="#000000" stroke-miterlimit="3.864" stroke-width=".677221"><path id="path463" d="m697.207 1412.1s6.39024-7.0472 4.36456-12.7788m5.45356 15.5388s4.84132-1.538 6.69772-10.6256m25.7358 17.2776s-11.5588-4.1764-23.1205 0.6548m8.01812 4.0132-3.1232 0.6548m17.7206-15.6408s2.7846-0.8184 2.19212-2.9464m5.99244 2.3736s-2.61532-3.8492-4.81032-8.2692c-2.19212-4.422-1.60248-7.7808-1.60248-7.7808m7.00244 11.0548s-0.33572-1.7192-2.2768-4.2592c-1.94104-2.5368-2.36424-7.9412-2.36424-7.9412m-5.23068 8.5992s-2.27956-1.8856-1.8564-10.9728m0.08464 13.7552s-2.69996-4.668-3.62816-8.8448c-0.9282-4.1736 0.58964-5.8956 0.58964-5.8956m-11.5588 44.628s5.9896-0.6548 14.1742 2.8644c8.18736 3.5224 8.97452 3.92 12.4052 6.3868 2.61532 1.8852 3.28964 4.2588 3.28964 4.2588m-19.7406-4.7724s-2.45168-4.7244-8.52592-6.2824m27.0872 36.438s-1.52068-8.6784-12.4052-18.0144c-10.8846-9.3332-18.1409-9.6604-18.1409-9.6604m8.68956 11.4636s-0.9282-2.622-2.44604-3.9312c-1.51784-1.3096-7.30152-3.8692-8.73756-5.1788m24.0938 38.6676s-13.8384-22.598-25.9869-30.4604m13.4999 21.8636s-12.487-14.0012-14.5974-16.7048c-2.11032-2.7008-3.45892-1.6368-4.30248-2.4552-0.84636-0.8188-1.60532-1.8828-2.70276-3.3588-1.09468-1.4728-2.19216-2.1276-2.19216-2.1276m-0.08184-45.8472s-1.89592 3.4604-3.66768 4.606m10.247 5.622s2.27676-1.7188 3.87928-2.1284m-30.628 0.5732s2.53068-3.2768 4.38708-2.128c1.85644 1.146 0.3386 3.1104 0.3386 3.1104s2.61532-4.3408 5.146-2.4552c2.53072 1.882-0.505 4.7468-0.505 4.7468s3.79464-4.5832 6.49744-2.2916c2.7 2.2916-1.3514 5.1588-1.3514 5.1588s4.21784-3.7676 5.9078-1.4732c1.68712 2.292-1.18212 5.1592-1.18212 5.1592s6.24352-4.2592 8.09992-0.164c1.8564 4.0924-5.4846 4.5836-5.4846 4.5836s7.67956-1.7192 7.67956 1.7216c0 3.4372-7.08988 4.1736-7.08988 4.1736s7.17452 0 7.17452 2.9496c0 2.946-7.84884 2.6188-7.84884 2.6188s5.82316 1.9644 4.38712 5.9776c-1.43324 4.0132-4.89212 2.54-5.90496 2.2096-1.01284-0.3276-3.1232-1.6368-3.1232-1.6368m5.09244 2.1392c0.33856 0.082 4.18964 0.81 5.4564 2.038m-5.06424-10.4004 7.51028 1.6372m-5.14604-7.5328c0.4204-0.0816 6.66392-2.1276 9.36672 0.246m-8.43852-6.96s3.6282-1.6364 8.01532-0.982m-11.3388-4.2248c0.4204 0 4.75672-1.6708 5.17992-2.2436"/><path id="path465" d="m700.982 1420.85s4.64104-2.7852 5.14888-3.44" stroke-linecap="round"/><path id="path467" d="m695.582 1417.82s2.195-3.274 3.54356-3.604m-8.89836 1.8228s-0.04512-3.3776 1.72664-3.9508m-3.96676 0.9004s2.98212-5.5516 6.07708-3.192c2.36144 1.8008 0 4.668 0 4.668s4.40404-4.8544 7.341-1.8032c2.36144 2.458-0.9282 4.5036-0.9282 4.5036s5.9896-4.2584 8.18456-1.4728c2.19216 2.7824-3.54072 5.6192-3.54072 5.6192s7.8432-6.192 10.6278-2.1816c2.78464 4.0128-3.7128 6.55-3.7128 6.55m0 0.164s6.65824-0.3304 8.43848 0.494c1.77176 0.8184 1.51784 3.2736-0.16928 4.3372-1.68712 1.0644-5.82032 1.5556-5.82032 1.5556s6.83316 1.6396 7.93064 3.0308 0.16928 3.3584-1.09748 3.6856c-0.9818 0.254-4.76232 0.754-6.40432 0.9656-0.59812-0.474-0.59812 0.5076-0.59812 0.5076s3.54072 2.2072 4.72568 3.6836c0.58964 0.7392 0.92536 2.5396-0.4232 3.6036-1.3514 1.064-4.93444 0.7876-5.9896 0.4912-1.0326-0.288-1.68152-0.5336-1.68152-0.5336m0.18056 0.1752s3.18808 1.668 4.28276 3.7988c1.09748 2.1276 1.0128 3.9284-0.08464 4.5828-1.09468 0.658-2.86644 0.7368-4.38712 0.4944-1.51788-0.2484-3.79744-0.9852-3.79744-0.9852m-17.7177-34.3888s2.95388-3.8492 4.7228-1.6396c1.7746 2.2124 0.16928 4.7496 0.16928 4.7496s2.78464-3.7648 4.81032-1.7184c2.02568 2.046-1.91848 4.6172-1.91848 4.6172s4.61844-3.9624 6.39024-1.0132c1.77176 2.946-2.86644 4.092-2.86644 4.092s4.47176-2.5372 5.65104 0.0816c1.18212 2.6224-4.81028 3.686-4.81028 3.686s5.65384-1.146 5.56924 2.21c-0.08468 3.3584-5.0614 2.8676-5.0614 2.8676s4.55636 0.6544 3.88208 2.7824-6.32816 1.7188-6.32816 1.7188l8.35384 3.1948m-3.88208-7.3688s5.0614-1.064 6.4974 0.0816m-6.45508-5.876s5.778-1.5772 7.1294-1.1652m-7.84884-3.514s4.72564-1.3996 5.40276-1.3996m-13.8892-4.5692s2.49684-3.048 3.17112-3.3752m1.1426 5.8192s2.90876-2.3792 3.58308-2.5428m-11.7479-3.3216s0.27368-2.0012 0.86332-2.2464m-6.4128 0.7364s1.18212-0.3276 1.51784-0.6548m15.1052 23.9096-3.7128-0.7364s3.45888 0.164 3.2896-1.7188c-0.16924-1.8852-3.03568-2.2124-3.03568-2.2124s3.54352-0.4092 3.03568-2.6192c-0.505-2.2096-3.37424-1.6396-3.37424-1.6396s3.03852-0.8184 2.11032-2.21c-0.9282-1.3912-3.03852-0.5728-3.03852-0.5728s1.68712-0.4092 0.67428-1.9644c-0.47964-0.736-2.11032-0.4088-2.11032-0.4088m-0.58968-1.3096c0.3386-0.1664 2.02572-1.722 2.02572-1.722m0.75892 11.2188 1.09748-1.146m-1.60248 4.2588h2.02284m-4.55356-8.5176s0.75892-1.3096 1.3486-1.3096m2.11032-0.5724s1.8564-0.6552 2.3614-0.6552m-1.40216 4.7304c0.9282-0.082 4.27144-1.1292 4.77644-1.0472m-4.21784 5.65s3.205-0.7364 4.136-0.5728m-2.60684 26.3368s2.53916 1.8116 4.59588 4.4848c2.05952 2.6752 2.66328 3.79 2.66328 3.79m-2.18932-6.6688c0.6066 0.1184 8.66136 5.9324 12.6253 12.0112 3.96676 6.0764 7.41436 14.2692 8.01812 16.4988 0.6066 2.232 1.57428 3.522 1.08904 0.8804-0.48244-2.6416-8.19868-15.796-8.19868-15.796m-12.1908-14.238s6.02064-1.2332 7.95604 0.3528m-5.59744 2.6416c0.18056 0 4.81028-1.6424 7.7162-0.1188m-8.57388-7.6424s1.4614 2.0092 0.61504 3.1244c-0.8464 1.1144-1.01284 1.4476-1.01284 1.4476m2.92004 4.9504c0.36392 0 6.47484 0.2344 6.71468 0.412m-3.80592 2.142s5.10372-0.1752 6.28584 0.824m-4.35328 1.408c0.24264 0 4.6918-0.234 6.6272 1.5272m-4.32784 1.2896s5.05292 0.2624 7.35228 2.7604m-5.5382 0.234c0.18056 0.0592 3.96392 0.8552 5.41688 1.97m-4.11344 0.5868s4.89776 0.8808 5.62568 1.9392m-4.11344 0.468s4.47456 1.5836 4.71716 2.7016m-3.08364 1.114s3.50684 1.0248 4.294 2.5236m-2.11596 1.03s2.1752 0.8212 2.29652 1.2332m-44.7175-43.3548s3.7354 0.2372 4.74824 1.7948m1.94104-2.7036s2.19212 3.1132 0 4.75c-2.19496 1.6364-4.81032 0.0816-4.81032 0.0816m5.56924 4.0948s2.24856-3.6432-1.54888-3.7252m0.95924-0.6968c0.42036 0.1636 4.55636 0 5.14604 1.6368m-3.88212 5.1588s1.26676-1.4732 4.0514-1.3096c2.7846 0.1636 5.79492-2.396 4.19244-3.9508m-1.65612 3.4572s7.23664 2.8728 1.58276 4.9192"/><path id="path469" d="m700.011 1457.86s4.42096 0.666 5.17988-0.0704m-8.12812 0.5584s1.2188 1.0696 2.48556 1.8064m-2.78464-2.046c-0.42316-1.7188-0.25388-2.2948 0.33576-2.9492m6.5454 5.6328s0.7956-0.8012 1.80844 0.2624"/></g><g stroke="#000000" stroke-miterlimit="3.864"><path id="path471" d="m555.911 1468.21 0.4514 2.2636 11.2034 4.5268 7.58928-0.7988 0.9-8.3876-4.69464-15.3272-5.85136-3.0144-0.77304-14.994-0.51348-8.2552-19.6446 3.0624-20.6575 2.328-12.5548-1.5976-16.6682-1.5972-13.971-3.9284-3.10344 16.3264-7.71624 15.0624-2.37836 13.4 2.37836 7.5888 6.42976 1.2644 7.73312-2.9296 2.7028-7.4564-0.12976-1.5296c0.90564 1.1092 2.68588 2.362 4.69464 1.0612 3.1034-4.7412-2.07084-6.5248-2.07084-6.5248 3.54636-1.5468 3.08648-6.638 0.16364-7.5412-2.80156-0.8916-6.0432 0.9792-6.0432 0.9792s2.2034-3.4376 8.38204-3.1268c4.40968 0.158 5.29276 4.3772 5.29276 4.3772-7.64856 3.2796-2.20628 9.2176 0.88304 6.872-3.08932 4.5328 2.05672 6.096 2.05672 6.096 4.99932-0.1576 3.82288-5.0008 3.82288-5.0008 3.64228 1.3208 6.91216-5.6248 0.73632-7.0304 1.91004-3.5952 6.46644-2.8276 6.46644-2.8276 7.36356 0.584 6.91496 9.3892 6.91496 9.3892s-2.64636-7.9696-7.94192-4.532c-1.91004 4.6872 1.32316 7.0324 1.32316 7.0324-4.70308-2.3452-6.9178 0.9684-6.62436 4.4056 1.76612 5.7832 6.47768 1.6876 6.47768 1.6876s-2.60124 4.5356 0.28496 6.3844c3.12316 1.6508 5.15732-0.6044 5.15732-0.6044s-3.363 3.0172-0.86332 5.6728c3.19088 2.0236 4.7736-0.8748 4.7736-0.8748s-4.2404 4.4704 1.642 8.8448c5.8796-4.3744 1.50376-8.7576 1.50376-8.7576s1.484 2.6476 4.86672 0.6156c2.32756-2.7828-1.08056-5.5008-1.08056-5.5008s2.8862 2.1508 5.47616 0.5056c2.97364-2.3144-0.03668-6.2856-0.03668-6.2856s4.70592 4.3748 6.4692-1.408c0.60376-3.6268-1.91-7.0304-6.61592-4.6852 0 0 3.2332-2.3452 1.32316-7.0324-4.86952-3.178-7.93908 4.532-7.93908 4.532s-0.23416-8.794 7.17736-9.2848c0 0 4.2912-0.872 6.2012 2.7232-6.1758 1.4056-2.64636 8.5936 0.73636 7.0304 0 0-1.17648 4.8432 3.82284 5.0008 0 0 5.14604-1.5632 2.05956-6.096 3.08648 2.3456 8.52876-3.5924 0.88024-6.872 0 0 1.48964-4.3432 5.69336-4.5892 5.99244-0.2708 7.98424 3.3388 7.98424 3.3388s-3.58304-2.774-6.58488-0.7816c-1.63636 1.2052-2.97364 5.78 0.70252 7.3436 0 0-6.13068 1.5012-2.30784 7.126 2.45452 1.3036 3.1514 0.4008 4.69464-0.398l-1.28652 2.7288z" fill="#f9f400" fill-rule="evenodd" stroke-width=".677221"/><g><path id="path473" d="m511.69 1507.36s-0.91692-10.0132-5.97552-13.366c-8.96604-5.7912-33.7483-13.3716-38.5924-18.5844-18.0422-14.7912-9.73912-37.3576-9.73912-37.3576 4.42944-13.7272 14.3971-13.3208 14.3971-13.3208 4.799 0.3924 10.5206 0.3924 10.5206 0.3924-1.0608 1.47-1.5094 2.8304-1.5094 2.8304s-1.06648 2.4216 2.61532 4.6228c-3.13728 5.6868-4.4294 16.4736-4.4294 16.4736-4.88368 1.6284-5.44228 5.328-5.44228 5.328s-1.24984 3.7452 2.38964 5.4636c-6.09684 4.8628-6.02912 8.6392-6.02912 8.6392s-0.80972 6.2796 4.77644 5.3424c5.00216-1.4052-0.3188-5.8364 1.06648-6.3216 2.20624 5.938 4.35608 4.016 4.70588 3.906 4.11912-2.0324-1.49808-6.5164-0.22568-7.304 4.04856 9.336 6.55104 1.5692 6.55104 1.5692s17.6782 8.2804 25.2449 15.144c13.6579 13.338-0.32444 26.5428-0.32444 26.5428z" fill="#ffffff" stroke-width=".677221"/><path id="path475" d="m532.102 1507.36s-0.96208-8.0008 5.9078-13.4056c11.6181-7.49 33.8188-13.332 38.6602-18.5448 17.6698-13.2052 11.0369-36.2148 11.0369-36.2148-4.73128-11.5116-14.6002-13.6792-14.6002-13.6792-4.4294 0.9824-11.0707 1.2924-11.0707 1.2924 0.8774 0.4324 0.93384 1.454 0.93384 1.454s0.09872 3.1692-2.58432 4.3148c3.13728 5.6868 4.42944 16.4736 4.42944 16.4736 4.11064 0.0228 5.1686 5.4888 5.1686 5.4888s0.90284 3.8524-2.21472 5.4924c6.07428 4.9024 6.0658 8.4384 6.0658 8.4384s0.84076 3.9256-2.04544 4.6396c-1.6702 0.2964-4.0006 1.112-3.26424-5.2944-0.96488-0.2172-0.18056 4.448-2.69996 4.38-6.5708-1.2728-1.68432-6.5784-2.5928-7.0356 0 0-0.14952 3.906-3.52944 3.2796-3.03288-0.5704-2.64072-2.9184-2.64072-2.9184s-17.7177 8.4328-25.2844 15.2964c-13.672 13.338 0.32444 26.5428 0.32444 26.5428z" fill="#ffffff" stroke-width=".677221"/><path id="path477" d="m521.624 1430.91c-24.7004-0.8552-34.1461-4.0136-38.2229-5.6476-4.70028 1.0896-14.5692-1.442-14.5692-1.442s-8.26356-1.0472-11.4262-5.1928c-10.0241 2.2632-9.82656-0.872-9.82656-0.872 1.54888-20.2328 14.9528-20.5232 14.9528-20.5232 11.2203-2.478 21.2359 1.5576 21.2359 1.5576l2.92848-16.7268-4.0288-10.5048 0.73352-9.7224-16.8403-19.84c19.591-4.118 24.1615-19.448 24.1615-19.448 10.3852 10.3092 20.8691-1.1684 20.8691-1.1684 11.5588 8.76 23.0641-0.7792 23.0641-0.7792 7.38612 13.0952 24.1615 6.6156 24.1615 6.6156 1.33168 17.5624 16.4764 17.5032 16.4764 17.5032-2.94544 16.9956 10.6165 24.5084 10.6165 24.5084s-18.0873 7.9616-20.8663 28.7836c22.2628-5.9744 28.9211 7.7808 28.9211 7.7808 2.58996 3.1808 3.29528 15.5588 3.29528 15.5588-6.80496-3.5952-12.0808-0.776-12.0808-0.776-10.2723 7.0076-24.6242 5.9972-24.6242 5.9972s-26.8502 4.6228-38.931 4.338z" fill="#000000" stroke-width=".0592568"/></g></g><path id="path479" d="m483.406 1432.58c38.4514 9.5196 76.979 0 76.979 0m-79.4419 6.974c42.7059 11.8076 81.6058-0.6692 81.6058-0.6692m-82.5454 4.2648c42.7059 11.8076 83.4905-0.596 83.4905-0.596m-82.6695-14.2884c36.2367 12.0024 82.0263 0.866 82.0263 0.866" fill="none" stroke="#000000" stroke-miterlimit="3.864" stroke-width=".677221"/><g fill="#f9f400" stroke="#000000" stroke-miterlimit="3.864" stroke-width=".677221"><path id="path481" d="m485.415 1439.54 5.68772 1.064c1.5066 0.2848 2.88056-0.452 3.10628-1.8096l0.031-0.1352c0.22572-1.3576-0.81532-2.6868-2.32192-2.9688l-5.68772-1.0668c-1.50656-0.2828-2.92568 0.5472-3.14292 1.9696l0.00564-0.0224c-0.22288 1.3572 0.81536 2.6868 2.32192 2.9692z" fill-rule="evenodd"/><g><path id="path483" d="m496.023 1439.26c0 1.3152 1.00436 2.3816 2.24292 2.3816s2.24012-1.0664 2.24012-2.3816c0-1.3156-1.00156-2.3816-2.24012-2.3816s-2.24292 1.066-2.24292 2.3816z"/><path id="path485" d="m554.929 1436.76c0 1.3156 1.00436 2.3792 2.24292 2.3792s2.24292-1.0636 2.24292-2.3792c0-1.318-1.00436-2.3844-2.24292-2.3844s-2.24292 1.0664-2.24292 2.3844z"/><path id="path487" d="m524.527 1443.22 5.76388-0.268c1.52632-0.0704 2.71972-1.2448 2.66612-2.622-0.0564-1.3748-1.34012-2.4332-2.86924-2.3624l-5.76392 0.2712c-1.52912 0.0704-2.72252 1.2444-2.66612 2.6192 0.05644 1.3768 1.34012 2.4352 2.86928 2.362z"/></g></g><path id="path489" d="m519.121 1467.35c-0.00284-3.0116 1.5094-5.4528 3.37144-5.4528 1.86488-0.0028 3.37708 2.4384 3.37992 5.4528 0 3.0112-1.51224 5.4524-3.37428 5.4524-1.86488 0-3.37708-2.4412-3.37708-5.4524z" fill="none" stroke="#000000" stroke-miterlimit="3.864" stroke-width=".149553"/><g fill="#ffffff"><g><path id="path491" d="m495.992 1418.17s2.75356 2.5088 11.8071 0.6264c6.88676-1.044 10.4303 1.6736 10.4303 1.6736s1.37676-3.5532-6.49464-4.6004c-2.7564 0.8356-8.26636 2.3004-11.8071 0-5.31528 0.8356-3.93568 2.3004-3.93568 2.3004"/><path id="path493" d="m532.398 1420.27c1.67864-1.3604 5.25324-1.764 5.25324-1.764l11.2795-0.3272 3.7382-0.8352-1.37676-1.0472s-10.2356-0.8356-15.5482 0.2088c-1.96924 0.4204-3.34604 1.0472-3.34604 1.0472s-2.55892 1.6732 0 2.7176"/><path id="path495" d="m452.499 1413.78c2.95108 0.2088 4.32784 0.838 4.32784 0.838l5.11784 1.2528s19.0889 2.3004 20.8606 0.6268c0.39496-1.0444-1.57428-2.3-1.57428-2.3s-8.06892 1.0468-14.5635-0.2088c-3.34604 0-5.90496-0.6268-5.90496-0.6268s-8.26356-1.4648-8.26356 0.418"/><path id="path497" d="m462.929 1412.11-8.65856-1.6732c-0.78712-1.4648 1.3768-1.4648 1.3768-1.4648 9.2482 1.0472 7.28176 3.138 7.28176 3.138"/><path id="path499" d="m464.896 1410.02c-0.39216 1.044 3.54352 2.5088 3.54352 2.5088s3.93572 1.2532 4.52536 0c0.98464 0.4176-8.46104-4.3916-8.06888-2.5088"/><path id="path501" d="m471.588 1408.59c-1.57428 1.2192 5.70744 4.146 5.70744 4.146 1.7718-0.418 1.7718 0.4176 0.19752-1.8824-1.57428-0.6264-4.1332-2.0916-4.1332-2.0916l-1.77176-0.172"/><path id="path503" d="m565.069 1414.2 7.08428-2.0888c6.51152-1.0356 12.1992 0.418 12.1992 0.418l6.29996 1.6708c1.57428-1.462-3.58588-3.3924-6.4946-3.9708-0.11004-0.034-7.79524-1.3632-14.682 0.1016-4.33068 0.8352-4.40684 3.8692-4.40684 3.8692"/><path id="path505" d="m566.248 1410.02c5.90496-2.3004 7.28172-5.4388 7.28172-5.4388l-4.72284 0.8384s-3.34604 2.0884-2.55888 4.6004"/><path id="path507" d="m573.922 1408.56c6.49464-0.4176 8.2664-3.556 8.2664-3.556s-5.70748-0.4176-7.47924 1.8828c0.19748-0.8356-0.78716 1.6732-0.78716 1.6732"/><path id="path509" d="m581.991 1408.76c5.31532 0.6268 6.29992-1.6732 6.29992-1.6732l-2.3614-0.2088-3.93852 1.882"/><path id="path511" d="m498.957 1409.11c3.14856-9.4096 9.4316-0.4324 9.4316-0.4324 1.17928 1.674 3.14856 0.2968 3.14856 0.2968s-2.79028-9.068-11.2175-6.6916c-3.46172 1.1908-4.88364 5.204-4.88364 5.204s-0.35548 2.7352 3.52096 1.6232"/><path id="path513" d="m537.908 1406.88s0.2878-3.714 5.99528-2.4612c3.08364 1.1404 4.2404 5.1788 4.2404 5.1788s1.56864-0.33 1.5404-2.3596c-0.48808-3.5448-4.53664-5.1956-4.53664-5.1956s-8.22124-3.316-10.7802 3.5844c0.98464 1.8796 3.54072 1.2532 3.54072 1.2532"/><path id="path515" d="m493.236 1410.86c9.05352 6.2736 17.7121 0.6268 17.7121 0.6268l-5.31532-0.8356s-0.58968-2.5092-2.7536-2.5092c-1.96924 0.2088-1.77176 2.5092-1.77176 2.5092-1.96644 1.8824-7.08428-1.256-7.8714 0.2088"/><path id="path517" d="m534.367 1408.97c5.31252 7.9472 15.3507 4.8092 15.3507 4.8092s1.76896-1.2532 0.39216-2.718c-4.52536 1.6736-6.8868-0.2088-6.8868-0.2088s0.30472-2.4244-1.3796-2.9268c-0.01412 0.0084-1.989-0.6096-2.7536 1.462-0.9846-0.6268-3.93568-1.8824-4.72284-0.4176"/></g><path id="path519" d="m479.225 1353.17c-9.68552-9.1468-7.10404-10.29-7.10404-10.29 7.31844 0 11.1921-3.8888 11.1921-3.8888v1.8288s-2.58432 5.032-8.6106 4.1176c5.1658 5.718 4.52256 8.2324 4.52256 8.2324" fill-rule="evenodd"/><g><path id="path521" d="m494.72 1344.48s-4.30528-6.6324-4.30528-12.8072c0.21724-2.0576 2.58428 0.4572 2.58428 0.4572 4.51972 9.1468 1.721 12.35 1.721 12.35"/><path id="path523" d="m508.708 1328.24s-0.2144 4.1152 0.86048 7.5472c0.43168 3.2 2.36992 3.4284 2.36992 3.4284l-0.43168-8.0036c-0.43164-6.172-2.79872-2.972-2.79872-2.972"/><path id="path525" d="m511.075 1325.04s0.64604 4.1148 13.9908 3.886c3.8736-0.2284 1.72096-1.6 1.72096-1.6s-10.9748 0.4572-14.8484-3.432c-0.86332 0.4572-0.86332 1.146-0.86332 1.146"/><path id="path527" d="m531.738 1337.16c-0.20312-4.7752-0.64608-7.5468-0.64608-7.5468 0.86052-6.1748 2.36708-4.1172 2.36708-4.1172s0.68276 6.79 0.24264 10.4904c-0.39216 2.4468-1.96364 1.1736-1.96364 1.1736"/><path id="path529" d="m536.258 1328.01c1.50656 4.8004 10.546 5.4864 10.546 5.4864 2.1498-0.686 0-2.286 0-2.286s-5.81188-0.2284-8.825-3.4288c-2.36708-2.0576-1.721 0.2284-1.721 0.2284"/><path id="path531" d="m547.879 1344.94c3.87364-6.1748 8.17896-8.918 8.17896-8.918s2.79872 6.8604 6.67236 6.632c0.2144-1.3744-4.73696-9.1496-4.73696-9.1496l-2.14984-0.9144s-7.104 4.346-8.825 9.1496c-1.07772 2.0576 0.86048 3.2004 0.86048 3.2004"/><path id="path533" d="m561.006 1365.74s3.01316-11.4324 10.1172-17.6072c-2.0426-1.208-7.28176 0.5924-10.5093 11.568-0.86048 5.032 0.39216 6.0392 0.39216 6.0392"/><path id="path535" d="m567.25 1380.61c7.1012-8.0036 12.267-10.5184 12.267-10.5184-3.41096-8.2096-7.104-13.0356-7.104-13.0356s-3.0696 0.2708 0 6.4036c1.07772-0.2288 4.30528 5.718 4.30528 5.718l-9.46828 11.4324"/><path id="path537" d="m492.782 1330.3c6.45796 5.718 11.8382 0.9144 11.8382 0.9144l1.29212-1.6004c-6.02624 2.5148-13.1303 0.686-13.1303 0.686"/><path id="path539" d="m515.166 1412.17c3.01316 0.9144 2.36708-2.7432 2.36708-2.7432 0-8.918-6.88676-16.6932-6.88676-16.6932 7.96168-0.9144 11.4065-2.5176 11.4065-2.5176s-0.86048-1.3716-12.4842-0.2284c-2.79588-0.686-7.05888-1.9672-8.61056-9.3644-0.2652-2.918-0.70252-6.5024 3.66204-9.158 17.2183-6.8608 32.4984-2.7428 32.4984-2.7428 4.51972 1.1428 7.19148 1.9752 9.60368 4.9108 1.10032 1.5604 2.83824 10.1004-2.74792 13.8764-5.15168 2.904-12.6676 2.0208-12.6676 2.0208l1.07772 1.8316c3.01316 1.6004 7.96168 0 7.96168 0l-1.72096 4.572-1.29216 3.2004 1.93824 0.6856c3.01312-7.3152 9.0394-11.6612 9.0394-11.6612 1.50376-3.4288 3.44196-8.9184 1.721-14.636-3.4448-9.1468-24.3196-9.8328-24.3196-9.8328s-23.5634 0.968-27.0082 8.972c-1.29212 2.286-1.831 13.4396 5.70184 18.24 1.9354 1.6028 11.6209 9.1496 10.7604 21.268"/><path id="path541" d="m487.401 1422.68c1.7238 0.4568 2.36708 1.3716 2.15264-1.3716-4.30528-10.29-4.73412-16.2368-4.73412-16.2368s-1.50656-7.7748 4.30528-11.6608c6.8868-4.8036 6.66672-6.5392 5.3802-6.4036 0.80692-3.1696-1.50656-1.372-1.50656-1.372-3.23036 3.8864-3.87364 4.8008-5.59744 5.258-0.2144-2.972 0-4.8004 1.29216-7.5436 0.86048-1.3748 0-3.2036 0-3.2036s-5.3802-3.6576-4.73412-10.2896c0.64608-11.4328 9.68548-16.4648 9.68548-16.4648 5.16296-6.632 18.5077-8.4612 18.5077-8.4612s-8.17892-3.8888-17.4328 2.972c-2.58148 1.8288-8.15636 5.396-12.1203 13.0668-3.27272 9.9876-1.0326 15.9652 2.22036 20.32 0.86048 0.2284-0.2144 8.2324-0.2144 8.2324s-8.17896 16.922 2.79588 33.1584z" stroke="#000000" stroke-miterlimit="3.864" stroke-width=".677221"/><path id="path543" d="m554.98 1420.17c-0.2144 2.9716 2.15264 2.286 2.15264 2.286 8.82504-3.886 6.67236-32.4724 6.67236-32.4724-1.07488-7.7752-4.51968-12.5756-4.51968-12.5756-1.07492-1.8292-1.07492-18.0652-1.07492-18.0652-2.15264-10.75-23.2446-14.636-23.2446-14.636-2.15264 0.4568 0 2.286 0 2.286 16.5723 4.5748 18.2933 9.604 18.2933 9.604 3.4448 2.2888 1.07772 20.1252 3.01312 23.3256 4.30528 3.6576 5.59744 13.036 5.59744 13.036s-2.58428-3.2032-3.6592-2.0604c1.721 2.746 1.9354 7.0896 1.9354 7.0896s2.79872 15.3216-5.1658 22.1824"/><path id="path545" d="m504.834 1381.52c-1.07492 1.6 1.29216 2.5176 1.29216 2.5176 4.08804 0.686 7.22532-3.7676 7.22532-3.7676 2.45172-3.4968-1.60532-6.5756-3.2078-6.5304-4.5028 0.3128-2.08212 4.8088-2.08212 4.8088 1.07776-2.286 2.36988-1.8288 2.36988-1.8288 2.51376 1.5772-1.32316 4.9784-5.59744 4.8004"/><path id="path547" d="m533.244 1374.2c-2.15264 5.2604 2.74516 8.21 2.74516 8.21 2.64916 1.7016 5.6482 0.254 5.6482 0.254 4.08804-2.2888 0.86048-6.4036 0.86048-6.4036-2.79868-3.432-3.6592 0.2284-3.6592 0.2284s2.60972 0.432 1.50656 2.9716c-1.28084 1.688-2.97928 0.48-2.97928 0.48s-2.40092-1.6228-1.326-4.366c0-2.06-2.79592-1.3744-2.79592-1.3744"/></g><path id="path549" d="m492.677 1360.94c0.2144 1.1432 2.47144 5.6024 2.47144 5.6024 7.104-5.6024 19.0465-7.6596 19.0465-7.6596l-1.61376-6.1752c-1.721-0.8124-5.06988 0.934-5.06988 0.934l1.41348 4.5524-1.42756-4.6032c-2.463-0.0196-4.81596 2.0888-4.81596 2.0888l1.7238 4.5748-1.72944-4.6032s-3.70152 0.6096-5.49304 2.5484c-0.40912 0.2316 1.84228 4.112 1.84228 4.112l-1.93824-3.886s-2.58148 0.4572-4.40964 2.5144z" fill-rule="evenodd" stroke="#000000" stroke-miterlimit="3.864" stroke-width=".677221"/><path id="path551" d="m550.136 1360.37c-0.2144 1.1432-2.47144 4.8008-2.47144 4.8008-7.104-5.5996-19.0466-6.8584-19.0466-6.8584l1.6138-6.1748c1.9354-0.686 5.0078 1.0416 5.0078 1.0416l-1.34856 4.4472 1.34856-4.4472c2.5194-0.2344 4.89212 1.93 4.89212 1.93l-1.721 4.5748 1.6138-4.4588s4.23476 0.8012 5.65952 2.526c0 0.0452-1.89592 3.9904-1.89592 3.9904l1.9382-3.886s2.58432 0.4568 4.40968 2.5144z" fill-rule="evenodd" stroke="#000000" stroke-miterlimit="3.864" stroke-width=".677221"/></g><g fill="#de0031" stroke="#de0031" stroke-miterlimit="3.864" stroke-width=".121335"><path id="path553" d="m490.589 1361.57c-1.61664 1.0924 4.70588 7.6536 5.29556 12.1864 0.67144-2.2608 3.4222-9.4348 19.1142-10.4708-0.78152-0.7588-2.64636-4.374-18.8208 4.2196-2.9398 1.0948-4.2658-4.9984-4.2658-4.9984l-1.32316-0.9368z" stroke-linejoin="round"/><path id="path555" d="m551.352 1361.66c1.91284 5.314-1.94388 3.3444-2.53072 7.8764-6.02908-7.4984-20.144-7.3432-20.144-7.3432s1.46988-4.8432 18.2312 3.4372c4.07956 1.7412 4.44352-3.9704 4.44352-3.9704z" stroke-linejoin="round"/><path id="path557" d="m516.765 1363.13c-6.1758-19.998-1.2724-23.9128-1.2724-23.9128 2.6464-2.6612 5.99524-2.4184 5.99524-2.4184 6.24072-0.5956 7.29024 4.538 7.29024 4.538 1.91284 5.938-1.57428 21.0116-1.57428 21.0116h-3.52944l-1.17648-16.2476c-0.73356-1.2504-0.44012-1.4084-1.6166-0.3132 0.88304 14.5316 0.12976 16.5608 0.12976 16.5608s-1.59964 0.158-4.24604 0.7816z"/></g><g fill="#f9f400" stroke="#000000" stroke-miterlimit="3.864" stroke-width=".677221"><path id="path559" d="m504.386 1442.57 5.75824 0.4208c1.52632 0.1128 2.8382-0.912 2.92848-2.286 0.09312-1.3744-1.07208-2.5796-2.59556-2.6896l-5.75828-0.4236c-1.52628-0.11-2.8382 0.9116-2.92848 2.286-0.09312 1.3744 1.07208 2.5796 2.5956 2.6924z"/><path id="path561" d="m515.027 1440.44c0.08464 1.3092 1.15676 2.2996 2.39248 2.2064 1.23288-0.0932 2.16392-1.2304 2.07928-2.5428-0.08744-1.3124-1.15672-2.3-2.39244-2.2072-1.23292 0.0904-2.16392 1.2308-2.07932 2.5436z"/><path id="path563" d="m549.918 1440.63-5.7216 0.8492c-1.51504 0.2288-2.89184-0.694-3.0724-2.06-0.18056-1.3632 0.90284-2.6532 2.42068-2.8788l5.72156-0.852c1.51504-0.2232 2.89184 0.6996 3.0724 2.0628 0.17776 1.3628-0.90564 2.6528-2.42064 2.8788z"/><path id="path565" d="m539.358 1439.82c-0.08744 1.3124-1.15956 2.3-2.39528 2.2096-1.23572-0.0928-2.16676-1.2304-2.08212-2.5428 0.08748-1.312 1.15956-2.3 2.39528-2.2096 1.23572 0.0928 2.16676 1.2304 2.08212 2.5428z"/></g><path id="path567" d="m567.25 1380.61c7.1012-8.0036 12.267-10.5184 12.267-10.5184-3.41096-8.2096-7.104-13.0356-7.104-13.0356s-3.0696 0.2708 0 6.4036c1.07772-0.2288 4.28272 5.76 4.28272 5.76s-7.61468 3.1948-9.44572 11.3904" fill="#ffffff"/><path id="path569" d="m522.668 1461.24s-5.1686 4.3856-10.1679 5.1672c5.58896 0.6236 7.5018 4.8432 7.5018 4.8432l2.49684 7.3432 2.56172-7.3432s1.91284-4.2196 7.50184-4.8432c-4.99932-0.7816-9.89428-5.1672-9.89428-5.1672z" fill="#ffffff" stroke="#000000" stroke-miterlimit="3.864" stroke-width=".677221"/><path id="path571" d="m486.194 1463.48s0.88308 1.6064 0.57556 2.1904c-0.00564 0.186-2.50248 7.7668-6.55104-1.5692-1.2724 0.7876 4.3448 5.2716 0.22568 7.304-0.3498 0.11-2.49964 2.032-4.70588-3.906-1.38528 0.4852 3.93568 4.9164-1.06648 6.3216-5.58616 0.9372-4.77644-5.3424-4.77644-5.3424s-0.11848-3.9144 6.13632-8.6392l1.78024-1.2332c2.64636-1.8764 5.57488 0.1444 5.57488 0.1444s-3.6536-2.9976-2.50248-7.3436c1.49808-5.78 11.4714-5.3144 11.4714-5.3144 7.64568 0.94 8.52876 8.2832 8.52876 8.2832 1.46988-6.8748 11.2203-6.248 11.2203-6.248 8.083 0.7784 10.5742 13.2192 10.577 13.2304 0 0 1.35144-12.2964 9.43724-13.0752 0 0 10.5883-0.782 12.0582 6.0928 0 0 0.88308-8.142 8.52876-9.082 0 0 8.3172-0.0252 10.6701 6.068 1.54892 5.8728-1.7012 7.3888-1.7012 7.3888s3.44476-0.5956 6.09396 1.2784c6.07428 4.9024 6.0658 8.4384 6.0658 8.4384s0.84076 3.9256-2.04544 4.6396c-1.6702 0.2964-4.0006 1.112-3.26424-5.2944-0.96488-0.2172-0.18056 4.448-2.69996 4.38-6.5708-1.2728-1.68432-6.5784-2.5928-7.0356 0 0-0.14952 3.906-3.52944 3.2796-3.03288-0.5704-2.64072-2.9184-2.64072-2.9184l2.00032-2.3708" fill="none" stroke="#000000" stroke-miterlimit="3.864" stroke-width=".677221"/><g><path id="path573" d="m202.287 1654.26h800v-128h-800v128z" fill="#2b58a3"/><path id="path575" d="m762.287 1430.26h240v-32h-240v32z" fill="#f9f400"/><path id="path577" d="m202.287 1302.26h800v-127.999h-800v127.999z" fill="#de0029"/>

</g></g></svg>
