<svg width="220" height="88" viewBox="0 0 220 88" xmlns="http://www.w3.org/2000/svg">

  <defs>

    <!-- Reusable shield shape -->
    <symbol id="shield-base" viewBox="0 0 48 65">
      <svg xmlns="http://www.w3.org/2000/svg" viewBox="0 0 596 694" xmlns:xlink="http://www.w3.org/1999/xlink"><path d="m297.91 692.93c-122.47 1.58-225.33-57.48-276.72-174.11-17.409-39.51-19.276-75.07-20.688-116.95l-.002-401.87h595v401.87c-1.416 41.875-3.282 77.44-20.691 116.95-51.38 116.6-154.47 175.65-276.9 174.11z"/>
<path d="m587.19 401.66l-.002-393.34h-578.36v393.42c1.337 40.65 3.077 75.39 19.971 113.73 49.939 113.33 149.64 170.68 269.06 169.14 119.42 1.54 219.4-55.81 269.34-169.14 16.92-38.41 18.61-73.1 19.99-113.81" fill="#0094cb"/>
<g stroke="#000" stroke-width="2.6">
<path d="m40.568 138.49s-1.353-1.551-1.612-2.518c-1.533-5.729 2.772-9.414 9.684-6.645 7.1-.763 11.294-6.908 6.147-10.342-3.03-1.157-10.447-2.613-11.148-5.765-.381-6.102 5.498-3.843 10.01-6.484 4.958-2.905 3.051-6.528 9.387-7.291 5.34-.572 5.575 5.446 4.767 11.11-.507 9.277 7.863 6.337 9.872 2.492 1.424-9.592-5.06-13.978 2.948-16.07 3.336-.874 6.337 8.01 11.531 10.531 5.895 2.865 9.579-1.526 12.629 2.67 3.578 5.541 0 7.671-6.127 12.646-.132 1.801-2.586 6.61 10.633 14.657 1.174.453 3.596 1.016 3.596 1.016h-72.31zm149.46 134.49c-22.278 4.468-50.908 4.435-68.68-7.604 6.323-2.586 14.452-6.815 17.82-12.649 4.309-7.469 11.782-18.679 22.704-23.565-6.697-8.141-10.39-14.877-11.873-21.359h228.42c-1.191 10.457-.057 20.16 8.212 39.18-4.599-1.436-9.25-3.354-14.08-8.909 2.813 8.106 7.49 19.615 5.578 34.908h-188.1zm248.73-134.48c19.387-15.635 50.11-25.542 68.02-39.535 9.639-7.529 9.696-14.201 7.76-18.682-11.209-7.185-4.599-16.67.862-18.969 10.303-4.337 23.568-5.461 35.639 2.299 9.958 6.4 18.971 22.418 1.724 42.824-11.573 13.696-39.924 23.739-52.31 29.32-1.93.87-3.952 1.783-6.03 2.747zm14.677 69.3c1.917 2.912 4.193 5.734 6.789 8.423 21.545 22.324 40.806 33.88 57.57 56.753h-34.906c-10.593-8.165-24.769-17.949-44.805-39.22-5.216-5.535-11.227-17.891-17.15-25.956zm-303.43 0c1.483 6.482 5.176 13.216 11.873 21.358-10.922 4.886-18.396 16.1-22.704 23.565-.468.812-1.028 1.592-1.664 2.341-9.292-5.263 3.363-17.793-2.362-28.2-4.575 7.784-9.08 13.05-13.508 15.808 2.474-7.685.557-13.911-2.299-20.982-3.618 3.465-7.474 10.922-6.898 19.544-9.485-8.336-11.434-12.836-10.06-28.741-8.091 5.743-14.08 6.323-23.568 1.151 3.4-1.238 5.91-3.292 7.641-5.843zm-105.01 140.95h173.2c-5.402 5.756-12.447 15.633-12.824 22.949-4.386-3.432-3.936-8.176-6.337-18.204-3.814 13.436-11.818 22.537-21.827 28.97 1.526-8.05.953-15.534-1.335-21.11-4.24 18.587-15.343 27.974-24.16 34.12 3.467-7.366 5.184-22.21 1.716-31.786-2.67 12.821-14.967 24.818-18.968 26.21.255-4.572 3.668-15.489-6.291-24.306-14.39-9.77-20.589 1.746-13.05 7.103 8.05 5.721 7.274 11.271-.961 10.719-2.667-1.345-5.83-1.144-7.48 1.526-4.336 7.475-11.356 8.95-11.11-7.1-1.951-8.243-15.288-3.532-13.01 4.049l2.668 2.861c6.528 5.339 3.636 12.935-4.195 11.11-2.98-1.862-10.06-1.63-12.483 1.335-7.482 1.907-7.1-4.386-4.195-12.06.763-4.24-12.675-8.815-10.15 4 1.91 10.426-12.08 15.627-10.15 1.761 1.28-2.605-2.905-10.385-8.815-12.483-4.081-3.314-1.38-10.722 4.082-9.921 5.184.761 9.501.914 14.503-.612 6.06-1.847 4.77-13.465-2.714-9.572-8.05 4.19-14.919-1.723-9.578-6.534 1.047-.708 2.336-1.751 3.457-3.03zm76.46 212.16c3.209-3.534 9.523-.832 10.528-7.363 2.479-16.11 10.531-18.394 19.918-9.578 12.792 7.192 20.556 2.88 25.1-5.146 2.403-4.235 13.235-30.72 16.547-49.4h73.53c.726.382 1.474.694 2.241.927 13.275 4.04 25.725 6.291 31.06 3.623.572 9.959-10.531 19.348-17.631 21.445 6.147 1.716 10.196 2.096 13.627 13.01-6.337-1.907-13.01 1.57-16.874 4.424-5.199 3.841-11.672 6.724-18.962 2.866 3.432 8.435 5.193 15.343-1.907 26.448-3.292-13.399-14.1-14.437-20.683-15.725 3.556 4.232 5.09 9.56 5.171 14.463h-121.68m342.15-71.48c12.898 1.147 27.821.829 34.554-6.192.575 9.196-.349 17.17-12.933 24.43 11.729 11.695 12.933 19.831 11.496 30.466-9.485-8.05-17.829-7.22-28.742-2.299 7.03 11.272 8.336 15.808 7.185 29.604-7.346-6.659-14.426-7.447-18.627-4.527h-58.06c.455-2.855.604-6.05.236-9.557.507-20.947-5.907-32.14-12.07-35.36-6.04-3.155-22.993-7.178-25.868-20.687-2.875 18.682-27.592 25.579-43.4 3.737 2.222-3.14 3.901-6.296 4.91-9.616zm-70.52-140.68c18.676 20.881 42.21 34.02 67.65 29.25 17.233-3.234 31.682-14.731 40.23-29.25h27.842c-6.082 15.972-16.393 28.14-31.508 41.36-17.599 12.817-42.537 19.831-62.944 13.797.929 7.126-.032 13.1-1.988 18.17h-288.57c-.304-1.776-.54-3.621-.704-5.533 28.736 10.531 42.22-9.488 63.04-28.932 19.434-18.15 38.33-24.623 57.637-24.2 13.08.285 34.35 4.718 40.11 8.862-7.361-8.255-18.02-16.584-28.852-23.521zm-100.91-210.25c.309-.639.609-1.317.906-2.028 1.662-3.99 1.868-7.76 1.147-12.795-1.041-7.286-3.938-11.323-13.654-11.781-12.215-.575-21.12 8.768-32.3 6.093-11.865-2.84-10.353-15.03-9.694-19.653.354-2.476 1.4-4.364 2.697-6.17 0 0-.881-.495-1.211-.661-1.816-1.045-1.597-3.302-.936-5.951 1.65-4.292 5.77-5.147 10.159-7.529 3.502-1.9 10.204-3.02 16.987-9.04l94.77-.007s21.844-4.788 25 1.248c1.666 5.468 3.737 18.394-10.451 37.1 6.939 6.789 8.06 16.07 7.645 31.18" fill="#f0432a"/>
<path fill="#fff" d="m190.05 273.13c-3.161 12.359-12.359 15.521-18.394 35.06 11.496-5.748 23.28-6.898 38.795-2.01 26.19 8.247 37.705 3.67 44.842-1.436 2.875 11.784 14.08 9.773 16.09 25 7.185-8.334 14.664-10.915 25.294-12.646 15.561-2.536 24.04-7.776 25.579-19.544 9.196 10.635 19.544 13.221 33.34 11.491 3.363-.423 8.711-.547 14.664.176.312 1.288.678 2.562 1.048 3.834 1.203 4.02 2.985 8.852 5.558 13.579.624 1.146 1.291 2.279 2.01 3.398 3.913 6.04 8.175 11.771 12.737 17.04l1.464 1.664h-118.06l-2.642-1.666c-13.684-8.46-27.25-14.515-34.411-15.227 1.907-4.767-2.711-8.05-2.711-8.05-.94 11.92-9.59 17.97-14.53 22.46l-.005-.003-.886.832c-.52.505-1.065 1.06-1.632 1.664h-173.2c.455-.517.881-1.077 1.253-1.664.585-.924 1.033-1.922 1.243-2.979-.731-10.291 4.582-17.1 15.915-10.342 0 0 3.242 5.889 10.914 6.147 10.313-1.401 18.959-6.918 33.522-17.629 22.461-15.517 37.813-32.633 46.985-41.861 1.946-1.957 3.608-3.557 5.01-4.715 10.11.288 20.351-.703 29.505-2.437m231.59-65.46c-2.568-3.5-5.117-6.191-7.578-7.168-6.316-2.512-12.683-3.311-22.699 4.961.575-19.831 7.611-29.07 26.443-28.742 4.599-20.12 11.353-29.631 20.11-37.08.505-.429 1.018-.854 1.541-1.275h55.663c-12.973 6.01-28.365 14.08-39.542 26.808-11.482 13.08-10.474 28.777-1.446 42.495h-32.494zm85.266 94.66c-5.714-14.774-12.725-21.316-23.316-29.477h34.906c2.02 2.751 3.995 5.664 5.939 8.779 4.555-4.555 10.452-7.544 16.645-8.779 3.6801-.58105 7.6701-.85327 12.839 0 6.647 1.377 12.79 4.99 17.07 11.08 8.368 11.898 7.764 33.34-13.792 39.661 13.782-26.325-18.969-32.766-21.557-3.737-.953 11.08-2.974 20.442-6.144 28.766l-27.838-.0015c8.35-14.18 11.07-31.24 5.25-46.29zm-419.75-94.66c3.103-4.565 3.703-10.714 2.417-16.588-2.01-9.189 4.104-21.738 4.03-25.566-.288-13.802-17.394-13.948-15.234-2.306 4.886 12.933-1 23.2-7.474 14.659l-2.586-6.898c-9.376-6.02-11.615-11.335-4.961-15.517 9.196-7.1 1.335-13.01-6.528-8.626-5.585 8.996-11.641 9.723-13.438 5.765-1.038-2.289 1.57-5-.19-10.573-.453-1.431-1.925-3.66-1.925-3.66h72.29c24.752 9.891 60.49 28.03 81.14 46.786-8.223 4.867-19.863 12.188-43.04 4.22-1.798 6.499-2.325 12.294-.951 18.305h-63.55zm156.68 353.11c.082 5.089-1.405 9.716-3.836 12.177-3.096-3.812-5.855-6.296-14.776-6.286-6.504.007-15.04 4.391-15.529 5.905 2.523.953 3.581 3.239 3.477 5.956-2.67 18.585-15.15 10.342-19.348 12.826-4.02 2.38-5.194 8.43-11.912 11.526-7.819 1.716-10.342-1.57-10.342-1.57-6.84 7.03-21.07 12.07-23.16-3.242-3.928.933-8.842-3.42-12.483-7.863-1.907 1.907-4.973 4.453-8.2-1.144-.25-4.44 2.61-11.392-1.182-13.773-5.537-3.479-8.163-7.01-5.345-13.05.272-.58.594-1.06.956-1.459h121.68zm213.4 0c-1.058.735-1.934 1.706-2.585 2.876-3.797 6.826 3.104 8.837-4.656 16.884-7.784 1.8-14.89 12.13-10.352 19.256 4.03 6.323.58 11.209-8.04 5.748 2.873 8.334.575 19.256-8.623 25.292-14.37 7.185-9.485-2.299-14.08-8.336-4.599-7.474-10.922-4.886-10.922-4.886-1.278 1.038-3.074 8.302-3.564 10.407-4.46 12.784-15.667 14.956-19.427 5.112-1.099-5.302-6.534-9.713-9.773-10.347-6.798-6.03 2.445-12.415 5.748-15.521-3.544-1-2.873-5.173-2.299-10.06-.897-4.235-4.901-8.04-4.312-9.773 1.607-8.525 6.444-9 16.958-4.886 4.886-.862 7.474-1.437 11.494-6.61 1.322-1.699 5.084-7.03 6.377-15.16h58.06zm-30.8-127.69c-16.1 27.02 4.02 49.44 25 54.61 3.682.557 8.141 1.174 12.871 1.595h-141.32c2.556-8.406.825-17.849-7.21-30.624-6.642-10.556-5.748-25.579-5.748-25.579-7.802-2.289-20.598-4.822-33.34 2.299-27.808 15.539-22.258 46.851-8.892 53.904h-73.54c.901-5.075 1.246-9.574.716-12.893-.891-5.583-10.962-10.991-15.15-23.587-16.532 3.401-31.436-8.091-35.32-30.876l288.57.0005c-1.673 4.3325-4.072 7.9995-6.636 11.15zm-236.39-159.95.688-.292 188.1-.002c-.113.899-.25 1.811-.409 2.735h-.002c-1.873 10.857.003 23.286 6.326 36.795-10.633-4.02-22.575-4.193-28.454-3.457-13.795 1.731-24.14-.855-33.34-11.491-1.54 11.769-10.02 17.01-25.579 19.544-10.63 1.731-18.11 4.31-25.294 12.646-2.01-15.232-13.22-13.22-16.09-25-7.137 5.105-18.649 9.684-44.842 1.436-15.514-4.886-27.298-3.735-38.795 2.01 6.04-19.544 15.232-22.706 18.394-35.06m-40.05-65.34c-1.374-6.01-.847-11.806.951-18.305 27.592 9.485 38.831-2.695 47.42-6.61 11.353-5.173 27.521-3.066 37.36.862 29.891 11.928 42.39 3.737 44.692-5.173 1.748-6.773-1.437-17.676-28.02-15.09-3.448 0-5.173-.287-6.903-2.45-1.667-2.085-3.156-9.478-2.868-14.221.634-2.113 1.436-2.201 2.444-3.448 13.797-4.455 21.493-2.935 32.33 1.718 7.19 3.086 11.351.517 14.763-6.588h91.08l-.069 2.14c-1.92 18.481 7.474 29.32 7.474 29.32-4.599.287-8.909-.575-12.933-4.599 3.45 16.67 4.02 27.88.862 41.1l-.166 1.347h-228.42z"/>
</g>
<path d="m437.82 600.73c-.49-2.18-1.79-9.44.86-13.58 2.368-3.688 6.125-6.64 9.934-7.655 6.721-7.162.253-9.251 4.198-16.343 4.651-8.362 15.08-5.132 21.242-.356.75-11.554-.745-15.949-7.182-26.27 0 0-.55-1.179.572-1.885 10.469-4.72 18.981-5.865 28.25 1.01.887-9.139-.84-16.532-11.393-27.06 0 0-1.104-1.13.27-2.06 10.784-6.219 12.552-12.817 12.4-20.541-10.833 7.866-33.32 5.112-46.49 3.123-21.435-5.285-42.609-28.469-25.874-56.56 6.915-8.524 9.869-17.597 8.45-28.477 0 0-.069-1.65 1.669-1.424 19.893 5.884 44.39-.934 61.76-13.567 23.685-20.735 34.508-38.37 37.16-69.22 2.752-30.892 35.89-23.545 25.361 1.61 23.696-9.392 17.658-42.19-5.919-47.19-4.02-.685-8.18-.806-12.572 0-5.91 1.203-11.521 4.065-15.85 8.394-1.214.768-2.036-.233-2.036-.233-17.263-27.677-41.33-42.514-63.34-65.31-13.969-14.473-20.708-35.24-5.385-52.693 19.09-21.743 47.5-29.31 72.44-41.481 10.07-4.912 19.828-10.749 25.425-17.371 25.968-30.728-7.01-55.22-35.857-43.07-5.104 2.148-10.474 10.374-.664 16.663l.495.582c6.04 13.979-14.08 24.881-23.789 30.23-17.862 9.84-38.31 17.535-53.887 30.78-8.515 7.239-15.14 16.489-19.684 36.37 0 0 .034.959-1.298 1.016-17.02-.299-23.86 7.313-24.982 24.655 9.159-6.7 15.514-5.875 21.745-3.396 8.711 3.465 17.944 25.75 25.19 33.445 9.974 10.588 18.488 18.317 25.827 24.415 7.358 6.113 13.538 10.592 18.825 14.665 10.689 8.237 17.904 14.956 23.737 30.04 5.961 15.415 3.202 32.786-5.198 47.19-8.693 14.909-23.508 26.782-41.26 30.11-35.862 6.727-65.52-21.26-83.19-48.53-4.567-7.105-7.175-14.959-8.564-20.324-5.471-.594-10.347-.465-13.453-.075-13.236 1.662-23.578-.574-32.69-9.961-2.561 10.789-11.606 15.635-26.18 18.01-10.479 1.707-17.609 4.201-24.512 12.208-1.662 1.06-2.288-.683-2.288-.683-1.833-13.872-11.893-12.618-15.546-23.09-7.635 4.908-19.7 8.399-44.488.594-15.222-4.792-26.652-3.648-37.818 1.935-2.049.392-1.835-1.556-1.835-1.556 3.076-9.961 6.972-15.769 10.464-20.606 2.89-4 5.718-7.655 7.319-12.395-8.688 1.556-18.318 2.449-27.885 2.216-1.879 1.607-4.255 3.998-7.192 7.02-13.899 14.276-27.994 27.894-44.488 39.29-14.53 10.685-23.431 16.42-34.12 17.872-4.921-.146-9.496-2.526-12.04-6.482-9.835-5.721-14.348-.354-13.664 9.288l-.022.347c-.694 3.494-3.586 6.506-6.427 8.448-4.253 3.92 1.983 7.558 8.163 4.342 9.168-4.768 11.578 9.582 3.7 11.985-5.265 1.607-9.798 1.431-15.08.656-3.817-.56-6.246 4.785-3.222 7.479 5.939 2.266 10.917 10.233 9.419 13.988-1.525 11.628 9.109 6.395 7.593-1.873-2.87-14.583 13.912-10.627 12.723-4.02-1.191 3.21-4.81 12.23 2.204 10.65 3.098-3.207 10.322-3.299 13.674-1.39 5.654 1.191 8.778-4.04 2.814-8.919l-2.732-2.92-.297-.517c-2.784-9.273 13.174-14.711 15.538-4.726l.035.322c-.235 14.912 5.119 12.535 8.674 6.407 2.081-3.365 5.952-3.537 8.939-2.144 5.312.265 7.982-2.598-.132-8.361-8.857-6.291-1.414-20.08 14.54-9.253 7.561 6.677 8.319 14.12 7.14 22.993 4.787-3.447 13.891-13.453 16.1-24.08.111-.621 1.788-1.355 2.511-.179 3.03 8.364 2.259 20.44-.196 28.611 7.908-6.06 16.539-15.03 20.13-30.788-.0001-.884 1.982-1.513 2.486-.206 2.11 5.141 2.803 11.73 1.89 18.828 8.616-6.164 15.408-14.59 18.801-26.55.188-.713 2.179-1.446 2.531.052.904 3.77 1.847 12.433 4.151 15.694 1.776-7.871 9.359-18.13 15.373-23.598 6.939-6.305 13.273-11.05 14.12-21.586.075-.837 1.333-1.885 2.897-.257 1.89 1.969 3.276 4.508 2.787 7.326 8.198 1.426 22.17 8 35.721 16.638 11.02 7.02 21.943 15.517 29.497 23.992l-1.741 1.932c-5.412-3.894-26.32-8.331-39.37-8.616-18.937-.414-37.507 5.909-56.716 23.85-18.05 16.861-33.599 39.31-62.43 29.881 2 17.263 12.921 37.61 34.25 33.22 0 0 1.188-.287 1.505.869 2.804 8.428 7.831 12.421 12.799 18.939 4.055 5.32 2.784 11.995 1.686 18.18-3.339 18.825-14.221 45.45-16.693 49.811-4.894 8.634-13.446 13.198-26.884 5.642-8.69-8.108-15.627-6.689-17.986 8.638-1.281 8.326-9.278 4.216-11.593 9.174-2.395 5.134-.468 8.05 4.856 11.392 4.57 2.87 1.686 10.167 1.779 14.499 2.197 3.628 3.871 2.63 5.54 1.033-.483-6.464 4.166-14.899 16.48-17.09l.46 2.576c-11.247 2-14.769 9.475-14.317 14.476 3.722 4.463 7.983 7.821 10.925 7.123 0 0 1.394-.258 1.598 1.095 1.632 11.972 12.462 10.494 20.38 3.235-1.323-3.774.049-8.797 2.283-12.376l2.221 1.385c-2.147 3.442-3.041 7.781-1.91 10.447 2 1.979 6.58 1.528 8.814 1.05 6.469-3.054 8.418-11.71 14.174-12.08 2.744-.178 5.464.533 8.218.138 3.239-.466 6.697-2.44 7.983-11.272.07-2.306-.812-3.926-2.635-4.616-.611-.007-.924-.951-.782-1.629.792-2.439 10.258-6.801 16.772-6.809 8.389-.0001 11.764 2.154 14.766 5.55 4.562-6.667 2.625-17.862-2.325-23.753-.53-.518-.215-2.196 1.253-2.125 9.273 1.815 16.987 3.494 20.817 13.802 5.02-9.166 3.38-15.201.309-22.748-.582-1.397.572-2.445 1.823-1.649 13.156 6.962 19.268-9.587 33.24-7.88-2.799-7.5-5.268-8.126-12-10-.902.148-1.218-1.884-.018-2.516 6.38-1.885 15.853-9.87 16.66-18.308-7.256 1.929-26.471-2.055-32.575-5.276-26.661-14.07-6.59-73.23 43.21-58.62l.938 1.333s-.213 3.656.377 8.597c.597 4.991 2 11.165 5.173 16.209 8.857 14.08 12.319 26.904 2.801 40.91 15.341 20.291 37.89 13.04 40.498-3.911.023-.75 2.01-1.588 2.573-.074 1.323 6.222 5.9 10.352 11.122 13.366 5.335 3.078 11.06 4.862 14.07 6.434 6.843 3.576 13.267 15.43 12.775 36.467.916 8.914-1.335 18.427-6.89 25.574-4.294 5.523-7.236 6.202-12.299 7.095l-.704-.07c-10.489-4.106-13.857-3.185-15.217 4.159.418 2.118 3.576 5.454 4.329 9.01l.02.423c-.231 1.962-1.342 7.153.881 8.448 2.217-1.315 4.808-2.435 7.02-2.435v2.61h.017c-1.597 0-3.869.943-6.098 2.321-3.271 3.036-11.06 8.399-5.919 13.278 3.715.958 9.186 5.575 10.402 11.17 2.984 7.61 12.483 7.495 16.911-5.104.319-1.364 1.35-5.869 2.583-8.76-6.385-1.479-1.052-15.694 7.569-18.617l.84 2.479c-3.562 1.208-6.721 5.162-8.03 8.78-.644 1.774-1.573 5.248 1.531 4.803.208-.072.605-.198 1.151-.3 4.733-.896 8.685 1.686 11.185 5.719 4.882 6.494-.371 14.28 12.349 7.94 8.579-5.672 10.739-15.903 8.04-23.731-.245-.627.699-1.676 1.937-1.531 2.335 1.398 5.03 3.821 7.02 1.825.857-.857-.307-3.476-.808-5.673zm-300.58-347.42c.294-.403.562-.812.803-1.231 4.119-7.138 11.276-17.99 21.778-23.374-12.178-15.261-13.887-25.941-10.124-39.55 0 0 .258-1.508 1.686-.887 14.602 5.02 26.17 4.978 39.19-2.491l1.219-.708c-21.696-19.07-58.756-37.03-82.983-46.37-4.57-2.759-12.04-7.786-11.724-14.03.042-.842.221-1.491.255-1.949l.48-.919c1.825-1.481 5.152-3.861 6.434-5.813.844-1.286 1.013-2.618-.54-5.05-1.738-2.39-5.092-.979-7.601-1.097-9.208-.428-12.696-12.257-15.169-11.61-5.01 1.312-2.72 4.111-2.053 8.342.299 1.887.448 4.097.067 6.66l-.134.414c-2.858 5.468-12.903 7.217-12.332-3.227.374-2.621 1.478-10.191-3.319-9.676-6.226.75-3.913 6.622-12.779 8.539-2.477.535-5.635.238-5.464 3.734.696 2.202 8.547 4.069 10.316 4.746 7.324 4.844.538 12.11-6.474 12.864l-.627-.087c-4.887-1.957-11.2.198-7.449 6.107 2.833 4.463 4.557 6.13 3.443 12.254-.148.808-.629 2.494-.272 3.282.847 1.868 5.286 3.502 11.133-5.914l.475-.453c9.409-5.248 18.372 2.766 7.913 10.84-5.03 3.161-4.654 7.199 4.919 13.346l.518.641 2.519 6.715c2.804 3.616 4.632 2.71 5.684.748 1.427-2.662 1.775-8.04-.592-14.302-2.561-13.689 17.436-13.902 17.765 1.815.052 2.491-2.093 8.549-2.781 11.137-1.265 4.751-2.207 9.917-1.275 14.177 1.9 8.681-.139 18.283-8.316 22.775 7.668 3.577 12.809 2.67 19.789-2.284.632-.512 2.204-.198 2.061 1.179-1.228 14.219.203 18.842 7.42 25.649.352-7.708 3.891-14.218 7.329-17.51.699-.501 1.748-.607 2.118.455 2.439 6.04 4.304 11.704 3.215 18.255 3.304-2.873 6.727-7.261 10.251-13.255.525-.507 1.468-1.345 2.274.034 5.625 10.219-5.094 22.12.946 27.07zm158.71-124.61c-.106 3.366-.493 5.077-1.496 7.89l-.156.382-.247.584c-3.682 8.508-8.505 12.44-17.14 8.732-10.514-4.513-17.847-5.988-31.06-1.786-.864.966-1.454 1.157-1.9 2.551-.24 4.648 1.253 11.494 2.593 13.169 1.328 1.66 2.502 1.956 5.818 1.959 26.896-2.598 31.446 8.614 29.353 16.725-2.637 10.216-16.465 18.03-46.44 6.06-9.664-3.856-25.433-5.857-36.34-.887-6.02 2.742-9.879 6.191-16.732 8.386-7.383 2.367-16.988 3.053-30.33-1.283-3.128 12.391-1.224 22.258 11.02 37.15 0 0 .798 1.345-.476 2.024-10.506 4.7-17.8 15.564-22.11 23.03-3.19 5.53-10.219 9.578-16.16 12.225 17.485 10.454 44.45 10.377 65.65 6.248 1.88-.455 1.518 1.608 1.518 1.608-1.595 6.236-4.664 10.206-8.326 15.279-3.053 4.23-6.358 9.124-9.142 16.993 10.967-4.758 22.423-5.38 36.994-.793 25.903 8.156 36.964 3.559 43.688-1.253 1.3-.844 1.929-.005 2.033.753 2.539 10.412 12.691 9.582 15.647 22.481 6.935-7.106 14.348-9.49 24.26-11.1 15.402-2.509 23.07-7.553 24.494-18.422 0 0 .594-1.681 2.286-.686 8.844 10.226 18.713 12.738 32.19 11.05 5.505-.691 16.11-.609 26.19 2.536-5.414-12.639-6.986-24.383-5.188-34.799 2.417-14-.641-24.09-5.117-36.994-.419-1.09 1.053-2.336 2.222-1.288 3.67 4.216 7.2 6.229 10.741 7.581-7.615-18.199-8.399-27.743-6.989-38.507 3.125-13.1 2.581-24.1-.847-40.665-.28-1.145 1.397-1.879 2.205-1.189 2.977 2.977 6.095 4.074 9.466 4.242-2.672-4.102-7.71-13.946-6.231-28.17.542-15.576-.31-24.67-6.221-31.24-2.231 2.383-4.649 3.561-6.464 3.955l-.557-2.556c1.459-.317 3.816-1.451 5.936-4.151 13.805-18.201 11.813-30.614 10.268-35.781-2.677-4.567-21.29-.939-23.353-.513-3.772 1.934-5.877 4.123-6.674 6.461l-2.477-.844c.718-2.105 2.14-3.947 4.17-5.553l-89.74.005c-4.213 3.638-8.753 5.659-13.837 7.589-3.063 1.164-6.276 2.67-9.09 4.32-1.607.944-2.778 2.01-3.465 3.75-.267 1.078-.976 3.663.339 4.419 1.622-1.684 2.987-3.153 3.955-4.175l1.9 1.798c-1.085 1.147-2.633 2.984-4.285 5-3.01 4.223-3.556 10.593-2.291 15.512.922 3.593 3.197 6.922 8.581 8.212 10.1 2.417 20.754-6.66 32.05-6.129 10.4.485 13.766 5.05 14.888 12.899.266 1.864.42 3.585.415 5.213m-209.64-29.24c4.46-5.179 2.529-14.654 1.157-20.583 13.631 9.469 17.507 12.43 16.453 28.707.681.377 1.338.958 1.977 1.837 4.461 6.91-1.352 10.342-5.988 14.08-1.045 5.974 5.8 10.216 9.998 12.782 24.543 9.473 62.36 27.793 84.3 47.37 12.235-7.153 29.29-6.229 42.07-1.129 29.802 11.893 40.979 3.319 42.941-4.285 1.401-5.427-.473-16.01-26.694-13.458-3.534 0-5.865-.283-7.988-2.937-1.977-2.472-3.447-10.28-3.153-15.12l.054-.297c.701-2.336 1.452-2.377 2.677-3.894l.617-.423c14.15-4.57 22.18-2.992 33.25 1.759 7.937 3.408 11.11-1.213 13.812-7.601-11.521-6.05-18.879-4.726-32.16-3.297-4.74.51-9.708 2.782-14.239 4.193-6.06 1.888-13.215 3.688-20.698 3.544-9.912-.19-19.778-4.653-23.285-15.798-2.915-9.26 1.189-16.702 8.468-21.849 1.281 8.775 4.889 14.12 12.723 18.449 16.631 9.196 31.22-2.211 47.951-1.813 8.07.191 15.937 2.955 22.758 7.207-.06-.964-.171-1.977-.325-3.059-.961-6.721-3.386-10.234-12.421-10.659-11.455-.538-21.05 8.81-32.538 6.06-10.732-2.57-11.982-12.03-10.684-21.11.312-2.187 1.112-3.95 2.103-5.528-2.692-1.603-2.155-4.872-1.528-7.385 1.915-5.01 6.709-6.14 10.805-8.362 2.316-1.256 4.951-1.989 7.373-3.03 2.816-1.208 5.976-2.878 9.161-5.661-1.441-19.07-7.73-33.378-21.68-46.911 10.997-6.04 18.545-2.511 24.997 7.459 8.183-6.55 17.06 1.04 18.478 8.889-13.86 5.206-9.03 16.06 1.706 16.06 12.292 0 14.421-12.447 2.529-15.699-.58-7.599 3.99-12.579 11.824-12.995.575-5.709 4.413-12.539 10.05-14.778 6.144 2.445 9.144 7.973 10.617 14.01 7.856.317 12.925 6.779 13.248 13.911-14.261 3.985-9.392 15.351 2.046 15.355 9.428.003 15.788-11.541 1.848-15.543.173-8.156 8.919-16.11 17.336-10.751 7.205-10.514 15.615-10.389 25.343-4.538-13.235 12.898-21.46 26.974-22.515 44.984 5.188-1.09 22.904-4.294 26.19 1.972 1.847 5.983 3.822 19.02-9.892 37.595 6.66 7.148 7.635 16.807 7.234 31.33l-.07 2.19c-.909 8.76 1.031 21.249 7.158 28.372 1.184 1.563-.907 2.162-.907 2.162-3.796.238-7.504-.273-11.02-2.583 2.819 14.837 3.126 25.549.158 38.01l-.156 1.268c-1.157 10.162-.096 19.622 8.113 38.504.273.914.047 1.991-1.59 1.771-3.455-1.08-7-2.447-10.635-5.372 3.77 11.09 5.439 21.28 3.401 33.08-1.82 10.538-.013 22.696 6.221 36.02 0 0 .366 1.998-1.647 1.778-3.789-1.434-7.762-2.37-11.569-2.943 1.407 5.156 3.874 12.188 7.96 18.543 17.07 26.34 45.846 53.88 80.51 47.38 16.901-3.17 31.11-14.508 39.481-28.858 8.09-13.865 10.635-30.401 5.02-44.926-5.594-14.463-12.401-20.826-22.894-28.913-5.308-4.091-11.512-8.587-18.899-14.726-7.406-6.152-15.997-13.951-26.06-24.633-6.655-7.06-16.915-29.888-24.26-32.809-5.899-2.346-11.756-3.195-21.383 4.753-1.176.956-2.01.641-2.14-1.048.579-19.959 7.755-29.992 26.713-30.02 3.779-15.982 9.134-27.786 21.869-38.06 15.761-12.712 35.15-20.08 52.753-29.78 8.165-4.497 27.463-14.691 22.797-26.543-12.11-8.06-4.354-18.624 1.409-21.05 31.38-13.213 66.63 14.322 38.871 47.17-12.307 14.565-41.07 24.19-58.794 32.405-25.681 11.895-62.687 33.598-40.442 67.4 1.868 2.838 4.094 5.599 6.638 8.235 21.673 22.456 45.556 37.37 62.825 64.39 4.565-4.121 10.226-6.838 16.13-8.02 4.191-.707 8.532-.81 13.1-.025 27.51 5.671 33.33 44.599 3.651 53.31-1.764.406-2.08-.958-1.528-1.862 13.215-25.24-16.774-29.04-19.09-3.02-2.717 31.595-13.887 49.816-38.14 71.04-17.294 12.596-41.72 19.778-62.25 14.546.934 10.806-2.318 19.986-9.06 28.3-15.353 25.883 3.7 47.49 24.18 52.575 12.41 1.872 37.34 5.05 46.22-4.22.659-.656 2.246-.627 2.251.824.57 9.139-.349 17.406-12.143 24.779 10.942 11.376 12.136 19.721 10.696 30.374-.144.812-1.089 1.756-2.144.824-8.567-7.269-16.03-6.954-25.992-2.704 6.481 10.595 7.715 15.568 6.585 29.12 0 0-.609 1.667-2.182.86-4.44-4.02-14.848-9.79-19.19-1.986-3.46 6.221 3.279 8.594-4.696 16.988 10.511 10.11 12.356 22.597 7.01 35.386-4.508-8.911-10.224-12.187-16.604-13.475.77 5.335.495 8.571-7.863 4.931 1.617 8.307-1.258 18.11-9.946 23.81-4.045 2.029-8.57 4.101-11.351 1.744-4.698 5.05-7.487 13.179-5.286 22.51-7.443-5.451-12.626-15.17-13.421-23.431-4.646 7.844-12.648 10.493-17.478 4.99-6.281 5.095-6.281 12.14-7.516 21.772-8.284-12.606-13.5-23.538-5.318-36.759-4.933-5.572.788-11.21 5.079-14.969-7.851.314-13.176 1.821-17.985 7.775l-2.625 2.89.307-3.852c.29-2.685.51-5.406.968-8.09 1.627-9.518 6.246-15.16 13.966-19.2 1.915-9.963 8.098-10.09 18.404-6.11 4.465-.795 6.677-1.364 10.328-6.06 5.161-6.637 7.214-15.504 6.345-23.779.496-20.972-5.9-31.474-11.376-34.34-3.03-1.583-8.795-3.388-14.167-6.487-4.317-2.491-8.544-5.894-10.904-10.783-5.971 16.66-29.623 20.692-44.651-.074 0 0-.627-.944-.007-1.523 9.433-13.312 6.249-25.13-2.34-38.785-4.438-7.06-6.132-16.988-5.981-25.299-48.11-13.444-64.66 46.876-38.27 54.902 13.45 4.091 25.324 6.092 30.1 3.703 0 0 1.825-.441 1.89 1.095.528 9.196-7.895 17.609-14.959 21.28l.688.226c6.04 2.085 8.332 6.665 10.209 12.633 0 0 .223 1.644-1.625 1.645-12.519-3.767-19.212 12.864-33.13 8.44 2.707 7.487 3.438 14.468-3.136 24.751-1.094 1.295-2.351.456-2.373-.392-2.286-9.302-8.106-12.5-16.453-14.15 4.181 6.882 5.424 19.472-.693 25.668-1.072 1.174-1.947-.094-1.947-.094-2.871-3.537-5.27-5.813-13.76-5.801-5.228.005-11.174 2.861-13.392 4.28 1.966 1.468 2.741 3.842 2.647 6.321-1.048 7.323-3.272 11.02-6.942 12.658 1.877 16.11-5.246 22.382-19.575 30.438 3.364-11.12 4.688-14.231-.299-21.327-1.335 1.382-2.989 2.699-5.204 3.718-3.599.822-7.843 1.055-10.835-.99-5.04 4.599-14.317 8.836-19.987 4.559-5.971 4.181-5.275 10.888-3.757 17.856-14.03-4.45-17.01-19.89-13.753-32.28-2.056 1.032-4.688 1.052-7.212-2.959-5.332 1.36-8.804 6.979-9.387 14.04-9.644-12.369-10.06-23.06 1.437-35.652-.48-1.987-.211-4.26 1.048-6.957.731-1.567 1.741-2.509 2.855-3.126-6.484-3.145-15.403-2.377-21.946 4.339 1.93-14.159 16.648-27.909 35.845-22.896 4.205-4.216 10.174-3.219 16.614 2.772 12.06 6.722 19 2.663 23.19-4.726 2.326-4.106 13.11-30.448 16.393-48.978.894-5.04 1.206-9.359.711-12.457-.419-2.637-4.332-6.556-6.03-8.51-3.01-3.457-6.477-7.804-8.69-13.792-23.397 3.925-34.841-18.9-36.467-37.787-.216-2.17 1.753-1.34 1.753-1.34 20.727 7.596 33.18-1.109 47.09-14.442 4.644-4.45 9.396-9.35 14.603-14.216 19.662-18.362 38.879-24.984 58.56-24.554 10.03.22 25.04 2.861 34.27 6.06-6.84-6.558-15.419-12.997-24.12-18.543-14.431-9.196-28.885-15.737-36.11-16.455-1.402-.337-1.085-1.788-1.085-1.788.76-1.897.191-3.526-.565-4.679-2.185 11.658-9.696 15.217-16.817 22.718-5.431 5.723-12.334 15.46-12.69 22.354-.433 1.625-2.113.963-2.113.963-4.381-3.428-4.797-9.262-5.793-14.285-4.315 11.314-11.04 18.77-20.1 24.589-1.65 1.04-2.935.419-2.754-.812 1.125-5.941 1.07-11.504.042-16.15-4.985 16.15-14.34 24.02-22.552 29.75-1.145.636-3.188.631-2.883-.904 2.845-6.04 4.471-17.435 2.836-26.366-4.243 11.366-14.503 21.2-18.473 22.584-2.236 0-1.738-1.308-1.738-1.308.196-3.519.979-6.806.688-10.382-.335-4.109-1.843-8.683-6.477-12.816-12.623-8.525-17.793.52-11.485 5 5.867 4.166 8.093 9.81 4.287 12.1 2.405 12.552-5.072 20.16-18.681 23.709 4-7.67 5.479-11.531 1.758-16.757-4.495 2.798-9.134-.181-8.98-12.693-1.639-6.185-11.868-2.445-10.523 3.242l2.388 2.559c5.285 4.382 5.107 11.163.367 13.13-.646 10.697.374 16.94 7.898 26.27-15.02-1.696-25.425-10.251-29.28-24.371-5.991-.714-3.779-9.37-2.038-14.01.039-1.934-9.731-6.821-7.586 4.076 1.937 10.575-10.07 15.893-12.505 7.714-7.083 4.183-9.153 11-10.717 20.747l-1.808-1.791c-7.489-7.42-8.344-28.694 2.519-37.772-2.7-4.426.334-11.501 6.531-10.59 4.255.626 18.305 2.229 16.749-6.01-1.218-6.447-8.825 3.517-15.751-1.724-2.196-1.662-2.843-4.309-1.409-6.781-6.14-1.263-13.934.178-18.822 4.356 0-11.74 6.177-21.607 27.679-22.887 2.611-4.69 7.995-6.353 16.11-1.508l.476.491s.171.302.522.763c2.19 2.875 5.533 4.552 9.181 4.705 9.887-1.374 18.287-6.689 32.828-17.383 16.37-11.309 30.356-24.831 44.15-38.998 1.993-2.046 3.774-3.856 5.34-5.342-13.231-.743-26.16-3.789-35.961-10.429-.959-.649-.956-1.769.247-2.286 4.968-2.031 10.86-5.01 14.665-8.866-7.113-5.723 1.842-17.02-.594-25.552-4.171 6.672-8.364 11.395-12.608 14.03-1.144.709-2.375-.6-1.927-1.505 2.105-6.543.862-11.963-1.501-18.15-2.912 3.635-5.62 9.904-5.146 17.02-.012 2-1.847 1.372-2.169 1.07-9.282-8.156-11.64-13.01-10.706-27.15-7.443 4.587-13.663 4.648-22.684-.275-1.142-.679-.617-1.885.179-2.378 8.79-3.197 11.1-12.376 9.228-20.916-1.54-7.03 1.229-15.11 3.167-21.888.547-1.91.844-3.21.829-3.931-.247-11.813-14.362-12.391-12.66-2.682 2.476 6.625 2.311 12.8.409 16.351-1.729 3.225-4.642 3.973-7.519 2.058-11.621 6.724-17.753 6.618-29.18-2.571 8.814-2.673 13.595-6.315 16.972-12.787-3.215-4.049-3.141-8.097 2.278-11.531 7.777-6.04 1.328-9.802-4.852-6.566-5.157 8.099-12.396 11.11-15.299 5.828-6.135 1.399-8.379 3.809-10.296 12.262-6.803-4.944-8.346-22.963 5.956-31.15-.803-6.12 4.495-9.503 11.402-6.9 3.572-.476 10.135-4.5 5.37-7.834-3.096-1.144-10.922-2.616-11.818-6.65-.131-2.028.304-3.356 1.095-4.267-5.256-5.354-10.08-4.988-19.427-4.01 9.434-14.494 21.879-14.785 35.17-6.03.855-.498 1.983-.847 3.685-1.052 7.303-.782 6.868 7.933 6.219 12.532-.344 6.71 5.243 5.394 7.306 1.941.538-3.97-.376-6.457-1.023-10.202-1-5.781 5.02-8.716 8.587-5.5.85.756 1.597 1.634 2.303 2.546z"/>
<path d="m328.17 391.26c6.551 0 10.12-11.962 10.441-13.11.272-1.543 2.692-1.335 2.59.342-.278 4.538-2.377 8.545-5.359 12.492-1.827 2.479-3.988 4.919-6.278 7.311-8.161 8.903-17.802 18.907-18.941 35.02-.122 1.739-2.732 1.555-2.61-.184 1.075-15.192 8.758-24.551 17.822-34.606.788-2.59-8.928-11.994-10.212-13.335-3.784-3.948-7.804-8.841-12.452-11.816-1.556-.998-.116-3.232 1.474-2.164 5.806 3.901 13.426 11.288 17 14.854 1.158 1.152 4.887 5.197 6.524 5.197m29.391-305.01c1.568-2.01 4.04-6.514 12.436-11.345-8.287 1.094-14.359 7.864-15.192 9.344-2.147 3.811.582 4.793 2.756 2m-74.4 3.942c-5.75 0-11.353-6.179-16.814-1.151-1.241-3.94 5.459-5.603 5.603-10.776 2.875 2.299 4.168 7.903 11.21 11.927"/>
<use y="2.118" x="286.93" xlink:href="#a"/>
<use y="125.22" x="369.21" xlink:href="#a"/>
<use y="209.92" x="-95.46" xlink:href="#a"/>
<use y="416.59" x="-70.14" xlink:href="#a"/>
<use y="554.66" x="132.79" xlink:href="#a"/>
<use y="374.74" x="366.22" xlink:href="#a"/>
<use y="246.37" x="281.26" xlink:href="#a"/>
<g id="a">
<path d="m199.14 89.64h-27.17l-13.586 23.939-13.586-23.939h-27.17l13.586-23.939-13.586-23.939h27.17l13.586-23.939 13.586 23.939h27.17l-13.586 23.939z"/>
<path d="m122.07 87.03l12.1-21.33-12.1-21.33h24.21l12.11-21.33 12.1 21.33h24.21l-12.1 21.33 12.1 21.33h-24.21l-12.1 21.33-12.11-21.33z" fill="#fff"/>
</g>
<path d="m440.36 600.48c5.755.944 12.804 4.765 16.525 10.206 2.01-9.782.285-19.664-9.181-28.21-9.252 3.123-8.381 11.38-7.344 18.01m-75.53 23.873c-6.42 10.682-3.344 19.823 1.444 27.858.996-6.922 2.424-12.468 7.633-16.603-.31-.575-.594-1.199-.852-1.879-.974-4.636-5.409-8.451-8.225-9.377m-1.899-34.29c-6.662 3.65-10.565 8.696-11.987 17.02-.231 1.348-.399 2.707-.547 4.066 4.591-4.166 9.773-5.444 16.16-5.798-.755-2.472-.19-5.721.074-7.943-.431-1.805-2.606-4.871-3.698-7.346m35.16 28.793c-5.486 11.455-1.857 22.61 5.077 30.849-.023-8.06 2.949-14.01 6.927-18.12-.181-.428-.342-.901-.481-1.432-.616-2.336-.988-4.793-2.499-6.779-1.986-3.224-5.24-5.563-9.02-4.517m-209.35-20.44c4.577 6.266 4.981 10.07 2.883 17.884 8.433-5.136 13.936-10.937 12.649-24.14-1.956.372-4.218.389-6.82.198-5.02-.371-5.288 1.478-8.215 5.411l-.498.652m-52.602-5.057c-3.266 11.479-.008 23.997 7.584 28.18-.711-5.312-.079-11.828 5.305-15.761-1.08-1.506-1.912-3.52-2.405-6.149-3.639.012-7.474-3.046-10.484-6.273m-16.747-22.01c-9.827 10.04-8.25 18.805-3.802 28.04 1.54-6.608 5.34-10.506 10.199-11.712.332-3.601 1.672-9.708-.631-11.155-2.487-1.562-4.522-3.227-5.766-5.174m14.905-28.959c-15.03-3.405-24.776 4.725-29.46 14.484 7.118-3.856 13.07-3.734 20.735.646 2.439-.585 4.647-1.052 5.129-4.175.725-4.715 1.964-8.362 3.596-10.955m-28.98-153.4c2.645 3.618 3.77 7.871 1.132 14.33 9.666-3.549 12.438-10.853 11.17-18.704-.998.164-2.174.21-3.542.119l-.501-.138c-2.314-1.169-4.617-.832-5.78 1.047-.76 1.307-1.602 2.434-2.479 3.346m-37.484 9.713c3.195 10.6 10.9 18.645 20.604 21-4.203-6.545-5-13.599-4.58-22.23-.938.034-1.974-.07-3.111-.335l-.396-.164c-2.595-1.622-8.889-1.258-10.778 1.052l-.689.441c-.366.092-.716.168-1.05.23m-32.969-19.02c-8.73 7.162-9.29 23.895-4.235 31.91 1.783-8.27 5.32-14.27 11.948-17.825-.023-.911.035-1.919.19-3.034l.122-.397c.736-1.501-2.398-8.616-8.03-10.654m11.992-42.826c-17.206 1.251-21.269 6.791-24.303 16.183 5.666-3.17 12.03-4.356 18.635-2.59 2.212-1.612 4.411-3.889 4.988-6.424-.166-2.605.062-5.058.679-7.17m14.648-168.76c-2.61 4.612-6.663 9.08-13.382 11.724 6.62 4.782 11.799 5.193 21.641-.258-.206-.236-.409-.486-.611-.753l-.183-.33-2.435-6.494c-1.939-1.27-3.643-2.575-5.03-3.888m-23.34-30.6c-10.09 6.11-10.996 16.311-7.656 25.311.849-6.246 4.325-9.993 10.612-11.514.069-3.03 2.338-6.461-1.582-11.766-.483-.651-.991-1.312-1.374-2.031m63.13-30.53c.741-13.06-2.113-16.537-9.951-22.14.892 6.229.255 12.938-3.39 16.913 2.068 2.778 4.257 5.317 8.29 5.505 1.784.084 3.47-.31 5.05-.275m-44.06-5.903c-12.547-7.968-22.08-5.691-27.832 1.048 7.422-.421 11.945.996 16.321 5.674 2.944-1.124 7.113-1.088 9.573-4.119.812-.998 1.379-1.867 1.937-2.603" fill="#fbc707"/>
<g stroke="#000" stroke-width="2.6">
<path d="m359.66 68.721h-93.1c-1.13-19.19-8.27-34.936-20.86-47.16 9.206-5.05 16.72-.558 22.548 9.201 5.8275-6.174 15.774-2.245 17.272 6.021-13.528 5.08-9.213 18.213 3.187 18.213 14.26 0 15.395-14.845 3.764-18.03-.401-5.268 3.274-10.773 11.818-10.694.186-6.952 5.05-13.154 8.824-14.652 5.24 2.086 8.262 7.7 9.572 13.904 8.797-.247 12.753 7.512 12.94 11.63-14.06 3.93-9.763 17.641 3.401 17.644 11.251.003 16.864-13.901 3.177-17.83.188-8.824 10.882-12.753 16.336-7.888 6.923-11.07 15.373-10.694 22.885-6.175-17.337 16.898-21.498 34.379-21.763 45.816" fill="#fbc707"/>
<path d="m208.85 105.37c1.129 7.73 6.202 13.493 13.07 17.295 17.295 9.565 31.697-2.049 48.553-1.65 6.394.151 15.549 2.251 24.14 8.344-.07 2.209-.449 4.24-1.214 6.305-11.657-6.791-20.417-5.441-33.958-3.983-6.813.735-20.23 8.01-34.772 7.73-9.565-.183-18.781-4.453-22.06-14.882-2.534-8.06 1.082-15.512 6.236-19.16z" fill="#f0432a"/>
</g>
</svg>
    </symbol>

    <!-- Hessen shield artwork -->
    <symbol id="hessen-shield" viewBox="0 0 48 65">

      <!-- Base -->
      <use href="#shield-base"
           fill="#8B1E2D"
           stroke="#D8C27A"
           stroke-width="2"/>

      <!-- Cream stripes -->
      <g clip-path="url(#shieldClip)">
        <rect x="0" y="9"  width="48" height="7" fill="#F0E2B6"/>
        <rect x="0" y="23" width="48" height="7" fill="#F0E2B6"/>
        <rect x="0" y="37" width="48" height="7" fill="#F0E2B6"/>
        <rect x="0" y="51" width="48" height="7" fill="#F0E2B6"/>

        <!-- Simplified lion -->
        <path d="M22 10
                 C15 12 12 17 13 24
                 C9 26 8 32 12 35
                 C9 41 13 48 20 48
                 L20 56
                 L25 56
                 L25 47
                 C33 45 37 38 34 31
                 C39 29 39 22 34 19
                 C35 14 30 10 22 10 Z"
              fill="none"
              stroke="#F0E2B6"
              stroke-width="3"
              stroke-linecap="round"
              stroke-linejoin="round"/>

        <!-- Lion extensions -->
        <path d="M16 20 L8 14
                 M31 21 L40 15
                 M16 38 L8 46
                 M31 38 L40 45"
              fill="none"
              stroke="#F0E2B6"
              stroke-width="3"
              stroke-linecap="round"/>
      </g>

      <!-- Inner highlight -->
      <use href="#shield-base"
           fill="none"
           stroke="#F0E2B6"
           stroke-width="1"
           opacity="0.25"/>

    </symbol>

    <!-- Clip path -->
    <clipPath id="shieldClip">
      <path d="M0 0 H48 V29
               C48 48 37 60 24 65
               C11 60 0 48 0 29 Z"/>
    </clipPath>

  </defs>
  <!-- Card background -->
  <rect x="0" y="0" width="220" height="88" fill="#2B3134"/>
  <rect x="2" y="2" width="216" height="84" rx="0" fill="#2B3134" stroke="#8F7A4F" stroke-width="1"/>

  <!-- Shield shadow -->
  <use href="#shield-base"
       x="8"
       y="5"
       width="48"
       height="65"
       fill="#111315"
       transform="scale(1.2)"/>
  
  <!-- Text -->
  <text x="75" y="30"
        font-family="'D-DIN', 'DIN 1451', sans-serif"
        font-size="16"
        font-weight="700"
        letter-spacing="1"
        fill="#F0E2B6">
    THÜRINGEN
  </text>
  <text x="75" y="50"
        font-family="'D-DIN', 'DIN 1451', sans-serif"
        font-size="16"
        font-weight="700"
        letter-spacing="1"
        fill="#F0E2B6">
    
  </text>

  <text x="75" y="70"
        font-family="'D-DIN', 'DIN 1451', sans-serif"
        font-size="13"
        font-weight="400"
        letter-spacing="0.5"
        fill="#CBB98A">
    ERFURT
  </text>
</svg>