<svg xmlns="http://www.w3.org/2000/svg" viewbox="-35 0 1050 700" width="1050" height="700">
  <path d="M1050 0H-125v700H1050z" fill="#e41e20"/>
  <path d="M515.978 525.365c-6.026-5.226-13.332-15.808-13.23-26.008.54-7.606 5.757-12.024 9.127-2.74 4.764 10.248 14.984 27.194 29.066 17.253 6.152-4.516 6.057-11.164-2.379-10.402-10.418-.713-16.816-6.446-21.478-21.203-.848-8.117 2.529-7.914 7.239-2.692 6.057 6.95 18.108 17.45 31.404 11.822 7.39-3.097 9.475-9.487-1.688-11.06-10.569.154-19.196-6.697-27.781-17.148-4.71-5.782 2.235-11.619 6.405-6.697 3.719 3.194 8.928 9.08 13.391 9.892 5.162 1.013 11.56.51 18.649-3.244 7.642-6.397 5.161-11.01-4.115-12.073-7.192.356-11.109 3.09-20.385-3.097-16.673-11.27-29.928-26.327-32-44.44-1.36-11.913 5.046-15.52 10.37-14.15 14.486 3.726 23.96 30.794 33.982 45.664 3.282 4.285 6.296 4.355 8.43 3.034 4.019-3.447 7.229-6.28 11.248-10.132 0 0 29.484 5.296 45.54 10.53l-17.878 6.353c-6.768-3.738-14.938.292-14.938 6.777-6.406 4.43-5.89 9.622-3.126 14.634.843-3.49 1.562-8.022 6.622-8.625 7.221 2.987 15.636-1.276 15.636-6.916l21.088-8.288 21.305 12.061c0 8.154 7.726 10.737 15.763 8.535 3.789 2.353 6.225 6.434 7.506 10.798 2.373-6.294 1.877-10.738-1.837-13.825 2.132-8.137-9.271-15.962-18.097-10.75l-15.328-8.802 26.236-.735c3.043 5.39 14.05 5.687 17.26 0 2.743-.751 5.062-1.23 10.412 2.747-1.685-6.434-4.966-9.185-9.887-9.185-3.74-6.626-17.274-6.595-19.229.864l-27.323.76 16.212-11.543c6.052 3.574 14.543-.398 16.244-6.89 2.413-2.867 5.387-4.215 11.244-2.268-3.018-5.347-7.27-6.942-14.952-3.314-7.009-5.308-16.243 1.131-14.842 6.477l-21.569 14.675c-15.657-4.67-44.013-11.946-44.013-11.946 3.377-3.552 6.802-6.851 10.172-10.452 1.217-2.108-.643-4.565-3.227-5.075-25.3-5.222-39.785-15.422-48.562-41.343-3.671-10.857 4.265-14.1 6.993-7.46 3.773 9.235 7.936 19.33 19.298 27.146 3.917 2.74 15.579.503 8.681-6.04-7.143-5.887-10.22-8.417-13.74-22.727 0-7.25 7.39-10.5 11.512-3.552 4.41 14.254 4.86 20.392 12.845 29.578 6.05 6.95 13.938 11.619 17.855 11.514 7.048-.098 14.144-7.71 4.717-13.24-13.843-5.53-18.901-13.087-20.939-20.295-2.228-12.576.205-18.665 7.793-12.478 10.76 12.227 31.302 35.003 42.062 45.608 12.058 9.235 25.894 9.535 36.907.153 6.303-7.256 4.068-15.065-5.804-13.394-22.271 1.88-39.135-9.179-57.64-39.064-3.623-6.747-4.614-16.436 3.377-9.228 9.221 12.478 22.668 23.083 35.17 27.648 12.551 4.51 22.913 2.018 26.934-1.93 4.843-4.842 3.569-17.043-4.812-14.1-6.898 2.433-16.618 3.041-26.736-.867-10.124-3.956-20.637-12.478-31.8-26.935-3.822-8.165-2.578-15.065 5.16-10.857 18.307 15.527 41.919 28.103 53.97 20.546 8.88-5.53 9.03-19.735-2.228-18.819-22.675 3.09-31.254-1.93-53.033-21.154-4.956-3.705-4.615-13.094 3.274-7.103 18.307 11.822 43.306 16.436 53.13 10.249 8.831-5.53 7.54-22.427-7.343-16.443-11.908 7.257-25.053 7.054-51.392-11.765-6.645-5.53-1.689-12.737 3.766-9.64 21.185 12.073 52.042 17.246 60.075-7.306 3.124-9.381-2.53-14.862-10.815-8.368-18.204 16.841-38.842 8.571-50.394.098-3.31-1.95-9.38-11.821 1.285-9.99 27.583 6.292 54.865.811 59.828-18.72 2.878-6.342-2.782-17.555-12.852-8.166-13.241 13.087-27.282 13.541-44.94 13.443-8.982-1.88-9.077-11.772-1.537-13.24 13.938.3 27.678-5.789 38.691-11.976 10.767-6.187 19.694-14.862 22.525-26.886 1.736-10.752-8.634-22.168-14.882-10.752-9.229 16.687-29.668 32.416-52.39 35.254-1.184-1.978-4.164-7.053-7.835-5.627-6.672 2.586-14.622 6.049-22.807 9.936-17.644 8.378-24.997 12.416-22.877 26.891 2.211 15.105-9.434 24.65-19.052 22.014-8.388-2.258-13.016-9.836-11.512-22.978 1.203-10.473 11.717-23.14 23.564-29.781 7.67-4.292 19.25-6.641 33.188-9.738 8.483-1.671 12.804-4.97 13.296-8.424 0 0-5.797 4.243-15.08 3.607-4.389-.315-7.328-2.244-8.436-4.215 3.227-.658 9.078.104 14.335.104 6.993-.056 23.229-1.621 27.535-11.464 1.34-6.495-2.925-7.662-6.897-3.503-4.266 4.495-6.023 8.536-14.581 10.046-5.21.916-10.418 1.978-17.117.356 3.773-4.48 9.768-9.067 14.882-8.22 1.681.279 3.916 1.83 5.708 4.62 1.093-7.102-.848-15.12-19.845-11.772.3-5.376-11.013-7.711-17.808-7.606-3.869.098-11.758 2.384-17.459 5.117-9.03 2.796-17.958 4.824-28.478 5.586 6.104 5.222 7.246 5.53 13.343 9.94-9.221 3.447-16.365 10.55-19.591 15.22 0 0 10.766-.301 13.494.915-11.266 3.293-16.324 5.271-22.279 11.36 2.085.357 5.21.965 6.55 1.475 1.394.504 1.031 1.42-.096 2.28-2.427 1.852-12.455 13.499-15.381 16.288-2.926-2.79-12.954-14.436-15.38-16.289-1.128-.86-1.49-1.775-.096-2.279 1.34-.51 4.464-1.118 6.549-1.475-5.955-6.089-11.013-8.067-22.279-11.36 2.728-1.216 13.494-.916 13.494-.916-3.226-4.67-10.37-11.772-19.591-15.218 6.097-4.412 7.239-4.72 13.343-9.941-10.52-.762-19.448-2.79-28.478-5.586-5.701-2.733-13.59-5.02-17.46-5.117-6.794-.105-18.108 2.23-17.807 7.606-18.997-3.349-20.938 4.67-19.845 11.772 1.791-2.79 4.027-4.341 5.708-4.62 5.114-.847 11.109 3.74 14.882 8.22-6.699 1.622-11.908.56-17.117-.356-8.558-1.51-10.315-5.55-14.58-10.046-3.973-4.16-8.238-2.992-6.898 3.503 4.306 9.843 20.542 11.408 27.535 11.464 5.257 0 11.108-.762 14.335-.104-1.108 1.971-4.047 3.9-8.436 4.215-9.283.636-15.08-3.607-15.08-3.607.492 3.453 4.813 6.753 13.296 8.424 13.938 3.097 25.519 5.446 33.188 9.738 11.847 6.641 22.36 19.308 23.564 29.78 1.504 13.143-3.124 20.721-11.512 22.98-9.618 2.635-21.263-6.91-19.052-22.015 2.12-14.475-5.233-18.513-22.877-26.891-8.185-3.887-16.135-7.35-22.807-9.936-3.671-1.426-6.651 3.65-7.834 5.627-22.723-2.838-43.162-18.567-52.39-35.254-6.249-11.416-16.619 0-14.883 10.752 2.83 12.024 11.758 20.7 22.525 26.886 11.013 6.187 24.753 12.276 38.691 11.976 7.54 1.468 7.445 11.36-1.538 13.24-17.657.098-31.698-.356-44.94-13.443-10.069-9.389-15.729 1.824-12.85 8.165 4.962 19.532 32.244 25.013 59.827 18.721 10.664-1.831 4.594 8.04 1.285 9.99-11.552 8.473-32.19 16.743-50.394-.098-8.285-6.494-13.939-1.013-10.815 8.368 8.033 24.552 38.89 19.379 60.075 7.306 5.455-3.097 10.41 4.11 3.766 9.64-26.339 18.82-39.484 19.022-51.392 11.765-14.882-5.984-16.174 10.913-7.342 16.443 9.823 6.187 34.822 1.573 53.129-10.249 7.888-5.99 8.23 3.398 3.274 7.103-21.78 19.225-30.358 24.244-53.033 21.154-11.259-.916-11.108 13.29-2.228 18.82 12.051 7.556 35.663-5.02 53.97-20.547 7.738-4.208 8.982 2.692 5.16 10.857-11.163 14.457-21.676 22.979-31.8 26.935-10.118 3.908-19.838 3.3-26.736.867-8.38-2.943-9.655 9.258-4.812 14.1 4.02 3.948 14.383 6.44 26.933 1.93 12.503-4.565 25.95-15.17 35.171-27.648 7.991-7.208 7 2.481 3.377 9.228-18.505 29.885-35.369 40.945-57.64 39.064-9.872-1.67-12.107 6.138-5.804 13.394 11.013 9.382 24.848 9.082 36.907-.153 10.76-10.605 31.302-33.381 42.062-45.608 7.587-6.187 10.021-.098 7.793 12.478-2.038 7.208-7.096 14.765-20.939 20.295-9.427 5.53-2.33 13.142 4.717 13.24 3.917.105 11.806-4.565 17.855-11.514 7.985-9.186 8.436-15.324 12.845-29.578 4.122-6.949 11.512-3.698 11.512 3.552-3.52 14.31-6.597 16.84-13.74 22.727-6.898 6.543 4.764 8.78 8.681 6.04 11.362-7.816 15.525-17.91 19.298-27.146 2.728-6.64 10.664-3.397 6.993 7.46-8.777 25.921-23.262 36.121-48.562 41.343-2.584.51-4.444 2.967-3.227 5.075 3.37 3.6 6.795 6.9 10.172 10.452 0 0-28.356 7.275-44.013 11.946l-21.569-14.675c1.4-5.346-7.833-11.785-14.842-6.477-7.681-3.628-11.934-2.033-14.952 3.314 5.857-1.947 8.831-.6 11.244 2.268 1.7 6.492 10.192 10.464 16.244 6.89l16.212 11.543-27.323-.76c-1.955-7.459-15.488-7.49-19.229-.864-4.92 0-8.202 2.75-9.887 9.185 5.35-3.977 7.669-3.498 10.412-2.747 3.21 5.687 14.217 5.39 17.26 0l26.236.735-15.328 8.801c-8.826-5.211-20.229 2.614-18.097 10.751-3.714 3.087-4.21 7.531-1.837 13.825 1.281-4.364 3.717-8.445 7.506-10.798 8.037 2.202 15.763-.38 15.763-8.535l21.305-12.061 21.088 8.288c0 5.64 8.415 9.903 15.636 6.916 5.06.603 5.78 5.135 6.622 8.625 2.764-5.012 3.28-10.204-3.126-14.634 0-6.485-8.17-10.515-14.938-6.777l-17.877-6.354c16.055-5.233 45.539-10.53 45.539-10.53 4.02 3.853 7.23 6.686 11.249 10.133 2.133 1.321 5.147 1.251 8.429-3.034 10.021-14.87 19.496-41.938 33.981-45.664 5.325-1.37 11.73 2.237 10.37 14.15-2.071 18.113-15.326 33.17-31.999 44.44-9.276 6.187-13.193 3.453-20.385 3.097-9.276 1.062-11.757 5.676-4.115 12.073 7.089 3.754 13.487 4.257 18.649 3.244 4.463-.811 9.672-6.698 13.391-9.892 4.17-4.922 11.115.915 6.405 6.697-8.585 10.451-17.212 17.302-27.78 17.148-11.164 1.573-9.079 7.963-1.69 11.06 13.297 5.627 25.348-4.873 31.405-11.822 4.71-5.222 8.087-5.425 7.24 2.692-4.663 14.757-11.061 20.49-21.48 21.203-8.435-.762-8.53 5.886-2.378 10.402 14.082 9.94 24.302-7.005 29.066-17.253 3.37-9.284 8.586-4.866 9.126 2.74.103 10.2-7.203 20.782-13.23 26.008-6.024 5.224 25.979 38.451 25.979 38.451s32.004-33.226 25.978-38.451zm42.889-376.263c-4.982 0-8.06 1.747-8.06 3.864 0 2.148 3.078 3.9 8.06 3.9 4.951 0 8.096-1.909 8.096-4.064 0-2.117-3.145-3.7-8.096-3.7zm-137.734 0c4.982 0 8.06 1.747 8.06 3.864 0 2.148-3.078 3.9-8.06 3.9-4.951 0-8.096-1.909-8.096-4.064 0-2.117 3.145-3.7 8.096-3.7z" fill-rule="evenodd"/>
</svg>
