<?xml version="1.0" encoding="UTF-8" standalone="no"?>
<svg xmlns="http://www.w3.org/2000/svg" version="1.1" width="1000" height="600" viewBox="0 0 970.874 582.524"><path fill="#fff" d="M0 0h970.874v582.524H0z"/><path d="M415.2 180.184c0 7.456.932 8.388 1.398 9.786.466 1.398 1.049 27.028-2.796 34.02-3.845 6.99-11.418 10.95-14.447 11.65-3.029.699-12.582-6.058-21.438-8.855-8.854-2.796-8.388-2.33-12.115-2.33-3.727 0-12.117 3.145-14.447 5.127-1.514-.233-1.864-.932-2.796 0-.93.932-4.66 4.66-5.592 6.99-.932 2.33-3.261 11.185-6.058 12.116-2.796.932-10.37 8.504-15.379 8.856-5.009.35-3.612-.233-6.99-.466s-3.728-3.728-6.99-5.593c-3.262-1.864-4.195-3.262-4.195-3.262s-.932-3.728-2.33-3.728c-1.397 0-2.795 6.525-2.795 8.39 0 1.864 3.727 8.854 5.592 10.251 1.864 1.398 1.864 9.787.932 12.116-.932 2.33 1.864 4.662 2.33 6.99.465 2.33-2.796 4.194-1.398 4.66 1.397.466 3.263 3.262 3.263 6.06 0 2.795 6.99 3.727 8.388 6.523 1.398 2.797 1.864 7.457 2.33 10.254.466 2.796 2.097 1.514 2.33 8.388 2.213 1.049 5.591 3.261 8.387 4.66 2.797 1.398 2.332 4.66 6.059 6.059 3.728 1.397 3.728 0 5.592.465 1.864.466-.932.933 2.33 1.864 3.263.932 4.66-.465 7.457.932 2.796 1.398 4.194 4.661 6.059 5.593 1.864.932 9.786 3.261 10.252 3.728.466.465 5.592 2.33 6.524 2.33.932 0 3.728-1.865 3.728-1.865s3.263.932 6.059 0c2.796-.93 4.66-3.728 6.524-3.728 1.864 0 2.33.932 4.194.932 1.864 0 4.66-.932 4.66-.932s4.194-.932 7.456.932c3.262 1.865 10.718 10.72 10.718 14.448 0 3.727-.465 5.592-.465 5.592s3.727-.467 5.125.465c1.398.933 1.282-.815 11.65.933-.698-2.564-10.718-9.786-1.397-20.04 9.32-10.253 9.903-6.058 12.116-7.921 2.214-1.865 10.719-7.342 25.165-2.331 13.98-2.33 3.728-4.193 11.65-4.66 1.399-.583 4.08.116 6.992.933.932-1.749 2.913-3.38 6.058-2.798.583-1.63 4.426-3.844 8.388-4.193.583-3.146 10.603-7.106 16.311-7.457 2.33-2.097 5.01-11.417 17.709-6.99.465-3.028 2.563-7.923 6.058-8.855.7-6.29-1.633-18.99 4.66-23.3 6.29-5.71 12.233-4.429 22.835-4.194 7.224 1.515 10.719 6.99 13.048 7.456 2.33.466 3.262.466 6.058-1.397 2.796-1.865-.465-5.593 1.864-5.593 2.33 0 1.397.466 5.127 0 3.728-.465 3.262-1.747 5.592-2.329 3.729 1.865 7.922.465 9.786 1.864 1.865 1.397 2.097 1.28 6.058 1.864 1.398 2.33 5.126 2.33 5.126 2.33s-2.795-.933-1.863-2.33c.932-1.398 0-5.593-1.865-7.457-1.864-1.864-2.796-2.33-4.194-4.193-1.397-1.864.465-1.865-1.865-4.194-2.329-2.33-7.455-4.66-8.853-7.457-1.397-2.796-.932-4.66-3.262-6.99s-11.65-10.252-12.116-18.64c-.465-8.39.465-16.427 6.057-19.108-.233-4.893.933-5.592 6.059-8.388 5.125-2.796 5.594-.932 8.854-.932 3.261 0 5.127.466 8.388-1.863 3.263-2.33.466-7.456 8.855-14.913 8.39-7.456 11.65-11.184 14.447-11.65 2.797-.466 12.931-7.573 17.243-6.99 3.03-3.611 6.058-7.923 9.787-10.719 3.728-2.796 7.923-2.796 9.786-5.126 1.864-2.33 1.397-6.525 6.99-10.254 5.592-3.727 10.254-6.057 12.583-7.922 2.329-1.864 7.456-.466 9.32-2.33 1.864-1.864 1.864-8.854 3.727-10.252 1.865-1.398-6.057 3.262-10.251 5.126-4.194 1.864-10.253 5.126-15.379 4.66-5.126-.466-2.33 2.795-5.126 3.728-2.796.932-7.456.466-9.321 2.33-1.864 1.864-5.126 6.525-7.922 8.389-2.797 1.863-4.194 1.398-6.99 2.796-2.797 1.398-5.126 2.796-7.456 3.728-2.33.932-9.322.466-9.322.466s-6.058 7.922-8.854 10.718c-2.796 2.796-6.058 2.33-8.854 3.728-2.797 1.398-26.564 16.777-42.873 19.107-16.312 2.33-8.856-1.398-13.98 0-5.126 1.398-12.584 11.184-18.642 11.65-6.058.467-7.922 0-9.32 0-1.398 0-8.854 4.66-13.515 3.729-6.873 2.097-11.999 1.631-13.98 1.397-1.98-.232-5.592 2.33-10.719 0-3.96-1.28-3.96 1.515-11.65-.931-7.69-2.447-13.049.932-16.777-.932-3.728-1.864-3.262-3.262-6.058-3.262s-2.796 1.864-6.058 1.864-3.728-1.864-6.525-1.864c-2.796 0-6.058 1.864-10.252 1.398-4.194-.466-5.592-2.33-8.388-2.33-2.797-.003-18.176-6.527-18.176-6.527z" fill="#ed8000"/><g fill="#006651"><path d="M462.879 464.855c8.09-5.825 15.21-7.767 26.213-9.708 11.004-1.942 22.655-5.177 28.802-6.796 6.148-1.62-20.71 7.767-27.507 9.708-6.796 1.942-27.508 6.796-27.508 6.796zM507.216 447.702c-2.265-13.915 3.234-28.478 15.856-34.303 2.912 10.031-6.148 27.185-15.856 34.303zM528.527 440.46c-6.748-11.527 4.674-26.396 13.04-33.686 3.837 6.947-2.96 27.66-13.04 33.686zM548.316 431.521c-7.215-9.885 1.294-27.184 10.356-33.98 3.56 9.709 0 27.184-10.356 33.98zM568.11 419.16c-6.527-9.323-1.994-23.886 7.39-33.27 6.797 7.767.972 24.596-7.39 33.27zM583.915 406.603c-5.501-8.738 1.295-29.775 10.033-35.6 3.883 7.767.97 29.775-10.033 35.6zM596.536 403.366c-1.618-12.621 20.39-26.538 29.45-26.214-.97 10.356-10.357 21.684-29.45 26.214zM584.239 417.605c10.355-10.68 30.42-10.68 37.54-8.414-1.942 6.15-25.565 19.74-37.54 8.414z"/><path d="M569.998 428.285c14.563-3.884 23.95-7.12 32.687 1.941-6.15 7.767-29.774 5.501-32.687-1.941zM549.287 437.67c13.915-7.444 30.744 3.56 33.332 10.032-15.534 6.474-33.654-8.412-33.332-10.031zM530.192 448.35c12.622-4.854 27.185 1.62 33.01 8.738-6.796 3.235-24.596 6.797-33.01-8.737zM512.718 453.852c14.564-1.618 28.537 9.403 31.582 15.704-18.638 1.771-25.756-3.73-31.582-15.704zM508.027 464.855c-8.091-5.825-15.21-7.767-26.213-9.708-11.004-1.942-22.655-5.177-28.803-6.796-6.149-1.62 20.711 7.767 27.507 9.708 6.797 1.942 27.51 6.796 27.51 6.796zM463.69 447.702c2.264-13.915-3.236-28.478-15.858-34.303-2.913 10.031 6.149 27.185 15.857 34.303zM442.378 440.46c6.748-11.527-4.674-26.396-13.041-33.686-3.836 6.947 2.96 27.66 13.04 33.686zM422.588 431.521c7.216-9.885-1.293-27.184-10.355-33.98-3.56 9.709 0 27.184 10.355 33.98zM402.793 419.16c6.527-9.323 1.995-23.886-7.39-33.27-6.795 7.767-.97 24.596 7.39 33.27zM386.99 406.603c5.501-8.738-1.295-29.775-10.033-35.6-3.883 7.767-.97 29.775 10.033 35.6zM374.369 403.366c1.617-12.621-20.39-26.538-29.45-26.214.97 10.356 10.357 21.684 29.45 26.214zM386.666 417.605c-10.355-10.68-30.42-10.68-37.54-8.414 1.942 6.15 25.565 19.74 37.54 8.414z"/><path d="M400.907 428.285c-14.563-3.884-23.95-7.12-32.688 1.941 6.15 7.767 29.775 5.501 32.688-1.941zM421.617 437.67c-13.914-7.444-30.743 3.56-33.332 10.032 15.534 6.474 33.655-8.412 33.332-10.031zM440.713 448.35c-12.622-4.854-27.185 1.62-33.01 8.738 6.796 3.235 24.596 6.797 33.01-8.737zM458.187 453.852c-14.563-1.618-28.537 9.403-31.582 15.704 18.638 1.771 25.757-3.73 31.582-15.704z"/></g></svg>