<svg xmlns="http://www.w3.org/2000/svg" viewBox="0 0 600 700" width="600" height="700">

  <defs>
    <!-- Antique brass border -->
    <linearGradient id="antique-brass" x1="0%" y1="0%" x2="100%" y2="100%">
      <stop offset="0%" stop-color="#e0c477"></stop>
      <stop offset="28%" stop-color="#9d7937"></stop>
      <stop offset="55%" stop-color="#d1ad5f"></stop>
      <stop offset="78%" stop-color="#755526"></stop>
      <stop offset="100%" stop-color="#c9a85d"></stop>
    </linearGradient>

    <!-- Dark inner edge -->
    <linearGradient id="dark-edge" x1="0%" y1="0%" x2="0%" y2="100%">
      <stop offset="0%" stop-color="#40392f"></stop>
      <stop offset="100%" stop-color="#171916"></stop>
    </linearGradient>

    <!-- Main shield shape for clipping flags or artwork -->
    <clipPath id="shield-clip">
      <path d="
        M 118 112
        Q 118 90 140 90
        L 460 90
        Q 482 90 482 112
        L 482 350
        C 482 470 410 566 300 630
        C 190 566 118 470 118 350
        Z"></path>
    </clipPath>
  </defs>

  <!-- Complete shield group -->
  <g id="shield" filter="url(#shield-shadow)">

    <!-- Exterior brass frame -->
    <path id="shield-outer" d="
            M 104 100
            Q 104 74 132 74
            L 468 74
            Q 496 74 496 100
            L 496 354
            C 496 488 416 590 300 660
            C 184 590 104 488 104 354
            Z" fill="url(#antique-brass)" stroke="#3b2b16" stroke-width="0" stroke-linejoin="round"></path>

    <!-- Dark recessed border -->
    <path id="shield-recess" d="
            M 116 116
            Q 116 88 140 88
            L 460 88
            Q 484 88 484 110
            L 484 350
            C 484 474 409 568 300 631
            C 191 568 116 474 116 350
            Z" fill="#00000000" stroke="#dfc373" stroke-width="3" stroke-linejoin="round"></path>

    <!-- FLAG ARTWORK -->
  <g id="flag-art"
     clip-path="url(#shield-clip)"
     filter="url(#paper-grain)">

    <!-- 
    ACTIVE EXAMPLE: horizontal tricolor -->
    <rect x="118" y="90" width="365" height="180" fill="#000000"/>
    <rect x="118" y="270" width="365" height="180" fill="#DD0000"/>
    <rect x="118" y="450" width="365" height="180" fill="#FFCE00"/>

  </g>
    
    <!-- Small corner ornaments -->
    <g fill="#d6b863" stroke="#4b351a" stroke-width="0">
      <circle cx="145" cy="122" r="5"></circle>
      <circle cx="455" cy="122" r="5"></circle>
    </g>

  </g>
</svg>