<?xml version="1.0" encoding="UTF-8" standalone="no"?><svg xmlns:dc="http://purl.org/dc/elements/1.1/" xmlns:cc="http://creativecommons.org/ns#" xmlns:rdf="http://www.w3.org/1999/02/22-rdf-syntax-ns#" xmlns:svg="http://www.w3.org/2000/svg" xmlns="http://www.w3.org/2000/svg" version="1.1" width="900" height="600" viewBox="0 0 3600 2400" id="svg3033"><metadata id="metadata3079"><rdf:RDF><cc:Work rdf:about=""><dc:format>image/svg+xml</dc:format><dc:type rdf:resource="http://purl.org/dc/dcmitype/StillImage"/><dc:title/></cc:Work></rdf:RDF></metadata><defs id="defs3035"><style type="text/css" id="style3037"/></defs><rect width="3600" height="2400" x="0" y="0" id="rect3039" style="fill:#ce1126"/><rect width="3600" height="1200" x="0" y="0" id="rect3041" style="fill:#002b7f"/><polygon points="790.975,380.635 789.299,381.093 787.774,381.703 786.098,382.313 784.575,383.075 783.05,383.837 781.679,384.75 780.154,385.664 778.935,386.732 777.564,387.8 776.343,388.866 775.125,390.085 773.904,391.305 772.838,392.676 771.77,394.049 770.857,395.42 769.943,396.944 769.028,398.467 768.266,399.992 767.655,401.669 767.047,403.345 766.438,405.021 765.979,406.699 765.522,408.374 765.217,410.204 765.066,412.031 764.914,413.861 764.914,415.69 764.914,417.672 765.066,419.499 765.217,421.178 765.522,423.005 765.979,424.834 766.438,426.51 767.047,428.187 767.655,429.863 768.266,431.387 769.028,433.065 769.943,434.584 770.857,435.956 771.77,437.479 772.838,438.852 773.904,440.071 775.125,441.289 776.343,442.508 777.564,443.728 778.935,444.795 780.154,445.863 781.679,446.776 783.05,447.537 784.575,448.454 786.098,449.216 787.774,449.825 789.299,450.435 790.975,450.891 792.651,451.197 794.328,451.654 796.156,451.807 797.834,451.958 799.663,451.958 801.491,451.958 803.169,451.807 804.996,451.654 806.674,451.197 808.349,450.891 810.025,450.435 811.551,449.825 813.227,449.216 814.751,448.454 816.274,447.537 817.645,446.776 819.018,445.863 820.389,444.795 821.762,443.728 822.98,442.508 824.201,441.289 825.421,440.071 826.486,438.852 827.554,437.479 828.468,435.956 829.382,434.584 830.297,433.065 831.059,431.387 831.669,429.863 832.277,428.187 832.886,426.51 833.345,424.834 833.803,423.005 834.106,421.178 834.259,419.499 834.411,417.672 834.411,415.69 834.411,413.861 834.259,412.031 834.106,410.204 833.803,408.374 833.345,406.699 832.886,405.021 832.277,403.345 831.669,401.669 831.059,399.992 830.297,398.467 829.382,396.944 828.468,395.42 827.554,394.049 826.486,392.676 825.421,391.305 824.201,390.085 822.98,388.866 821.762,387.8 820.389,386.732 819.018,385.664 817.645,384.75 816.274,383.837 814.751,383.075 813.227,382.313 811.551,381.703 810.025,381.093 808.349,380.635 806.674,380.179 804.996,379.873 803.169,379.722 801.491,379.57 799.663,379.417 800,379.417 797.834,379.57 796.156,379.722 794.328,379.873 792.651,380.179 " transform="translate(-200,0)" id="polygon3043" style="fill:#ffd83d"/><polygon points="418.664,722.316 418.664,722.316 769.028,739.382 757.754,477.716 554.908,419.348 430.703,478.63 " transform="translate(-200,0)" id="polygon3045" style="fill:#ffd83d"/><polygon points="1180.66,722.316 1180.66,722.316 830.297,739.382 841.57,477.716 1044.42,419.348 1168.62,478.63 " transform="translate(-200,0)" id="polygon3047" style="fill:#ffd83d"/><path d="m 637.258,457.102 -12.4476,131.863 -52.2768,0.91417 -14.152,-132.65 c 32.1035,4.66299 53.5606,4.49291 78.8764,-0.12756 z" id="path3049" style="fill:#ffd83d;stroke:#000000;stroke-width:4"/><circle cx="800" cy="416" r="38" transform="translate(-200,0)" id="circle3051" style="fill:#ffd83d;stroke:#000000;stroke-width:4"/><path d="m 561.62,411.651 31.6299,0 3.06024,-77.0374 -42.365,11.8878 0,-29.5665 41.9374,13.076 -8.87008,-46.1492 25.3004,0 -9.5563,46.2106 42.6236,-13.1374 0,29.5665 -42.365,-11.8878 3.0378,77.0374 31.6547,0 c 0.55394,3.15354 0.68504,7.26732 -0.37559,10.7409 l -75.3083,0.1689 c -0.97205,-3.8811 -1.07953,-7.30984 -0.40394,-10.9098 z" id="path3053" style="fill:#ffd83d;stroke:#000000;stroke-width:2"/><path d="m 285.262,456.378 c -59.4095,36.9307 -62.1602,100.423 -43.7362,161.849 l -20.8807,14.478 c -31.5862,-63.1748 -29.3894,-135.247 23.4721,-185.319 83.5299,-69.6189 216.121,-28.8898 302.195,23.5843 l 5.62205,35.4567 c -72.4122,-45.926 -181.858,-101.385 -266.672,-50.0492 z" id="path3055" style="fill:#ffd83d;stroke:#000000;stroke-width:4"/><path d="m 576.954,593.688 c -2.05394,-48.1453 -7.94173,-96.8516 -15.9992,-144.321 -1.53425,-7.66417 -5.77677,-17.8323 -15.3921,-16.4598 -9.8811,3.70748 -8.57835,15.5091 -6.70748,23.9291 11.9728,46.8732 15.8173,97.4823 21.0319,145.388 l 17.0669,-8.53583 z" id="path3057" style="fill:#ffd83d;stroke:#000000;stroke-width:4"/><path d="m 647.647,503.901 c 48.6189,-24.1795 90.8339,-51.4571 144.953,-64.4398 63.9319,-12.5327 128.375,1.42913 163.371,60.6579 18.3284,37.7339 13.4551,79.3465 1.8295,118.108 l 20.8784,14.478 c 21.5197,-43.0394 29.3398,-91.5992 11.2783,-137.31 -36.0614,-79.7197 -118.214,-95.2122 -197.05197,-81.2291 -53.3906,11.3787 -97.4587,32.9787 -144.782,59.2016 l -0.47717,30.5339 z" id="path3059" style="fill:#ffd83d;stroke:#000000;stroke-width:4"/><path d="m 617.518,594.323 20.8512,-144.956 c 1.52953,-7.64291 5.17795,-16.6122 14.3268,-16.6122 9.80315,1.39724 9.75945,13.9748 8.38229,21.3378 l -21.6413,148.132 -21.9189,-7.90158 z" id="path3061" style="fill:#ffd83d;stroke:#000000;stroke-width:4"/><path d="m 228.265,873.65 -1.37126,-3.35315 c 6.22087,-28.7646 -0.24331,-57.6295 -7.16339,-85.6488 -8.4815,-33.1606 -17.6445,-65.2772 -18.4417,-99.6697 0.59173,-25.4906 10.4055,-64.689 37.7965,-74.2193 40.9465,-8.5252 68.7083,59.8323 81.078,87.4784 12.0272,-45.7158 32.2547,-107.36 86.7166,-109.12 55.637,-1.79764 80.8795,59.8512 91.2827,106.985 10.1232,-44.3374 49.7847,-113.989 102.72,-113.284 52.9039,0.69449 90.3827,69.9461 100.278,113.284 10.4268,-47.2311 35.8854,-108.784 91.2862,-106.985 54.41465,1.76575 74.69645,63.4347 86.71545,109.12 11.4579,-25.6205 38.8559,-89.8429 77.4176,-88.2402 37.6855,7.84961 43.1386,64.6902 40.3878,94.9453 -3.7051,27.1465 -10.5886,53.1744 -17.3752,79.7055 -6.9354,28.0795 -13.3902,56.8217 -7.1622,85.6488 l -1.3724,3.35315 c -99.2563,57.3662 -651.103,55.9394 -742.793,0 z" id="path3063" style="fill:#ffd83d;stroke:#000000;stroke-width:4"/><path d="m 970.45,851.244 0.1524,7.46929 c -249.95604,-14.7035 -478.44104,-46.9099 -723.97304,24.7323 l -19.3807,-12.2835 2.04449,-30.9886 c 237.898,-50.5264 503.072,-23.6398 741.15705,11.0705 z" id="path3065"/><path d="m 596.766,659.987 0,89.3445 -16.4587,-86.6055 c -0.94016,-14.9091 -9.35197,-6.82677 -5.63976,1.82835 l 15.9685,84.3059 -30.1382,-77.4484 c -2.73189,-13.6902 -9.86457,-4.52126 -5.1815,3.50551 l 30.1276,77.4957 -42.6248,-66.6732 c -4.29685,-10.0335 -12.8976,-3.44764 -4.42087,5.02913 l 50.7473,79.3996 10.5177,10.6677 10.5154,-10.6677 50.7484,-79.3996 c 6.36614,-6.36732 0.47126,-16.4598 -4.42087,-5.02913 l -42.6248,66.6732 30.1264,-77.4957 c 5.58071,-9.56457 -2.64803,-16.2012 -5.18032,-3.50551 l -30.1382,77.4484 15.9673,-84.3059 c 4.17992,-9.74528 -4.74213,-16.0831 -5.63858,-1.82835 l -16.4598,86.6055 0,-89.3445 c 2.1874,-10.9713 -7.62638,-13.8035 -5.79213,0 z" id="path3067"/><path d="m 395.145,669.127 14.9965,88.2886 -30.6957,-82.6488 c -3.30591,-13.2319 -11.3764,-6.94252 -5.33504,2.89488 l 29.9114,80.1484 -42.561,-70.852 c -5.21929,-13.0547 -11.198,-2.35748 -4.57087,4.2685 l 42.4536,70.7516 -52.9701,-57.7973 c -8.32795,-11.0988 -10.7244,0.65551 -3.65906,5.79095 l 63.4028,69.0378 12.0366,8.53465 8.53465,-12.3461 36.8823,-87.4784 c 5.37284,-8.43662 -1.97126,-16.5768 -5.33504,-3.96142 l -30.7476,73.0524 16.5744,-81.587 c 4.17165,-9.04843 -4.75276,-16.663 -5.63858,-2.43898 l -16.7587,82.1221 1.6689,-86.3894 c 2.22165,-11.0941 -7.45512,-14.061 -5.79095,-0.76181 l -1.70197,88.3264 -14.9055,-88.0229 c 0,-11.7272 -9.72166,-10.7386 -5.79095,1.06772 z" id="path3069"/><path d="m 234.874,684.893 -7.52835,89.537 -9.08386,-88.4705 c 0,-14.3469 -9.00945,-8.26654 -5.79095,1.37126 l 10.5154,101.958 4.57205,16.1551 9.60118,-12.6496 43.4315,-88.8508 c 5.10945,-6.24213 -0.26693,-17.8075 -4.87677,-3.96142 l -36.7122,75.0992 23.3055,-83.1768 c 4.68307,-10.9358 -3.90709,-15.0602 -5.4874,-2.43898 l -23.5736,84.5268 7.41851,-88.6406 c 2.98465,-11.2016 -6.64134,-14.1543 -5.79095,-0.45827 z" id="path3071"/><path d="m 938.35,691.844 23.3055,83.1815 -36.7181,-75.1028 c -3.6319,-10.9063 -12.3791,-5.21102 -4.8768,3.96142 l 43.435,88.8496 9.6,12.6496 4.5733,-16.1551 10.5154,-101.958 c 3.2952,-9.88465 -5.791,-15.6614 -5.791,-1.37126 l -9.0839,88.4788 -7.5283,-89.5453 c 0.8492,-13.6618 -8.7886,-10.7858 -5.791,0.45827 l 7.4186,88.6406 -23.5724,-84.5268 c -1.3406,-10.702 -10.4528,-9.15827 -5.4863,2.43898 z" id="path3073"/><path d="m 804.18,669.127 -14.9988,88.2803 30.6957,-82.6406 c 3.5516,-14.2075 11.2394,-6.71221 5.335,2.89488 l -29.90906,80.1402 42.55746,-70.8437 c 5.2323,-13.0701 11.1886,-2.35276 4.5733,4.2685 l -42.44533,70.7398 52.96063,-57.7854 c 7.7008,-10.2661 11.4413,0.13819 3.6555,5.79095 l -63.39692,69.0378 -12.0402,8.53465 -8.53347,-12.3461 -36.8799,-87.4784 c -4.3311,-6.79961 1.83543,-17.0764 5.33268,-3.96142 l 30.7465,73.0524 -16.5732,-81.587 c -4.59567,-9.96496 4.89567,-14.3846 5.63976,-2.43898 l 16.7563,82.1197 -1.6689,-86.387 c -1.89921,-9.48662 7.49291,-14.4165 5.79095,-0.76181 l 1.70197,88.3276 14.9091,-88.024 c 0,-11.9764 9.96143,-11.4555 5.79093,1.06772 z" id="path3075"/></svg>