<?xml version="1.0" encoding="UTF-8" standalone="no"?>
<!DOCTYPE svg PUBLIC "-//W3C//DTD SVG 1.1//EN" "http://www.w3.org/Graphics/SVG/1.1/DTD/svg11.dtd">
<svg xmlns="http://www.w3.org/2000/svg" version="1.1" viewBox="0.00 0.00 1773.00 1182.00">
<g stroke-width="2.00" fill="none" stroke-linecap="butt">
<path stroke="#8080ff" vector-effect="non-scaling-stroke" d="
  M 1773.00 394.00
  L 735.19 394.00"
/>
<path stroke="#ff8080" vector-effect="non-scaling-stroke" d="
  M 735.19 394.00
  L 745.17 232.84
  Q 745.20 232.28 744.70 232.05
  L 734.27 227.28"
/>
<path stroke="#8080ff" vector-effect="non-scaling-stroke" d="
  M 734.27 227.28
  Q 682.23 204.16 625.50 198.75
  Q 533.16 189.94 447.72 227.21"
/>
<path stroke="#ff8080" vector-effect="non-scaling-stroke" d="
  M 447.72 227.21
  L 437.37 232.03
  Q 436.88 232.26 436.91 232.80
  L 447.00 394.28"
/>
<path stroke="#8080ff" vector-effect="non-scaling-stroke" d="
  M 447.00 394.28
  L 0.00 394.01"
/>
<path stroke="#800080" vector-effect="non-scaling-stroke" d="
  M 734.27 227.28
  Q 728.69 318.85 722.77 409.81
  C 717.63 488.91 666.34 553.98 591.41 579.11
  Q 590.96 579.26 590.52 579.11
  C 516.53 554.47 464.67 489.24 459.26 411.25
  Q 456.50 371.59 447.72 227.21"
/>
<path stroke="#808080" vector-effect="non-scaling-stroke" d="
  M 555.16 221.06
  A 0.42 0.42 0.0 0 1 554.73 220.81
  L 550.90 212.18
  A 0.42 0.42 0.0 0 0 550.14 212.18
  L 546.31 220.81
  A 0.42 0.42 0.0 0 1 545.88 221.06
  L 536.49 220.06
  A 0.42 0.42 0.0 0 0 536.10 220.72
  L 541.67 228.35
  A 0.42 0.42 0.0 0 1 541.67 228.85
  L 536.10 236.48
  A 0.42 0.42 0.0 0 0 536.49 237.14
  L 545.88 236.14
  A 0.42 0.42 0.0 0 1 546.31 236.39
  L 550.14 245.02
  A 0.42 0.42 0.0 0 0 550.90 245.02
  L 554.73 236.39
  A 0.42 0.42 0.0 0 1 555.16 236.14
  L 564.55 237.14
  A 0.42 0.42 0.0 0 0 564.94 236.48
  L 559.37 228.85
  A 0.42 0.42 0.0 0 1 559.37 228.35
  L 564.94 220.72
  A 0.42 0.42 0.0 0 0 564.55 220.06
  L 555.16 221.06"
/>
<path stroke="#808080" vector-effect="non-scaling-stroke" d="
  M 636.09 221.06
  A 0.35 0.35 0.0 0 1 635.73 220.85
  L 631.81 212.11
  A 0.35 0.35 0.0 0 0 631.17 212.11
  L 627.25 220.85
  A 0.35 0.35 0.0 0 1 626.89 221.06
  L 617.36 220.08
  A 0.35 0.35 0.0 0 0 617.04 220.64
  L 622.65 228.41
  A 0.35 0.35 0.0 0 1 622.65 228.81
  L 617.04 236.58
  A 0.35 0.35 0.0 0 0 617.36 237.14
  L 626.89 236.16
  A 0.35 0.35 0.0 0 1 627.25 236.37
  L 631.17 245.11
  A 0.35 0.35 0.0 0 0 631.81 245.11
  L 635.73 236.37
  A 0.35 0.35 0.0 0 1 636.09 236.16
  L 645.62 237.14
  A 0.35 0.35 0.0 0 0 645.94 236.58
  L 640.33 228.81
  A 0.35 0.35 0.0 0 1 640.33 228.41
  L 645.94 220.64
  A 0.35 0.35 0.0 0 0 645.62 220.08
  L 636.09 221.06"
/>
<path stroke="#808080" vector-effect="non-scaling-stroke" d="
  M 595.86 274.75
  A 0.53 0.53 0.0 0 1 595.33 274.44
  L 591.50 266.07
  A 0.53 0.53 0.0 0 0 590.54 266.07
  L 586.71 274.44
  A 0.53 0.53 0.0 0 1 586.18 274.75
  L 577.01 273.88
  A 0.53 0.53 0.0 0 0 576.53 274.71
  L 581.87 282.21
  A 0.53 0.53 0.0 0 1 581.87 282.83
  L 576.53 290.33
  A 0.53 0.53 0.0 0 0 577.01 291.16
  L 586.18 290.29
  A 0.53 0.53 0.0 0 1 586.71 290.60
  L 590.54 298.97
  A 0.53 0.53 0.0 0 0 591.50 298.97
  L 595.33 290.60
  A 0.53 0.53 0.0 0 1 595.86 290.29
  L 605.03 291.16
  A 0.53 0.53 0.0 0 0 605.51 290.33
  L 600.17 282.83
  A 0.53 0.53 0.0 0 1 600.17 282.21
  L 605.51 274.71
  A 0.53 0.53 0.0 0 0 605.03 273.88
  L 595.86 274.75"
/>
<path stroke="#8080ff" vector-effect="non-scaling-stroke" d="
  M 555.89 389.90
  L 533.64 360.29
  A 0.57 0.57 0.0 0 0 532.72 360.29
  L 475.54 436.53
  A 1.28 1.25 -28.6 0 0 475.28 437.38
  C 477.06 468.10 507.24 484.20 534.32 469.55
  Q 548.74 461.75 565.26 467.25
  C 569.52 468.66 574.93 472.13 579.45 473.53
  Q 592.54 477.58 605.69 472.41
  C 609.65 470.86 614.15 467.86 618.37 466.69
  Q 633.80 462.44 647.86 469.57
  Q 654.23 472.80 656.00 473.37
  C 680.83 481.37 706.04 463.39 706.54 437.15
  Q 706.55 436.64 706.24 436.24
  L 649.28 360.29
  A 0.58 0.58 0.0 0 0 648.35 360.29
  L 626.01 390.05
  A 0.31 0.30 -40.1 0 1 625.49 390.01
  L 591.31 321.70
  A 0.32 0.32 0.0 0 0 590.74 321.70
  L 556.64 389.83
  Q 556.32 390.47 555.89 389.90"
/>
<path stroke="#8080ff" vector-effect="non-scaling-stroke" d="
  M 498.70 494.27
  C 511.28 499.57 521.82 498.15 533.55 492.06
  Q 548.47 484.31 564.76 489.35
  C 568.79 490.60 573.52 493.55 577.06 494.95
  Q 589.86 500.03 603.70 495.45
  C 608.42 493.89 614.04 490.15 619.09 488.78
  C 630.53 485.68 639.33 487.72 649.60 492.94
  Q 664.90 500.72 681.78 495.09
  C 685.91 493.71 690.48 483.35 692.50 479.41
  A 0.34 0.34 0.0 0 0 692.04 478.95
  C 680.37 485.08 671.08 488.57 658.03 485.10
  C 650.94 483.22 644.93 478.61 637.96 477.11
  Q 628.75 475.14 619.68 477.48
  C 613.86 478.98 607.14 483.48 600.75 485.22
  Q 590.86 487.92 580.55 484.99
  C 575.56 483.57 569.67 479.80 565.19 478.32
  Q 552.87 474.25 540.71 478.01
  C 535.00 479.78 529.90 483.43 524.38 484.98
  C 510.56 488.84 502.17 484.76 489.95 479.03
  A 0.35 0.35 0.0 0 0 489.48 479.50
  Q 493.08 486.53 497.37 493.15
  Q 497.87 493.92 498.70 494.27"
/>
<path stroke="#8080ff" vector-effect="non-scaling-stroke" d="
  M 508.44 508.99
  C 528.60 535.86 559.58 556.56 590.53 567.30
  Q 591.06 567.49 591.60 567.30
  Q 640.96 549.84 673.52 508.99
  Q 673.94 508.47 673.28 508.52
  Q 660.47 509.60 649.32 503.95
  C 634.56 496.46 624.22 496.84 609.53 504.07
  C 599.48 509.02 588.89 510.19 578.07 506.43
  C 573.53 504.86 568.17 501.39 563.38 500.04
  C 551.07 496.55 542.51 499.12 531.51 504.49
  Q 520.89 509.68 508.72 508.48
  Q 508.01 508.41 508.44 508.99"
/>
<path stroke="#800080" vector-effect="non-scaling-stroke" d="
  M 735.19 394.00
  Q 733.55 419.61 732.21 427.94
  C 719.75 505.33 666.79 567.60 591.71 590.61
  Q 590.89 590.86 589.19 590.31
  C 533.64 572.34 490.78 535.03 466.19 482.13
  Q 452.79 453.33 449.26 423.25
  Q 448.01 412.58 447.00 394.28"
/>
<path stroke="#800080" vector-effect="non-scaling-stroke" d="
  M 1773.00 788.00
  L 0.00 788.00"
/>
</g>
<path fill="#ffffff" d="
  M 0.00 0.00
  L 1773.00 0.00
  L 1773.00 394.00
  L 735.19 394.00
  L 745.17 232.84
  Q 745.20 232.28 744.70 232.05
  L 734.27 227.28
  Q 682.23 204.16 625.50 198.75
  Q 533.16 189.94 447.72 227.21
  L 437.37 232.03
  Q 436.88 232.26 436.91 232.80
  L 447.00 394.28
  L 0.00 394.01
  L 0.00 0.00
  Z"
/>
<path fill="#0000ff" d="
  M 734.27 227.28
  Q 728.69 318.85 722.77 409.81
  C 717.63 488.91 666.34 553.98 591.41 579.11
  Q 590.96 579.26 590.52 579.11
  C 516.53 554.47 464.67 489.24 459.26 411.25
  Q 456.50 371.59 447.72 227.21
  Q 533.16 189.94 625.50 198.75
  Q 682.23 204.16 734.27 227.28
  Z
  M 555.16 221.06
  A 0.42 0.42 0.0 0 1 554.73 220.81
  L 550.90 212.18
  A 0.42 0.42 0.0 0 0 550.14 212.18
  L 546.31 220.81
  A 0.42 0.42 0.0 0 1 545.88 221.06
  L 536.49 220.06
  A 0.42 0.42 0.0 0 0 536.10 220.72
  L 541.67 228.35
  A 0.42 0.42 0.0 0 1 541.67 228.85
  L 536.10 236.48
  A 0.42 0.42 0.0 0 0 536.49 237.14
  L 545.88 236.14
  A 0.42 0.42 0.0 0 1 546.31 236.39
  L 550.14 245.02
  A 0.42 0.42 0.0 0 0 550.90 245.02
  L 554.73 236.39
  A 0.42 0.42 0.0 0 1 555.16 236.14
  L 564.55 237.14
  A 0.42 0.42 0.0 0 0 564.94 236.48
  L 559.37 228.85
  A 0.42 0.42 0.0 0 1 559.37 228.35
  L 564.94 220.72
  A 0.42 0.42 0.0 0 0 564.55 220.06
  L 555.16 221.06
  Z
  M 636.09 221.06
  A 0.35 0.35 0.0 0 1 635.73 220.85
  L 631.81 212.11
  A 0.35 0.35 0.0 0 0 631.17 212.11
  L 627.25 220.85
  A 0.35 0.35 0.0 0 1 626.89 221.06
  L 617.36 220.08
  A 0.35 0.35 0.0 0 0 617.04 220.64
  L 622.65 228.41
  A 0.35 0.35 0.0 0 1 622.65 228.81
  L 617.04 236.58
  A 0.35 0.35 0.0 0 0 617.36 237.14
  L 626.89 236.16
  A 0.35 0.35 0.0 0 1 627.25 236.37
  L 631.17 245.11
  A 0.35 0.35 0.0 0 0 631.81 245.11
  L 635.73 236.37
  A 0.35 0.35 0.0 0 1 636.09 236.16
  L 645.62 237.14
  A 0.35 0.35 0.0 0 0 645.94 236.58
  L 640.33 228.81
  A 0.35 0.35 0.0 0 1 640.33 228.41
  L 645.94 220.64
  A 0.35 0.35 0.0 0 0 645.62 220.08
  L 636.09 221.06
  Z
  M 595.86 274.75
  A 0.53 0.53 0.0 0 1 595.33 274.44
  L 591.50 266.07
  A 0.53 0.53 0.0 0 0 590.54 266.07
  L 586.71 274.44
  A 0.53 0.53 0.0 0 1 586.18 274.75
  L 577.01 273.88
  A 0.53 0.53 0.0 0 0 576.53 274.71
  L 581.87 282.21
  A 0.53 0.53 0.0 0 1 581.87 282.83
  L 576.53 290.33
  A 0.53 0.53 0.0 0 0 577.01 291.16
  L 586.18 290.29
  A 0.53 0.53 0.0 0 1 586.71 290.60
  L 590.54 298.97
  A 0.53 0.53 0.0 0 0 591.50 298.97
  L 595.33 290.60
  A 0.53 0.53 0.0 0 1 595.86 290.29
  L 605.03 291.16
  A 0.53 0.53 0.0 0 0 605.51 290.33
  L 600.17 282.83
  A 0.53 0.53 0.0 0 1 600.17 282.21
  L 605.51 274.71
  A 0.53 0.53 0.0 0 0 605.03 273.88
  L 595.86 274.75
  Z
  M 555.89 389.90
  L 533.64 360.29
  A 0.57 0.57 0.0 0 0 532.72 360.29
  L 475.54 436.53
  A 1.28 1.25 -28.6 0 0 475.28 437.38
  C 477.06 468.10 507.24 484.20 534.32 469.55
  Q 548.74 461.75 565.26 467.25
  C 569.52 468.66 574.93 472.13 579.45 473.53
  Q 592.54 477.58 605.69 472.41
  C 609.65 470.86 614.15 467.86 618.37 466.69
  Q 633.80 462.44 647.86 469.57
  Q 654.23 472.80 656.00 473.37
  C 680.83 481.37 706.04 463.39 706.54 437.15
  Q 706.55 436.64 706.24 436.24
  L 649.28 360.29
  A 0.58 0.58 0.0 0 0 648.35 360.29
  L 626.01 390.05
  A 0.31 0.30 -40.1 0 1 625.49 390.01
  L 591.31 321.70
  A 0.32 0.32 0.0 0 0 590.74 321.70
  L 556.64 389.83
  Q 556.32 390.47 555.89 389.90
  Z
  M 498.70 494.27
  C 511.28 499.57 521.82 498.15 533.55 492.06
  Q 548.47 484.31 564.76 489.35
  C 568.79 490.60 573.52 493.55 577.06 494.95
  Q 589.86 500.03 603.70 495.45
  C 608.42 493.89 614.04 490.15 619.09 488.78
  C 630.53 485.68 639.33 487.72 649.60 492.94
  Q 664.90 500.72 681.78 495.09
  C 685.91 493.71 690.48 483.35 692.50 479.41
  A 0.34 0.34 0.0 0 0 692.04 478.95
  C 680.37 485.08 671.08 488.57 658.03 485.10
  C 650.94 483.22 644.93 478.61 637.96 477.11
  Q 628.75 475.14 619.68 477.48
  C 613.86 478.98 607.14 483.48 600.75 485.22
  Q 590.86 487.92 580.55 484.99
  C 575.56 483.57 569.67 479.80 565.19 478.32
  Q 552.87 474.25 540.71 478.01
  C 535.00 479.78 529.90 483.43 524.38 484.98
  C 510.56 488.84 502.17 484.76 489.95 479.03
  A 0.35 0.35 0.0 0 0 489.48 479.50
  Q 493.08 486.53 497.37 493.15
  Q 497.87 493.92 498.70 494.27
  Z
  M 508.44 508.99
  C 528.60 535.86 559.58 556.56 590.53 567.30
  Q 591.06 567.49 591.60 567.30
  Q 640.96 549.84 673.52 508.99
  Q 673.94 508.47 673.28 508.52
  Q 660.47 509.60 649.32 503.95
  C 634.56 496.46 624.22 496.84 609.53 504.07
  C 599.48 509.02 588.89 510.19 578.07 506.43
  C 573.53 504.86 568.17 501.39 563.38 500.04
  C 551.07 496.55 542.51 499.12 531.51 504.49
  Q 520.89 509.68 508.72 508.48
  Q 508.01 508.41 508.44 508.99
  Z"
/>
<path fill="#ffff00" d="
  M 555.16 221.06
  L 564.55 220.06
  A 0.42 0.42 0.0 0 1 564.94 220.72
  L 559.37 228.35
  A 0.42 0.42 0.0 0 0 559.37 228.85
  L 564.94 236.48
  A 0.42 0.42 0.0 0 1 564.55 237.14
  L 555.16 236.14
  A 0.42 0.42 0.0 0 0 554.73 236.39
  L 550.90 245.02
  A 0.42 0.42 0.0 0 1 550.14 245.02
  L 546.31 236.39
  A 0.42 0.42 0.0 0 0 545.88 236.14
  L 536.49 237.14
  A 0.42 0.42 0.0 0 1 536.10 236.48
  L 541.67 228.85
  A 0.42 0.42 0.0 0 0 541.67 228.35
  L 536.10 220.72
  A 0.42 0.42 0.0 0 1 536.49 220.06
  L 545.88 221.06
  A 0.42 0.42 0.0 0 0 546.31 220.81
  L 550.14 212.18
  A 0.42 0.42 0.0 0 1 550.90 212.18
  L 554.73 220.81
  A 0.42 0.42 0.0 0 0 555.16 221.06
  Z"
/>
<path fill="#ffff00" d="
  M 636.09 221.06
  L 645.62 220.08
  A 0.35 0.35 0.0 0 1 645.94 220.64
  L 640.33 228.41
  A 0.35 0.35 0.0 0 0 640.33 228.81
  L 645.94 236.58
  A 0.35 0.35 0.0 0 1 645.62 237.14
  L 636.09 236.16
  A 0.35 0.35 0.0 0 0 635.73 236.37
  L 631.81 245.11
  A 0.35 0.35 0.0 0 1 631.17 245.11
  L 627.25 236.37
  A 0.35 0.35 0.0 0 0 626.89 236.16
  L 617.36 237.14
  A 0.35 0.35 0.0 0 1 617.04 236.58
  L 622.65 228.81
  A 0.35 0.35 0.0 0 0 622.65 228.41
  L 617.04 220.64
  A 0.35 0.35 0.0 0 1 617.36 220.08
  L 626.89 221.06
  A 0.35 0.35 0.0 0 0 627.25 220.85
  L 631.17 212.11
  A 0.35 0.35 0.0 0 1 631.81 212.11
  L 635.73 220.85
  A 0.35 0.35 0.0 0 0 636.09 221.06
  Z"
/>
<path fill="#ff0000" d="
  M 447.72 227.21
  Q 456.50 371.59 459.26 411.25
  C 464.67 489.24 516.53 554.47 590.52 579.11
  Q 590.96 579.26 591.41 579.11
  C 666.34 553.98 717.63 488.91 722.77 409.81
  Q 728.69 318.85 734.27 227.28
  L 744.70 232.05
  Q 745.20 232.28 745.17 232.84
  L 735.19 394.00
  Q 733.55 419.61 732.21 427.94
  C 719.75 505.33 666.79 567.60 591.71 590.61
  Q 590.89 590.86 589.19 590.31
  C 533.64 572.34 490.78 535.03 466.19 482.13
  Q 452.79 453.33 449.26 423.25
  Q 448.01 412.58 447.00 394.28
  L 436.91 232.80
  Q 436.88 232.26 437.37 232.03
  L 447.72 227.21
  Z"
/>
<path fill="#ffff00" d="
  M 595.86 274.75
  L 605.03 273.88
  A 0.53 0.53 0.0 0 1 605.51 274.71
  L 600.17 282.21
  A 0.53 0.53 0.0 0 0 600.17 282.83
  L 605.51 290.33
  A 0.53 0.53 0.0 0 1 605.03 291.16
  L 595.86 290.29
  A 0.53 0.53 0.0 0 0 595.33 290.60
  L 591.50 298.97
  A 0.53 0.53 0.0 0 1 590.54 298.97
  L 586.71 290.60
  A 0.53 0.53 0.0 0 0 586.18 290.29
  L 577.01 291.16
  A 0.53 0.53 0.0 0 1 576.53 290.33
  L 581.87 282.83
  A 0.53 0.53 0.0 0 0 581.87 282.21
  L 576.53 274.71
  A 0.53 0.53 0.0 0 1 577.01 273.88
  L 586.18 274.75
  A 0.53 0.53 0.0 0 0 586.71 274.44
  L 590.54 266.07
  A 0.53 0.53 0.0 0 1 591.50 266.07
  L 595.33 274.44
  A 0.53 0.53 0.0 0 0 595.86 274.75
  Z"
/>
<path fill="#ffffff" d="
  M 556.64 389.83
  L 590.74 321.70
  A 0.32 0.32 0.0 0 1 591.31 321.70
  L 625.49 390.01
  A 0.31 0.30 -40.1 0 0 626.01 390.05
  L 648.35 360.29
  A 0.58 0.58 0.0 0 1 649.28 360.29
  L 706.24 436.24
  Q 706.55 436.64 706.54 437.15
  C 706.04 463.39 680.83 481.37 656.00 473.37
  Q 654.23 472.80 647.86 469.57
  Q 633.80 462.44 618.37 466.69
  C 614.15 467.86 609.65 470.86 605.69 472.41
  Q 592.54 477.58 579.45 473.53
  C 574.93 472.13 569.52 468.66 565.26 467.25
  Q 548.74 461.75 534.32 469.55
  C 507.24 484.20 477.06 468.10 475.28 437.38
  A 1.28 1.25 -28.6 0 1 475.54 436.53
  L 532.72 360.29
  A 0.57 0.57 0.0 0 1 533.64 360.29
  L 555.89 389.90
  Q 556.32 390.47 556.64 389.83
  Z"
/>
<path fill="#0000ff" d="
  M 447.00 394.28
  Q 448.01 412.58 449.26 423.25
  Q 452.79 453.33 466.19 482.13
  C 490.78 535.03 533.64 572.34 589.19 590.31
  Q 590.89 590.86 591.71 590.61
  C 666.79 567.60 719.75 505.33 732.21 427.94
  Q 733.55 419.61 735.19 394.00
  L 1773.00 394.00
  L 1773.00 788.00
  L 0.00 788.00
  L 0.00 394.01
  L 447.00 394.28
  Z"
/>
<path fill="#ffffff" d="
  M 498.70 494.27
  Q 497.87 493.92 497.37 493.15
  Q 493.08 486.53 489.48 479.50
  A 0.35 0.35 0.0 0 1 489.95 479.03
  C 502.17 484.76 510.56 488.84 524.38 484.98
  C 529.90 483.43 535.00 479.78 540.71 478.01
  Q 552.87 474.25 565.19 478.32
  C 569.67 479.80 575.56 483.57 580.55 484.99
  Q 590.86 487.92 600.75 485.22
  C 607.14 483.48 613.86 478.98 619.68 477.48
  Q 628.75 475.14 637.96 477.11
  C 644.93 478.61 650.94 483.22 658.03 485.10
  C 671.08 488.57 680.37 485.08 692.04 478.95
  A 0.34 0.34 0.0 0 1 692.50 479.41
  C 690.48 483.35 685.91 493.71 681.78 495.09
  Q 664.90 500.72 649.60 492.94
  C 639.33 487.72 630.53 485.68 619.09 488.78
  C 614.04 490.15 608.42 493.89 603.70 495.45
  Q 589.86 500.03 577.06 494.95
  C 573.52 493.55 568.79 490.60 564.76 489.35
  Q 548.47 484.31 533.55 492.06
  C 521.82 498.15 511.28 499.57 498.70 494.27
  Z"
/>
<path fill="#ffffff" d="
  M 590.53 567.30
  C 559.58 556.56 528.60 535.86 508.44 508.99
  Q 508.01 508.41 508.72 508.48
  Q 520.89 509.68 531.51 504.49
  C 542.51 499.12 551.07 496.55 563.38 500.04
  C 568.17 501.39 573.53 504.86 578.07 506.43
  C 588.89 510.19 599.48 509.02 609.53 504.07
  C 624.22 496.84 634.56 496.46 649.32 503.95
  Q 660.47 509.60 673.28 508.52
  Q 673.94 508.47 673.52 508.99
  Q 640.96 549.84 591.60 567.30
  Q 591.06 567.49 590.53 567.30
  Z"
/>
<path fill="#ff0000" d="
  M 1773.00 788.00
  L 1773.00 1182.00
  L 0.00 1182.00
  L 0.00 788.00
  L 1773.00 788.00
  Z"
/>
</svg>
