<svg xmlns="http://www.w3.org/2000/svg" viewBox="0 0 600 700" width="600" height="700">
  <defs>
    <!-- Flag Emblem -->
    <g id="emblem">
        <path fill="#fff" d="m269.993 459.98-3.906-1.867c-25.267-12.173-56.294-30.4-81.294-58.133-25-27.733-43.8-65.307-43.8-114.24 0-93.6 4.52-136.68 4.52-136.68l.84-8.067h247.28l.84 8.067s4.534 43.093 4.534 136.68c0 48.933-18.8 86.507-43.814 114.24-25 27.733-56.026 45.96-81.293 58.133Z"/><path fill="#ed1c24" d="M270 450c-49.38-23.76-120-70.94-120-164.25S154.46 150 154.46 150h231.07S390 192.44 390 285.75 319.37 426.24 270 450"/><path fill="#fff" d="M280.56 261.28c13.36.22 39.45.74 62.67-7.03 0 0-.61 8.31-.61 17.99 0 9.67.61 17.98.61 17.98-21.3-7.12-47.61-7.27-62.67-7.08v51.54h-21.12v-51.54c-15.07-.2-41.37-.04-62.68 7.08 0 0 .62-8.3.62-17.98s-.62-17.99-.62-17.99c23.23 7.77 49.31 7.25 62.68 7.03v-32.37c-12.19-.1-29.74.48-49.6 7.12 0 0 .62-8.3.62-17.98s-.62-17.98-.62-17.98c19.83 6.62 37.36 7.22 49.54 7.11-.62-20.5-6.6-46.33-6.6-46.33s12.3.96 17.22.96c4.92 0 17.21-.96 17.21-.96s-5.97 25.83-6.6 46.33c12.18.1 29.72-.49 49.55-7.11 0 0-.62 8.3-.62 17.98 0 9.67.62 17.98.62 17.98-19.86-6.64-37.42-7.22-49.6-7.12v32.37"/><path fill="#254aa5" d="M270 329.1c-24.87 0-38.19 34.46-38.19 34.46s-7.4-16.34-27.68-16.34c-13.73 0-23.82 12.2-30.25 23.5 24.97 39.7 64.8 64.2 96.11 79.28 31.32-15.07 71.16-39.58 96.13-79.28-6.43-11.3-16.52-23.5-30.25-23.5a30.52 30.52 0 0 0-27.69 16.34s-13.32-34.46-38.19-34.46Z"/></g>

    <!-- Antique brass border -->
    <linearGradient id="antique-brass" x1="0%" y1="0%" x2="100%" y2="100%">
      <stop offset="0%" stop-color="#e0c477"></stop>
      <stop offset="28%" stop-color="#9d7937"></stop>
      <stop offset="55%" stop-color="#d1ad5f"></stop>
      <stop offset="78%" stop-color="#755526"></stop>
      <stop offset="100%" stop-color="#c9a85d"></stop>
    </linearGradient>

    <!-- Dark inner edge -->
    <linearGradient id="dark-edge" x1="0%" y1="0%" x2="0%" y2="100%">
      <stop offset="0%" stop-color="#40392f"></stop>
      <stop offset="100%" stop-color="#171916"></stop>
    </linearGradient>

    <!-- Main shield shape for clipping flags or artwork -->
    <clipPath id="shield-clip">
      <path d="
        M 118 112
        Q 118 90 140 90
        L 460 90
        Q 482 90 482 112
        L 482 350
        C 482 470 410 566 300 630
        C 190 566 118 470 118 350
        Z"></path>
    </clipPath>
  </defs>

  <!-- Complete shield group -->
  <g id="shield" filter="url(#shield-shadow)">

    <!-- Exterior brass frame -->
    <path id="shield-outer" d="
            M 104 100
            Q 104 74 132 74
            L 468 74
            Q 496 74 496 100
            L 496 354
            C 496 488 416 590 300 660
            C 184 590 104 488 104 354
            Z" fill="url(#antique-brass)" stroke="#3b2b16" stroke-width="0" stroke-linejoin="round"></path>

    <!-- Dark recessed border -->
    <path id="shield-recess" d="
            M 116 116
            Q 116 88 140 88
            L 460 88
            Q 484 88 484 110
            L 484 350
            C 484 474 409 568 300 631
            C 191 568 116 474 116 350
            Z" fill="#00000000" stroke="#dfc373" stroke-width="3" stroke-linejoin="round"></path>

    <!-- FLAG ARTWORK -->
  <g id="flag-art"
     clip-path="url(#shield-clip)"
     filter="url(#paper-grain)">

    <!-- 
    ACTIVE EXAMPLE: horizontal tricolor -->
    <rect x="118" y="90" width="365" height="180" fill="#fff"/>
    <rect x="118" y="270" width="365" height="180" fill="#254aa5"/>
    <rect x="118" y="450" width="365" height="180" fill="#ed1c24"/>
    <use href="#emblem" transform="translate(83 130) scale(.8)" />
    
  </g>
    
    <!-- Small corner ornaments -->
    <g fill="#d6b863" stroke="#4b351a" stroke-width="0">
      <circle cx="145" cy="122" r="5"></circle>
      <circle cx="455" cy="122" r="5"></circle>
    </g>

  </g>
</svg>